<?xml version="1.0" encoding="UTF-8"?>
<!DOCTYPE svg PUBLIC "-//W3C//DTD SVG 1.1//EN" "http://www.w3.org/Graphics/SVG/1.1/DTD/svg11.dtd">
<!-- Creator: CorelDRAW -->
<svg xmlns="http://www.w3.org/2000/svg" xml:space="preserve" width="4.82386in" height="1.19289in" version="1.1" style="shape-rendering:geometricPrecision; text-rendering:geometricPrecision; image-rendering:optimizeQuality; fill-rule:evenodd; clip-rule:evenodd"
viewBox="0 0 4464.12 1103.93"
 xmlns:xlink="http://www.w3.org/1999/xlink"
 xmlns:xodm="http://www.corel.com/coreldraw/odm/2003">
 <defs>
  <style type="text/css">
   <![CDATA[
    .fil0 {fill:#0124DD;fill-rule:nonzero}
    .fil1 {fill:#114185;fill-rule:nonzero}
    .fil2 {fill:#FE6309;fill-rule:nonzero}
   ]]>
  </style>
 </defs>
 <g id="Layer_x0020_1">
  <metadata id="CorelCorpID_0Corel-Layer"/>
  <g id="Access_x0020_bank_x0020_PLC">
   <path class="fil0" d="M2356.84 36.4c0.61,-1.03 1.31,-1.03 2.16,0l-1.26 1.03 -0.89 -1.03z"/>
   <path class="fil1" d="M1279.18 396.84c13.55,-41 26.41,-79.74 38.98,-118.16 1.54,-4.69 4.69,-5.77 8.77,-6.52 67.88,-12.67 136.03,-23.46 205.36,-20.03 48.93,2.3 95.97,12.29 138.1,38.56 57.14,35.56 83.26,89.12 86.97,154.8 2.16,37.76 -3.99,75.05 -9.38,112.02 -11.21,75.33 -22.75,150.57 -33.58,225.91 -0.6,6.43 -4.67,12.03 -10.6,14.59 -44.19,24.25 -92.13,37.53 -141.38,45.59 -35.71,6.13 -71.99,9.31 -108.2,9.31 -25.46,0 -51.15,-1.62 -76.37,-4.65 -51.18,-6.43 -98.88,-22.33 -136.03,-59.95 -30.32,-31.05 -47.35,-72.85 -47.35,-116.32 0,-49.83 22.34,-97.07 60.85,-128.69 38.09,-31.33 83.12,-46.91 130.54,-56.99 71.82,-15.2 144.29,-13.13 216.81,-7.6 9.05,0.66 11.02,-2.11 11.45,-10.18 3.24,-56.57 -30.72,-97.2 -90.35,-108.12 -41.37,-7.6 -81.99,-1.03 -122.62,5.63 -41.35,6.75 -82.32,17.13 -121.93,30.79l-0.03 0.01zm253.68 170.65c-1.02,-0.01 -2.15,-0.01 -3.15,-0.01 -24.75,0 -49.51,1.89 -73.96,5.67 -27.58,4.69 -54.37,11.96 -76.6,30.25 -25.14,20.69 -31.85,48.46 -26.88,79.04 4.69,27.91 24.21,43.2 49.49,52.21 11.59,4.09 23.66,6.7 35.89,7.75 45.22,4.36 89.13,-3.52 132.75,-14.31 6.06,-0.79 10.59,-5.97 10.59,-12.09 0,-0.05 0,-0.11 0,-0.15 5.96,-44.33 11.87,-88.71 18.44,-132.94 1.13,-7.65 -1.41,-9.1 -7.79,-10.32 -19.39,-3.21 -39.13,-4.94 -58.78,-5.13l0.01 0.02z"/>
   <path class="fil1" d="M3373.34 705.77c-7.51,22.8 -14.07,43.2 -21.01,63.61 -5.54,16.75 -11.45,33.35 -16.7,50.24 -1.03,5.28 -5.14,9.43 -10.42,10.5 -71.77,19.14 -144.48,29.5 -218.59,20.17 -84.44,-10.65 -154.23,-46.91 -197.01,-124.35 -26.32,-47.94 -34.67,-100.15 -31.1,-153.95 6.8,-102.35 49.44,-187.21 128.71,-252.93 48.18,-39.97 104.37,-60.51 166.2,-66.61 42.64,-4.18 85.04,-3.38 126.65,8.21 84.72,23.46 141.19,89.36 152.03,176.61 6.24,50.14 0,99.4 -8.11,148.7 -0.99,6.15 -4.08,6.33 -8.77,6.33 -22.75,0 -45.55,0 -68.3,0 -109.45,0 -218.9,0 -328.35,0 -8.82,0 -11.4,2.16 -11.54,11.21 -1.22,73.74 39.5,122.43 111.97,134.86 53.57,9.38 105.68,1.26 157.7,-10.09 25.96,-5.76 51.65,-13.41 76.66,-22.54l-0.01 0.03zm-191.38 -209.21l105.07 0c32.09,0 32.09,0 33.17,-32.09 2.2,-64.97 -37.53,-107.32 -102.12,-110.93 -77.25,-4.36 -150.1,51.6 -168.87,134.62 -1.55,6.89 0,8.58 7.04,8.54 41.79,-0.33 83.5,-0.14 125.71,-0.14z"/>
   <path class="fil1" d="M3643.06 852.17c-68.78,-0.38 -137.37,-11.97 -202.54,-33.8 -6.52,-2.25 -8.26,-4.13 -5.91,-11.21 10.72,-32.47 20.99,-65.11 30.81,-97.91 2.44,-8.07 5.3,-7.41 11.78,-4.31 45.11,22.03 94.72,33.54 144.94,33.54 19.21,0 38.5,-1.73 57.38,-5.03 16.1,-2.44 31.44,-8.74 44.65,-18.29 13.41,-9.3 21.42,-24.59 21.42,-40.91 0,-13.82 -5.76,-27.04 -15.89,-36.45 -11.92,-11.02 -25.32,-20.39 -39.77,-27.76 -35.89,-20.08 -72.38,-38.89 -106.48,-62.15 -91.61,-62.71 -80.45,-193.26 9.76,-250.53 39.97,-25.38 83.73,-38.09 130.22,-42.92 77.49,-8.02 152.4,5.25 226.24,27.49 6.75,2.02 8.49,3.85 5.91,11.02 -11.12,30.82 -21.86,61.82 -31.95,93.02 -2.67,8.21 -5.86,7.6 -12.19,4.69 -44.55,-21.02 -93.28,-31.95 -142.54,-31.95 -1.75,0 -3.55,0.04 -5.26,0.04 -24.77,0.61 -48.93,4.69 -69.9,19.33 -13.9,8.86 -22.33,24.21 -22.33,40.7 0,4.82 0.73,9.63 2.15,14.23 4.04,11.33 11.67,21.03 21.72,27.63 21.72,16.33 46.58,27.35 70.36,40.39 29.04,15.12 56.93,32.83 83.03,52.62 77.3,61.35 69.47,178.25 -4.69,237.63 -47.85,38.23 -103.86,53.52 -163.43,58.96 -14.96,1.32 -29.83,1.56 -37.48,1.93z"/>
   <path class="fil1" d="M4149.05 852.17c-67.93,-0.6 -135.47,-11.98 -199.9,-33.46 -7.46,-2.49 -9.38,-4.69 -6.62,-12.57 10.6,-31.8 20.64,-63.79 30.4,-95.88 2.35,-7.79 4.69,-8.91 12.29,-5.25 45.17,21.98 94.87,33.44 145.09,33.44 18.82,0 37.72,-1.66 56.25,-4.82 14.66,-2.29 28.76,-7.53 41.34,-15.38 31.1,-19.84 34.9,-56.29 8.63,-81.81 -11,-9.88 -23.3,-18.36 -36.46,-25.1 -37.53,-21.3 -76.51,-40.34 -111.83,-65.67 -81.47,-58.87 -71.34,-165.4 -21.52,-218.87 33.58,-35.98 75.99,-55.3 123.04,-65.67 62.44,-14.07 124.82,-10.69 187.17,0.85 26.27,4.69 51.97,11.82 77.68,18.76 8.54,2.39 11.63,4.93 8.02,14.68 -10.84,29.41 -20.69,59.15 -30.26,89.12 -2.67,8.21 -5.34,9.39 -13.42,5.87 -44.65,-20.95 -93.47,-31.86 -142.83,-31.86 -0.94,0 -1.93,0 -2.87,0 -23.45,0.42 -46.11,3.89 -66.56,16.18 -19.37,11.59 -29.18,28.43 -26.27,51.6 1.83,14.73 10.7,25 21.86,33.45 23.45,17.78 50.43,29.5 75.94,43.58 29.09,16.09 57.79,32.84 83.17,54.46 71.12,60.98 63.09,174.03 -8.26,232.19 -38.32,31.29 -82.79,47.52 -130.78,55.91 -24.22,3.91 -48.78,6.09 -73.34,6.27l0.03 -0.02z"/>
   <path class="fil1" d="M2290.7 714.08c-2.39,14.07 -8.45,26.69 -12.9,39.97 -8.49,25.28 -17.54,50.33 -25.94,75.66 -1.27,5.19 -5.74,8.98 -11.07,9.38 -56.29,9.38 -113.19,15.34 -170.37,11.02 -85.32,-6.43 -158.5,-37.53 -208.79,-110.23 -35.46,-51.23 -47.99,-109.44 -44.84,-170.74 5.25,-102.26 48.6,-185.94 128.48,-250.02 45.78,-36.68 99.63,-54.69 157,-62.2 24.84,-3.46 49.98,-5.29 75.04,-5.29 46.42,0 92.77,6.14 137.62,18.02 13.23,3.61 25.98,8.68 38.98,12.9 4.69,1.5 5.91,3.52 4.18,8.63 -11.07,32.36 -22.04,64.83 -32.41,97.43 -2.3,7.18 -5.53,5.72 -10.18,3.89 -33.1,-13.56 -68.28,-21.83 -103.91,-24.35 -77.26,-4.36 -144.43,16.89 -192.65,81.2 -45.17,60.28 -52.16,160.38 -3.8,220.89 30.07,37.53 69.75,57.42 116.85,62.9 50.8,5.91 99.91,-3.89 148.41,-17.82 3.1,-0.89 6.24,-1.5 9.39,-2.25l0.91 1.02z"/>
   <path class="fil1" d="M2825.45 713.42c-10.79,31.05 -23.17,61.78 -32.04,93.49 -6.43,23.13 -17.26,34.1 -42.5,36.63 -70.36,7.04 -140.72,14.92 -211.09,-3.71 -110.65,-29.41 -182.94,-117.69 -188.94,-232.43 -6.57,-124.68 41.19,-224.31 141.62,-298 42.22,-30.91 91.47,-45.55 142.88,-52.26 24.82,-3.44 49.96,-5.28 75.04,-5.28 46.42,0 92.71,6.09 137.56,17.94 12.85,3.52 25.19,8.77 38,12.48 6.71,1.97 6.89,5.02 4.69,10.88 -10.74,31.38 -21.39,62.76 -31.38,94.38 -2.39,7.55 -5.25,7.27 -11.4,4.93 -49.16,-18.76 -99.44,-28.94 -152.49,-23.46 -90.11,9.66 -158.69,69.24 -176,156.91 -12.48,63.28 -1.03,121.17 49.4,165.96 40.2,35.65 89.12,45.6 141.24,42.55 36.7,-2.43 73.14,-9.4 108.16,-20.65 2.11,-0.36 3.99,-2.09 7.27,-0.36z"/>
   <polygon class="fil2" points="1038.45,584.33 454.11,0 454.11,89.69 948.76,584.33 948.95,584.52 520.49,1012.98 519.98,1012.46 91.8,584.33 91.42,583.96 301.62,373.76 210.38,373.76 -0,584.14 0.19,584.33 519.79,1103.93 519.98,1103.74 1038.92,584.8 "/>
   <polygon class="fil2" points="453.93,151.42 453.93,241.11 797.34,584.52 520.68,861.18 243.78,584.33 243.4,583.96 453.6,373.76 362.37,373.76 151.98,584.14 152.17,584.33 474.85,907.01 519.98,952.14 565.85,906.31 887.31,584.8 "/>
   <path class="fil2" d="M735.84 584.33l-171.35 -171.54 -45.6 -45.6 -44.84 44.84 -172.25 172.11 0 0 172.34 172.34 45.13 45.12 45.78 -45.83 171.26 -170.98 -0.47 -0.47zm-215.78 126.66l-126.65 -126.66 -0.38 -0.38 126.32 -126.32 126.66 126.65 0 0 -125.95 126.7z"/>
  </g>
 </g>
</svg>
