<?xml version="1.0" encoding="UTF-8" standalone="no"?>
<!-- Created with Inkscape (http://www.inkscape.org/) -->

<svg
   xmlns:dc="http://purl.org/dc/elements/1.1/"
   xmlns:cc="http://creativecommons.org/ns#"
   xmlns:rdf="http://www.w3.org/1999/02/22-rdf-syntax-ns#"
   xmlns:svg="http://www.w3.org/2000/svg"
   xmlns="http://www.w3.org/2000/svg"
   xmlns:sodipodi="http://sodipodi.sourceforge.net/DTD/sodipodi-0.dtd"
   xmlns:inkscape="http://www.inkscape.org/namespaces/inkscape"
   id="svg2"
   version="1.1"
   inkscape:version="0.48.1 "
   width="410"
   height="415"
   sodipodi:docname="actualite212195.jpg">
  <title
     id="title4768">Reda Kerbouche</title>
  <metadata
     id="metadata8">
    <rdf:RDF>
      <cc:Work
         rdf:about="">
        <dc:format>image/svg+xml</dc:format>
        <dc:type
           rdf:resource="http://purl.org/dc/dcmitype/StillImage" />
        <dc:title>Reda Kerbouche</dc:title>
      </cc:Work>
    </rdf:RDF>
  </metadata>
  <defs
     id="defs6" />
  <sodipodi:namedview
     pagecolor="#ffffff"
     bordercolor="#666666"
     borderopacity="1"
     objecttolerance="10"
     gridtolerance="10"
     guidetolerance="10"
     inkscape:pageopacity="0"
     inkscape:pageshadow="2"
     inkscape:window-width="1280"
     inkscape:window-height="750"
     id="namedview4"
     showgrid="false"
     inkscape:zoom="1.1657925"
     inkscape:cx="289.40446"
     inkscape:cy="230.59485"
     inkscape:window-x="-8"
     inkscape:window-y="-8"
     inkscape:window-maximized="1"
     inkscape:current-layer="svg2" />
  <g
     id="g4673"
     transform="translate(-635.6191,27.46713)">
    <g
       transform="translate(620.5516,-37.118165)"
       id="g3803">
      <path
         sodipodi:type="arc"
         style="fill:#005f27;fill-opacity:1;fill-rule:nonzero;stroke:#005f27;stroke-width:1;stroke-linecap:butt;stroke-linejoin:miter;stroke-miterlimit:4;stroke-opacity:1;stroke-dasharray:none;stroke-dashoffset:0"
         id="path2987"
         sodipodi:cx="225.6351"
         sodipodi:cy="54.980568"
         sodipodi:rx="17.28656"
         sodipodi:ry="17.210743"
         d="m 242.92166,54.980568 c 0,9.505231 -7.73946,17.210743 -17.28656,17.210743 -9.5471,0 -17.28656,-7.705512 -17.28656,-17.210743 0,-9.505231 7.73946,-17.210743 17.28656,-17.210743 9.5471,0 17.28656,7.705512 17.28656,17.210743 z"
         transform="translate(-7.5818249,-23.352021)" />
      <path
         style="fill:#005f27;fill-opacity:1;stroke:#005f27;stroke-width:1px;stroke-linecap:butt;stroke-linejoin:miter;stroke-opacity:1"
         d="m 219.07032,58.373994 -5.41449,0.0184 c 0,0 -14.80056,6.439837 -21.07748,11.372737 -6.97037,5.477866 -13.11979,12.230629 -17.80428,19.757158 -4.32042,6.941588 -7.80568,14.705631 -9.09819,22.779111 -0.82048,5.12505 -0.51825,10.56894 0.97263,15.54051 1.72341,5.74697 4.82696,11.25659 8.94655,15.61856 3.8339,4.05947 8.77952,7.25975 14.03623,9.1426 3.75527,1.34506 11.89362,1.32031 11.89362,1.32031 l -0.45491,56.86369 29.72075,0.15164 1.13728,-57.01532 c 0,0 8.37862,0.9867 12.13091,-0.53073 7.66805,-3.10096 14.42911,-9.29556 18.57547,-16.45256 3.62264,-6.25301 4.85478,-14.017 4.39746,-21.22911 -0.49718,-7.84066 -3.83068,-15.38125 -7.65764,-22.290565 -3.76757,-6.80209 -9.24171,-12.894594 -14.78456,-18.348017 -4.32014,-4.250434 -9.17632,-7.821494 -14.48129,-10.993646 -3.48053,-2.081215 -11.03806,-5.704765 -11.03806,-5.704768 z"
         id="path3757"
         inkscape:connector-curvature="0"
         sodipodi:nodetypes="ccaaaaaaccccaaasssc" />
      <path
         sodipodi:type="arc"
         style="fill:#ffffff;fill-opacity:1;fill-rule:nonzero;stroke:#005f27;stroke-width:0.98045415;stroke-linecap:butt;stroke-linejoin:miter;stroke-miterlimit:4;stroke-opacity:1;stroke-dasharray:none;stroke-dashoffset:0"
         id="path3759"
         sodipodi:cx="218.88728"
         sodipodi:cy="107.37098"
         sodipodi:rx="11.296919"
         sodipodi:ry="11.67601"
         d="m 230.1842,107.37098 c 0,6.44848 -5.0578,11.67601 -11.29692,11.67601 -6.23911,0 -11.29692,-5.22753 -11.29692,-11.67601 0,-6.44848 5.05781,-11.676011 11.29692,-11.676011 6.23912,0 11.29692,5.227531 11.29692,11.676011 z"
         transform="matrix(1.0402685,0,0,1,-10.482255,-1.6680015)" />
      <path
         sodipodi:type="arc"
         style="fill:#005f27;fill-opacity:1;fill-rule:nonzero;stroke:#005f27;stroke-width:1;stroke-linecap:butt;stroke-linejoin:miter;stroke-miterlimit:4;stroke-opacity:1;stroke-dasharray:none;stroke-dashoffset:0"
         id="path2987-6"
         sodipodi:cx="225.6351"
         sodipodi:cy="54.980568"
         sodipodi:rx="17.28656"
         sodipodi:ry="17.210743"
         d="m 242.92166,54.980568 c 0,9.505231 -7.73946,17.210743 -17.28656,17.210743 -9.5471,0 -17.28656,-7.705512 -17.28656,-17.210743 0,-9.505231 7.73946,-17.210743 17.28656,-17.210743 9.5471,0 17.28656,7.705512 17.28656,17.210743 z"
         transform="translate(83.596595,106.95469)" />
      <path
         sodipodi:type="arc"
         style="fill:#005f27;fill-opacity:1;fill-rule:nonzero;stroke:#005f27;stroke-width:1;stroke-linecap:butt;stroke-linejoin:miter;stroke-miterlimit:4;stroke-opacity:1;stroke-dasharray:none;stroke-dashoffset:0"
         id="path2987-1"
         sodipodi:cx="225.6351"
         sodipodi:cy="54.980568"
         sodipodi:rx="17.28656"
         sodipodi:ry="17.210743"
         d="m 242.92166,54.980568 c 0,9.505231 -7.73946,17.210743 -17.28656,17.210743 -9.5471,0 -17.28656,-7.705512 -17.28656,-17.210743 0,-9.505231 7.73946,-17.210743 17.28656,-17.210743 9.5471,0 17.28656,7.705512 17.28656,17.210743 z"
         transform="translate(95.605593,125.82598)" />
      <path
         sodipodi:type="arc"
         style="fill:#005f27;fill-opacity:1;fill-rule:nonzero;stroke:#005f27;stroke-width:1;stroke-linecap:butt;stroke-linejoin:miter;stroke-miterlimit:4;stroke-opacity:1;stroke-dasharray:none;stroke-dashoffset:0"
         id="path2987-5"
         sodipodi:cx="225.6351"
         sodipodi:cy="54.980568"
         sodipodi:rx="17.28656"
         sodipodi:ry="17.210743"
         d="m 242.92166,54.980568 c 0,9.505231 -7.73946,17.210743 -17.28656,17.210743 -9.5471,0 -17.28656,-7.705512 -17.28656,-17.210743 0,-9.505231 7.73946,-17.210743 17.28656,-17.210743 9.5471,0 17.28656,7.705512 17.28656,17.210743 z"
         transform="translate(-110.0485,130.97269)" />
      <path
         style="fill:#005f27;fill-opacity:1;stroke:#005f27;stroke-width:1px;stroke-linecap:butt;stroke-linejoin:miter;stroke-opacity:1"
         d="m 191.97181,216.01853 -0.15164,-48.90277 c -13.55524,13.37286 -13.46375,19.17714 -44.80859,34.04239 l 0.0758,8.87074 6.06546,-0.0758 c 3.54948,1.69596 6.43599,4.71785 6.97528,12.43419 0,0 -0.4154,8.56244 0,12.81329 0.4032,4.12603 4.44002,7.95098 8.26419,9.93219 2.83634,1.46944 6.71013,2.21474 9.5531,0.75818 8.64155,-4.42737 29.34166,-16.75583 29.34166,-16.75583 -2.52102,-3.91607 -5.8459,-7.65767 -10.69037,-11.06947 z"
         id="path3795"
         inkscape:connector-curvature="0"
         sodipodi:nodetypes="ccccccsasccc" />
      <path
         style="fill:#005f27;fill-opacity:1;stroke:#005f27;stroke-width:1px;stroke-linecap:butt;stroke-linejoin:miter;stroke-opacity:1"
         d="m 237.39216,165.3664 c 14.80515,21.01386 34.41432,24.12183 53.50437,29.16471 -6.87868,3.01691 -12.77965,7.29088 -16.83404,13.93902 l 0,28.41415 -73.019,36.992 0.21445,74.14484 c -1.00227,0.25057 -20.13641,-3.73904 -28.83227,-7.37081 -9.49796,-3.96676 -19.17891,-7.94775 -27.56713,-13.913 -10.01092,-7.11923 -18.91844,-15.94841 -26.48413,-25.62634 -5.44433,-6.96432 -9.53248,-14.94696 -13.29568,-22.94576 -2.8066,-5.96551 -5.218316,-12.16513 -6.862283,-18.54962 -1.613363,-6.26564 -2.297438,-12.75059 -2.895026,-19.19295 -1.123086,-12.10755 -1.286678,-36.45589 -1.286678,-36.45589 8.250437,18.0562 24.415097,26.51941 45.998747,28.41415 -4.76413,5.32542 -8.49044,10.65084 -10.82954,15.97626 0,0 -1.14023,8.91524 -0.10722,13.18845 1.59274,6.58859 5.2489,12.68269 9.43564,18.0135 8.10238,10.31643 29.53999,26.00162 29.53999,26.00162 l -0.10722,-45.73069 71.01398,-39.33823 z"
         id="path3797"
         inkscape:connector-curvature="0"
         sodipodi:nodetypes="ccccccsaaaaacccaacccc" />
      <path
         style="fill:#005f27;fill-opacity:1;stroke:#005f27;stroke-width:1px;stroke-linecap:butt;stroke-linejoin:miter;stroke-opacity:1"
         d="m 225.33184,266.43767 33.20839,-16.68002 7.50601,-0.15164 c 7.40544,2.09498 10.62019,7.04725 11.75182,13.41983 l 0.22746,35.10385 1.97127,0 c 0,0 12.5979,-10.02091 17.51402,-16.30092 5.29286,-6.76126 10.21848,-14.24288 12.51001,-22.51802 1.82881,-6.60415 1.65563,-13.76353 0.68236,-20.54675 -0.32123,-2.23881 -2.12291,-6.44455 -2.12291,-6.44455 0,0 -3.2126,0.34832 -4.54909,-0.37909 -0.98124,-0.53406 -1.69752,-1.59258 -2.04709,-2.65364 -0.22531,-0.68389 -0.22403,-1.49155 0.0444,-2.1597 0.49295,-1.22699 1.22487,-2.78908 2.68504,-2.92012 21.69937,-1.9474 37.46828,-25.81836 38.89476,-29.41748 0,0 1.20171,24.89498 0.3791,37.30258 -0.70601,10.64891 -1.66413,21.41708 -4.5491,31.69203 -3.06975,10.93303 -7.50639,21.6183 -13.41983,31.31293 -4.42158,7.24883 -10.04656,13.81271 -16.2251,19.63693 -6.44802,6.07824 -13.79483,11.24244 -21.45657,15.69438 -7.37499,4.28532 -15.34508,7.52296 -23.35202,10.46292 -6.12651,2.24951 -18.80293,5.45891 -18.80293,5.45891 l -0.31906,-70.32936 z"
         id="path3799"
         inkscape:connector-curvature="0"
         sodipodi:nodetypes="ccccccaaacaaascsaaaaaccc" />
      <path
         style="fill:#005f27;fill-opacity:1;stroke:#005f27;stroke-width:1px;stroke-linecap:butt;stroke-linejoin:miter;stroke-opacity:1"
         d="m 207.79855,299.82429 6.21895,0.10722 c 11.08013,-4.44956 15.43771,-9.85089 21.12297,-18.44238 0.90814,-1.37238 4.07569,1.14216 4.07448,2.7878 -0.0156,21.17402 0.10722,65.29892 0.10722,65.29892 0,0 -7.51126,7.17187 -12.00899,9.65009 -2.31648,1.27637 -4.88114,2.24586 -7.50563,2.57336 -5.1955,0.64833 -16.1724,-1.11118 -15.65459,-1.28668 6.74317,-2.28553 10.25064,-7.16234 11.15122,-9.2212 l -0.4289,-39.24368 z"
         id="path3801"
         inkscape:connector-curvature="0"
         sodipodi:nodetypes="ccsscaasccc" />
    </g>
    <g
       transform="translate(470.06649,-144.10797)"
       id="g4619">
      <path
         style="fill:#005f27;fill-opacity:1;stroke:#005f27;stroke-width:0.05;stroke-linecap:butt;stroke-linejoin:miter;stroke-miterlimit:4;stroke-opacity:1;stroke-dasharray:none"
         d="m 486.73912,483.26613 c 0,0 -17.48317,0.68039 -26.26968,1.28668 -2.98087,0.20568 -4.61569,3.83408 -7.18395,5.36115 -9.91067,5.89281 -31.4164,14.47514 -31.4164,14.47514 -0.26196,-0.0314 6.46449,4.77412 19.19295,5.25393 4.67342,0.17617 9.53971,-1.86345 13.95908,-3.64709 5.01355,-2.02344 9.54425,-3.96357 14.24062,-6.43189 6.00588,-3.15656 12.78744,-6.23084 16.51237,-11.90177 0.82366,-1.25396 0.96501,-4.39614 0.96501,-4.39614 z"
         id="path3843"
         inkscape:connector-curvature="0"
         sodipodi:nodetypes="csacsssac" />
      <path
         style="fill:#feff00;fill-opacity:1;stroke:#feff00;stroke-width:0.05;stroke-linecap:butt;stroke-linejoin:miter;stroke-miterlimit:4;stroke-opacity:1;stroke-dasharray:none"
         d="m 482.82915,481.11633 c 0,0 -17.48317,0.68039 -26.26968,1.28668 -2.98087,0.20568 -4.61569,3.83408 -7.18395,5.36115 -9.91067,5.89281 -31.41639,14.47514 -31.41639,14.47514 -0.26196,-0.0314 6.46449,4.77412 19.19294,5.25394 4.67342,0.17617 9.53971,-1.86346 13.95908,-3.64709 5.01355,-2.02344 9.54425,-3.96357 14.24062,-6.43189 6.00588,-3.15657 12.78744,-6.23084 16.51237,-11.90177 0.82366,-1.25396 0.96501,-4.39615 0.96501,-4.39615 z"
         id="path3843-5"
         inkscape:connector-curvature="0"
         sodipodi:nodetypes="csacsssac" />
      <path
         sodipodi:nodetypes="ccaaaaaacaacaacaaacaacaaaaaac"
         inkscape:connector-curvature="0"
         id="path3873"
         d="m 369.06541,529.84104 6.43339,0 c 0,0 7.28323,-10.18422 11.64068,-14.64515 3.40883,-3.4898 7.15199,-6.71078 11.24004,-9.37284 1.89148,-1.2317 3.88994,-2.41563 6.06954,-3.00225 4.77608,-1.28546 9.89014,-0.43419 14.80534,-0.98564 6.06316,-0.68023 12.38783,-0.66131 18.07855,-2.86139 2.92347,-1.13023 5.79095,-2.80615 7.86093,-5.15971 4.87976,-5.54827 9.69765,-19.93275 9.69765,-19.93275 0,0 -13.98401,-0.93076 -20.63442,0.84702 -5.22011,1.39543 -10.61616,3.61702 -14.36791,7.50562 -3.68517,3.81959 -6.86228,14.36791 -6.86228,14.36791 0,0 -6.69707,1.82784 -9.86454,3.2167 -5.77375,2.53165 -11.23746,5.77431 -16.49489,9.25352 -4.97852,3.29463 -14.17094,10.95201 -14.17094,10.95201 0,0 -8.04655,-6.81094 -12.38616,-9.787 -4.12457,-2.82858 -8.52263,-5.24555 -12.91852,-7.63074 -2.44372,-1.32594 -4.83839,-2.81457 -7.47106,-3.70841 -2.35642,-0.80004 -7.32574,-1.43831 -7.32574,-1.43831 0,0 -5.04415,-11.30543 -9.43564,-15.44014 -3.77168,-3.55113 -8.69787,-6.03883 -13.72457,-7.29117 -6.93619,-1.72807 -21.44464,0 -21.44464,0 0,0 6.07313,13.83518 11.58011,18.65683 4.26141,3.73109 10.06714,5.35458 15.49441,6.9749 4.14348,1.23705 8.50167,1.69216 12.81251,2.03185 3.27802,0.25831 6.68162,-0.82531 9.86454,0 4.32231,1.12075 8.15767,3.80109 11.70796,6.50921 3.36194,2.56446 5.96345,5.99717 8.8754,9.06304 3.70683,3.90278 10.94026,11.87689 10.94026,11.87689 z"
         style="fill:#005f27;fill-opacity:1;stroke:#005f27;stroke-width:0.05;stroke-linecap:butt;stroke-linejoin:miter;stroke-miterlimit:4;stroke-opacity:1;stroke-dasharray:none" />
      <path
         sodipodi:nodetypes="ccaaaaaacaacaacaaacaacaaaaaac"
         inkscape:connector-curvature="0"
         id="path3875"
         d="m 366.04989,525.72794 6.43339,0 c 0,0 7.28323,-10.18422 11.64068,-14.64516 3.40883,-3.48979 7.15199,-6.71077 11.24004,-9.37284 1.89148,-1.23169 3.88994,-2.41563 6.06954,-3.00225 4.77608,-1.28545 9.89014,-0.43419 14.80534,-0.98564 6.06316,-0.68022 12.38783,-0.66131 18.07855,-2.86138 2.92347,-1.13023 5.79095,-2.80615 7.86093,-5.15971 4.87976,-5.54827 9.69765,-19.93275 9.69765,-19.93275 0,0 -13.98401,-0.93077 -20.63442,0.84701 -5.22011,1.39543 -10.61616,3.61703 -14.36791,7.50563 -3.68517,3.81959 -6.86228,14.36791 -6.86228,14.36791 0,0 -6.69707,1.82783 -9.86454,3.2167 -5.77375,2.53165 -11.23746,5.77431 -16.49489,9.25351 -4.97852,3.29463 -14.17094,10.95201 -14.17094,10.95201 0,0 -8.04655,-6.81094 -12.38616,-9.787 -4.12457,-2.82857 -8.52263,-5.24554 -12.91852,-7.63073 -2.44372,-1.32595 -4.83839,-2.81457 -7.47106,-3.70841 -2.35642,-0.80004 -7.32574,-1.43831 -7.32574,-1.43831 0,0 -5.04415,-11.30543 -9.43564,-15.44014 -3.77168,-3.55114 -8.69787,-6.03883 -13.72457,-7.29117 -6.93619,-1.72807 -21.44464,0 -21.44464,0 0,0 6.07313,13.83518 11.58011,18.65683 4.26141,3.73109 10.06714,5.35458 15.49441,6.9749 4.14348,1.23705 8.50167,1.69216 12.81251,2.03185 3.27802,0.25831 6.68162,-0.82531 9.86454,0 4.32231,1.12074 8.15767,3.80109 11.70796,6.50921 3.36194,2.56445 5.96345,5.99717 8.8754,9.06304 3.70683,3.90277 10.94026,11.87689 10.94026,11.87689 z"
         style="fill:#feff00;fill-opacity:1;stroke:#feff00;stroke-width:0.05;stroke-linecap:butt;stroke-linejoin:miter;stroke-miterlimit:4;stroke-opacity:1;stroke-dasharray:none" />
      <path
         style="fill:#005f27;fill-opacity:1;stroke:#005f27;stroke-width:0.05;stroke-linecap:butt;stroke-linejoin:miter;stroke-miterlimit:4;stroke-opacity:1;stroke-dasharray:none"
         d="m 323.00299,504.33837 c 0,0 -7.83551,5.15456 -12.33067,5.89727 -6.85391,1.13245 -14.07013,-0.37284 -20.69407,-2.46613 -9.17154,-2.89838 -17.66536,-7.96931 -25.4119,-13.67096 -1.61653,-1.18981 -4.11781,-2.00798 -5.8161,-3.78148 -1.52007,-1.58737 -2.26754,-2.60458 -2.33287,-4.20665 -0.0336,-0.82311 0.27433,-1.89862 1.01863,-2.25169 1.63998,-0.77794 5.26224,1.40049 5.26224,1.40049 l 18.75576,0.047 16.24431,12.92041 1.3939,1.82278 c 0,0 8.41857,2.68717 12.75956,3.43115 3.67448,0.62974 11.15121,0.85782 11.15121,0.85782 z"
         id="path3877"
         inkscape:connector-curvature="0"
         sodipodi:nodetypes="caassaaccccac" />
      <path
         style="fill:#feff00;fill-opacity:1;stroke:#feff00;stroke-width:0.05;stroke-linecap:butt;stroke-linejoin:miter;stroke-miterlimit:4;stroke-opacity:1;stroke-dasharray:none"
         d="m 320.11593,501.21931 c 0,0 -7.83551,5.15456 -12.33067,5.89727 -6.85391,1.13245 -14.07013,-0.37284 -20.69407,-2.46613 -9.17154,-2.89838 -17.66536,-7.96931 -25.4119,-13.67096 -1.61653,-1.18981 -4.11781,-2.00798 -5.8161,-3.78148 -1.52007,-1.58737 -2.26754,-2.60458 -2.33287,-4.20665 -0.0336,-0.82311 0.27433,-1.89862 1.01863,-2.25169 1.63998,-0.77794 5.26224,1.40049 5.26224,1.40049 l 18.75576,0.047 16.24431,12.92041 1.3939,1.82279 c 0,0 8.41857,2.68716 12.75956,3.43114 3.67448,0.62974 11.15121,0.85782 11.15121,0.85782 z"
         id="path3877-3"
         inkscape:connector-curvature="0"
         sodipodi:nodetypes="caassaaccccac" />
      <path
         style="fill:#005f27;fill-opacity:1;stroke:#005f27;stroke-width:0.05;stroke-linecap:butt;stroke-linejoin:miter;stroke-miterlimit:4;stroke-opacity:1;stroke-dasharray:none"
         d="m 369.06541,529.84104 6.43339,0 c 0,0 7.28323,-10.18422 11.64068,-14.64515 3.40883,-3.4898 7.15199,-6.71078 11.24004,-9.37284 1.89148,-1.2317 3.88994,-2.41563 6.06954,-3.00225 4.77608,-1.28546 9.89014,-0.43419 14.80534,-0.98564 6.06316,-0.68023 12.38783,-0.66131 18.07855,-2.86139 2.92347,-1.13023 5.79095,-2.80615 7.86093,-5.15971 4.87976,-5.54827 9.69765,-19.93275 9.69765,-19.93275 0,0 -13.98401,-0.93076 -20.63442,0.84702 -5.22011,1.39543 -10.61616,3.61702 -14.36791,7.50562 -3.68517,3.81959 -6.86228,14.36791 -6.86228,14.36791 0,0 -6.69707,1.82784 -9.86454,3.2167 -5.77375,2.53165 -11.23746,5.77431 -16.49489,9.25352 -4.97852,3.29463 -14.17094,10.95201 -14.17094,10.95201 0,0 -8.04655,-6.81094 -12.38616,-9.787 -4.12457,-2.82858 -8.52263,-5.24555 -12.91852,-7.63074 -2.44372,-1.32594 -4.83839,-2.81457 -7.47106,-3.70841 -2.35642,-0.80004 -7.32574,-1.43831 -7.32574,-1.43831 0,0 -5.04415,-11.30543 -9.43564,-15.44014 -3.77168,-3.55113 -8.69787,-6.03883 -13.72457,-7.29117 -6.93619,-1.72807 -21.44464,0 -21.44464,0 0,0 6.07313,13.83518 11.58011,18.65683 4.26141,3.73109 10.06714,5.35458 15.49441,6.9749 4.14348,1.23705 8.50167,1.69216 12.81251,2.03185 3.27802,0.25831 6.68162,-0.82531 9.86454,0 4.32231,1.12075 8.15767,3.80109 11.70796,6.50921 3.36194,2.56446 5.96345,5.99717 8.8754,9.06304 3.70683,3.90278 10.94026,11.87689 10.94026,11.87689 z"
         id="path3899"
         inkscape:connector-curvature="0"
         sodipodi:nodetypes="ccaaaaaacaacaacaaacaacaaaaaac" />
      <path
         style="fill:#feff00;fill-opacity:1;stroke:#feff00;stroke-width:0.05;stroke-linecap:butt;stroke-linejoin:miter;stroke-miterlimit:4;stroke-opacity:1;stroke-dasharray:none"
         d="m 366.04989,525.72794 6.43339,0 c 0,0 7.28323,-10.18422 11.64068,-14.64516 3.40883,-3.48979 7.15199,-6.71077 11.24004,-9.37284 1.89148,-1.23169 3.88994,-2.41563 6.06954,-3.00225 4.77608,-1.28545 9.89014,-0.43419 14.80534,-0.98564 6.06316,-0.68022 12.38783,-0.66131 18.07855,-2.86138 2.92347,-1.13023 5.79095,-2.80615 7.86093,-5.15971 4.87976,-5.54827 9.69765,-19.93275 9.69765,-19.93275 0,0 -13.98401,-0.93077 -20.63442,0.84701 -5.22011,1.39543 -10.61616,3.61703 -14.36791,7.50563 -3.68517,3.81959 -6.86228,14.36791 -6.86228,14.36791 0,0 -6.69707,1.82783 -9.86454,3.2167 -5.77375,2.53165 -11.23746,5.77431 -16.49489,9.25351 -4.97852,3.29463 -14.17094,10.95201 -14.17094,10.95201 0,0 -8.04655,-6.81094 -12.38616,-9.787 -4.12457,-2.82857 -8.52263,-5.24554 -12.91852,-7.63073 -2.44372,-1.32595 -4.83839,-2.81457 -7.47106,-3.70841 -2.35642,-0.80004 -7.32574,-1.43831 -7.32574,-1.43831 0,0 -5.04415,-11.30543 -9.43564,-15.44014 -3.77168,-3.55114 -8.69787,-6.03883 -13.72457,-7.29117 -6.93619,-1.72807 -21.44464,0 -21.44464,0 0,0 6.07313,13.83518 11.58011,18.65683 4.26141,3.73109 10.06714,5.35458 15.49441,6.9749 4.14348,1.23705 8.50167,1.69216 12.81251,2.03185 3.27802,0.25831 6.68162,-0.82531 9.86454,0 4.32231,1.12074 8.15767,3.80109 11.70796,6.50921 3.36194,2.56445 5.96345,5.99717 8.8754,9.06304 3.70683,3.90277 10.94026,11.87689 10.94026,11.87689 z"
         id="path3901"
         inkscape:connector-curvature="0"
         sodipodi:nodetypes="ccaaaaaacaacaacaaacaacaaaaaac" />
      <path
         style="fill:#005f27;fill-opacity:1;stroke:#005f27;stroke-width:0.05;stroke-linecap:butt;stroke-linejoin:miter;stroke-miterlimit:4;stroke-opacity:1;stroke-dasharray:none"
         d="m 447.8171,465.78875 c 0,0 10.84938,-0.87148 15.54736,-3.32392 4.64025,-2.42231 6.96078,-6.41059 11.47289,-10.72232 4.41715,-1.20141 7.32253,-4.89643 9.75731,-8.36341 l -2.03724,-2.68058 c 0,0 -3.06869,1.81046 -4.71783,1.60834 -1.89918,-0.23277 -3.88214,-1.44453 -4.82504,-3.10947 -1.09256,-1.9292 -0.59856,-4.46426 -0.21445,-6.64783 0.63357,-3.60166 4.07448,-10.18621 4.07448,-10.18621 0,0 -11.83531,7.99831 -16.51237,13.29568 -3.05914,3.46486 -5.42177,7.56738 -7.29117,11.79455 -2.57136,5.81449 -5.25394,18.33517 -5.25394,18.33517 z"
         id="path3903"
         inkscape:connector-curvature="0"
         sodipodi:nodetypes="cacccaaacaac" />
      <path
         style="fill:#feff00;fill-opacity:1;stroke:#feff00;stroke-width:0.05;stroke-linecap:butt;stroke-linejoin:miter;stroke-miterlimit:4;stroke-opacity:1;stroke-dasharray:none"
         d="m 443.79622,463.05456 c 0,0 10.84938,-0.87148 15.54736,-3.32392 4.64025,-2.42231 6.96078,-6.41059 11.47289,-10.72232 4.41715,-1.20141 7.32253,-4.89643 9.75731,-8.36341 l -2.03724,-2.68058 c 0,0 -3.06869,1.81046 -4.71783,1.60834 -1.89918,-0.23277 -3.88214,-1.44453 -4.82504,-3.10947 -1.09256,-1.9292 -0.59856,-4.46426 -0.21445,-6.64783 0.63357,-3.60166 4.07448,-10.18621 4.07448,-10.18621 0,0 -11.83531,7.99831 -16.51237,13.29568 -3.05914,3.46486 -5.42177,7.56738 -7.29117,11.79455 -2.57136,5.81449 -5.25394,18.33517 -5.25394,18.33517 z"
         id="path3903-3"
         inkscape:connector-curvature="0"
         sodipodi:nodetypes="cacccaaacaac" />
      <path
         style="fill:#005f27;fill-opacity:1;stroke:#005f27;stroke-width:0.05;stroke-linecap:butt;stroke-linejoin:miter;stroke-miterlimit:4;stroke-opacity:1;stroke-dasharray:none"
         d="m 484.16576,454.9592 c -9.26385,4.17095 -17.88131,12.89781 -23.5891,19.30017 -1.17509,1.31809 2.54794,2.81419 4.28892,3.10948 6.09578,1.03391 12.31725,1.51524 18.22795,0.10722 6.25093,-1.48907 11.82382,-5.20589 17.15571,-8.7923 4.77358,-3.21087 9.16175,-7.04721 13.08123,-11.25844 2.12336,-2.28142 5.5756,-7.50562 5.5756,-7.50562 l -14.15345,6.86228 c 0,0 -8.75437,-2.86209 -13.29568,-3.00225 -2.46082,-0.0759 -5.04624,0.1687 -7.29118,1.17946 z"
         id="path3923"
         inkscape:connector-curvature="0"
         sodipodi:nodetypes="assaaaccaa" />
      <path
         style="fill:#feff00;fill-opacity:1;stroke:#feff00;stroke-width:0.05;stroke-linecap:butt;stroke-linejoin:miter;stroke-miterlimit:4;stroke-opacity:1;stroke-dasharray:none"
         d="m 481.27607,451.573 c -9.26385,4.17095 -17.88131,12.8978 -23.5891,19.30017 -1.17509,1.31809 2.54794,2.81419 4.28892,3.10948 6.09578,1.03391 12.31725,1.51524 18.22795,0.10722 6.25093,-1.48907 11.82382,-5.20589 17.15571,-8.7923 4.77358,-3.21087 9.16175,-7.04721 13.08123,-11.25844 2.12336,-2.28142 5.5756,-7.50562 5.5756,-7.50562 l -14.15345,6.86228 c 0,0 -8.75437,-2.86209 -13.29568,-3.00225 -2.46082,-0.0759 -5.04624,0.1687 -7.29118,1.17946 z"
         id="path3923-2"
         inkscape:connector-curvature="0"
         sodipodi:nodetypes="assaaaccaa" />
      <path
         style="fill:#005f27;fill-opacity:1;stroke:#005f27;stroke-width:0.05;stroke-linecap:butt;stroke-linejoin:miter;stroke-miterlimit:4;stroke-opacity:1;stroke-dasharray:none"
         d="m 539.8146,410.99769 -17.58461,3.75281 c 0,0 -6.76838,11.53045 -10.93676,16.72682 -3.84306,4.79082 -12.88527,12.11578 -12.86679,13.18845 0.0175,1.01571 -0.0725,2.04932 1.60835,2.78781 0,0 13.53951,-0.76759 19.08574,-4.18171 7.5724,-4.66139 16.83403,-20.69407 16.83403,-20.69407 2.3279,-4.58088 5.1104,-9.47649 3.86004,-11.58011 z"
         id="path3943"
         inkscape:connector-curvature="0"
         sodipodi:nodetypes="ccascacc" />
      <path
         style="fill:#feff00;fill-opacity:1;stroke:#feff00;stroke-width:0.05;stroke-linecap:butt;stroke-linejoin:miter;stroke-miterlimit:4;stroke-opacity:1;stroke-dasharray:none"
         d="m 536.76454,408.10266 -17.58461,3.75282 c 0,0 -6.76838,11.53044 -10.93676,16.72681 -3.84306,4.79082 -12.88527,12.11579 -12.86679,13.18845 0.0175,1.01571 -0.0725,2.04932 1.60835,2.78781 0,0 13.53951,-0.76759 19.08574,-4.18171 7.5724,-4.66139 16.83403,-20.69407 16.83403,-20.69407 2.3279,-4.58088 5.1104,-9.47649 3.86004,-11.58011 z"
         id="path3943-6"
         inkscape:connector-curvature="0"
         sodipodi:nodetypes="ccascacc" />
      <path
         style="fill:#005f27;fill-opacity:1;stroke:#005f27;stroke-width:0.05;stroke-linecap:butt;stroke-linejoin:miter;stroke-miterlimit:4;stroke-opacity:1;stroke-dasharray:none"
         d="m 502.07204,387.51581 c 0,0 -13.07279,25.06148 -17.69183,34.20419 -2.17625,4.30758 3.83197,8.9617 4.6106,13.72457 0.58817,3.59783 0,10.93677 0,10.93677 0,0 10.73864,-8.14596 14.26069,-13.72456 2.11182,-3.34494 3.18207,-7.34401 3.75281,-11.25843 1.81389,-12.44048 -4.02209,-35.09611 -4.93227,-33.88253 z"
         id="path3963"
         inkscape:connector-curvature="0"
         sodipodi:nodetypes="csacasc" />
      <path
         style="fill:#feff00;fill-opacity:1;stroke:#feff00;stroke-width:0.05;stroke-linecap:butt;stroke-linejoin:miter;stroke-miterlimit:4;stroke-opacity:1;stroke-dasharray:none"
         d="m 498.32803,384.48338 c 0,0 -13.07279,25.06149 -17.69183,34.20419 -2.17625,4.30758 3.83197,8.9617 4.6106,13.72457 0.58817,3.59783 0,10.93678 0,10.93678 0,0 10.73864,-8.14596 14.26069,-13.72457 2.11182,-3.34494 3.18207,-7.34401 3.75281,-11.25843 1.81389,-12.44048 -4.02209,-35.09611 -4.93227,-33.88253 z"
         id="path3963-5"
         inkscape:connector-curvature="0"
         sodipodi:nodetypes="csacasc" />
      <path
         style="fill:#005f27;fill-opacity:1;stroke:#005f27;stroke-width:0.05;stroke-linecap:butt;stroke-linejoin:miter;stroke-miterlimit:4;stroke-opacity:1;stroke-dasharray:none"
         d="m 514.72437,345.59154 14.7968,20.80131 0,24.23244 -13.51012,22.94576 -9.43564,-30.02249 0.21444,-22.73132 c 2.17152,-5.28699 0.92269,-12.10411 7.93452,-15.22569 z"
         id="path3983"
         inkscape:connector-curvature="0"
         sodipodi:nodetypes="ccccccc" />
      <path
         style="fill:#feff00;fill-opacity:1;stroke:#feff00;stroke-width:0.05;stroke-linecap:butt;stroke-linejoin:miter;stroke-miterlimit:4;stroke-opacity:1;stroke-dasharray:none"
         d="m 512.25824,340.98095 14.7968,20.80129 0,24.23244 -13.51012,22.94577 -9.43564,-30.0225 0.21444,-22.73132 c 2.17152,-5.28697 0.92269,-12.1041 7.93452,-15.22568 z"
         id="path3983-6"
         inkscape:connector-curvature="0"
         sodipodi:nodetypes="ccccccc" />
      <path
         style="fill:#005f27;fill-opacity:1;stroke:#005f27;stroke-width:0.05;stroke-linecap:butt;stroke-linejoin:miter;stroke-miterlimit:4;stroke-opacity:1;stroke-dasharray:none"
         d="m 558.57866,355.67052 c 0,0 -9.84377,5.18561 -13.51012,9.2212 -4.08746,4.49913 -6.32936,10.41897 -8.7923,15.97625 -3.37067,7.60544 -8.19808,21.37876 -7.72008,23.69633 0,0 8.07884,-1.13292 11.25844,-3.43114 6.27673,-4.53683 9.53539,-12.26863 13.4029,-18.97851 2.43581,-4.22597 5.20484,-8.50302 6.11172,-13.29568 0.81867,-4.32649 -0.75056,-13.18845 -0.75056,-13.18845 z"
         id="path4003"
         inkscape:connector-curvature="0"
         sodipodi:nodetypes="cascaaac" />
      <path
         style="fill:#feff00;fill-opacity:1;stroke:#feff00;stroke-width:0.05;stroke-linecap:butt;stroke-linejoin:miter;stroke-miterlimit:4;stroke-opacity:1;stroke-dasharray:none"
         d="m 555.84989,352.23939 c 0,0 -9.84377,5.18559 -13.51012,9.22119 -4.08746,4.49912 -6.32936,10.41897 -8.7923,15.97625 -3.37067,7.60544 -8.19808,21.37875 -7.72008,23.69633 0,0 8.07884,-1.13292 11.25844,-3.43114 6.27673,-4.53683 9.53539,-12.26863 13.4029,-18.97851 2.43581,-4.22597 5.20484,-8.50302 6.11172,-13.29568 0.81867,-4.32649 -0.75056,-13.18845 -0.75056,-13.18845 z"
         id="path4003-0"
         inkscape:connector-curvature="0"
         sodipodi:nodetypes="cascaaac" />
      <path
         style="fill:#005f27;fill-opacity:1;stroke:#005f27;stroke-width:0.05;stroke-linecap:butt;stroke-linejoin:miter;stroke-miterlimit:4;stroke-opacity:1;stroke-dasharray:none"
         d="m 559.61596,341.03696 -14.40547,16.52837 -0.15164,-48.37203 c 7.34821,0.0414 10.31161,-9.4176 12.88911,-19.71274 4.34274,15.57324 2.74346,33.6558 1.668,51.5564 z"
         id="path4023"
         inkscape:connector-curvature="0"
         sodipodi:nodetypes="ccccc" />
      <path
         style="fill:#feff00;fill-opacity:1;stroke:#feff00;stroke-width:0.05;stroke-linecap:butt;stroke-linejoin:miter;stroke-miterlimit:4;stroke-opacity:1;stroke-dasharray:none"
         d="m 555.98428,339.1415 -14.40547,16.52837 -0.15164,-48.37203 c 7.34821,0.0414 10.31161,-9.4176 12.88911,-19.71274 4.34274,15.57324 2.74346,33.6558 1.668,51.5564 z"
         id="path4023-9"
         inkscape:connector-curvature="0"
         sodipodi:nodetypes="ccccc" />
      <path
         style="fill:#005f27;fill-opacity:1;stroke:#005f27;stroke-width:0.05;stroke-linecap:butt;stroke-linejoin:miter;stroke-miterlimit:4;stroke-opacity:1;stroke-dasharray:none"
         d="m 509.121,299.03364 c 7.21097,7.64537 14.11665,9.18509 20.92584,8.79492 0,0 7.16911,18.26158 8.03673,27.90112 0.71958,7.99471 -2.42618,23.95856 -2.42618,23.95856 0,0 -12.7336,-15.49858 -17.13493,-24.41347 -3.42523,-6.9378 -5.15266,-14.61941 -6.97528,-22.13893 -1.12359,-4.63557 -2.42618,-14.1022 -2.42618,-14.1022 z"
         id="path4043"
         inkscape:connector-curvature="0"
         sodipodi:nodetypes="ccacaac" />
      <path
         style="fill:#feff00;fill-opacity:1;stroke:#feff00;stroke-width:0.05;stroke-linecap:butt;stroke-linejoin:miter;stroke-miterlimit:4;stroke-opacity:1;stroke-dasharray:none"
         d="m 506.56551,295.09111 c 7.21097,7.64536 14.11665,9.18509 20.92584,8.79492 0,0 7.16911,18.26157 8.03673,27.90111 0.71958,7.99471 -2.42618,23.95856 -2.42618,23.95856 0,0 -12.7336,-15.49858 -17.13493,-24.41346 -3.42523,-6.93781 -5.15266,-14.61942 -6.97528,-22.13894 -1.12359,-4.63556 -2.42618,-14.10219 -2.42618,-14.10219 z"
         id="path4043-2"
         inkscape:connector-curvature="0"
         sodipodi:nodetypes="ccacaac" />
      <path
         style="fill:#005f27;fill-opacity:1;stroke:#005f27;stroke-width:0.05;stroke-linecap:butt;stroke-linejoin:miter;stroke-miterlimit:4;stroke-opacity:1;stroke-dasharray:none"
         d="m 538.55242,240.11617 c 0,0 6.97565,10.07083 9.40942,15.6501 1.4156,3.24518 2.30448,6.72258 2.94895,10.20394 1.41279,7.63166 2.58996,15.00795 1.97127,23.20038 -2.1875,5.25952 -4.72718,11.01522 -10.4867,13.52704 0,0 -1.01044,-26.10386 -1.5684,-39.15362 -0.0476,-1.11212 -0.21918,-2.2249 -0.15164,-3.336 0.14774,-2.43023 1.46909,-4.7815 1.2131,-7.20272 -0.3316,-3.13626 -2.95329,-5.6868 -3.48764,-8.79492 -0.23139,-1.34593 0.15164,-4.0942 0.15164,-4.0942 z"
         id="path4063"
         inkscape:connector-curvature="0"
         sodipodi:nodetypes="caaccaaaac" />
      <path
         style="fill:#feff00;fill-opacity:1;stroke:#feff00;stroke-width:0.05;stroke-linecap:butt;stroke-linejoin:miter;stroke-miterlimit:4;stroke-opacity:1;stroke-dasharray:none"
         d="m 535.35888,236.34955 c 0,0 6.97565,10.07083 9.40942,15.65009 1.4156,3.2452 2.30448,6.72258 2.94895,10.20394 1.41279,7.63166 2.58996,15.00796 1.97127,23.20038 -2.1875,5.25953 -4.72718,11.01522 -10.4867,13.52705 0,0 -1.01044,-26.10387 -1.5684,-39.15361 -0.0476,-1.11214 -0.21918,-2.2249 -0.15164,-3.33601 0.14774,-2.43024 1.46909,-4.78151 1.2131,-7.20273 -0.3316,-3.13625 -2.95329,-5.68679 -3.48764,-8.79492 -0.23139,-1.34592 0.15164,-4.09419 0.15164,-4.09419 z"
         id="path4063-1"
         inkscape:connector-curvature="0"
         sodipodi:nodetypes="caaccaaaac" />
      <path
         style="fill:#005f27;fill-opacity:1;stroke:#005f27;stroke-width:0.05;stroke-linecap:butt;stroke-linejoin:miter;stroke-miterlimit:4;stroke-opacity:1;stroke-dasharray:none"
         d="m 536.70513,305.27562 c -0.0238,-8.25619 -3.97881,-16.51236 -9.11398,-24.76856 l -13.83179,-19.51462 -14.47513,-0.85779 -0.64334,-1.82279 c -1.8844,-0.36567 -2.5816,0.11665 -2.46613,1.17947 0,0 1.11497,8.25353 2.57335,12.1162 1.95581,5.18018 8.14897,14.47514 8.14897,14.47514 0,0 1.83706,-0.0888 2.68058,0.21445 10.3849,3.73374 18.08498,12.65233 27.12747,18.9785 z"
         id="path4083"
         inkscape:connector-curvature="0"
         sodipodi:nodetypes="ccccccacac" />
      <path
         style="fill:#feff00;fill-opacity:1;stroke:#feff00;stroke-width:0.05;stroke-linecap:butt;stroke-linejoin:miter;stroke-miterlimit:4;stroke-opacity:1;stroke-dasharray:none"
         d="m 532.9584,301.58335 c -0.0238,-8.25619 -3.97881,-16.51237 -9.11398,-24.76856 l -13.83179,-19.51462 -14.47513,-0.85779 -0.64334,-1.82279 c -1.8844,-0.36568 -2.5816,0.11665 -2.46613,1.17946 0,0 1.11497,8.25354 2.57335,12.11621 1.95581,5.18018 8.14897,14.47514 8.14897,14.47514 0,0 1.83706,-0.0888 2.68058,0.21444 10.3849,3.73375 18.08498,12.65234 27.12747,18.97851 z"
         id="path4083-9"
         inkscape:connector-curvature="0"
         sodipodi:nodetypes="ccccccacac" />
      <path
         style="fill:#005f27;fill-opacity:1;stroke:#005f27;stroke-width:0.05;stroke-linecap:butt;stroke-linejoin:miter;stroke-miterlimit:4;stroke-opacity:1;stroke-dasharray:none"
         d="m 534.13177,275.25313 -13.29567,-12.974 -2.14447,-0.10723 c 0,0 -14.45585,-21.48951 -23.16021,-34.95477 -0.54051,-0.83614 0.26586,-2.20382 1.07224,-2.7878 1.739,-1.2594 4.32219,-0.7129 6.43339,-0.32167 1.99819,0.3703 3.57062,2.13456 5.5756,2.46614 3.18611,0.52689 9.65009,-0.85779 9.65009,-0.85779 0,0 6.81522,12.03725 9.65009,18.33517 2.57212,5.71421 5.61871,11.40327 6.64784,17.5846 0.74583,4.47971 -0.4289,13.61735 -0.4289,13.61735 z"
         id="path4103"
         inkscape:connector-curvature="0"
         sodipodi:nodetypes="cccsaaacaac" />
      <path
         style="fill:#feff00;fill-opacity:1;stroke:#feff00;stroke-width:0.05;stroke-linecap:butt;stroke-linejoin:miter;stroke-miterlimit:4;stroke-opacity:1;stroke-dasharray:none"
         d="m 530.55726,271.56997 -13.29567,-12.97402 -2.14447,-0.10721 c 0,0 -14.45585,-21.48951 -23.16021,-34.95477 -0.54051,-0.83614 0.26586,-2.20382 1.07224,-2.7878 1.739,-1.25941 4.32219,-0.71292 6.43339,-0.32168 1.99819,0.37031 3.57062,2.13456 5.5756,2.46613 3.18611,0.5269 9.65009,-0.85778 9.65009,-0.85778 0,0 6.81522,12.03725 9.65009,18.33518 2.57212,5.7142 5.61871,11.40326 6.64784,17.58459 0.74583,4.47971 -0.4289,13.61735 -0.4289,13.61735 z"
         id="path4103-9"
         inkscape:connector-curvature="0"
         sodipodi:nodetypes="cccsaaacaac" />
      <path
         style="fill:#005f27;fill-opacity:1;stroke:#005f27;stroke-width:0.05;stroke-linecap:butt;stroke-linejoin:miter;stroke-miterlimit:4;stroke-opacity:1;stroke-dasharray:none"
         d="m 297.48691,466.76653 c 0,0 -10.8494,-0.87148 -15.5473,-3.32392 -4.6403,-2.42231 -6.9608,-6.41059 -11.4729,-10.72232 -4.4172,-1.20141 -7.3226,-4.89643 -9.7573,-8.36341 l 2.0372,-2.68058 c 0,0 3.0687,1.81046 4.7178,1.60834 1.8992,-0.23277 3.8822,-1.44453 4.8251,-3.10947 1.0925,-1.9292 0.5985,-4.46426 0.2144,-6.64783 -0.6335,-3.60166 -4.0745,-10.18621 -4.0745,-10.18621 0,0 11.8354,7.99831 16.5124,13.29568 3.0592,3.46486 5.4218,7.56738 7.2912,11.79455 2.5713,5.81449 5.2539,18.33517 5.2539,18.33517 z"
         id="path3903-5"
         inkscape:connector-curvature="0"
         sodipodi:nodetypes="cacccaaacaac" />
      <path
         style="fill:#feff00;fill-opacity:1;stroke:#feff00;stroke-width:0.05;stroke-linecap:butt;stroke-linejoin:miter;stroke-miterlimit:4;stroke-opacity:1;stroke-dasharray:none"
         d="m 293.01619,464.03234 c 0,0 -10.8494,-0.87148 -15.5474,-3.32392 -4.6402,-2.42231 -6.9607,-6.41059 -11.4728,-10.72232 -4.4172,-1.20141 -7.3226,-4.89643 -9.7574,-8.36341 l 2.0373,-2.68058 c 0,0 3.0687,1.81046 4.7178,1.60834 1.8992,-0.23277 3.8822,-1.44453 4.8251,-3.10947 1.0925,-1.9292 0.5985,-4.46426 0.2144,-6.64783 -0.6336,-3.60166 -4.0745,-10.18621 -4.0745,-10.18621 0,0 11.8353,7.99831 16.5124,13.29568 3.0591,3.46486 5.4218,7.56738 7.2912,11.79455 2.5713,5.81449 5.2539,18.33517 5.2539,18.33517 z"
         id="path3903-3-6"
         inkscape:connector-curvature="0"
         sodipodi:nodetypes="cacccaaacaac" />
      <path
         style="fill:#005f27;fill-opacity:1;stroke:#005f27;stroke-width:0.05;stroke-linecap:butt;stroke-linejoin:miter;stroke-miterlimit:4;stroke-opacity:1;stroke-dasharray:none"
         d="m 258.10559,455.33043 c 9.26379,4.17095 17.88129,12.8978 23.58909,19.30017 1.1751,1.31809 -2.548,2.81419 -4.289,3.10948 -6.0957,1.03391 -12.3172,1.51524 -18.22789,0.10722 -6.2509,-1.48907 -11.8239,-5.20589 -17.1558,-8.7923 -4.7735,-3.21087 -9.1617,-7.04721 -13.0812,-11.25844 -2.1233,-2.28142 -5.5756,-7.50562 -5.5756,-7.50562 l 14.1535,6.86228 c 0,0 8.7543,-2.86209 13.2956,-3.00225 2.4609,-0.0759 5.0463,0.1687 7.2913,1.17946 z"
         id="path3923-6"
         inkscape:connector-curvature="0"
         sodipodi:nodetypes="assaaaccaa" />
      <path
         style="fill:#feff00;fill-opacity:1;stroke:#feff00;stroke-width:0.05;stroke-linecap:butt;stroke-linejoin:miter;stroke-miterlimit:4;stroke-opacity:1;stroke-dasharray:none"
         d="m 255.53637,451.94423 c 9.2638,4.17095 17.8813,12.8978 23.5891,19.30017 1.175,1.31809 -2.548,2.81419 -4.289,3.10948 -6.0957,1.03391 -12.3172,1.51524 -18.2279,0.10722 -6.2509,-1.48907 -11.8239,-5.20589 -17.1558,-8.7923 -4.7735,-3.21087 -9.1617,-7.04721 -13.0812,-11.25844 -2.1234,-2.28142 -5.5756,-7.50562 -5.5756,-7.50562 l 14.1535,6.86228 c 0,0 8.7543,-2.86209 13.2957,-3.00225 2.4608,-0.0759 5.0462,0.1687 7.2912,1.17946 z"
         id="path3923-2-4"
         inkscape:connector-curvature="0"
         sodipodi:nodetypes="assaaaccaa" />
      <path
         style="fill:#005f27;fill-opacity:1;stroke:#005f27;stroke-width:0.05;stroke-linecap:butt;stroke-linejoin:miter;stroke-miterlimit:4;stroke-opacity:1;stroke-dasharray:none"
         d="m 205.48942,411.36893 17.5846,3.75281 c 0,0 6.7684,11.53045 10.9368,16.72682 3.843,4.79082 12.8852,12.11578 12.8667,13.18845 -0.017,1.01571 0.072,2.04932 -1.6083,2.78781 0,0 -13.5395,-0.76759 -19.0857,-4.18171 -7.5724,-4.66139 -16.8341,-20.69407 -16.8341,-20.69407 -2.3279,-4.58088 -5.1104,-9.47649 -3.86,-11.58011 z"
         id="path3943-2"
         inkscape:connector-curvature="0"
         sodipodi:nodetypes="ccascacc" />
      <path
         style="fill:#feff00;fill-opacity:1;stroke:#feff00;stroke-width:0.05;stroke-linecap:butt;stroke-linejoin:miter;stroke-miterlimit:4;stroke-opacity:1;stroke-dasharray:none"
         d="m 201.26087,409.08044 17.5847,3.75281 c 0,0 6.7683,11.53045 10.9367,16.72682 3.8431,4.79082 12.8853,12.11578 12.8668,13.18845 -0.018,1.01571 0.072,2.04932 -1.6083,2.78781 0,0 -13.5396,-0.76759 -19.0858,-4.18171 -7.5724,-4.66139 -16.834,-20.69407 -16.834,-20.69407 -2.3279,-4.58088 -5.1104,-9.47649 -3.8601,-11.58011 z"
         id="path3943-6-1"
         inkscape:connector-curvature="0"
         sodipodi:nodetypes="ccascacc" />
      <path
         style="fill:#005f27;fill-opacity:1;stroke:#005f27;stroke-width:0.05;stroke-linecap:butt;stroke-linejoin:miter;stroke-miterlimit:4;stroke-opacity:1;stroke-dasharray:none"
         d="m 240.80573,387.2805 c 0,0 13.07291,25.06149 17.69191,34.20419 2.1763,4.30758 -3.832,8.9617 -4.6106,13.72457 -0.5882,3.59783 0,10.93677 0,10.93677 0,0 -10.73871,-8.14596 -14.26071,-13.72457 -2.1118,-3.34494 -3.1821,-7.34401 -3.7528,-11.25842 -1.8139,-12.44048 4.0221,-35.09611 4.9322,-33.88253 z"
         id="path3963-57"
         inkscape:connector-curvature="0"
         sodipodi:nodetypes="csacasc" />
      <path
         style="fill:#feff00;fill-opacity:1;stroke:#feff00;stroke-width:0.05;stroke-linecap:butt;stroke-linejoin:miter;stroke-miterlimit:4;stroke-opacity:1;stroke-dasharray:none"
         d="m 239.69746,386.06771 c 0,0 13.07281,25.06148 17.69181,34.20419 2.1763,4.30758 -3.8319,8.9617 -4.6106,13.72457 -0.5881,3.59783 0,10.93677 0,10.93677 0,0 -10.73871,-8.14596 -14.26071,-13.72457 -2.1118,-3.34494 -3.1821,-7.34401 -3.7528,-11.25843 -1.8139,-12.44047 4.0221,-35.09611 4.9323,-33.88252 z"
         id="path3963-5-8"
         inkscape:connector-curvature="0"
         sodipodi:nodetypes="csacasc" />
      <path
         style="fill:#005f27;fill-opacity:1;stroke:#005f27;stroke-width:0.05;stroke-linecap:butt;stroke-linejoin:miter;stroke-miterlimit:4;stroke-opacity:1;stroke-dasharray:none"
         d="m 228.75998,345.96278 -14.7968,20.80131 0,24.23244 13.5101,22.94576 9.4357,-30.02249 -0.2145,-22.73132 c -2.1715,-5.28698 -0.9227,-12.10411 -7.9345,-15.22569 z"
         id="path3983-61"
         inkscape:connector-curvature="0"
         sodipodi:nodetypes="ccccccc" />
      <path
         style="fill:#feff00;fill-opacity:1;stroke:#feff00;stroke-width:0.05;stroke-linecap:butt;stroke-linejoin:miter;stroke-miterlimit:4;stroke-opacity:1;stroke-dasharray:none"
         d="m 225.76716,342.56527 -14.7968,20.8013 0,24.23244 13.5102,22.94577 9.4356,-30.0225 -0.2144,-22.73131 c -2.1716,-5.28698 -0.9227,-12.10411 -7.9346,-15.22569 z"
         id="path3983-6-4"
         inkscape:connector-curvature="0"
         sodipodi:nodetypes="ccccccc" />
      <path
         style="fill:#005f27;fill-opacity:1;stroke:#005f27;stroke-width:0.05;stroke-linecap:butt;stroke-linejoin:miter;stroke-miterlimit:4;stroke-opacity:1;stroke-dasharray:none"
         d="m 184.90568,357.25485 c 0,0 9.8438,5.1856 13.5101,9.2212 4.0875,4.49912 6.3294,10.41897 8.7923,15.97625 3.3707,7.60544 8.1981,21.37875 7.7201,23.69633 0,0 -8.0788,-1.13292 -11.2584,-3.43114 -6.2767,-4.53683 -9.5354,-12.26863 -13.4029,-18.97851 -2.4358,-4.22597 -5.2049,-8.50302 -6.1117,-13.29568 -0.8187,-4.32649 0.7505,-13.18845 0.7505,-13.18845 z"
         id="path4003-3"
         inkscape:connector-curvature="0"
         sodipodi:nodetypes="cascaaac" />
      <path
         style="fill:#feff00;fill-opacity:1;stroke:#feff00;stroke-width:0.05;stroke-linecap:butt;stroke-linejoin:miter;stroke-miterlimit:4;stroke-opacity:1;stroke-dasharray:none"
         d="m 183.9952,354.43027 c 0,0 9.8438,5.18559 13.5101,9.22119 4.0875,4.49912 6.3294,10.41897 8.7923,15.97625 3.3707,7.60544 8.1981,21.37875 7.7201,23.69633 0,0 -8.0788,-1.13292 -11.2584,-3.43114 -6.2768,-4.53683 -9.5354,-12.26863 -13.4029,-18.97851 -2.4359,-4.22597 -5.2049,-8.50302 -6.1118,-13.29568 -0.8186,-4.32649 0.7506,-13.18845 0.7506,-13.18845 z"
         id="path4003-0-1"
         inkscape:connector-curvature="0"
         sodipodi:nodetypes="cascaaac" />
      <path
         style="fill:#005f27;fill-opacity:1;stroke:#005f27;stroke-width:0.05;stroke-linecap:butt;stroke-linejoin:miter;stroke-miterlimit:4;stroke-opacity:1;stroke-dasharray:none"
         d="m 182.65529,341.4082 14.4055,16.52837 0.1516,-48.37203 c -7.3482,0.0414 -10.3116,-9.4176 -12.8891,-19.71274 -4.3427,15.57324 -2.7434,33.6558 -1.668,51.5564 z"
         id="path4023-6"
         inkscape:connector-curvature="0"
         sodipodi:nodetypes="ccccc" />
      <path
         style="fill:#feff00;fill-opacity:1;stroke:#feff00;stroke-width:0.05;stroke-linecap:butt;stroke-linejoin:miter;stroke-miterlimit:4;stroke-opacity:1;stroke-dasharray:none"
         d="m 180.82807,340.72584 14.4055,16.52837 0.1516,-48.37204 c -7.3482,0.0414 -10.3116,-9.4176 -12.8891,-19.71274 -4.3427,15.57324 -2.7435,33.65579 -1.668,51.55641 z"
         id="path4023-9-0"
         inkscape:connector-curvature="0"
         sodipodi:nodetypes="ccccc" />
      <path
         style="fill:#005f27;fill-opacity:1;stroke:#005f27;stroke-width:0.05;stroke-linecap:butt;stroke-linejoin:miter;stroke-miterlimit:4;stroke-opacity:1;stroke-dasharray:none"
         d="m 234.36338,296.9787 c -7.211,7.64536 -14.1167,9.18509 -20.9259,8.79491 0,0 -7.1691,18.26158 -8.0367,27.90112 -0.7196,7.99471 2.4262,23.95856 2.4262,23.95856 0,0 12.7336,-15.49858 17.1349,-24.41346 3.4253,-6.93781 5.1527,-14.61942 6.9753,-22.13894 1.1236,-4.63556 2.4262,-14.10219 2.4262,-14.10219 z"
         id="path4043-8"
         inkscape:connector-curvature="0"
         sodipodi:nodetypes="ccacaac" />
      <path
         style="fill:#feff00;fill-opacity:1;stroke:#feff00;stroke-width:0.05;stroke-linecap:butt;stroke-linejoin:miter;stroke-miterlimit:4;stroke-opacity:1;stroke-dasharray:none"
         d="m 232.67305,295.46233 c -7.211,7.64537 -14.1167,9.18509 -20.9259,8.79492 0,0 -7.1691,18.26157 -8.0367,27.90112 -0.7196,7.99471 2.4262,23.95856 2.4262,23.95856 0,0 12.7336,-15.49858 17.1349,-24.41347 3.4252,-6.9378 5.1527,-14.61941 6.9753,-22.13893 1.1236,-4.63557 2.4262,-14.1022 2.4262,-14.1022 z"
         id="path4043-2-3"
         inkscape:connector-curvature="0"
         sodipodi:nodetypes="ccacaac" />
      <path
         style="fill:#005f27;fill-opacity:1;stroke:#005f27;stroke-width:0.05;stroke-linecap:butt;stroke-linejoin:miter;stroke-miterlimit:4;stroke-opacity:1;stroke-dasharray:none"
         d="m 203.71889,241.09395 c 0,0 -6.9757,10.07083 -9.4095,15.65008 -1.4156,3.2452 -2.3044,6.72258 -2.9489,10.20394 -1.4128,7.63166 -2.59,15.00796 -1.9713,23.20039 2.1875,5.25953 4.7272,11.01522 10.4867,13.52705 0,0 1.0105,-26.10388 1.5684,-39.15362 0.048,-1.11214 0.2192,-2.2249 0.1517,-3.33601 -0.1478,-2.43024 -1.4691,-4.78151 -1.2131,-7.20273 0.3316,-3.13624 2.9533,-5.68679 3.4876,-8.79492 0.2314,-1.34592 -0.1516,-4.09418 -0.1516,-4.09418 z"
         id="path4063-2"
         inkscape:connector-curvature="0"
         sodipodi:nodetypes="caaccaaaac" />
      <path
         style="fill:#feff00;fill-opacity:1;stroke:#feff00;stroke-width:0.05;stroke-linecap:butt;stroke-linejoin:miter;stroke-miterlimit:4;stroke-opacity:1;stroke-dasharray:none"
         d="m 201.45348,242.78624 c 0,0 -6.9756,10.07083 -9.4094,15.65009 -1.4156,3.2452 -2.3045,6.72258 -2.949,10.20394 -1.4128,7.63166 -2.5899,15.00796 -1.9712,23.20039 2.1875,5.25953 4.7271,11.01522 10.4867,13.52705 0,0 1.0104,-26.10388 1.5684,-39.15363 0.048,-1.11213 0.2191,-2.22489 0.1516,-3.336 -0.1477,-2.43024 -1.4691,-4.78151 -1.2131,-7.20273 0.3316,-3.13625 2.9533,-5.68679 3.4876,-8.79492 0.2314,-1.34592 -0.1516,-4.09419 -0.1516,-4.09419 z"
         id="path4063-1-2"
         inkscape:connector-curvature="0"
         sodipodi:nodetypes="caaccaaaac" />
      <path
         style="fill:#005f27;fill-opacity:1;stroke:#005f27;stroke-width:0.05;stroke-linecap:butt;stroke-linejoin:miter;stroke-miterlimit:4;stroke-opacity:1;stroke-dasharray:none"
         d="m 207.99237,304.43378 c 0.024,-8.25619 3.9788,-16.51238 9.1139,-24.76857 l 13.8318,-19.51463 14.4752,-0.85779 0.6433,-1.82278 c 1.8844,-0.36568 2.5816,0.11664 2.4661,1.17946 0,0 -1.1149,8.25353 -2.5733,12.1162 -1.9558,5.18018 -8.149,14.47515 -8.149,14.47515 0,0 -1.8371,-0.0888 -2.6806,0.21444 -10.3849,3.73374 -18.085,12.65234 -27.1274,18.97851 z"
         id="path4083-7"
         inkscape:connector-curvature="0"
         sodipodi:nodetypes="ccccccacac" />
      <path
         style="fill:#feff00;fill-opacity:1;stroke:#feff00;stroke-width:0.05;stroke-linecap:butt;stroke-linejoin:miter;stroke-miterlimit:4;stroke-opacity:1;stroke-dasharray:none"
         d="m 206.8867,303.16768 c 0.024,-8.25619 3.9788,-16.51237 9.114,-24.76857 l 13.8318,-19.51462 14.4751,-0.85779 0.6433,-1.82279 c 1.8844,-0.36568 2.5816,0.11665 2.4662,1.17946 0,0 -1.115,8.25354 -2.5734,12.11621 -1.9558,5.18018 -8.149,14.47514 -8.149,14.47514 0,0 -1.837,-0.0888 -2.6805,0.21444 -10.3849,3.73375 -18.085,12.65236 -27.1275,18.97852 z"
         id="path4083-9-2"
         inkscape:connector-curvature="0"
         sodipodi:nodetypes="ccccccacac" />
      <path
         style="fill:#005f27;fill-opacity:1;stroke:#005f27;stroke-width:0.05;stroke-linecap:butt;stroke-linejoin:miter;stroke-miterlimit:4;stroke-opacity:1;stroke-dasharray:none"
         d="m 207.53294,275.62436 13.2957,-12.97401 2.1445,-0.10722 c 0,0 14.4558,-21.48951 23.1602,-34.95477 0.5405,-0.83614 -0.2659,-2.20382 -1.0723,-2.7878 -1.739,-1.2594 -4.3222,-0.71291 -6.4334,-0.32167 -1.9982,0.3703 -3.5706,2.13456 -5.5756,2.46613 -3.1861,0.5269 -9.6501,-0.85778 -9.6501,-0.85778 0,0 -6.8152,12.03725 -9.65,18.33517 -2.5722,5.71421 -5.6188,11.40327 -6.6479,17.5846 -0.7458,4.47971 0.4289,13.61735 0.4289,13.61735 z"
         id="path4103-3"
         inkscape:connector-curvature="0"
         sodipodi:nodetypes="cccsaaacaac" />
      <path
         style="fill:#feff00;fill-opacity:1;stroke:#feff00;stroke-width:0.05;stroke-linecap:butt;stroke-linejoin:miter;stroke-miterlimit:4;stroke-opacity:1;stroke-dasharray:none"
         d="m 206.25508,273.76082 13.2957,-12.97401 2.1445,-0.10722 c 0,0 14.4558,-21.48951 23.1602,-34.95477 0.5405,-0.83614 -0.2659,-2.20382 -1.0723,-2.7878 -1.739,-1.2594 -4.3222,-0.71291 -6.4334,-0.32167 -1.9981,0.3703 -3.5706,2.13456 -5.5756,2.46613 -3.1861,0.5269 -9.65,-0.85778 -9.65,-0.85778 0,0 -6.8153,12.03725 -9.6501,18.33517 -2.5722,5.71421 -5.6187,11.40327 -6.6479,17.5846 -0.7458,4.47971 0.4289,13.61735 0.4289,13.61735 z"
         id="path4103-9-6"
         inkscape:connector-curvature="0"
         sodipodi:nodetypes="cccsaaacaac" />
    </g>
    <g
       id="g4585">
      <path
         style="fill:none;stroke:#feff00;stroke-width:2.5;stroke-linecap:butt;stroke-linejoin:miter;stroke-miterlimit:4;stroke-opacity:1;stroke-dasharray:none"
         d="m 720.57664,339.52646 c 0.0314,5.16458 -46.09298,-37.11764 -59.44151,-74.60516 -8.56982,-24.06718 -16.82697,-49.06805 -17.55304,-74.60516 -0.74098,-26.06129 3.31513,-53.05606 13.55846,-77.03134 13.5008,-31.599652 34.25553,-61.262769 61.0099,-83.096798 24.09052,-19.660082 58.60171,-35.8214752 84.3099,-39.425489 3.82528,-0.5362631 10.88103,-0.784199 10.88103,-0.784199"
         id="path4341"
         inkscape:connector-curvature="0"
         sodipodi:nodetypes="csaassc" />
      <path
         style="fill:none;stroke:#005f27;stroke-width:2.5;stroke-linecap:butt;stroke-linejoin:miter;stroke-miterlimit:4;stroke-opacity:1;stroke-dasharray:none"
         d="m 722.77637,342.28417 c 0.0314,5.16458 -46.09298,-37.11764 -59.44151,-74.60516 -8.56982,-24.06718 -16.82697,-49.06805 -17.55304,-74.60516 -0.74098,-26.06129 3.31513,-53.05606 13.55846,-77.03134 13.5008,-31.599661 34.25553,-61.262778 61.0099,-83.096806 24.09052,-19.660081 58.60171,-35.8214806 84.3099,-39.4254906 3.82528,-0.53626 10.88103,-0.7842 10.88103,-0.7842"
         id="path4341-4"
         inkscape:connector-curvature="0"
         sodipodi:nodetypes="csaassc" />
      <path
         style="fill:none;stroke:#feff00;stroke-width:1px;stroke-linecap:butt;stroke-linejoin:miter;stroke-opacity:1"
         d="m 816.4109,-2.5654813 c 0,0 -15.23303,1.4017143 -22.6248,3.24828996 -6.71628,1.67782974 -14.28267,4.94839094 -19.53014,7.06299184 -14.74722,5.9427705 -28.2856,14.7472915 -41.24513,23.9585665 -9.23223,6.562015 -17.59984,14.302563 -25.7782,22.138929 -7.79785,7.471772 -22.13893,23.655293 -22.13893,23.655293"
         id="path4415"
         inkscape:connector-curvature="0"
         sodipodi:nodetypes="casaac" />
      <path
         style="fill:none;stroke:#005f27;stroke-width:2.5;stroke-linecap:butt;stroke-linejoin:miter;stroke-miterlimit:4;stroke-opacity:1;stroke-dasharray:none"
         d="m 819.59527,1.377068 c 0,0 -15.23303,1.4017141 -22.6248,3.2482901 -6.71628,1.67783 -14.28267,4.948391 -19.53014,7.0629919 -14.74722,5.94277 -28.2856,14.747291 -41.24513,23.958566 -9.23223,6.562015 -17.59984,14.302563 -25.7782,22.138929 -7.79785,7.471772 -22.13893,23.655293 -22.13893,23.655293"
         id="path4415-4"
         inkscape:connector-curvature="0"
         sodipodi:nodetypes="casaac" />
      <path
         style="fill:none;stroke:#feff00;stroke-width:2.5;stroke-linecap:butt;stroke-linejoin:miter;stroke-miterlimit:4;stroke-opacity:1;stroke-dasharray:none"
         d="m 813.98472,8.6556195 c 0,0 -14.99821,2.2139985 -22.31658,4.1307725 -7.07026,1.851794 -15.20361,4.780079 -20.74819,7.090328 -11.17051,4.654396 -21.39971,11.452 -31.23711,18.499653 -6.81882,4.885101 -13.10691,10.514228 -19.1062,16.376742 -4.76148,4.65293 -13.34401,14.860377 -13.34401,14.860377"
         id="path4435"
         inkscape:connector-curvature="0"
         sodipodi:nodetypes="casaac" />
      <path
         style="fill:none;stroke:#005f27;stroke-width:2.5;stroke-linecap:butt;stroke-linejoin:miter;stroke-miterlimit:4;stroke-opacity:1;stroke-dasharray:none"
         d="m 815.80435,12.446532 c 0,0 -14.99821,2.213998 -22.31658,4.130772 -7.07026,1.851794 -15.20361,4.780079 -20.74819,7.090328 -11.17051,4.654396 -21.4525,11.378887 -31.23711,18.499653 -6.54358,4.762103 -12.38592,10.440117 -18.19638,16.073469 -4.98058,4.828765 -14.25383,15.16365 -14.25383,15.16365"
         id="path4435-6"
         inkscape:connector-curvature="0"
         sodipodi:nodetypes="casaac" />
      <path
         style="fill:none;stroke:#feff00;stroke-width:2.5;stroke-linecap:butt;stroke-linejoin:miter;stroke-miterlimit:4;stroke-opacity:1;stroke-dasharray:none"
         d="m 807.31271,19.270174 c 0,0 -11.3594,3.112309 -16.96557,4.909629 -6.0279,1.932527 -13.24051,4.269898 -17.91082,6.311472 -9.24885,4.043032 -18.04218,9.178053 -26.38475,14.860377 -6.35483,4.328427 -12.28133,9.300957 -17.89311,14.557104 -4.2288,3.960804 -11.82764,12.737466 -11.82764,12.737466"
         id="path4455"
         inkscape:connector-curvature="0"
         sodipodi:nodetypes="casaac" />
      <path
         style="fill:none;stroke:#005f27;stroke-width:2.5;stroke-linecap:butt;stroke-linejoin:miter;stroke-miterlimit:4;stroke-opacity:1;stroke-dasharray:none"
         d="m 811.25526,21.999631 c 0,0 -11.3594,3.112309 -16.96557,4.909629 -6.0279,1.932527 -13.24051,4.269898 -17.91082,6.311472 -9.24885,4.043032 -18.04218,9.178053 -26.38475,14.860377 -6.35483,4.328427 -12.28133,9.300957 -17.89311,14.557104 -4.2288,3.960804 -11.82764,12.737466 -11.82764,12.737466"
         id="path4455-0"
         inkscape:connector-curvature="0"
         sodipodi:nodetypes="casaac" />
      <path
         style="fill:none;stroke:#feff00;stroke-width:2.5;stroke-linecap:butt;stroke-linejoin:miter;stroke-miterlimit:4;stroke-opacity:1;stroke-dasharray:none"
         d="m 708.44572,100.54734 c 0,0 12.21403,-18.944521 19.71274,-27.294572 6.36107,-7.083257 13.46877,-13.591414 21.22911,-19.106199 7.52354,-5.346507 15.8177,-9.617706 24.26184,-13.344012 8.89118,-3.923581 27.59784,-9.401463 27.59784,-9.401463"
         id="path4482"
         inkscape:connector-curvature="0"
         sodipodi:nodetypes="caaac" />
      <path
         style="fill:none;stroke:#005f27;stroke-width:2.5;stroke-linecap:butt;stroke-linejoin:miter;stroke-miterlimit:4;stroke-opacity:1;stroke-dasharray:none"
         d="m 711.47845,104.48989 c 0,0 12.21403,-18.944523 19.71274,-27.294574 6.36107,-7.083257 13.46877,-13.591414 21.22911,-19.106199 7.52354,-5.346507 15.8177,-9.617706 24.26184,-13.344012 8.89118,-3.923581 27.59784,-9.401463 27.59784,-9.401463"
         id="path4482-8"
         inkscape:connector-curvature="0"
         sodipodi:nodetypes="caaac" />
      <path
         style="fill:none;stroke:#feff00;stroke-width:2.5;stroke-linecap:butt;stroke-linejoin:miter;stroke-miterlimit:4;stroke-opacity:1;stroke-dasharray:none"
         d="m 790.02615,49.597474 c 0,0 -16.20458,6.01299 -23.65529,10.311282 -8.7042,5.021426 -16.76364,11.2032 -24.26184,17.893106 -4.42999,3.952447 -8.54879,8.30629 -12.13092,13.040739 -3.64034,4.811382 -9.40146,15.466919 -9.40146,15.466919"
         id="path4502"
         inkscape:connector-curvature="0"
         sodipodi:nodetypes="caaac" />
      <path
         style="fill:none;stroke:#005f27;stroke-width:2.5;stroke-linecap:butt;stroke-linejoin:miter;stroke-miterlimit:4;stroke-opacity:1;stroke-dasharray:none"
         d="m 793.51379,53.388388 c 0,0 -16.20458,6.01299 -23.65529,10.311282 -8.7042,5.021426 -16.76364,11.2032 -24.26184,17.893106 -4.42999,3.952447 -8.54879,8.30629 -12.13092,13.040739 -3.64034,4.811382 -9.40146,15.466915 -9.40146,15.466915"
         id="path4502-9"
         inkscape:connector-curvature="0"
         sodipodi:nodetypes="caaac" />
      <path
         style="fill:none;stroke:#005f27;stroke-width:2.5;stroke-linecap:butt;stroke-linejoin:miter;stroke-miterlimit:4;stroke-opacity:1;stroke-dasharray:none"
         d="m 962.29682,342.06561 c -0.031,5.16458 46.09298,-37.11764 59.44148,-74.60516 8.5698,-24.06718 16.827,-49.06805 17.5531,-74.60517 0.7409,-26.06129 -3.3152,-53.05606 -13.5585,-77.03135 -13.5008,-31.599659 -34.25558,-61.262776 -61.00988,-83.096804 -24.0905,-19.66008 -58.60175,-35.8214782 -84.30993,-39.4254882 -3.8253,-0.53626 -17.31439,-0.7842 -17.31439,-0.7842"
         id="path4341-4-7"
         inkscape:connector-curvature="0"
         sodipodi:nodetypes="csaassc" />
      <path
         style="fill:none;stroke:#feff00;stroke-width:2.5;stroke-linecap:butt;stroke-linejoin:miter;stroke-miterlimit:4;stroke-opacity:1;stroke-dasharray:none"
         d="m 862.50628,-3.1624529 c 0,0 15.22326,1.4412765 22.6248,3.2482907 7.14099,1.7434031 15.56926,5.1628364 20.81676,7.2774464 14.74725,5.9427648 27.94052,11.0280758 40.38736,19.2407398 9.95334,6.567402 18.5392,15.088845 26.85042,23.640054 10.38519,10.68505 28.57238,34.377612 28.57238,34.377612"
         id="path4415-3"
         inkscape:connector-curvature="0"
         sodipodi:nodetypes="casaac" />
      <path
         style="fill:none;stroke:#005f27;stroke-width:2.5;stroke-linecap:butt;stroke-linejoin:miter;stroke-miterlimit:4;stroke-opacity:1;stroke-dasharray:none"
         d="m 862.32413,-0.07768773 c 0,0 8.40516,0.19637656 21.33812,2.60495083 6.80565,1.2674533 14.28268,4.94839 19.53008,7.0629897 14.74735,5.9427742 32.4035,12.7199122 46.82086,22.2429992 10.28683,6.794757 19.26942,15.510377 27.70822,24.497838 8.94522,9.526821 24.06889,30.94647 24.06889,30.94647"
         id="path4415-4-3"
         inkscape:connector-curvature="0"
         sodipodi:nodetypes="cssaac" />
      <path
         style="fill:none;stroke:#feff00;stroke-width:2.5;stroke-linecap:butt;stroke-linejoin:miter;stroke-miterlimit:4;stroke-opacity:1;stroke-dasharray:none"
         d="m 862.35903,7.4153087 c 0,0 14.9983,2.214 22.3166,4.1307763 7.07028,1.851794 15.20358,4.780079 20.74823,7.090328 11.1705,4.654395 21.28563,10.405511 31.2371,16.784081 7.62478,4.887235 14.7476,10.548337 21.67956,16.376742 9.00095,7.568019 25.78189,24.081572 25.78189,24.081572"
         id="path4435-2"
         inkscape:connector-curvature="0"
         sodipodi:nodetypes="casaac" />
      <path
         style="fill:none;stroke:#005f27;stroke-width:2.5;stroke-linecap:butt;stroke-linejoin:miter;stroke-miterlimit:4;stroke-opacity:1;stroke-dasharray:none"
         d="m 865.90059,11.206225 c 0,0 14.9982,2.213998 22.3166,4.130772 7.07028,1.851794 15.20358,4.780078 20.74818,7.090327 11.17055,4.654396 21.06781,11.94004 31.23715,18.499653 8.05682,5.196956 16.17059,10.390621 23.55756,16.502362 7.64076,6.321718 21.33053,20.739256 21.33053,20.739256"
         id="path4435-6-3"
         inkscape:connector-curvature="0"
         sodipodi:nodetypes="casaac" />
      <path
         style="fill:none;stroke:#005f27;stroke-width:2.5;stroke-linecap:butt;stroke-linejoin:miter;stroke-miterlimit:4;stroke-opacity:1;stroke-dasharray:none"
         d="m 870.14182,22.314013 c 0,0 11.3594,3.112309 16.9656,4.909629 6.0279,1.932527 13.19047,4.388347 17.91078,6.311472 9.61998,3.919323 20.21157,9.196201 27.45698,15.074823 5.25603,4.26452 10.30238,7.732735 15.31975,11.769301 6.17326,4.966497 18.18119,15.310823 18.18119,15.310823"
         id="path4455-0-9"
         inkscape:connector-curvature="0"
         sodipodi:nodetypes="cassac" />
      <path
         style="fill:none;stroke:#feff00;stroke-width:2.5;stroke-linecap:butt;stroke-linejoin:miter;stroke-miterlimit:4;stroke-opacity:1;stroke-dasharray:none"
         d="m 970.52516,102.68136 c 0,0 -12.214,-18.944522 -19.7127,-27.294573 -6.3611,-7.083257 -13.4688,-13.591414 -21.2291,-19.106199 -7.5235,-5.346507 -15.8177,-9.617706 -24.26185,-13.344012 -8.8912,-3.92358 -27.59788,-9.401462 -27.59788,-9.401462"
         id="path4482-9"
         inkscape:connector-curvature="0"
         sodipodi:nodetypes="caaac" />
      <path
         style="fill:none;stroke:#005f27;stroke-width:2.5;stroke-linecap:butt;stroke-linejoin:miter;stroke-miterlimit:4;stroke-opacity:1;stroke-dasharray:none"
         d="m 971.13174,106.62391 c 0,0 -12.214,-18.944524 -19.7127,-27.294575 -6.3611,-7.083257 -13.4688,-13.591414 -21.2291,-19.106199 -7.5236,-5.346507 -15.8177,-9.617706 -24.26195,-13.344012 -8.8912,-3.923581 -27.59778,-9.401462 -27.59778,-9.401462"
         id="path4482-8-0"
         inkscape:connector-curvature="0"
         sodipodi:nodetypes="caaac" />
      <path
         style="fill:none;stroke:#feff00;stroke-width:2.5;stroke-linecap:butt;stroke-linejoin:miter;stroke-miterlimit:4;stroke-opacity:1;stroke-dasharray:none"
         d="m 888.94473,48.698764 c 0,0 16.20458,6.01299 23.65533,10.311282 8.7042,5.021426 16.7636,11.2032 24.2618,17.893106 4.43,3.952447 8.5488,8.30629 12.131,13.040742 3.6403,4.81138 9.4014,15.466916 9.4014,15.466916"
         id="path4502-2"
         inkscape:connector-curvature="0"
         sodipodi:nodetypes="caaac" />
      <path
         style="fill:none;stroke:#005f27;stroke-width:2.5;stroke-linecap:butt;stroke-linejoin:miter;stroke-miterlimit:4;stroke-opacity:1;stroke-dasharray:none"
         d="m 892.12914,53.096224 c 0,0 16.20458,6.01299 23.65533,10.311282 8.7042,5.021426 16.7636,11.2032 24.2618,17.893106 4.43,3.952447 8.5488,8.306288 12.1309,13.040738 3.6404,4.81138 9.4015,15.46692 9.4015,15.46692"
         id="path4502-9-0"
         inkscape:connector-curvature="0"
         sodipodi:nodetypes="caaac" />
      <path
         sodipodi:nodetypes="caaac"
         inkscape:connector-curvature="0"
         id="path4573"
         d="m 888.94473,48.698764 c 0,0 16.20458,6.01299 23.65533,10.311282 8.7042,5.021426 16.7636,11.2032 24.2618,17.893106 4.43,3.952447 8.5488,8.30629 12.131,13.040742 3.6403,4.81138 9.4014,15.466916 9.4014,15.466916"
         style="fill:none;stroke:#feff00;stroke-width:2.5;stroke-linecap:butt;stroke-linejoin:miter;stroke-miterlimit:4;stroke-opacity:1;stroke-dasharray:none" />
      <path
         sodipodi:nodetypes="caaac"
         inkscape:connector-curvature="0"
         id="path4575"
         d="m 970.52516,102.68136 c 0,0 -12.214,-18.944522 -19.7127,-27.294573 -6.3611,-7.083257 -13.4688,-13.591414 -21.2291,-19.106199 -7.5235,-5.346507 -15.8177,-9.617706 -24.26185,-13.344012 -8.8912,-3.92358 -27.59788,-9.401462 -27.59788,-9.401462"
         style="fill:none;stroke:#feff00;stroke-width:2.5;stroke-linecap:butt;stroke-linejoin:miter;stroke-miterlimit:4;stroke-opacity:1;stroke-dasharray:none" />
      <path
         sodipodi:nodetypes="casaac"
         inkscape:connector-curvature="0"
         id="path4577"
         d="m 867.53,19.102099 c 0,0 11.3594,3.112308 16.9655,4.909628 6.02788,1.932527 13.24048,4.269898 17.91078,6.311472 9.24895,4.043032 18.69941,7.633871 27.24264,12.930359 6.3736,3.951403 11.95222,9.071821 17.67865,13.913765 5.39261,4.559689 15.68763,14.238591 15.68763,14.238591"
         style="fill:none;stroke:#feff00;stroke-width:2.5;stroke-linecap:butt;stroke-linejoin:miter;stroke-miterlimit:4;stroke-opacity:1;stroke-dasharray:none" />
      <path
         sodipodi:nodetypes="casaac"
         inkscape:connector-curvature="0"
         id="path4579"
         d="m 862.35903,7.4153087 c 0,0 14.9983,2.214 22.3166,4.1307763 7.07028,1.851794 15.20358,4.780079 20.74823,7.090328 11.1705,4.654395 21.28563,10.405511 31.2371,16.784081 7.62478,4.887235 14.7476,10.548337 21.67956,16.376742 9.00095,7.568019 25.78189,24.081572 25.78189,24.081572"
         style="fill:none;stroke:#feff00;stroke-width:2.5;stroke-linecap:butt;stroke-linejoin:miter;stroke-miterlimit:4;stroke-opacity:1;stroke-dasharray:none" />
      <path
         sodipodi:nodetypes="casaac"
         inkscape:connector-curvature="0"
         id="path4581"
         d="m 862.50628,-3.1624529 c 0,0 15.22326,1.4412765 22.6248,3.2482907 7.14099,1.7434031 15.56926,5.1628364 20.81676,7.2774464 14.74725,5.9427648 27.94052,11.0280758 40.38736,19.2407398 9.95334,6.567402 18.5392,15.088845 26.85042,23.640054 10.38519,10.68505 28.57238,34.377612 28.57238,34.377612"
         style="fill:none;stroke:#feff00;stroke-width:2.5;stroke-linecap:butt;stroke-linejoin:miter;stroke-miterlimit:4;stroke-opacity:1;stroke-dasharray:none" />
      <path
         sodipodi:nodetypes="csaassc"
         inkscape:connector-curvature="0"
         id="path4583"
         d="m 959.49697,339.09345 c -0.031,5.16458 46.09293,-37.11764 59.44143,-74.60516 8.5699,-24.06718 16.827,-49.06805 17.5531,-74.60517 0.741,-26.06129 -3.3151,-53.05606 -13.5585,-77.03134 -13.5008,-31.59966 -34.25543,-61.26277 -61.00983,-83.0968 -24.0905,-19.66009 -58.6017,-35.8214801 -84.3099,-39.4254902 -3.8253,-0.5362698 -16.02771,-0.7841998 -16.02771,-0.7841998"
         style="fill:none;stroke:#feff00;stroke-width:2.5;stroke-linecap:butt;stroke-linejoin:miter;stroke-miterlimit:4;stroke-opacity:1;stroke-dasharray:none" />
    </g>
  </g>
</svg>
