<svg width="58" height="53" viewBox="0 0 58 53" fill="none" xmlns="http://www.w3.org/2000/svg">
<path d="M50.0691 44.0088C51.0297 39.8898 50.7175 35.9951 48.4962 32.3411C46.3769 28.7883 42.9276 26.0473 38.7764 24.6173C38.9925 24.3712 39.1306 24.1907 39.2987 24.032C40.5664 22.8481 41.4997 21.4015 42.0185 19.8165C42.5372 18.2315 42.6259 16.5554 42.2769 14.9322C41.928 13.3091 41.1518 11.7874 40.015 10.4978C38.8782 9.20825 37.4149 8.18941 35.7506 7.52879C34.2348 6.9186 32.6041 6.58057 30.9478 6.53324C26.0368 6.40743 21.1139 6.48401 16.191 6.48948C14.7321 6.48948 13.9877 7.1623 13.9877 8.47512C13.9877 14.3992 13.9877 20.3233 13.9877 26.2474C13.9877 27.1281 14.3059 27.3797 15.2364 27.3688C20.9158 27.3196 26.5892 27.2758 32.2686 27.2922C34.485 27.2549 36.6796 27.6964 38.6727 28.5806C40.6658 29.4649 42.4007 30.7666 43.7354 32.3794C48.6283 37.9808 46.9713 46.7602 40.1392 50.3267C38.2301 51.3278 35.8767 51.8037 33.6554 52.1319C27.3272 53.1081 20.8224 52.1315 15.1725 49.3569C9.52263 46.5823 5.05105 42.1686 2.46683 36.8156C-5.40385 20.8156 6.47721 1.94931 25.5986 0.155117C41.2079 -1.31087 54.7939 7.81324 57.4175 21.844C58.9424 29.9452 56.643 37.2423 50.7475 43.5384C50.6328 43.6647 50.5084 43.7836 50.3753 43.8939C50.2786 43.9431 50.1758 43.9817 50.0691 44.0088Z" fill="#0D4740"/>
</svg>
