<svg width="22" height="22" viewBox="0 0 22 22" fill="none" xmlns="http://www.w3.org/2000/svg">
<path d="M14.1547 0.394531H7.07725C3.18801 0.394531 0.0351562 3.54738 0.0351562 7.43662V14.5141C0.0351562 18.4033 3.18801 21.5562 7.07725 21.5562H14.1547C18.044 21.5562 21.1968 18.4033 21.1968 14.5141V7.43662C21.1968 3.54738 18.044 0.394531 14.1547 0.394531Z" fill="#222222" stroke="#777777" strokeWidth="0.37915"/>
<mask id="mask0_1_7" style="mask-type:luminance" maskUnits="userSpaceOnUse" x="8" y="8" width="5" height="5">
<path d="M12.5981 10.9739C12.5981 9.87942 11.7109 8.99219 10.6165 8.99219C9.522 8.99219 8.63477 9.87942 8.63477 10.9739C8.63477 12.0683 9.522 12.9556 10.6165 12.9556C11.7109 12.9556 12.5981 12.0683 12.5981 10.9739Z" fill="white"/>
</mask>
<g mask="url(#mask0_1_7)">
<path d="M10.6165 12.9556C11.7109 12.9556 12.5981 12.0683 12.5981 10.9739C12.5981 9.87942 11.7109 8.99219 10.6165 8.99219C9.522 8.99219 8.63477 9.87942 8.63477 10.9739C8.63477 12.0683 9.522 12.9556 10.6165 12.9556Z" fill="#3A3A3A"/>
<path d="M13.655 9.77099C13.655 10.7265 12.8945 11.2573 11.9564 11.2573C11.0183 11.2573 10.2578 10.4968 10.2578 9.55867C10.2578 8.62056 11.2306 7.75391 12.1687 7.75391C13.1068 7.75391 13.655 8.8329 13.655 9.77099Z" fill="#70FF00"/>
</g>
<path d="M20.03 10.9045C20.0302 10.9282 20.0302 10.9519 20.0302 10.9755H13.0184C13.0184 10.6602 12.9563 10.348 12.8356 10.0566C12.715 9.7653 12.5381 9.50058 12.3151 9.27761C12.0922 9.05464 11.8274 8.87775 11.5361 8.75709C11.2448 8.63641 10.9325 8.57431 10.6172 8.57431V1.5625C10.6409 1.5625 10.6646 1.56259 10.6882 1.56277L10.688 1.5625H13.6605C17.1784 1.5625 20.0302 4.41433 20.0302 7.93223V10.9048L20.03 10.9045Z" fill="#70FF00"/>
</svg>
