<svg xmlns="http://www.w3.org/2000/svg" xmlns:xlink="http://www.w3.org/1999/xlink" width="392px" height="414px" viewBox="0 0 392 414"><title>elephant</title><g id="Page-1" stroke="none" stroke-width="1" fill="none" fill-rule="evenodd"><g id="Artboard" transform="translate(-60.000000, -49.000000)"><g id="elephant" transform="translate(60.500000, 49.500000)"><path d="M356.733402,212.793817 C351.967652,212.793817 347.10157,212.793817 343.729314,212.359383 L388.900821,0.466666667 L87.9450987,0.466666667 L78.6031138,44.3946935 C67.8676347,42.6848033 60.3594881,47.0681375 58.0741577,54.0803583 C55.8389931,61.0870095 47.7734488,90.9627463 47.7734488,110.623699 C47.7734488,141.474129 55.5435723,152.780569 55.5435723,152.780569 L0.333333333,412.466667 L301.255612,412.466667 L337.603514,241.628025 C378.784054,240.213328 390.333333,227.375227 390.333333,219.872874 C390.333333,209.440873 369.726342,212.793817 356.733402,212.793817" id="Fill-10" fill="#F0BD2D"></path><path d="M221.186134,189.447308 C221.186134,189.447308 274.88575,243.134302 349.905713,233.973935 C377.081767,230.588218 383.110356,223.432551 382.257096,220.152638 C381.437297,217.000803 372.13509,218.33727 363.072687,218.710367 C357.819282,219.005504 312.668998,224.874821 252.528105,179.245609 C229.127587,173.164684 221.186134,189.447308 221.186134,189.447308 L221.186134,189.447308 Z M46.8645449,303.926847 L105.923526,283.467764 L187.691494,341.297807 L156.042795,361.088656 L202.804793,399.918592 L203.479593,386.208668 L217.605788,351.527348 L216.507146,321.629467 L186.776888,273.405281 L192.532211,252.461729 L190.569155,228.97332 C113.697673,229.145947 80.7272581,195.567213 62.552261,168.069404 L34.3333333,302.06693 L46.8645449,303.926847 Z M216.81945,124.255559 L199.927132,108.112151 L174.775479,130.080328 L216.81945,124.255559 Z M289.798282,157.80645 C294.86765,167.139445 296.635516,180.025215 298.113385,199.760378 C280.518381,191.730439 251.039083,168.04156 251.039083,168.04156 C217.483097,161.348088 205.933413,188.172095 205.933413,188.172095 L213.517947,194.898979 C210.657016,208.013062 201.343655,214.628574 201.343655,214.628574 C51.5435331,214.628574 54.8227286,121.354312 54.8227286,110.612458 C54.8227286,90.9608238 62.552261,62.2546254 65.0060808,55.9676617 C67.4766312,49.7363842 78.7530485,51.7912022 78.7530485,51.7912022 L152.027454,62.4550955 L167.447481,54.0242159 C167.447481,54.0242159 190.011469,52.3480635 214.605436,59.2698491 C214.605436,59.2698491 252.422145,90.8828632 267.033526,113.931351 L265.918154,125.876025 C265.918154,125.876025 285.163908,149.141689 289.798282,157.80645 L289.798282,157.80645 Z M274.935941,341.498557 C280.730302,341.498557 284.728913,337.990051 284.728913,337.990051 C285.320061,329.386544 283.32912,324.931654 283.32912,324.931654 C276.391503,326.747022 270.736563,324.296832 269.97811,317.219125 C269.024466,307.713504 290.540005,266.110398 296.044369,252.233416 C298.208191,246.815155 298.392228,239.080352 298.392228,239.080352 C275.426705,235.895106 255.578649,223.633021 255.578649,223.633021 L257.814971,238.178237 C258.729577,247.104723 247.135278,294.393382 249.511022,317.714732 C249.511022,317.714732 251.518693,341.592943 274.935941,341.498557 L274.935941,341.498557 Z M105.014497,335.133352 L104.841614,293.636051 L149.696325,325.070869 L136.668773,389.04866 L142.702939,401.466667 L88.596212,401.466667 L82.4560857,389.160033 L105.014497,335.133352 Z" id="Fill-12" fill="#003B65"></path></g></g></g></svg>