<?xml version="1.0" encoding="UTF-8"?>
<svg width="512px" height="512px" viewBox="0 0 512 512" version="1.1" xmlns="http://www.w3.org/2000/svg" xmlns:xlink="http://www.w3.org/1999/xlink">
    <title>gotok</title>
    <g id="Page-1" stroke="none" stroke-width="1" fill="none" fill-rule="evenodd">
        <g id="gotok" transform="translate(-0.000103, -0.000103)">
            <circle id="Oval" fill="#FFFFFF" fill-rule="nonzero" transform="translate(256.000103, 256.000103) rotate(-89.646700) translate(-256.000103, -256.000103) " cx="256.000103" cy="256.000103" r="254.436034"></circle>
            <path d="M256.500103,62.0001027 C320.841388,62.0001027 373.000103,114.158817 373.000103,178.500103 C373.000103,242.841388 320.841388,295.000103 256.500103,295.000103 C192.158945,295.000103 140.000103,242.841388 140.000103,178.500103 C140.000103,114.158817 192.158945,62.0001027 256.500103,62.0001027 Z M256.000103,120.000103 C222.310692,120.000103 195.000103,147.310311 195.000103,181.000103 C195.000103,214.689894 222.310692,242.000103 256.000103,242.000103 C289.689894,242.000103 317.000103,214.689894 317.000103,181.000103 C317.000103,147.310311 289.689894,120.000103 256.000103,120.000103 Z M256.520248,396.333436 C289.19335,396.333436 315.915289,370.922269 317.899865,338.834714 C318.030547,336.721269 319.738383,335.000103 321.861328,335.000103 L369.216955,335.00138 C371.356555,335.00138 373.090015,336.751936 372.996488,338.881992 C370.289317,400.705992 319.177219,450.000103 256.520248,450.000103 C193.419343,450.000103 142.03663,401.232436 140.000103,338.841103 C139.935042,336.725103 141.662354,335.000103 143.785106,335.000103 L191.179169,335.000103 C193.301857,335.000103 195.010334,336.721269 195.141016,338.834714 C197.125335,370.920992 223.847274,396.333436 256.520248,396.333436 Z" id="Shape" fill="#6200EE"></path>
        </g>
    </g>
</svg>