<svg width="122" height="118" viewBox="0 0 122 118" fill="none" xmlns="http://www.w3.org/2000/svg">
<path fill-rule="evenodd" clip-rule="evenodd" d="M0.256071 53.7185C3.00755 25.1626 26.1414 2.78694 55.6864 0.138273C58.1441 -0.0824456 64.5019 -0.0272698 67.0664 0.221044C72.0083 0.717664 79.408 2.40067 82.3999 3.69741L83.2814 4.08367L77.4846 16.5545C76.2714 19.1764 74.9569 22.0073 73.7122 24.6883L73.712 24.6886C71.6953 29.0322 69.8613 32.9822 68.9363 35.0123C65.1697 43.1514 63.8073 44.9172 61.2161 44.9172C59.453 44.9172 58.1174 44.1171 55.6063 41.634C49.4088 35.4813 43.6654 33.7156 38.296 36.3642C32.6595 39.1508 30.3354 45.0827 32.4457 51.2905C35.1972 59.2917 45.8826 67.3756 57.9036 70.5209C60.4414 71.1831 61.2428 71.2659 65.3033 71.2659C69.0699 71.2383 70.2453 71.1555 72.1152 70.6589C77.1486 69.3332 81.3995 66.8811 85.4042 62.9565L106.698 22.7715C107.237 21.6331 107.601 20.9137 107.644 20.9137C107.938 20.9137 111.571 25.7972 113.174 28.3079C125.061 47.0692 124.928 71.4866 112.853 90.1652C102.916 105.533 86.861 115.41 68.215 117.645C63.2998 118.252 55.4994 118.059 50.7444 117.231C44.3866 116.1 39.0974 114.417 33.4341 111.658C11.2887 100.925 -2.04129 77.6392 0.256071 53.7185Z" fill="#003EB0"/>
</svg>
