<?xml version="1.0" encoding="UTF-8"?>
<svg version="1.1" xmlns="http://www.w3.org/2000/svg" width="512" height="512">
<path d="M0 0 C168.96 0 337.92 0 512 0 C512 168.96 512 337.92 512 512 C343.04 512 174.08 512 0 512 C0 343.04 0 174.08 0 0 Z " fill="#FEFEFE" transform="translate(0,0)"/>
<path d="M0 0 C17.30650279 -0.02333667 34.61300069 -0.04098296 51.91951561 -0.05181217 C59.95481262 -0.05697349 67.99009988 -0.06401308 76.02539062 -0.07543945 C83.02707381 -0.08539128 90.02874992 -0.09185462 97.03043997 -0.09408849 C100.73946293 -0.09539475 104.44846566 -0.09847525 108.15748215 -0.10573006 C112.2929856 -0.11375382 116.42845364 -0.11399081 120.56396484 -0.11352539 C122.41865135 -0.1189183 122.41865135 -0.1189183 124.31080627 -0.12442017 C125.43263809 -0.1230455 126.55446991 -0.12167084 127.71029663 -0.12025452 C128.68924078 -0.12117631 129.66818493 -0.1220981 130.67679405 -0.12304783 C133 0 133 0 135 1 C135.49902344 2.88818359 135.49902344 2.88818359 135.859375 5.3984375 C136.00238037 6.33888916 136.14538574 7.27934082 136.29272461 8.24829102 C136.44362549 9.28010498 136.59452637 10.31191895 136.75 11.375 C138.71203699 23.94320509 141.40591426 36.27984533 144.24755859 48.67382812 C145.67679539 54.99177821 147.01663325 61.3296779 148.35131836 67.66821289 C149.1313938 71.31023392 149.93021901 74.79663143 151.140625 78.32421875 C152 81 152 81 152 86 C183.35 86 214.7 86 247 86 C249.24944054 93.87304188 249.24944054 93.87304188 250.06567383 97.94360352 C250.24959183 98.85308243 250.43350983 99.76256134 250.6230011 100.69960022 C250.81573105 101.66627121 251.008461 102.6329422 251.20703125 103.62890625 C251.51793953 105.16719337 251.51793953 105.16719337 251.83512878 106.73655701 C252.49690884 110.0113425 253.15514065 113.28682446 253.8125 116.5625 C256.83949851 131.64500784 260.0134202 146.67417015 263.46603394 161.66506958 C264.6653695 166.90953223 265.78984101 172.16821838 266.875 177.4375 C267.21144531 178.98920898 267.21144531 178.98920898 267.5546875 180.57226562 C267.8640625 182.08143555 267.8640625 182.08143555 268.1796875 183.62109375 C268.36257324 184.4917749 268.54545898 185.36245605 268.73388672 186.25952148 C269.30347515 192.12523726 267.63469785 197.70947631 266.0222168 203.30541992 C265.82367096 203.99917725 265.62512512 204.69293457 265.42056274 205.40771484 C264.76801389 207.68330733 264.10877271 209.95689765 263.44921875 212.23046875 C262.98906855 213.82829763 262.52926096 215.42622521 262.06977844 217.02424622 C261.10680122 220.36963205 260.14067886 223.71408758 259.17211914 227.05786133 C257.94012067 231.31151734 256.71440414 235.56695014 255.49089336 239.82305431 C254.54141841 243.12420706 253.58932091 246.42459887 252.63639259 249.72475624 C252.18412902 251.29162255 251.73247154 252.85866394 251.28146935 254.42589378 C248.71011862 263.35293251 246.03194353 272.21540873 243 281 C241.09967367 278.14951051 240.1877256 275.92629776 239.12060547 272.70239258 C238.58027176 271.08105156 238.58027176 271.08105156 238.02902222 269.42695618 C237.64561676 268.26125595 237.2622113 267.09555573 236.8671875 265.89453125 C236.47048859 264.70018967 236.07378967 263.50584808 235.66506958 262.27531433 C234.61299711 259.10514581 233.56484101 255.93373686 232.51855469 252.76165771 C231.44923297 249.52296375 230.37479178 246.28596955 229.30078125 243.04882812 C227.19579667 236.70077551 225.09595858 230.35103809 223 224 C223.74799367 227.19403696 224.72054683 230.2705954 225.76586914 233.37939453 C226.12616714 234.45375763 226.48646515 235.52812073 226.85768127 236.63504028 C227.44053139 238.36643753 227.44053139 238.36643753 228.03515625 240.1328125 C228.85229458 242.57158743 229.66934936 245.01039036 230.48632812 247.44921875 C231.77757286 251.29916322 233.0703027 255.14860636 234.36450195 258.99755859 C235.6120172 262.70826293 236.8548071 266.42054266 238.09765625 270.1328125 C238.68354271 271.87028244 238.68354271 271.87028244 239.28126526 273.64285278 C239.81698402 275.24494095 239.81698402 275.24494095 240.36352539 276.87939453 C240.68027725 277.82219269 240.99702911 278.76499084 241.32337952 279.73635864 C242 282 242 282 242 284 C213.62 284 185.24 284 156 284 C156 286.31 156 288.62 156 291 C155.60956573 293.22004604 155.60956573 293.22004604 155.05090332 295.14463806 C154.73537254 296.25711914 154.73537254 296.25711914 154.41346741 297.39207458 C154.17969894 298.18042191 153.94593048 298.96876923 153.70507812 299.78100586 C153.46123886 300.63058868 153.2173996 301.48017151 152.96617126 302.35549927 C152.16331956 305.14457224 151.34739806 307.92963552 150.53125 310.71484375 C149.96993198 312.65516592 149.40943752 314.59572652 148.84973145 316.53651428 C147.37834932 321.63026811 145.89583336 326.72071509 144.41094971 331.81054688 C142.89611514 337.01041317 141.39186827 342.21333937 139.88671875 347.41601562 C136.93481431 357.61369402 133.97113474 367.8079092 131 378 C130.34 378 129.68 378 129 378 C126.69 371.4 124.38 364.8 122 358 C122.5053125 359.49273437 123.010625 360.98546875 123.53125 362.5234375 C124.18765745 364.47390535 124.84389887 366.42442908 125.5 368.375 C125.83386719 369.35984375 126.16773438 370.3446875 126.51171875 371.359375 C126.82753906 372.30039062 127.14335937 373.24140625 127.46875 374.2109375 C127.90864258 375.51490479 127.90864258 375.51490479 128.35742188 376.84521484 C129 379 129 379 129 381 C87.42 381 45.84 381 3 381 C-1.96051179 371.07897641 -6.84834886 361.18490034 -11.5 351.125 C-12.7110548 348.51637604 -13.92393172 345.90860024 -15.13671875 343.30078125 C-15.44804245 342.63082626 -15.75936615 341.96087128 -16.0801239 341.27061462 C-19.79874743 333.27259308 -23.55505868 325.29233901 -27.3125 317.3125 C-27.95182292 315.9539388 -28.59114583 314.5953776 -29.23046875 313.23681641 C-34.1370879 302.81661303 -39.06943202 292.40897685 -44 282 C-73.04 282 -102.08 282 -132 282 C-136.98094716 272.66072408 -141.76062031 263.47804547 -146.125 253.875 C-147.24808805 251.42878109 -148.37249059 248.98323965 -149.5 246.5390625 C-149.78594025 245.91882202 -150.07188049 245.29858154 -150.3664856 244.6595459 C-153.53220311 237.81414029 -156.82763414 231.03267567 -160.125 224.25 C-164.62690984 214.97633449 -169.06211452 205.67575877 -173.375 196.3125 C-173.84566895 195.29639648 -174.31633789 194.28029297 -174.80126953 193.23339844 C-175.43718018 191.84362793 -175.43718018 191.84362793 -176.0859375 190.42578125 C-176.4576709 189.61536377 -176.8294043 188.80494629 -177.21240234 187.9699707 C-178 186 -178 186 -178 184 C-132.13 184 -86.26 184 -39 184 C-39 183.67 -39 183.34 -39 183 C-84.87 183 -130.74 183 -178 183 C-177.07446253 178.37231263 -175.62387325 174.65146905 -173.640625 170.4375 C-173.30002548 169.70216034 -172.95942596 168.96682068 -172.60850525 168.209198 C-171.87552601 166.62796197 -171.14017109 165.04782544 -170.40267944 163.46868896 C-168.446206 159.27851759 -166.50774472 155.08001147 -164.56640625 150.8828125 C-164.17564407 150.0392923 -163.7848819 149.19577209 -163.38227844 148.32669067 C-159.92929004 140.86698594 -156.5417804 133.37952697 -153.1875 125.875 C-152.67380859 124.72676758 -152.16011719 123.57853516 -151.63085938 122.39550781 C-148.93055146 116.34976139 -146.24498424 110.29758082 -143.56640625 104.2421875 C-143.00433306 102.97281019 -142.44224026 101.70344157 -141.88012695 100.43408203 C-140.81448552 98.02748904 -139.75240153 95.61942758 -138.69213867 93.21044922 C-137.9860144 91.61354248 -137.9860144 91.61354248 -137.265625 89.984375 C-136.85086914 89.04303711 -136.43611328 88.10169922 -136.00878906 87.13183594 C-135 85 -135 85 -134 84 C-131.04753646 83.90473194 -128.11851579 83.87447548 -125.16577148 83.88647461 C-123.77566864 83.88625557 -123.77566864 83.88625557 -122.35748291 83.8860321 C-119.27866313 83.88673162 -116.19990303 83.89452579 -113.12109375 83.90234375 C-110.99259982 83.90420779 -108.86410547 83.90563176 -106.73561096 83.90663147 C-101.1213768 83.91045772 -95.50716832 83.92028892 -89.89294434 83.93133545 C-84.16886747 83.94154727 -78.44478647 83.9461286 -72.72070312 83.95117188 C-61.48045744 83.96191109 -50.24023085 83.9789888 -39 84 C-39 84.99 -39 85.98 -39 87 C-38.7004541 86.33097656 -38.4009082 85.66195312 -38.09228516 84.97265625 C-36.60356275 81.6482705 -35.11441811 78.3240741 -33.625 75 C-33.202827 74.05778091 -33.202827 74.05778091 -32.77212524 73.0965271 C-28.99206263 64.66133974 -25.20494086 56.22935624 -21.41015625 47.80078125 C-20.82364288 46.49800735 -20.82364288 46.49800735 -20.22528076 45.16891479 C-18.29945837 40.89160413 -16.37301942 36.61457236 -14.44580078 32.33789062 C-13.71776307 30.72135884 -12.98973532 29.10482256 -12.26171875 27.48828125 C-11.95049576 26.79817459 -11.63927277 26.10806793 -11.31861877 25.39704895 C-7.51354314 16.9457605 -3.76114985 8.47089893 0 0 Z " fill="#B2DDF7" transform="translate(209,63)"/>
<path d="M0 0 C0.33 0 0.66 0 1 0 C1.15033691 0.76739502 1.30067383 1.53479004 1.45556641 2.32543945 C4.15888964 16.08419003 6.90598806 29.82272269 10 43.5 C12.47807604 54.45930965 14.73987522 65.45275991 16.90820312 76.4765625 C17.13830078 77.64574219 17.36839844 78.81492187 17.60546875 80.01953125 C17.82895996 81.16631348 18.05245117 82.3130957 18.28271484 83.49462891 C18.77921349 85.92101677 19.31338986 88.33988552 19.87744141 90.75146484 C20.16151855 91.97172363 20.4455957 93.19198242 20.73828125 94.44921875 C21.00294189 95.53936279 21.26760254 96.62950684 21.5402832 97.75268555 C22.40168265 103.83737701 20.70178712 109.47665014 19.0222168 115.30541992 C18.82367096 115.99917725 18.62512512 116.69293457 18.42056274 117.40771484 C17.76801389 119.68330733 17.10877271 121.95689765 16.44921875 124.23046875 C15.98906855 125.82829763 15.52926096 127.42622521 15.06977844 129.02424622 C14.10680122 132.36963205 13.14067886 135.71408758 12.17211914 139.05786133 C10.94012067 143.31151734 9.71440414 147.56695014 8.49089336 151.82305431 C7.54141841 155.12420706 6.58932091 158.42459887 5.63639259 161.72475624 C5.18412902 163.29162255 4.73247154 164.85866394 4.28146935 166.42589378 C1.71011862 175.35293251 -0.96805647 184.21540873 -4 193 C-5.90032633 190.14951051 -6.8122744 187.92629776 -7.87939453 184.70239258 C-8.239617 183.62149857 -8.59983948 182.54060455 -8.97097778 181.42695618 C-9.54608597 179.67840584 -9.54608597 179.67840584 -10.1328125 177.89453125 C-10.52951141 176.70018967 -10.92621033 175.50584808 -11.33493042 174.27531433 C-12.38700289 171.10514581 -13.43515899 167.93373686 -14.48144531 164.76165771 C-15.55076703 161.52296375 -16.62520822 158.28596955 -17.69921875 155.04882812 C-19.80420333 148.70077551 -21.90404142 142.35103809 -24 136 C-23.25200633 139.19403696 -22.27945317 142.2705954 -21.23413086 145.37939453 C-20.87383286 146.45375763 -20.51353485 147.52812073 -20.14231873 148.63504028 C-19.55946861 150.36643753 -19.55946861 150.36643753 -18.96484375 152.1328125 C-18.14770542 154.57158743 -17.33065064 157.01039036 -16.51367188 159.44921875 C-15.22242714 163.29916322 -13.9296973 167.14860636 -12.63549805 170.99755859 C-11.3879828 174.70826293 -10.1451929 178.42054266 -8.90234375 182.1328125 C-8.51175278 183.29112579 -8.1211618 184.44943909 -7.71873474 185.64285278 C-7.3615889 186.71091156 -7.00444305 187.77897034 -6.63647461 188.87939453 C-6.31972275 189.82219269 -6.00297089 190.76499084 -5.67662048 191.73635864 C-5 194 -5 194 -5 196 C-33.38 196 -61.76 196 -91 196 C-91 198.31 -91 200.62 -91 203 C-91.39043427 205.22004604 -91.39043427 205.22004604 -91.94909668 207.14463806 C-92.15945053 207.88629211 -92.36980438 208.62794617 -92.58653259 209.39207458 C-92.82030106 210.18042191 -93.05406952 210.96876923 -93.29492188 211.78100586 C-93.66068077 213.0553801 -93.66068077 213.0553801 -94.03382874 214.35549927 C-94.83668044 217.14457224 -95.65260194 219.92963552 -96.46875 222.71484375 C-97.03006802 224.65516592 -97.59056248 226.59572652 -98.15026855 228.53651428 C-99.62165068 233.63026811 -101.10416664 238.72071509 -102.58905029 243.81054688 C-104.10388486 249.01041317 -105.60813173 254.21333937 -107.11328125 259.41601562 C-110.06518569 269.61369402 -113.02886526 279.8079092 -116 290 C-116.66 290 -117.32 290 -118 290 C-120.31 283.4 -122.62 276.8 -125 270 C-124.4946875 271.49273437 -123.989375 272.98546875 -123.46875 274.5234375 C-122.81234255 276.47390535 -122.15610113 278.42442908 -121.5 280.375 C-121.16613281 281.35984375 -120.83226562 282.3446875 -120.48828125 283.359375 C-120.17246094 284.30039062 -119.85664063 285.24140625 -119.53125 286.2109375 C-119.23798828 287.08024902 -118.94472656 287.94956055 -118.64257812 288.84521484 C-118 291 -118 291 -118 293 C-159.58 293 -201.16 293 -244 293 C-248.96050833 283.07898333 -253.84843608 273.18493819 -258.5 263.125 C-259.70843978 260.52157936 -260.91868488 257.91899909 -262.12890625 255.31640625 C-262.43981705 254.64727707 -262.75072784 253.97814789 -263.07106018 253.28874207 C-267.16021225 244.49396417 -271.2986553 235.72235144 -275.43359375 226.94903564 C-275.91505859 225.92746368 -275.91505859 225.92746368 -276.40625 224.88525391 C-276.72280548 224.21369263 -277.03936096 223.54213135 -277.36550903 222.85021973 C-277.9882382 221.52790512 -278.61022179 220.2052391 -279.23141479 218.88220215 C-280.81722341 215.50476192 -282.41369965 212.13305059 -284.02783203 208.76904297 C-284.67613254 207.40723883 -285.32440817 206.04542285 -285.97265625 204.68359375 C-286.42976234 203.74097435 -286.42976234 203.74097435 -286.89610291 202.77931213 C-288.22370485 199.97724652 -289 198.14496049 -289 195 C-243.46 195 -197.92 195 -151 195 C-147.625 204 -147.625 204 -146.3125 208 C-145.93544922 209.1446875 -145.93544922 209.1446875 -145.55078125 210.3125 C-145.27814453 211.1478125 -145.27814453 211.1478125 -145 212 C-145.30744141 210.96552734 -145.30744141 210.96552734 -145.62109375 209.91015625 C-146.4690807 206.95234531 -147.24273073 203.98223567 -148 201 C-148.20882812 200.28328125 -148.41765625 199.5665625 -148.6328125 198.828125 C-150.33167815 190.85890066 -146.0474597 183.19907146 -143 176 C-142.34 176 -141.68 176 -141 176 C-140.67 176.33 -140.34 176.66 -140 177 C-140.44690186 176.08637695 -140.89380371 175.17275391 -141.35424805 174.23144531 C-150.65500753 155.20526275 -159.81864082 136.13159214 -168.66650391 116.89013672 C-171.05620442 111.71084805 -173.49108505 106.5527859 -175.92578125 101.39453125 C-177 99 -177 99 -177 98 C-131.13 98 -85.26 98 -38 98 C-34.7 107.57 -31.4 117.14 -28 127 C-30.09141464 119.33147966 -32.27489406 112.05139434 -35.27734375 104.74023438 C-38.90351473 94.81643794 -32.8551837 84.6882182 -29.28125 75.35546875 C-28.82327026 74.15102615 -28.36529053 72.94658356 -27.89343262 71.7056427 C-26.67763746 68.50829164 -25.45771182 65.31253288 -24.23681641 62.11712646 C-23.03570404 58.97156919 -21.83824153 55.82462392 -20.640625 52.67773438 C-19.21296588 48.9267594 -17.78468599 45.17602689 -16.35327148 41.42648315 C-13.84316789 34.85004514 -11.34454339 28.26950785 -8.86328125 21.68212891 C-8.10223203 19.66453978 -7.34103099 17.64700798 -6.57981873 15.62948036 C-6.0916622 14.3337984 -5.60447911 13.03774924 -5.11830139 11.74132347 C-4.44776966 9.95336901 -3.77378017 8.16671244 -3.09960938 6.38012695 C-2.71720093 5.36255814 -2.33479248 4.34498932 -1.9407959 3.29658508 C-1 1 -1 1 0 0 Z " fill="#67C4F1" transform="translate(456,151)"/>
<path d="M0 0 C17.30650279 -0.02333667 34.61300069 -0.04098296 51.91951561 -0.05181217 C59.95481262 -0.05697349 67.99009988 -0.06401308 76.02539062 -0.07543945 C83.02707381 -0.08539128 90.02874992 -0.09185462 97.03043997 -0.09408849 C100.73946293 -0.09539475 104.44846566 -0.09847525 108.15748215 -0.10573006 C112.2929856 -0.11375382 116.42845364 -0.11399081 120.56396484 -0.11352539 C122.41865135 -0.1189183 122.41865135 -0.1189183 124.31080627 -0.12442017 C125.43263809 -0.1230455 126.55446991 -0.12167084 127.71029663 -0.12025452 C128.68924078 -0.12117631 129.66818493 -0.1220981 130.67679405 -0.12304783 C133 0 133 0 135 1 C134.67 2.32 134.34 3.64 134 5 C133.67 4.67 133.34 4.34 133 4 C131.93328153 6.82754751 130.86660807 9.65511198 129.79998779 12.48269653 C128.84667603 15.00981286 127.89327124 17.53689392 126.9397583 20.06393433 C124.31385764 27.0239306 121.69071501 33.98495073 119.07226562 40.94775391 C118.02237355 43.73869642 116.97221781 46.52953959 115.921875 49.3203125 C115.66259216 50.00931263 115.40330933 50.69831276 115.13616943 51.40819168 C112.05297583 59.59788702 108.94107518 67.77522374 105.765625 75.9296875 C104.92826365 78.09609147 104.09200057 80.26291526 103.25622559 82.42993164 C102.75688923 83.71426183 102.2518643 84.99639658 101.74084473 86.27612305 C98.16114874 94.95297304 98.16114874 94.95297304 99 104 C99.17660156 104.80308594 99.35320312 105.60617188 99.53515625 106.43359375 C99.70917969 107.09488281 99.88320313 107.75617188 100.0625 108.4375 C100.5265625 110.2009375 100.5265625 110.2009375 101 112 C100.34 111.67 99.68 111.34 99 111 C98.01 107.37 97.02 103.74 96 100 C50.13 100 4.26 100 -43 100 C-32.18200576 123.08831086 -32.18200576 123.08831086 -21 146 C-21.33 146.99 -21.66 147.98 -22 149 C-22.66 148.34 -23.32 147.68 -24 147 C-24.57500244 148.58252563 -24.57500244 148.58252563 -25.16162109 150.19702148 C-26.58197126 154.10023706 -28.01170272 157.99995948 -29.44433594 161.89868164 C-30.06377664 163.58849379 -30.68064842 165.2792499 -31.29492188 166.97094727 C-32.17689584 169.39850949 -33.06796889 171.82255787 -33.9609375 174.24609375 C-34.23497406 175.00651474 -34.50901062 175.76693573 -34.79135132 176.55039978 C-36.77225659 181.88612829 -36.77225659 181.88612829 -39 183 C-40.83721952 183.09353507 -42.67788835 183.12191181 -44.51748657 183.12025452 C-45.68980331 183.12162918 -46.86212006 183.12300385 -48.06996155 183.12442017 C-50.0088047 183.11902725 -50.0088047 183.11902725 -51.98681641 183.11352539 C-53.3565521 183.11324343 -54.72628795 183.11340142 -56.09602356 183.1139679 C-59.8210061 183.11425553 -63.54595663 183.10836428 -67.27093172 183.10139394 C-71.16136292 183.09515476 -75.0517948 183.09455615 -78.94223022 183.09336853 C-86.31223352 183.09025688 -93.68222202 183.08204573 -101.05221879 183.07201904 C-109.44146265 183.06085274 -117.8307072 183.05534615 -126.21995664 183.05032361 C-143.47997965 183.03986299 -160.73998826 183.02226676 -178 183 C-177.18745438 178.46023997 -175.59521955 174.59058621 -173.640625 170.4375 C-173.30002548 169.70216034 -172.95942596 168.96682068 -172.60850525 168.209198 C-171.87552601 166.62796197 -171.14017109 165.04782544 -170.40267944 163.46868896 C-168.446206 159.27851759 -166.50774472 155.08001147 -164.56640625 150.8828125 C-164.17564407 150.0392923 -163.7848819 149.19577209 -163.38227844 148.32669067 C-159.92929004 140.86698594 -156.5417804 133.37952697 -153.1875 125.875 C-152.67380859 124.72676758 -152.16011719 123.57853516 -151.63085938 122.39550781 C-148.93055146 116.34976139 -146.24498424 110.29758082 -143.56640625 104.2421875 C-143.00433306 102.97281019 -142.44224026 101.70344157 -141.88012695 100.43408203 C-140.81448552 98.02748904 -139.75240153 95.61942758 -138.69213867 93.21044922 C-137.9860144 91.61354248 -137.9860144 91.61354248 -137.265625 89.984375 C-136.85086914 89.04303711 -136.43611328 88.10169922 -136.00878906 87.13183594 C-135 85 -135 85 -134 84 C-131.04753646 83.90473194 -128.11851579 83.87447548 -125.16577148 83.88647461 C-123.77566864 83.88625557 -123.77566864 83.88625557 -122.35748291 83.8860321 C-119.27866313 83.88673162 -116.19990303 83.89452579 -113.12109375 83.90234375 C-110.99259982 83.90420779 -108.86410547 83.90563176 -106.73561096 83.90663147 C-101.1213768 83.91045772 -95.50716832 83.92028892 -89.89294434 83.93133545 C-84.16886747 83.94154727 -78.44478647 83.9461286 -72.72070312 83.95117188 C-61.48045744 83.96191109 -50.24023085 83.9789888 -39 84 C-39 84.99 -39 85.98 -39 87 C-38.7004541 86.33097656 -38.4009082 85.66195312 -38.09228516 84.97265625 C-36.60356275 81.6482705 -35.11441811 78.3240741 -33.625 75 C-33.202827 74.05778091 -33.202827 74.05778091 -32.77212524 73.0965271 C-28.99206263 64.66133974 -25.20494086 56.22935624 -21.41015625 47.80078125 C-20.82364288 46.49800735 -20.82364288 46.49800735 -20.22528076 45.16891479 C-18.29945837 40.89160413 -16.37301942 36.61457236 -14.44580078 32.33789062 C-13.71776307 30.72135884 -12.98973532 29.10482256 -12.26171875 27.48828125 C-11.95049576 26.79817459 -11.63927277 26.10806793 -11.31861877 25.39704895 C-7.51354314 16.9457605 -3.76114985 8.47089893 0 0 Z " fill="#B2DDF7" transform="translate(209,63)"/>
<path d="M0 0 C45.87 0 91.74 0 139 0 C143.1771539 11.48717322 144.11337411 14.5026634 139.62109375 24.640625 C138.56994431 26.84856196 137.50803744 29.05139808 136.4375 31.25 C135.26262574 33.71738677 134.09040748 36.18586921 132.921875 38.65625 C132.45717049 39.63522247 132.45717049 39.63522247 131.983078 40.63397217 C125.36908971 54.62102869 119.2571769 68.85333918 113 83 C89.9 83 66.8 83 43 83 C42.67 84.65 42.34 86.3 42 88 C41.37209386 89.35201927 40.69731752 90.68243767 40 92 C38.77604541 94.69619753 37.59774678 97.4126182 36.41015625 100.125 C35.70142583 101.73448685 34.99243341 103.34385836 34.28320312 104.953125 C33.17042802 107.48003645 32.05918688 110.00757202 30.95239258 112.53710938 C29.88052913 114.98517787 28.80215658 117.43029129 27.72265625 119.875 C27.39443375 120.6292627 27.06621124 121.38352539 26.7280426 122.16064453 C26.41439255 122.86817871 26.10074249 123.57571289 25.77758789 124.3046875 C25.37027184 125.2325708 25.37027184 125.2325708 24.95472717 126.17919922 C24 128 24 128 21 132 C15.555 116.16 15.555 116.16 10 100 C12.20979988 108.3236512 12.20979988 108.3236512 14.859375 116.421875 C15.32537109 117.74251953 15.32537109 117.74251953 15.80078125 119.08984375 C16.44031215 120.88210937 17.08895059 122.67114808 17.74609375 124.45703125 C18.20435547 125.76994141 18.20435547 125.76994141 18.671875 127.109375 C18.9512793 127.88249023 19.23068359 128.65560547 19.51855469 129.45214844 C20.81493667 136.31271759 17.9007851 142.0445123 15.03515625 148.07421875 C14.64178574 148.92047318 14.24841522 149.7667276 13.84312439 150.6386261 C12.59153055 153.32570707 11.32719281 156.00656328 10.0625 158.6875 C9.21596171 160.50026126 8.37025005 162.3134088 7.52539062 164.12695312 C1.76411176 176.47177649 1.76411176 176.47177649 -1 182 C-30.04 182 -59.08 182 -89 182 C-93.98094716 172.66072408 -98.76062031 163.47804547 -103.125 153.875 C-104.24808805 151.42878109 -105.37249059 148.98323965 -106.5 146.5390625 C-106.78594025 145.91882202 -107.07188049 145.29858154 -107.3664856 144.6595459 C-110.53220311 137.81414029 -113.82763414 131.03267567 -117.125 124.25 C-121.62690984 114.97633449 -126.06211452 105.67575877 -130.375 96.3125 C-130.84566895 95.29639648 -131.31633789 94.28029297 -131.80126953 93.23339844 C-132.43718018 91.84362793 -132.43718018 91.84362793 -133.0859375 90.42578125 C-133.4576709 89.61536377 -133.8294043 88.80494629 -134.21240234 87.9699707 C-135 86 -135 86 -135 84 C-89.13 84 -43.26 84 4 84 C8.95 71.13 13.9 58.26 19 45 C19.66 45.33 20.32 45.66 21 46 C20.75165909 45.49745193 20.50331818 44.99490387 20.24745178 44.47712708 C17.66124708 39.24072887 15.08327022 34.00033932 12.51000977 28.75756836 C11.54889482 26.80210713 10.58569463 24.84766935 9.62036133 22.89428711 C8.23227777 20.08454309 6.85176256 17.27119026 5.47265625 14.45703125 C5.04034195 13.58601273 4.60802765 12.7149942 4.16261292 11.81758118 C3.76227341 10.997108 3.3619339 10.17663483 2.94946289 9.33129883 C2.41984703 8.25541252 2.41984703 8.25541252 1.87953186 7.15779114 C1 5 1 5 0 0 Z " fill="#67C4F1" transform="translate(166,163)"/>
<path d="M0 0 C0.66 0 1.32 0 2 0 C6.455 9.405 6.455 9.405 11 19 C15.31384766 19.09087891 15.31384766 19.09087891 19.71484375 19.18359375 C22.48822799 19.24533303 25.26156937 19.30874145 28.03491211 19.37231445 C29.96814185 19.41573041 31.90141159 19.45740042 33.8347168 19.49731445 C36.60738202 19.55485631 39.37984457 19.6185962 42.15234375 19.68359375 C43.02213364 19.70030624 43.89192352 19.71701874 44.78807068 19.73423767 C50.88612829 19.88612829 50.88612829 19.88612829 52 21 C51.86251107 27.10097984 50.38984543 32.91274245 48.68334961 38.73266602 C48.44911789 39.55328018 48.21488617 40.37389435 47.97355652 41.21937561 C47.20669875 43.8995821 46.42962794 46.57670686 45.65234375 49.25390625 C45.11505073 51.12416119 44.57840393 52.99460188 44.04237366 54.86521912 C42.63663262 59.76441304 41.22218037 64.66104932 39.80584717 69.55718994 C38.35939566 74.56329281 36.92126876 79.57178535 35.48242188 84.58007812 C32.66305152 94.38906409 29.83446472 104.19536601 27 114 C26.34 114 25.68 114 25 114 C22.69 107.4 20.38 100.8 18 94 C18.5053125 95.49273437 19.010625 96.98546875 19.53125 98.5234375 C20.18765745 100.47390535 20.84389887 102.42442908 21.5 104.375 C21.83386719 105.35984375 22.16773438 106.3446875 22.51171875 107.359375 C22.82753906 108.30039062 23.14335937 109.24140625 23.46875 110.2109375 C23.76201172 111.08024902 24.05527344 111.94956055 24.35742188 112.84521484 C25 115 25 115 25 117 C-16.58 117 -58.16 117 -101 117 C-105.96050833 107.07898333 -110.84843608 97.18493819 -115.5 87.125 C-116.70843978 84.52157936 -117.91868488 81.91899909 -119.12890625 79.31640625 C-119.43981705 78.64727707 -119.75072784 77.97814789 -120.07106018 77.28874207 C-124.16021225 68.49396417 -128.2986553 59.72235144 -132.43359375 50.94903564 C-132.75457031 50.26798767 -133.07554687 49.5869397 -133.40625 48.88525391 C-133.72280548 48.21369263 -134.03936096 47.54213135 -134.36550903 46.85021973 C-134.9882382 45.52790512 -135.61022179 44.2052391 -136.23141479 42.88220215 C-137.81722341 39.50476192 -139.41369965 36.13305059 -141.02783203 32.76904297 C-141.67613254 31.40723883 -142.32440817 30.04542285 -142.97265625 28.68359375 C-143.27739365 28.05518082 -143.58213104 27.42676788 -143.89610291 26.77931213 C-145.22370485 23.97724652 -146 22.14496049 -146 19 C-100.46 19 -54.92 19 -8 19 C-4.625 28 -4.625 28 -3.3125 32 C-3.06113281 32.763125 -2.80976563 33.52625 -2.55078125 34.3125 C-2.27814453 35.1478125 -2.27814453 35.1478125 -2 36 C-2.20496094 35.31035156 -2.40992188 34.62070312 -2.62109375 33.91015625 C-3.4690807 30.95234531 -4.24273073 27.98223567 -5 25 C-5.31324219 23.92492187 -5.31324219 23.92492187 -5.6328125 22.828125 C-7.33167815 14.85890066 -3.0474597 7.19907146 0 0 Z " fill="#67C4F0" transform="translate(313,327)"/>
<path d="M0 0 C1 3 1 3 -2 10 C43.87 10 89.74 10 137 10 C147 39 147 39 146 42 C143.2687307 35.60561659 140.95702369 29.08963572 138.75 22.5 C138.47978027 21.69836426 138.20956055 20.89672852 137.93115234 20.07080078 C136 14.24753818 136 14.24753818 136 12 C90.46 12.33 44.92 12.66 -2 13 C8.20272861 35.03977893 8.20272861 35.03977893 18.6875 56.9375 C19.31359019 58.22797714 19.93923099 59.51867239 20.56445312 60.80957031 C23.42846237 66.72124662 26.30614724 72.6258306 29.20703125 78.51953125 C30.13821882 80.42959099 31.06922244 82.33974043 32 84.25 C32.42756592 85.107146 32.85513184 85.96429199 33.2956543 86.84741211 C33.67246338 87.62479736 34.04927246 88.40218262 34.4375 89.203125 C34.93056641 90.20327637 34.93056641 90.20327637 35.43359375 91.22363281 C36 93 36 93 35 96 C34.34 94.02 33.68 92.04 33 90 C32.34 90 31.68 90 31 90 C30.70996094 90.97839844 30.70996094 90.97839844 30.4140625 91.9765625 C30.15367187 92.85054688 29.89328125 93.72453125 29.625 94.625 C29.35429687 95.54410156 29.08359375 96.46320313 28.8046875 97.41015625 C28 100 28 100 26.75 103.0625 C25.06405369 109.66578973 27.05852486 115.86539849 29.4765625 122.0546875 C30 124 30 124 29 127 C28.37041826 125.48105765 27.74659536 123.95972805 27.125 122.4375 C26.77695312 121.59058594 26.42890625 120.74367188 26.0703125 119.87109375 C24.86665237 116.64229743 23.94664944 113.31327304 23 110 C-22.87 110 -68.74 110 -116 110 C-116 103.25139496 -116 103.25139496 -114.36352539 99.84985352 C-113.82780663 98.71321007 -113.82780663 98.71321007 -113.28126526 97.55360413 C-112.89067429 96.75345383 -112.50008331 95.95330353 -112.09765625 95.12890625 C-111.70049911 94.2883519 -111.30334198 93.44779755 -110.89414978 92.58177185 C-109.6277849 89.90335988 -108.34674834 87.23237836 -107.0625 84.5625 C-105.78256806 81.8958747 -104.50631446 79.22780075 -103.24156189 76.55393982 C-102.45598428 74.89342928 -101.66177284 73.23696713 -100.85768127 71.58534241 C-98.11720925 65.79773114 -96.29932198 60.9768389 -97.8203125 54.51489258 C-98.25085938 53.32017334 -98.68140625 52.1254541 -99.125 50.89453125 C-99.35074707 50.24804123 -99.57649414 49.60155121 -99.80908203 48.93547058 C-100.52505463 46.88906368 -101.26056381 44.8505348 -102 42.8125 C-102.7377296 40.76327787 -103.47070484 38.712842 -104.19091797 36.65739441 C-104.84243876 34.79986549 -105.51063525 32.94821044 -106.1796875 31.09692383 C-107 28 -107 28 -106 24 C-102.37 34.56 -98.74 45.12 -95 56 C-92.17436246 53.17436246 -90.93383076 49.712195 -89.33984375 46.10546875 C-88.81494102 44.92891472 -88.81494102 44.92891472 -88.2794342 43.72859192 C-87.5400271 42.06772364 -86.80298173 40.40580222 -86.06811523 38.74291992 C-84.94519617 36.2048949 -83.81201205 33.67163738 -82.67773438 31.13867188 C-81.96031105 29.52371565 -81.24349426 27.90848981 -80.52734375 26.29296875 C-80.18879868 25.53759323 -79.8502536 24.78221771 -79.50144958 24.00395203 C-77.87749582 20.30937188 -76.78570762 16.97026549 -76 13 C-75.34 12.67 -74.68 12.34 -74 12 C-73.67 11.01 -73.34 10.02 -73 9 C-49.9 9 -26.8 9 -3 9 C-2.67 7.35 -2.34 5.7 -2 4 C-0.9375 1.6875 -0.9375 1.6875 0 0 Z " fill="#B3DDF7" transform="translate(282,237)"/>
<path d="M0 0 C45.87 0 91.74 0 139 0 C143.1771539 11.48717322 144.11337411 14.5026634 139.62109375 24.640625 C138.56994431 26.84856196 137.50803744 29.05139808 136.4375 31.25 C135.26262574 33.71738677 134.09040748 36.18586921 132.921875 38.65625 C132.45717049 39.63522247 132.45717049 39.63522247 131.983078 40.63397217 C125.36908971 54.62102869 119.2571769 68.85333918 113 83 C89.9 83 66.8 83 43 83 C42.67 84.65 42.34 86.3 42 88 C41.37209386 89.35201927 40.69731752 90.68243767 40 92 C38.77604541 94.69619753 37.59774678 97.4126182 36.41015625 100.125 C35.70142583 101.73448685 34.99243341 103.34385836 34.28320312 104.953125 C33.17042802 107.48003645 32.05918688 110.00757202 30.95239258 112.53710938 C29.88052913 114.98517787 28.80215658 117.43029129 27.72265625 119.875 C27.39443375 120.6292627 27.06621124 121.38352539 26.7280426 122.16064453 C25.12945933 125.76674084 23.57828208 128.96427276 21 132 C19.03651312 126.32791704 17.07955582 120.65363769 15.12841797 114.97729492 C14.46481105 113.04960562 13.7994744 111.12251081 13.13232422 109.19604492 C12.16951096 106.41482425 11.21309449 103.63147139 10.2578125 100.84765625 C9.96190216 99.99728287 9.66599182 99.14690948 9.3611145 98.27076721 C8.53675554 95.85727165 7.75658682 93.43552452 7 91 C6.75337616 90.24146225 6.50675232 89.4829245 6.25265503 88.70140076 C4.54997651 82.65641366 5.49563096 78.74264186 7.8671875 73.02734375 C8.18076202 72.21882462 8.49433655 71.41030548 8.81741333 70.57728577 C9.8145509 68.02134519 10.84395491 65.47992513 11.875 62.9375 C12.56077578 61.19682162 13.24439205 59.45529081 13.92578125 57.71289062 C15.59238017 53.46499636 17.28802199 49.22979811 19 45 C19.66 45.33 20.32 45.66 21 46 C20.75165909 45.49745193 20.50331818 44.99490387 20.24745178 44.47712708 C17.66124708 39.24072887 15.08327022 34.00033932 12.51000977 28.75756836 C11.54889482 26.80210713 10.58569463 24.84766935 9.62036133 22.89428711 C8.23227777 20.08454309 6.85176256 17.27119026 5.47265625 14.45703125 C5.04034195 13.58601273 4.60802765 12.7149942 4.16261292 11.81758118 C3.76227341 10.997108 3.3619339 10.17663483 2.94946289 9.33129883 C2.59638565 8.61404129 2.24330841 7.89678375 1.87953186 7.15779114 C1 5 1 5 0 0 Z " fill="#67C4F0" transform="translate(166,163)"/>
<path d="M0 0 C0.33 0 0.66 0 1 0 C1.22550537 1.15109253 1.22550537 1.15109253 1.45556641 2.32543945 C4.15888964 16.08419003 6.90598806 29.82272269 10 43.5 C12.47807604 54.45930965 14.73987522 65.45275991 16.90820312 76.4765625 C17.13830078 77.64574219 17.36839844 78.81492187 17.60546875 80.01953125 C17.82895996 81.16631348 18.05245117 82.3130957 18.28271484 83.49462891 C18.77921349 85.92101677 19.31338986 88.33988552 19.87744141 90.75146484 C20.16151855 91.97172363 20.4455957 93.19198242 20.73828125 94.44921875 C21.00294189 95.53936279 21.26760254 96.62950684 21.5402832 97.75268555 C22.40168265 103.83737701 20.70178712 109.47665014 19.0222168 115.30541992 C18.82367096 115.99917725 18.62512512 116.69293457 18.42056274 117.40771484 C17.76801389 119.68330733 17.10877271 121.95689765 16.44921875 124.23046875 C15.98906855 125.82829763 15.52926096 127.42622521 15.06977844 129.02424622 C14.10680122 132.36963205 13.14067886 135.71408758 12.17211914 139.05786133 C10.94012067 143.31151734 9.71440414 147.56695014 8.49089336 151.82305431 C7.54141841 155.12420706 6.58932091 158.42459887 5.63639259 161.72475624 C5.18412902 163.29162255 4.73247154 164.85866394 4.28146935 166.42589378 C1.71011862 175.35293251 -0.96805647 184.21540873 -4 193 C-5.7987154 190.3019269 -6.67424513 188.33698195 -7.6730957 185.30541992 C-7.99177612 184.34586899 -8.31045654 183.38631805 -8.63879395 182.39768982 C-8.98099976 181.35250687 -9.32320557 180.30732391 -9.67578125 179.23046875 C-10.21893982 177.59181602 -10.21893982 177.59181602 -10.77307129 175.9200592 C-11.9575765 172.34407152 -13.1356993 168.76603003 -14.3125 165.1875 C-15.93471918 160.25819288 -17.55926815 155.32966825 -19.1875 150.40234375 C-19.59337845 149.17375641 -19.9992569 147.94516907 -20.41743469 146.67935181 C-22.90555856 139.18605325 -25.49221796 131.73750881 -28.1875 124.31640625 C-28.81108476 122.57993944 -29.43438608 120.84337082 -30.05737305 119.10668945 C-30.92062117 116.70227318 -31.7922761 114.30337779 -32.69741821 111.91439819 C-33.51791551 109.74822337 -34.30279999 107.57191631 -35.08203125 105.390625 C-35.52780518 104.19469727 -35.9735791 102.99876953 -36.43286133 101.76660156 C-37.22150389 96.52890141 -35.82693219 92.89088961 -34 88 C-33.47820915 86.5559227 -33.47820915 86.5559227 -32.94587708 85.08267212 C-31.75155111 81.82939062 -30.52060859 78.59185312 -29.28125 75.35546875 C-28.82327026 74.15102615 -28.36529053 72.94658356 -27.89343262 71.7056427 C-26.67763746 68.50829164 -25.45771182 65.31253288 -24.23681641 62.11712646 C-23.03570404 58.97156919 -21.83824153 55.82462392 -20.640625 52.67773438 C-19.21296588 48.9267594 -17.78468599 45.17602689 -16.35327148 41.42648315 C-13.84316789 34.85004514 -11.34454339 28.26950785 -8.86328125 21.68212891 C-8.10223203 19.66453978 -7.34103099 17.64700798 -6.57981873 15.62948036 C-6.0916622 14.3337984 -5.60447911 13.03774924 -5.11830139 11.74132347 C-4.44776966 9.95336901 -3.77378017 8.16671244 -3.09960938 6.38012695 C-2.71720093 5.36255814 -2.33479248 4.34498932 -1.9407959 3.29658508 C-1 1 -1 1 0 0 Z " fill="#171330" transform="translate(456,151)"/>
<path d="M0 0 C0.66 0 1.32 0 2 0 C4.97 6.27 7.94 12.54 11 19 C13.87589844 19.06058594 16.75179688 19.12117188 19.71484375 19.18359375 C22.48822799 19.24533303 25.26156937 19.30874145 28.03491211 19.37231445 C29.96814185 19.41573041 31.90141159 19.45740042 33.8347168 19.49731445 C36.60738202 19.55485631 39.37984457 19.6185962 42.15234375 19.68359375 C43.02213364 19.70030624 43.89192352 19.71701874 44.78807068 19.73423767 C50.88612829 19.88612829 50.88612829 19.88612829 52 21 C51.86251107 27.10097984 50.38984543 32.91274245 48.68334961 38.73266602 C48.44911789 39.55328018 48.21488617 40.37389435 47.97355652 41.21937561 C47.20669875 43.8995821 46.42962794 46.57670686 45.65234375 49.25390625 C45.11505073 51.12416119 44.57840393 52.99460188 44.04237366 54.86521912 C42.63663262 59.76441304 41.22218037 64.66104932 39.80584717 69.55718994 C38.35939566 74.56329281 36.92126876 79.57178535 35.48242188 84.58007812 C32.66305152 94.38906409 29.83446472 104.19536601 27 114 C26.34 114 25.68 114 25 114 C20.91937958 102.16741598 16.85850211 90.32825865 12.82249355 78.48037815 C10.94766837 72.97876004 9.06619401 67.4796096 7.16918945 61.9855957 C5.3377415 56.68063669 3.52419993 51.36986215 1.72276497 46.05463982 C1.03337166 44.03076225 0.3376207 42.00903849 -0.36465645 39.98959541 C-1.34944545 37.15423506 -2.31107115 34.31196401 -3.26782227 31.46704102 C-3.56129044 30.63913055 -3.85475861 29.81122009 -4.15711975 28.95822144 C-6.90445843 20.63063097 -5.74295591 13.98925157 -2.4375 5.9375 C-1.98246094 4.81214844 -1.52742188 3.68679688 -1.05859375 2.52734375 C-0.70925781 1.69332031 -0.35992187 0.85929687 0 0 Z " fill="#181431" transform="translate(313,327)"/>
<path d="M0 0 C1.82583832 2.73875748 2.36364549 3.9496751 2.97387695 7.03051758 C3.13794037 7.84093002 3.30200378 8.65134247 3.47103882 9.48631287 C3.64172882 10.36352493 3.81241882 11.240737 3.98828125 12.14453125 C4.17186188 13.05811905 4.3554425 13.97170685 4.54458618 14.91297913 C5.13964559 17.8783674 5.72598387 20.84541139 6.3125 23.8125 C7.11866459 27.84320161 7.92980325 31.87289156 8.7421875 35.90234375 C9.03798958 37.37299286 9.03798958 37.37299286 9.33976746 38.87335205 C10.91651149 46.67704473 12.60463423 54.44631883 14.50317383 62.17895508 C16.16928709 69.13441532 16.96998938 75.78992563 18 83 C5.46 83 -7.08 83 -20 83 C-20.33 84.65 -20.66 86.3 -21 88 C-21.71259416 89.78730421 -22.47818934 91.55405541 -23.28515625 93.30078125 C-23.73310547 94.27724609 -24.18105469 95.25371094 -24.64257812 96.25976562 C-25.11115234 97.26716797 -25.57972656 98.27457031 -26.0625 99.3125 C-26.53494141 100.33923828 -27.00738281 101.36597656 -27.49414062 102.42382812 C-28.65802325 104.951452 -29.82677855 107.47670072 -31 110 C-33.11651738 107.88348262 -33.70636099 106.59319153 -34.6875 103.8125 C-34.95949219 103.07644531 -35.23148437 102.34039062 -35.51171875 101.58203125 C-36.59144121 95.87245888 -34.65310049 90.53948578 -32.64257812 85.23632812 C-32.4032959 84.5992543 -32.16401367 83.96218048 -31.91748047 83.30580139 C-31.12892472 81.21162147 -30.33022175 79.12147575 -29.53125 77.03125 C-28.97072391 75.54958 -28.41079893 74.06768247 -27.85144043 72.58557129 C-26.3751666 68.67932046 -24.89008849 64.77647288 -23.40332031 60.87420654 C-22.2167689 57.75558063 -21.0364142 54.63462902 -19.85641479 51.51351929 C-13.34789738 34.29891779 -6.76597046 17.11535436 0 0 Z " fill="#181431" transform="translate(342,65)"/>
<path d="M0 0 C3.15343421 3.7676423 5.13422459 8.03221449 7.265625 12.421875 C7.66328064 13.24069153 8.06093628 14.05950806 8.47064209 14.90313721 C9.30706508 16.6333198 10.14068429 18.36486027 10.97167969 20.09765625 C11.82245236 21.86289581 12.68181894 23.62401971 13.54980469 25.38085938 C14.80774812 27.9273113 16.03921819 30.48511296 17.265625 33.046875 C17.65510315 33.82424011 18.0445813 34.60160522 18.44586182 35.40252686 C21.31916767 41.5238315 21.52887322 45.76415814 19.2361145 52.11639404 C18.28412384 54.40519345 17.25159698 56.63806392 16.18359375 58.875 C15.80767593 59.68493408 15.43175812 60.49486816 15.04444885 61.3293457 C13.85250399 63.89122633 12.64532323 66.44557314 11.4375 69 C10.62202571 70.74561707 9.80756217 72.4917067 8.99414062 74.23828125 C7.00774003 78.49774111 5.00765179 82.75051797 3 87 C0.85577048 84.85577048 0.34846252 83.60402742 -0.63574219 80.78491211 C-0.94235779 79.91317856 -1.24897339 79.04144501 -1.56488037 78.14329529 C-1.8889386 77.19753128 -2.21299683 76.25176727 -2.546875 75.27734375 C-2.88172913 74.30269669 -3.21658325 73.32804962 -3.56158447 72.3238678 C-4.267777 70.25627374 -4.97029286 68.18742084 -5.66943359 66.11743164 C-6.73984453 62.96738592 -7.84023444 59.82885398 -8.94140625 56.68945312 C-9.62429075 54.67772557 -10.3053393 52.66537368 -10.984375 50.65234375 C-11.31653015 49.72074936 -11.6486853 48.78915497 -11.99090576 47.82933044 C-14.06062023 41.53727511 -14.15700281 37.25743975 -12 31 C-11.78339722 30.35114334 -11.56679443 29.70228668 -11.34362793 29.0337677 C-10.66554524 27.11604778 -9.93382393 25.22885927 -9.1796875 23.33984375 C-8.91616486 22.66450089 -8.65264221 21.98915802 -8.38113403 21.29335022 C-7.55187653 19.17227179 -6.71363966 17.05488387 -5.875 14.9375 C-5.30538694 13.48526227 -4.73637148 12.03279 -4.16796875 10.58007812 C-2.78552281 7.05064278 -1.39502151 3.52448268 0 0 Z " fill="#181431" transform="translate(185,208)"/>
<path d="M0 0 C1 3 1 3 -2 10 C43.87 10 89.74 10 137 10 C147 39 147 39 146 42 C143.2687307 35.60561659 140.95702369 29.08963572 138.75 22.5 C138.47978027 21.69836426 138.20956055 20.89672852 137.93115234 20.07080078 C136 14.24753818 136 14.24753818 136 12 C90.46 12.33 44.92 12.66 -2 13 C-2.33 13.99 -2.66 14.98 -3 16 C-3.99 13.03 -3.99 13.03 -5 10 C-27.11 10 -49.22 10 -72 10 C-72.33 10.66 -72.66 11.32 -73 12 C-73 11.01 -73 10.02 -73 9 C-49.9 9 -26.8 9 -3 9 C-2.67 7.35 -2.34 5.7 -2 4 C-0.9375 1.6875 -0.9375 1.6875 0 0 Z " fill="#CCE8F8" transform="translate(282,237)"/>
<path d="M0 0 C23.1 0 46.2 0 70 0 C70 0.66 70 1.32 70 2 C91.78 2 113.56 2 136 2 C136 2.33 136 2.66 136 3 C114.55 3.33 93.1 3.66 71 4 C70.67 4.99 70.34 5.98 70 7 C69.01 4.03 69.01 4.03 68 1 C45.89 1 23.78 1 1 1 C0.67 1.66 0.34 2.32 0 3 C0 2.01 0 1.02 0 0 Z " fill="#DBF0FB" transform="translate(209,246)"/>
</svg>
