<svg width="1080" height="1080" viewBox="0 0 1080 1080" fill="none" xmlns="http://www.w3.org/2000/svg">
<path d="M162.512 521.443V761.673C162.512 777.889 181.11 787.063 193.977 777.193L363.089 647.477C381.471 633.378 408.04 646.483 408.04 669.65V761.929C408.04 772.265 416.418 780.643 426.753 780.643C434.934 780.643 442.195 775.385 445.3 767.816C462.494 725.892 528.573 595.598 685.682 595.598C840.291 595.598 876.227 721.766 884.056 765.733C885.551 774.127 892.715 780.629 901.24 780.629C910.214 780.629 917.489 773.354 917.489 764.38V555.461C917.489 329.564 637.542 301.894 548.213 419.38V382.71C548.213 314.291 470.673 274.686 415.242 314.793L181.784 483.711C169.679 492.469 162.512 506.503 162.512 521.443Z" fill="#05AD5D"/>
</svg>
