<svg width="116" height="116" viewBox="0 0 116 116" fill="none" xmlns="http://www.w3.org/2000/svg">
<path d="M0 58C0 25.9675 25.9675 0 58 0C90.0325 0 116 25.9675 116 58C116 90.0325 90.0325 116 58 116C25.9675 116 0 90.0325 0 58Z" fill="white"/>
<path d="M40.6005 76.2382C35.9432 71.2215 33.101 64.5356 33.101 57.1944C33.101 49.8533 35.9432 43.1674 40.6005 38.1507C30.5237 38.8052 22.5556 47.0812 22.5556 57.1944C22.5556 67.3077 30.5237 75.5837 40.6005 76.2382Z" fill="#2CEA7F"/>
<path d="M61.6616 85.3889C77.4352 85.3889 90.2222 72.7658 90.2222 57.1944C90.2222 41.6231 77.4352 29 61.6616 29C53.3245 29 45.8218 32.5264 40.6005 38.1507C41.0263 38.123 41.4559 38.109 41.8889 38.109C45.5014 38.109 48.8825 39.0871 51.7753 40.7896C57.4326 44.1194 61.2222 50.22 61.2222 57.1944C61.2222 64.1689 57.4326 70.2695 51.7753 73.5992C48.8825 75.3018 45.5014 76.2799 41.8889 76.2799C41.4559 76.2799 41.0263 76.2659 40.6005 76.2382C45.8218 81.8625 53.3245 85.3889 61.6616 85.3889Z" fill="#2CEA7F"/>
</svg>
