<?xml version="1.0" encoding="UTF-8"?>
<svg version="1.1" xmlns="http://www.w3.org/2000/svg" width="144" height="144">
<path d="M0 0 C47.52 0 95.04 0 144 0 C144 47.52 144 95.04 144 144 C96.48 144 48.96 144 0 144 C0 96.48 0 48.96 0 0 Z " fill="#FDFEFE" transform="translate(0,0)"/>
<path d="M0 0 C0.95181656 -0.00953201 1.90363312 -0.01906403 2.8842926 -0.02888489 C4.43418129 -0.02751778 4.43418129 -0.02751778 6.01538086 -0.02612305 C7.0788121 -0.03040817 8.14224335 -0.0346933 9.23789978 -0.03910828 C11.49501839 -0.04486199 13.75215555 -0.04534422 16.00927734 -0.04101562 C19.4419795 -0.03787677 22.87380232 -0.06122866 26.30639648 -0.08666992 C28.50105686 -0.0889451 30.69571954 -0.0896454 32.89038086 -0.08862305 C34.41901512 -0.10243767 34.41901512 -0.10243767 35.97853088 -0.11653137 C44.78233741 -0.06022364 52.46378915 1.58507465 59.41772461 7.2746582 C63.6120159 12.24188122 65.41613097 16.09025255 65.66772461 22.6496582 C65.99954092 26.77288378 66.16292506 27.96105876 68.85522461 31.2746582 C70.12366211 32.2646582 70.12366211 32.2646582 71.41772461 33.2746582 C75.14918165 38.87184377 74.01496213 46.64104503 72.95288086 53.1027832 C70.54967024 62.14681842 65.88992356 69.20680183 57.82397461 74.05981445 C49.68287459 78.17001268 41.43183135 78.86492608 32.41772461 79.2746582 C30.02449774 85.64235114 29.06780803 92.2511271 27.91772461 98.92700195 C27.75272461 99.84094727 27.58772461 100.75489258 27.41772461 101.6965332 C27.27334961 102.52765625 27.12897461 103.3587793 26.98022461 104.21508789 C26.41772461 106.2746582 26.41772461 106.2746582 24.41772461 108.2746582 C22.29467773 108.51757812 22.29467773 108.51757812 19.69897461 108.50512695 C18.76698242 108.50319336 17.83499023 108.50125977 16.87475586 108.49926758 C15.89893555 108.48702148 14.92311523 108.47477539 13.91772461 108.4621582 C12.9419043 108.46151367 11.96608398 108.46086914 10.96069336 108.46020508 C3.69841657 108.41500419 3.69841657 108.41500419 1.41772461 107.2746582 C1.74772461 103.6446582 2.07772461 100.0146582 2.41772461 96.2746582 C0.84120117 96.21407227 -0.73532227 96.15348633 -2.35961914 96.09106445 C-4.41301482 96.00667833 -6.4663997 95.92202938 -8.51977539 95.8371582 C-9.56069336 95.7978418 -10.60161133 95.75852539 -11.67407227 95.71801758 C-12.66342773 95.67612305 -13.6527832 95.63422852 -14.67211914 95.59106445 C-15.58856201 95.55440674 -16.50500488 95.51774902 -17.44921875 95.47998047 C-19.58227539 95.2746582 -19.58227539 95.2746582 -20.58227539 94.2746582 C-21.10324836 88.84684682 -20.39426691 83.9081067 -19.08618164 78.6574707 C-18.5290907 76.02316473 -18.2878744 73.45865978 -18.08227539 70.7746582 C-17.81919411 67.43306433 -17.43450637 64.28153324 -16.64477539 61.0246582 C-15.68534437 57.06700523 -15.14523446 53.12836515 -14.64477539 49.0871582 C-14.00191983 43.99023198 -13.15277627 39.0351621 -12.01977539 34.0246582 C-11.09436735 29.91787227 -10.38303183 25.97297262 -10.08227539 21.7746582 C-8.49558101 0.04665968 -8.49558101 0.04665968 0 0 Z " fill="#012F86" transform="translate(48.582275390625,18.725341796875)"/>
<path d="M0 0 C0.33 0 0.66 0 1 0 C1.01417969 0.73605469 1.02835937 1.47210938 1.04296875 2.23046875 C1.27259962 8.61850205 1.27259962 8.61850205 4.4375 14 C5.7059375 14.99 5.7059375 14.99 7 16 C10.73145704 21.59718556 9.59723752 29.36638682 8.53515625 35.828125 C6.13194564 44.87216021 1.47219895 51.93214363 -6.59375 56.78515625 C-14.73485002 60.89535447 -22.98589326 61.59026788 -32 62 C-34.39322687 68.36769293 -35.34991658 74.9764689 -36.5 81.65234375 C-36.665 82.56628906 -36.83 83.48023437 -37 84.421875 C-37.144375 85.25299805 -37.28875 86.08412109 -37.4375 86.94042969 C-38 89 -38 89 -40 91 C-42.12304687 91.24291992 -42.12304687 91.24291992 -44.71875 91.23046875 C-45.65074219 91.22853516 -46.58273438 91.22660156 -47.54296875 91.22460938 C-48.51878906 91.21236328 -49.49460938 91.20011719 -50.5 91.1875 C-51.47582031 91.18685547 -52.45164062 91.18621094 -53.45703125 91.18554688 C-60.71930804 91.14034598 -60.71930804 91.14034598 -63 90 C-62.67 86.37 -62.34 82.74 -62 79 C-69.26 78.67 -76.52 78.34 -84 78 C-84 77.67 -84 77.34 -84 77 C-76.41 76.67 -68.82 76.34 -61 76 C-60.13740523 68.83728714 -60.13740523 68.83728714 -59.2956543 61.67211914 C-57.3771983 46.3771983 -57.3771983 46.3771983 -54 43 C-52.62630774 42.90317918 -51.24816691 42.86798978 -49.87109375 42.859375 C-34.61061615 42.58572116 -20.248221 41.7914048 -8.921875 30.33203125 C-6.24098191 27.07899634 -4.40916053 23.96377903 -3 20 C-2.4121875 18.4221875 -2.4121875 18.4221875 -1.8125 16.8125 C-0.62760648 11.25261503 -0.32385197 5.66740941 0 0 Z " fill="#059CDD" transform="translate(113,36)"/>
<path d="M0 0 C1.63184274 -0.01274778 3.26405891 0.00272291 4.89550781 0.04077148 C6.19600067 0.04426857 6.19600067 0.04426857 7.52276611 0.0478363 C9.35870179 0.05758173 11.19460701 0.0793873 13.03027344 0.11230469 C15.82435231 0.16143826 18.61666221 0.17376956 21.41113281 0.17944336 C23.19760966 0.19354143 24.98407135 0.20975014 26.77050781 0.22827148 C27.59991882 0.23363419 28.42932983 0.23899689 29.28387451 0.24452209 C34.24035953 0.34474908 38.39319884 1.0236671 43.09863281 2.59936523 C43.80949738 10.77430775 41.03138798 17.65063722 35.78613281 23.91186523 C34.58377493 25.16726832 33.35567884 26.39872512 32.09863281 27.59936523 C31.59847656 28.08276367 31.09832031 28.56616211 30.58300781 29.06420898 C19.16756093 38.5482545 2.01578021 37.39073392 -11.90136719 37.59936523 C-11.25829532 33.13144694 -10.60073374 28.66598775 -9.92993164 24.20214844 C-9.70397527 22.68482793 -9.48191858 21.16692118 -9.26391602 19.6484375 C-8.94900326 17.45982971 -8.61990436 15.27374709 -8.28808594 13.08764648 C-8.1942009 12.41349197 -8.10031586 11.73933746 -8.00358582 11.04475403 C-6.43494337 0.98859737 -6.43494337 0.98859737 0 0 Z " fill="#012069" transform="translate(68.9013671875,42.400634765625)"/>
</svg>
