<?xml version="1.0" encoding="utf-8"?>
<!-- Generator: Adobe Illustrator 26.0.3, SVG Export Plug-In . SVG Version: 6.00 Build 0)  -->
<svg version="1.1" id="Layer_1" xmlns="http://www.w3.org/2000/svg" xmlns:xlink="http://www.w3.org/1999/xlink" x="0px" y="0px"
	 viewBox="0 0 800 800" style="enable-background:new 0 0 800 800;" xml:space="preserve">
<style type="text/css">
	.st0{fill:#1E4693;}
</style>
<path class="st0" d="M659.2,380c-1.1-15.3-3.4-30.2-7.4-44.9c-17.7-65.5-55-116.9-112-153.7c-36.3-23.6-76.5-36.6-119.8-40.1
	c-18-1.3-35.9-0.8-53.8,1.4c-18.9,2.5-37.3,7-55.1,13.4c-78.6,28.6-139,93.5-161.6,174.1c-4.9,17.4-7.7,35.1-9,53.1
	c-0.6,9.3-0.6,18.6-0.6,27.9v226.1c0,12.2,9.9,22.1,22.1,22.1h87.3c11.4,0,20.8-8.7,22-19.8c0,0,0,0,0-0.1c0.6-2.1,0.9-4.3,0.9-6.5
	v-5.2c0-0.4-0.1-0.8,0-1.2v-0.3c0.8,0.1,1.2,0.6,1.7,0.8c33.1,18.2,68.4,28.8,106.1,31.7c14.8,1.1,29.8,1,44.8-0.4
	c13.4-1.3,26.7-3.4,39.9-6.9c56.6-14.9,103.3-45.2,139.7-91.2c31.3-39.6,49.3-84.9,54.4-135.2C660.3,410,660.4,395,659.2,380z
	 M446.2,524.4c-0.3,1.7-1.7,2.8-3.3,2.8H357c-1.6,0-3-1.1-3.3-2.8l-0.1-0.6v-3.2c0-4.1,0.4-7.9,1.3-11.7c0.6-1.3,0.9-2.9,1.4-4.3
	c0.4-1.4,1.1-2.8,1.7-4.2c0.8-1.3,1.4-2.7,2.2-3.9c0.4-0.7,0.8-1.2,1.2-1.9c0.8-1.2,1.8-2.4,2.7-3.5c1-1.2,2-2.3,3-3.4
	c5.1-5,11.4-9,18.4-11.2c-9.5-5.1-15.9-15.3-15.9-26.8c0-16.8,13.6-30.4,30.4-30.6c8.4,0,16.1,3.5,21.6,9c5.5,5.5,9,13.2,9,21.6
	c0,11.5-6.5,21.7-15.9,26.8c18.5,6.1,31.9,23.5,31.9,44.2C446.4,521.9,446.3,523.2,446.2,524.4z M594.7,336.7H205.1
	c-3.1,0-5.3-3.1-4.3-6.1c28.9-82,107.2-140.9,199.2-140.9s170.3,58.9,199.2,140.9C600.1,333.6,597.8,336.7,594.7,336.7z"/>
</svg>
