<?xml version="1.0" encoding="UTF-8"?>
<svg width="424px" height="424px" viewBox="0 0 424 424" version="1.1" xmlns="http://www.w3.org/2000/svg" xmlns:xlink="http://www.w3.org/1999/xlink">
    <title>App-icon</title>
    <defs>
        <rect id="path-1" x="0" y="0" width="424" height="424" rx="80"></rect>
    </defs>
    <g id="App-icon" stroke="none" stroke-width="1" fill="none" fill-rule="evenodd">
        <g>
            <mask id="mask-2" fill="white">
                <use xlink:href="#path-1"></use>
            </mask>
            <use id="Rectangle" fill="#FFDE64" xlink:href="#path-1"></use>
            <g id="Penguin" mask="url(#mask-2)">
                <g transform="translate(64.000000, 71.000000)">
                    <polygon id="Rectangle-1" fill="#FFFFFF" points="107 110 203 110 203 331 107 331"></polygon>
                    <path d="M241.596037,66.3087559 C249.779096,102.394344 218.874366,203.435053 233.742532,353 L76.6709268,353 L76.670003,352.920792 C76.6401331,350.347221 75.9010862,285.742754 76.6709268,259.222358 C69.8644051,176.162413 -0.0325925187,151.764039 11.2242989,109.178485 C21.957573,69.6015062 63.5815006,109.993896 84.5244316,111.857997 C99.1844582,97.3891236 97.0902405,2.00433966 173.531825,2.00433966 C221.176723,1.46815437 240.549054,50.7685721 241.596037,66.3087559 Z M160.775725,127.669435 C138.101815,126.066321 116.045286,166.98163 111.510705,219.05621 C106.976376,271.130789 121.681147,314.645475 144.354806,316.24859 C167.028715,317.851705 189.085244,276.93675 193.619825,224.861816 C198.154406,172.787236 183.449383,129.272905 160.775725,127.669435 Z" id="Combined-shape-5" fill="#000000"></path>
                    <path d="M155.060892,39.05994 C160.133652,39.05994 164.24604,43.27663 164.24604,48.478445 C164.24604,53.680615 160.133652,57.897305 155.060892,57.897305 C149.98788,57.897305 145.875492,53.680615 145.875492,48.478445 C145.875492,43.27663 149.98788,39.05994 155.060892,39.05994 Z" id="Shape-sp-5-0" fill="#FFFFFF"></path>
                    <path d="M204.923628,49.82425 C209.996388,49.82425 214.108776,54.04094 214.108776,59.242755 C214.108776,64.444925 209.996388,68.66197 204.923628,68.66197 C199.850616,68.66197 195.738228,64.444925 195.738228,59.242755 C195.738228,54.04094 199.850616,49.82425 204.923628,49.82425 Z" id="Shape-sp-5-0" fill="#FFFFFF"></path>
                    <path d="M145,80.5748928 C145,82.8003999 165.167264,97.1426141 169.00862,97.8844784 C172.849977,98.6262856 199.957113,95.6382696 199.999915,93.4134468 C200.042773,91.9304312 183.893976,74.3928715 176.211206,73.1564501 C168.528493,71.9200857 145,78.3493571 145,80.5748928 Z" id="Shape-3" fill="#F47F20"></path>
                    <path d="M169.123937,353 C166.96956,348.146562 193.301392,310.532547 217,353 L169.123937,353 Z" id="Shape-2" fill="#F47F20"></path>
                    <path d="M91.1427566,353 C88.757352,347.67403 116.74858,310.79141 139,353 L91.1427566,353 Z" id="Shape-2-copy" fill="#F47F20"></path>
                </g>
            </g>
        </g>
    </g>
</svg>