<?xml version="1.0" encoding="UTF-8"?>
<svg version="1.1" xmlns="http://www.w3.org/2000/svg" width="180" height="180">
<path d="M0 0 C59.4 0 118.8 0 180 0 C180 59.4 180 118.8 180 180 C120.6 180 61.2 180 0 180 C0 120.6 0 61.2 0 0 Z " fill="#FEFEFE" transform="translate(0,0)"/>
<path d="M0 0 C1.43352212 0.00015908 2.86704998 0.00585132 4.30053711 0.01586914 C5.43041298 0.01799156 5.43041298 0.01799156 6.58311462 0.02015686 C8.99807646 0.02577163 11.41294687 0.03832656 13.82788086 0.05102539 C15.46134307 0.05603849 17.09480672 0.06060173 18.72827148 0.06469727 C22.74067671 0.07574585 26.75301326 0.09302033 30.76538086 0.11352539 C30.91197626 3.77976351 30.9998796 7.44523739 31.07788086 11.11352539 C31.11977539 12.14348633 31.16166992 13.17344727 31.20483398 14.23461914 C31.31449413 21.12127646 30.58792236 25.97905517 25.76538086 31.11352539 C20.04448913 35.63039383 15.07239824 35.67523461 7.95288086 35.48852539 C6.99961914 35.48723633 6.04635742 35.48594727 5.06420898 35.48461914 C-1.95304385 35.39510068 -1.95304385 35.39510068 -4.23461914 33.11352539 C-4.42175901 30.6878542 -4.49047192 28.37854872 -4.46508789 25.95336914 C-4.46462967 25.24829727 -4.46417145 24.5432254 -4.46369934 23.81678772 C-4.46067777 22.32640907 -4.45279424 20.83603355 -4.44042969 19.34570312 C-4.4221637 17.05660906 -4.41992005 14.76791912 -4.42016602 12.47875977 C-4.4152512 11.0327927 -4.40942304 9.5868284 -4.40258789 8.14086914 C-4.40147507 7.4523436 -4.40036224 6.76381805 -4.3992157 6.0544281 C-4.33983604 0.15231518 -4.33983604 0.15231518 0 0 Z " fill="#201E1E" transform="translate(68.234619140625,90.886474609375)"/>
<path d="M0 0 C0.78052734 -0.01224609 1.56105469 -0.02449219 2.36523438 -0.03710938 C4.39070035 -0.04235217 6.41572552 0.06515672 8.4375 0.1875 C11.34191659 3.09191659 10.69617736 5.25507845 10.703125 9.3125 C10.70599518 10.36655029 10.70599518 10.36655029 10.70892334 11.44189453 C10.71028475 12.92806354 10.70659132 14.41424445 10.69824219 15.90039062 C10.68754154 18.17865646 10.69813839 20.45613377 10.7109375 22.734375 C10.7096159 24.17708508 10.70705349 25.61979466 10.703125 27.0625 C10.70086914 28.37992188 10.69861328 29.69734375 10.69628906 31.0546875 C10.4375 34.1875 10.4375 34.1875 8.4375 36.1875 C6.01182881 36.37463986 3.70252333 36.44335278 1.27734375 36.41796875 C0.57227188 36.41751053 -0.13279999 36.41705231 -0.85923767 36.4165802 C-2.34961632 36.41355863 -3.83999184 36.4056751 -5.33032227 36.39331055 C-7.61941633 36.37504456 -9.90810627 36.37280091 -12.19726562 36.37304688 C-13.64323269 36.36813206 -15.08919699 36.3623039 -16.53515625 36.35546875 C-17.56794456 36.35379951 -17.56794456 36.35379951 -18.62159729 36.35209656 C-23.44644501 36.30355499 -23.44644501 36.30355499 -24.5625 35.1875 C-24.89870172 32.01060654 -24.88772518 28.81737591 -24.9375 25.625 C-24.97488281 24.74263672 -25.01226562 23.86027344 -25.05078125 22.95117188 C-25.13787693 16.40447957 -23.76559668 12.23710609 -19.5625 7.1875 C-17.4296875 5.12890625 -17.4296875 5.12890625 -15.4375 3.75 C-14.77492188 3.27691406 -14.11234375 2.80382813 -13.4296875 2.31640625 C-9.14822344 -0.27217767 -4.8344636 0.004012 0 0 Z " fill="#232121" transform="translate(105.5625,51.8125)"/>
</svg>
