<?xml version="1.0" encoding="UTF-8"?>
<svg version="1.1" xmlns="http://www.w3.org/2000/svg" width="200" height="200">
<path d="M0 0 C66 0 132 0 200 0 C200 66 200 132 200 200 C134 200 68 200 0 200 C0 134 0 68 0 0 Z " fill="#FEFEFE" transform="translate(0,0)"/>
<path d="M0 0 C0.33 0 0.66 0 1 0 C1 1.98 1 3.96 1 6 C1.99 6 2.98 6 4 6 C4.33 4.68 4.66 3.36 5 2 C7.31 2 9.62 2 12 2 C13.00486895 4.95670218 14.00306024 7.91561577 15 10.875 C15.28617188 11.71675781 15.57234375 12.55851562 15.8671875 13.42578125 C16.13789062 14.23144531 16.40859375 15.03710938 16.6875 15.8671875 C16.93886719 16.61081543 17.19023438 17.35444336 17.44921875 18.12060547 C18 20 18 20 18 22 C16.02 22 14.04 22 12 22 C10.68 18.04 9.36 14.08 8 10 C6.68 14.29 5.36 18.58 4 23 C1.69 23 -0.62 23 -3 23 C-3 21.02 -3 19.04 -3 17 C-3.66 18.98 -4.32 20.96 -5 23 C-7.31 23 -9.62 23 -12 23 C-12 18.38 -12 13.76 -12 9 C-13.32 8.67 -14.64 8.34 -16 8 C-16 6.02 -16 4.04 -16 2 C-10.72 2 -5.44 2 0 2 C0 1.34 0 0.68 0 0 Z " fill="#FAD6D3" transform="translate(64,90)"/>
<path d="M0 0 C10 0 10 0 13 2 C13.1875 4.9375 13.1875 4.9375 13 8 C13 8.99 13 9.98 13 11 C13.33 11.33 13.66 11.66 14 12 C14.3125 14.375 14.3125 14.375 14 17 C10 20 10 20 0 20 C0 13.4 0 6.8 0 0 Z " fill="#767779" transform="translate(94,92)"/>
<path d="M0 0 C1.134375 0.020625 2.26875 0.04125 3.4375 0.0625 C4.44236895 3.01920218 5.44056024 5.97811577 6.4375 8.9375 C6.72367188 9.77925781 7.00984375 10.62101562 7.3046875 11.48828125 C7.57539062 12.29394531 7.84609375 13.09960938 8.125 13.9296875 C8.37636719 14.67331543 8.62773438 15.41694336 8.88671875 16.18310547 C9.4375 18.0625 9.4375 18.0625 9.4375 20.0625 C7.4575 20.0625 5.4775 20.0625 3.4375 20.0625 C2.1175 16.1025 0.7975 12.1425 -0.5625 8.0625 C-1.8825 12.0225 -3.2025 15.9825 -4.5625 20.0625 C-6.2125 20.0625 -7.8625 20.0625 -9.5625 20.0625 C-7.7509984 0.13598243 -7.7509984 0.13598243 0 0 Z " fill="#CF4138" transform="translate(72.5625,91.9375)"/>
<path d="M0 0 C1.65 0 3.3 0 5 0 C5.08720919 3.58317958 5.14046112 7.16608567 5.1875 10.75 C5.21263672 11.76578125 5.23777344 12.7815625 5.26367188 13.828125 C5.27817383 15.29765625 5.27817383 15.29765625 5.29296875 16.796875 C5.31653442 18.14797363 5.31653442 18.14797363 5.34057617 19.52636719 C4.92913029 22.51473255 4.11690225 23.87110658 2 26 C-1.1875 26.25 -1.1875 26.25 -4 26 C-4 24.68 -4 23.36 -4 22 C-3.01 21.67 -2.02 21.34 -1 21 C-0.67 14.07 -0.34 7.14 0 0 Z " fill="#CF291F" transform="translate(85,92)"/>
<path d="M0 0 C4.62 0 9.24 0 14 0 C14 1.32 14 2.64 14 4 C12.35 4 10.7 4 9 4 C9 8.95 9 13.9 9 19 C7.35 19 5.7 19 4 19 C4 14.05 4 9.1 4 4 C2.68 4 1.36 4 0 4 C0 2.68 0 1.36 0 0 Z " fill="#CF2C21" transform="translate(49,93)"/>
<path d="M0 0 C6.15234375 -0.09765625 6.15234375 -0.09765625 8 0 C9 1 9 1 9.09765625 4.16015625 C9.08605469 5.44792969 9.07445313 6.73570313 9.0625 8.0625 C9.05347656 9.35285156 9.04445313 10.64320312 9.03515625 11.97265625 C9.02355469 12.97167969 9.01195313 13.97070312 9 15 C7.35425434 15.02688151 5.70838587 15.04634123 4.0625 15.0625 C3.14597656 15.07410156 2.22945313 15.08570312 1.28515625 15.09765625 C-1 15 -1 15 -2 14 C-2.1875 11.0625 -2.1875 11.0625 -2 8 C0 6 0 6 3.625 5.875 C5.295625 5.936875 5.295625 5.936875 7 6 C6.67 5.01 6.34 4.02 6 3 C3.03 2.505 3.03 2.505 0 2 C0 1.34 0 0.68 0 0 Z " fill="#808183" transform="translate(112,97)"/>
<path d="M0 0 C0.99 0 1.98 0 3 0 C3.33 3.63 3.66 7.26 4 11 C5.32 9.35 6.64 7.7 8 6 C8.99 6.33 9.98 6.66 11 7 C9.68 8.32 8.36 9.64 7 11 C8.33488128 14.59391114 9.96022723 17.75490696 12 21 C11.01 21 10.02 21 9 21 C6 17.66666667 6 17.66666667 6 15 C5.01 15 4.02 15 3 15 C3 16.98 3 18.96 3 21 C2.01 21 1.02 21 0 21 C0 14.07 0 7.14 0 0 Z " fill="#868789" transform="translate(140,91)"/>
<path d="M0 0 C0.33 0 0.66 0 1 0 C1 6.93 1 13.86 1 21 C-0.32 21.33 -1.64 21.66 -3 22 C-3.33 23.32 -3.66 24.64 -4 26 C-4 24.35 -4 22.7 -4 21 C-5.32 20.67 -6.64 20.34 -8 20 C-6.02 20 -4.04 20 -2 20 C-2.55880859 18.55367187 -2.55880859 18.55367187 -3.12890625 17.078125 C-3.60734166 15.80229725 -4.08517479 14.52624353 -4.5625 13.25 C-4.80935547 12.61578125 -5.05621094 11.9815625 -5.31054688 11.328125 C-6.72473562 7.50383994 -7.02277665 6.09110661 -6 2 C-4.68 5.63 -3.36 9.26 -2 13 C-1.93941406 12.14535156 -1.87882812 11.29070312 -1.81640625 10.41015625 C-1.73261719 9.30542969 -1.64882812 8.20070313 -1.5625 7.0625 C-1.48128906 5.96035156 -1.40007812 4.85820313 -1.31640625 3.72265625 C-1 1 -1 1 0 0 Z " fill="#FDDCD9" transform="translate(84,92)"/>
<path d="M0 0 C1.60875 -0.04125 3.2175 -0.0825 4.875 -0.125 C5.77992188 -0.14820312 6.68484375 -0.17140625 7.6171875 -0.1953125 C10 0 10 0 12 2 C12.1953125 5.0390625 12.1953125 5.0390625 12.125 8.625 C12.10695312 9.81351563 12.08890625 11.00203125 12.0703125 12.2265625 C12.04710937 13.14179687 12.02390625 14.05703125 12 15 C11.34 15 10.68 15 10 15 C9.67 11.04 9.34 7.08 9 3 C6.69 3 4.38 3 2 3 C2 6.96 2 10.92 2 15 C1.34 15 0.68 15 0 15 C0 10.05 0 5.1 0 0 Z " fill="#6F7072" transform="translate(125,97)"/>
<path d="M0 0 C0.66 0 1.32 0 2 0 C6.42857143 7.28571429 6.42857143 7.28571429 7 12 C5.02 12 3.04 12 1 12 C0.03929566 9.11788698 -0.10581883 7.30149956 -0.0625 4.3125 C-0.05347656 3.50425781 -0.04445313 2.69601563 -0.03515625 1.86328125 C-0.02355469 1.24839844 -0.01195313 0.63351563 0 0 Z " fill="#D42B20" transform="translate(75,100)"/>
<path d="M0 0 C2.33294775 -0.04241723 4.66702567 -0.04092937 7 0 C8 1 8 1 8.0625 3.5625 C8.041875 4.366875 8.02125 5.17125 8 6 C5.29120665 7.35439668 2.99066732 7.06501451 0 7 C0 4.69 0 2.38 0 0 Z " fill="#F8F9FA" transform="translate(97,103)"/>
<path d="M0 0 C6.15234375 -0.09765625 6.15234375 -0.09765625 8 0 C9 1 9 1 9.09765625 4.16015625 C9.08605469 5.44792969 9.07445313 6.73570313 9.0625 8.0625 C9.05347656 9.35285156 9.04445313 10.64320312 9.03515625 11.97265625 C9.02355469 12.97167969 9.01195313 13.97070312 9 15 C8.67 14.34 8.34 13.68 8 13 C7.34 13 6.68 13 6 13 C6.33 11.02 6.66 9.04 7 7 C6.01 6.67 5.02 6.34 4 6 C4.99 6 5.98 6 7 6 C6.67 5.01 6.34 4.02 6 3 C3.03 2.505 3.03 2.505 0 2 C0 1.34 0 0.68 0 0 Z " fill="#7A7B7D" transform="translate(112,97)"/>
<path d="M0 0 C2.875 -0.125 2.875 -0.125 6 0 C6.66 0.66 7.32 1.32 8 2 C7.625 4.125 7.625 4.125 7 6 C4.69 6 2.38 6 0 6 C0 4.02 0 2.04 0 0 Z " fill="#F7F8F9" transform="translate(97,94)"/>
<path d="M0 0 C1.67542976 0.28604898 3.34385343 0.61781233 5 1 C6.125 4.75 6.125 4.75 5 7 C3.33388095 7.042721 1.66617115 7.04063832 0 7 C-1 6 -1 6 -1.125 3.5 C-1 1 -1 1 0 0 Z " fill="#76777A" transform="translate(70,82)"/>
<path d="M0 0 C0.33 0 0.66 0 1 0 C1 1.98 1 3.96 1 6 C4.46941546 5.54177532 7.67395049 5.10868317 11 4 C10.67 4.99 10.34 5.98 10 7 C9.34 7 8.68 7 8 7 C8 7.66 8 8.32 8 9 C5.69 9 3.38 9 1 9 C1 11.31 1 13.62 1 16 C0.67 16 0.34 16 0 16 C0 10.72 0 5.44 0 0 Z " fill="#9D9EA0" transform="translate(96,94)"/>
<path d="M0 0 C1.4540625 0.0309375 1.4540625 0.0309375 2.9375 0.0625 C2.6075 1.3825 2.2775 2.7025 1.9375 4.0625 C0.2875 4.3925 -1.3625 4.7225 -3.0625 5.0625 C-3.625 3.125 -3.625 3.125 -4.0625 1.0625 C-3.0625 0.0625 -3.0625 0.0625 0 0 Z " fill="#F9FAFB" transform="translate(116.0625,104.9375)"/>
<path d="M0 0 C1.65 0 3.3 0 5 0 C5.33 1.32 5.66 2.64 6 4 C5.01 4 4.02 4 3 4 C3 4.66 3 5.32 3 6 C2.01 6.33 1.02 6.66 0 7 C0 4.69 0 2.38 0 0 Z " fill="#E12115" transform="translate(69,94)"/>
<path d="M0 0 C2.89932357 2.39509338 3.50168276 4.31245243 4 8 C3.34 7.67 2.68 7.34 2 7 C2 6.34 2 5.68 2 5 C1.34 5 0.68 5 0 5 C0 6.65 0 8.3 0 10 C-1.74627478 7.38058783 -2.38722388 5.96175123 -3 3 C-2.01 3 -1.02 3 0 3 C0 2.01 0 1.02 0 0 Z " fill="#CF3228" transform="translate(75,95)"/>
<path d="M0 0 C2 3 2 3 2 5 C1.01 5.495 1.01 5.495 0 6 C-0.73075648 8.3140622 -1.40138258 10.64828869 -2 13 C-2.66 13 -3.32 13 -4 13 C-3.52511102 11.01980257 -3.04497141 9.04086365 -2.5625 7.0625 C-2.29566406 5.96035156 -2.02882813 4.85820313 -1.75390625 3.72265625 C-1 1 -1 1 0 0 Z " fill="#FCCFCB" transform="translate(72,99)"/>
<path d="M0 0 C0.66 0 1.32 0 2 0 C1.67 2.97 1.34 5.94 1 9 C0.01 9 -0.98 9 -2 9 C-2.20140476 5.37471432 -1.85776765 3.13498292 0 0 Z " fill="#E02016" transform="translate(67,102)"/>
<path d="M0 0 C0 3.3 0 6.6 0 10 C-0.33 9.34 -0.66 8.68 -1 8 C-1.66 8 -2.32 8 -3 8 C-2.67 6.02 -2.34 4.04 -2 2 C-2.99 1.67 -3.98 1.34 -5 1 C-1.125 0 -1.125 0 0 0 Z " fill="#6C6D6F" transform="translate(121,102)"/>
<path d="M0 0 C2.97 0 5.94 0 9 0 C9.33 1.32 9.66 2.64 10 4 C6.53058454 3.54177532 3.32604951 3.10868317 0 2 C0 1.34 0 0.68 0 0 Z " fill="#7D7D7F" transform="translate(126,97)"/>
<path d="M0 0 C3.82946843 1.45255699 5.12050295 3.42895561 7 7 C6.01 7 5.02 7 4 7 C2.02 3.535 2.02 3.535 0 0 Z " fill="#747577" transform="translate(145,105)"/>
</svg>
