<?xml version="1.0" encoding="UTF-8"?>
<svg version="1.1" xmlns="http://www.w3.org/2000/svg" width="500" height="500">
<path d="M0 0 C0.625 1.75 0.625 1.75 1 4 C0.67265869 4.60368408 0.34531738 5.20736816 0.00805664 5.8293457 C-1.23510128 8.50624497 -1.08304987 10.06282425 -0.75390625 12.98046875 C-0.64449707 13.95032715 -0.53508789 14.92018555 -0.42236328 15.91943359 C0.42983176 22.13503883 1.52596995 28.30310478 2.62695312 34.47851562 C4.46060511 45.04384375 4.46060511 45.04384375 4 49 C1.07438916 52.20424044 -0.80490419 53.80878467 -5.125 54.5 C-8.36168983 53.93709742 -9.72608305 53.35512827 -12 51 C-12.4021875 49.9171875 -12.4021875 49.9171875 -12.8125 48.8125 C-15.15355223 43.26790262 -19.43307423 38.39108045 -25 36 C-29.08154361 43.83800852 -32.58492881 51.85546597 -36 60 C-35.154375 60.04898438 -34.30875 60.09796875 -33.4375 60.1484375 C-29.95144364 60.37820031 -26.47788947 60.66934155 -23 61 C-22.17371094 61.07605469 -21.34742188 61.15210938 -20.49609375 61.23046875 C-18.4375 61.5625 -18.4375 61.5625 -15 63 C-13.19540141 65.51409889 -12.02864926 68.09000539 -11 71 C-11.99 71.495 -11.99 71.495 -13 72 C-13.36037517 73.66102939 -13.68959903 75.3289105 -14 77 C-15.36895226 80.26406765 -17.04399108 83.36653627 -18.6875 86.5 C-19.10966797 87.34175781 -19.53183594 88.18351562 -19.96679688 89.05078125 C-23.55520211 95.92449866 -27.84745786 100.61195372 -35 104 C-37.25 103.875 -37.25 103.875 -39 103 C-40.19334591 99.41996227 -40.33543224 96.75684104 -40 93 C-38.25 91.0625 -38.25 91.0625 -36 90 C-34.68 90 -33.36 90 -32 90 C-31.608125 88.824375 -31.21625 87.64875 -30.8125 86.4375 C-29.17790632 82.02881224 -26.86217461 78.71309139 -24 75 C-25.37285156 75.01740234 -25.37285156 75.01740234 -26.7734375 75.03515625 C-28.55621094 75.04869141 -28.55621094 75.04869141 -30.375 75.0625 C-31.55835938 75.07410156 -32.74171875 75.08570313 -33.9609375 75.09765625 C-37 75 -37 75 -39 74 C-38.01 75.485 -38.01 75.485 -37 77 C-37.03396096 84.51386207 -40.25186408 90.17846853 -43.75 96.6875 C-44.2759375 97.70650391 -44.801875 98.72550781 -45.34375 99.77539062 C-49.18470069 107.0437243 -52.67303143 112.24741467 -60.3125 115.8125 C-61.19550781 116.23144531 -62.07851562 116.65039062 -62.98828125 117.08203125 C-63.65214844 117.38496094 -64.31601563 117.68789063 -65 118 C-68.35541967 113.5261071 -68.69884578 110.41605476 -68 105 C-64.80434964 102.15942191 -63.3252957 102 -59 102 C-58.443125 100.2984375 -58.443125 100.2984375 -57.875 98.5625 C-56.01117505 93.52927223 -53.1067166 89.34337078 -50 85 C-55.76707636 84.51126472 -59.64853636 85.06421213 -65 87.3125 C-81.11358239 93.91459278 -100.70444974 95.25993313 -118 95 C-118.29390625 95.65484375 -118.5878125 96.3096875 -118.890625 96.984375 C-123.72109836 106.81188977 -131.10491435 115.42967149 -140.6875 120.9375 C-141.780625 121.618125 -142.87375 122.29875 -144 123 C-144.36330439 124.66039116 -144.68968469 126.32889459 -145 128 C-146.19060702 130.55924874 -147.41445245 133.02039886 -148.75 135.5 C-149.08515625 136.15097656 -149.4203125 136.80195313 -149.765625 137.47265625 C-153.53792212 144.54571336 -158.80533735 149.46092505 -166 153 C-168.875 153.5 -168.875 153.5 -171 153 C-171.66 152.01 -172.32 151.02 -173 150 C-172.390625 147.80859375 -172.390625 147.80859375 -171.25 145.4375 C-170.88390625 144.65246094 -170.5178125 143.86742187 -170.140625 143.05859375 C-169 141 -169 141 -167 139 C-166.33484375 138.87753906 -165.6696875 138.75507813 -164.984375 138.62890625 C-162.83363253 138.19492484 -162.83363253 138.19492484 -161.953125 136.15234375 C-161.72109375 135.42144531 -161.4890625 134.69054687 -161.25 133.9375 C-161.00765625 133.20402344 -160.7653125 132.47054687 -160.515625 131.71484375 C-160.34546875 131.14894531 -160.1753125 130.58304688 -160 130 C-164.38516242 130.68611385 -167.84860988 131.71907849 -170.875 135.0859375 C-173.57027548 139.24115386 -175.80891925 143.54966195 -177.89453125 148.03515625 C-182.20498012 157.25454901 -185.86881879 163.78227189 -195.5625 168.15625 C-198.47810743 169.16549873 -200.93654543 169.14248626 -204 169 C-205.32527172 165.3702749 -204.66675274 163.37711779 -203.1875 159.875 C-202.65189453 158.57175781 -202.65189453 158.57175781 -202.10546875 157.2421875 C-201 155 -201 155 -199 153 C-195.875 152.875 -195.875 152.875 -193 153 C-192.82839355 152.40501709 -192.65678711 151.81003418 -192.47998047 151.19702148 C-190.58218743 144.73183972 -188.45856035 138.38293468 -186.125 132.0625 C-185.79886719 131.13115234 -185.47273438 130.19980469 -185.13671875 129.24023438 C-182.65022837 122.54025542 -182.65022837 122.54025542 -179.62109375 120.0234375 C-178.32365234 119.51683594 -178.32365234 119.51683594 -177 119 C-176.01902344 118.58878906 -175.03804687 118.17757812 -174.02734375 117.75390625 C-171.96605259 116.9590974 -169.90354617 116.16743315 -167.83984375 115.37890625 C-164.73704498 113.87232033 -163.0015497 112.81841127 -161 110 C-160.7552856 107.37678096 -160.71697942 105.15996322 -160.875 102.5625 C-161.11982559 95.17692818 -160.39496053 88.27372277 -159 81 C-159.22816406 81.76441406 -159.45632812 82.52882813 -159.69140625 83.31640625 C-162.42785999 88.92817854 -169.53633954 90.76816403 -175.16650391 92.77050781 C-181.5033068 94.89673415 -187.91029132 96.79451255 -194.32080078 98.68408203 C-195.79470938 99.11962058 -197.26757275 99.55871525 -198.73925781 100.00170898 C-200.68396026 100.58635634 -202.63286834 101.15696256 -204.58203125 101.7265625 C-209.85829224 103.69234659 -213.92916806 106.22315031 -217 111 C-217.99 110.67 -218.98 110.34 -220 110 C-219.48442674 100.71968137 -215.89402832 92.88154795 -209.01953125 86.53125 C-198.4677682 78.53068691 -187.17533781 77.6019043 -174.42382812 76.87695312 C-162.75141913 76.16916524 -162.75141913 76.16916524 -152.546875 71.01953125 C-151.95390625 70.29121094 -151.3609375 69.56289062 -150.75 68.8125 C-135.60311393 52.46980713 -110.58079137 49.17379162 -90 44 C-89.86803223 43.06140137 -89.73606445 42.12280273 -89.60009766 41.15576172 C-88.90574524 37.50433809 -87.76210307 35.93606732 -85.375 33.125 C-84.64667969 32.26390625 -83.91835937 31.4028125 -83.16796875 30.515625 C-82.09482422 29.27039063 -82.09482422 29.27039063 -81 28 C-80.43925781 27.29359375 -79.87851563 26.5871875 -79.30078125 25.859375 C-68.31087302 12.34152178 -50.28447643 2.97336937 -33 1 C-26.14126793 0.65962784 -19.28476229 0.79804316 -12.42504883 1.05004883 C-8.19525083 0.96275309 -4.27632623 -0.12218075 0 0 Z M-40 65 C-39 67 -39 67 -39 67 Z M-42 68 C-41 70 -41 70 -41 70 Z " fill="#00B3F1" transform="translate(226,151)"/>
<path d="M0 0 C5.35315942 3.19347177 9.2975409 7.30636386 11.85546875 13.03125 C13.36597594 19.75987294 12.52574393 24.99963175 9.54296875 31.09375 C6.3104406 36.1734371 2.14707431 38.74221041 -3.45703125 40.84375 C-9.93958035 41.65406864 -14.60831051 40.71516395 -20.45703125 38.09375 C-21.78734375 37.5678125 -21.78734375 37.5678125 -23.14453125 37.03125 C-27.55703957 33.33428357 -29.97754442 28.11406889 -30.875 22.4609375 C-31.09305702 15.670019 -29.6032918 10.51517216 -25.01953125 5.34375 C-17.82605442 -0.97247356 -9.47224858 -3.49373875 0 0 Z M-16.45703125 11.09375 C-19.35991462 14.48044726 -20.03901372 17.62643079 -19.88671875 22.09375 C-19.11098632 25.70443185 -17.06650943 27.54640225 -14.45703125 30.09375 C-10.95289297 31.84581914 -7.18409044 30.92272224 -3.45703125 30.09375 C-0.63256755 28.39907178 0.2423915 27.1993698 1.1015625 24.0390625 C1.73113911 20.18371705 1.66127632 17.49303804 0.54296875 13.71875 C-2.14924645 10.18521754 -4.26032325 9.46721807 -8.45703125 8.09375 C-11.66574183 8.09375 -13.72966891 9.47959678 -16.45703125 11.09375 Z " fill="#00BBF3" transform="translate(260.45703125,298.90625)"/>
<path d="M0 0 C0.66 1.32 1.32 2.64 2 4 C2.763125 3.34 3.52625 2.68 4.3125 2 C8.83760237 -1.00956927 13.77504234 -0.76974823 19 0 C23.49612965 2.1677768 25.90406512 4.47719315 28 9 C29.27800061 14.32537299 29.22147161 19.55107714 29.25 25 C29.270625 25.98484375 29.29125 26.9696875 29.3125 27.984375 C29.36272425 37.27586146 29.36272425 37.27586146 26 41 C23 41.625 23 41.625 20 41 C17.3612728 37.50511274 16.6216654 34.88535204 16.55859375 30.55078125 C16.53216797 29.53822266 16.50574219 28.52566406 16.47851562 27.48242188 C16.46498047 26.43634766 16.45144531 25.39027344 16.4375 24.3125 C16.40315522 22.2251007 16.3606029 20.13781514 16.30859375 18.05078125 C16.29626709 17.12950439 16.28394043 16.20822754 16.27124023 15.2590332 C16.2119443 12.80009901 16.2119443 12.80009901 14 11 C11.78927023 10.75746187 11.78927023 10.75746187 9.375 10.875 C8.14910156 10.90207031 8.14910156 10.90207031 6.8984375 10.9296875 C5.95871094 10.96449219 5.95871094 10.96449219 5 11 C4.07789683 14.14886953 3.86421078 17.00593125 3.82421875 20.28125 C3.80037109 21.28800781 3.77652344 22.29476563 3.75195312 23.33203125 C3.70898856 25.44380458 3.67773568 27.55584871 3.65820312 29.66796875 C3.63048828 30.67472656 3.60277344 31.68148438 3.57421875 32.71875 C3.55963623 33.63591797 3.54505371 34.55308594 3.5300293 35.49804688 C2.85335596 38.69221933 1.44686789 39.91963003 -1 42 C-3.02045442 41.39816251 -5.02111039 40.72693904 -7 40 C-8.5446663 36.91066741 -8.1837995 33.64550875 -8.203125 30.25390625 C-8.20882507 29.48698959 -8.21452515 28.72007294 -8.22039795 27.92991638 C-8.2298486 26.30672588 -8.23638219 24.68351618 -8.24023438 23.06030273 C-8.24994851 20.57566971 -8.28097346 18.09186097 -8.3125 15.60742188 C-8.31902927 14.03125492 -8.32428004 12.45508204 -8.328125 10.87890625 C-8.3404718 10.13508194 -8.3528186 9.39125763 -8.36553955 8.62489319 C-8.34339158 3.50287651 -8.34339158 3.50287651 -6.64746094 1.01928711 C-4.3785816 -0.38447271 -2.611836 -0.21177049 0 0 Z " fill="#00BBF3" transform="translate(173,298)"/>
<path d="M0 0 C2.33937446 1.70008805 2.9375802 2.61110295 3.40063477 5.49609375 C3.41408936 6.46675781 3.42754395 7.43742187 3.44140625 8.4375 C3.46783203 9.49710937 3.49425781 10.55671875 3.52148438 11.6484375 C3.53501953 12.75445312 3.54855469 13.86046875 3.5625 15 C3.59692109 17.1876512 3.63951759 19.37519341 3.69140625 21.5625 C3.70373291 22.53316406 3.71605957 23.50382812 3.72875977 24.50390625 C3.8327955 27.24922476 3.8327955 27.24922476 6 30 C7.90457929 30.43827201 7.90457929 30.43827201 10 30.3125 C11.051875 30.30669922 11.051875 30.30669922 12.125 30.30078125 C14.2416577 30.14912946 14.2416577 30.14912946 16 28 C16.96214079 25.14485756 17.09915517 22.58986428 17.02734375 19.59375 C17.01509766 18.76746094 17.00285156 17.94117188 16.99023438 17.08984375 C16.95507642 15.36319733 16.91601332 13.63662601 16.87304688 11.91015625 C16.86208984 11.08386719 16.85113281 10.25757813 16.83984375 9.40625 C16.82300537 8.65666016 16.80616699 7.90707031 16.78881836 7.13476562 C17.03568208 4.63930166 17.62066785 3.09123626 19 1 C21.9375 0.125 21.9375 0.125 25 0 C28 2 28 2 28.67480469 4.20898438 C29.34403905 9.95274355 29.22741693 15.72438091 29.25 21.5 C29.270625 22.81871094 29.29125 24.13742187 29.3125 25.49609375 C29.32023437 27.40068359 29.32023437 27.40068359 29.328125 29.34375 C29.34214355 31.07915039 29.34214355 31.07915039 29.35644531 32.84960938 C28.96005888 36.35301388 28.1744113 38.24090516 26 41 C23 41.5 23 41.5 20 41 C18.3125 39.46875 18.3125 39.46875 17 38 C16.48050781 38.37253906 15.96101563 38.74507813 15.42578125 39.12890625 C9.74687036 42.98132824 9.74687036 42.98132824 6.5 43.0625 C5.675 42.711875 4.85 42.36125 4 42 C3.35933594 41.75894531 2.71867188 41.51789063 2.05859375 41.26953125 C-3.49080301 38.92917792 -5.55624836 36.47400368 -8 31 C-9.6673362 25.78379447 -8.95924776 20.33672637 -8.75 14.9375 C-8.72292969 13.83599609 -8.69585937 12.73449219 -8.66796875 11.59960938 C-8.60802734 10.01696289 -8.60802734 10.01696289 -8.546875 8.40234375 C-8.51432617 7.43804443 -8.48177734 6.47374512 -8.44824219 5.48022461 C-7.55455892 0.53527453 -4.77640441 -0.71646066 0 0 Z " fill="#0BBAF2" transform="translate(127,298)"/>
<path d="M0 0 C2.94181024 0.50226028 4.35430637 1.47466122 6.5625 3.4375 C7.160625 2.9425 7.75875 2.4475 8.375 1.9375 C13.10865394 -0.29010185 17.425596 -0.46641873 22.5625 0.4375 C26.49639123 2.47082566 28.8137977 4.87979723 30.7265625 8.859375 C31.98619581 14.25107646 31.89081931 19.54472321 31.875 25.0625 C31.89111328 26.19429688 31.90722656 27.32609375 31.92382812 28.4921875 C31.92447266 29.58015625 31.92511719 30.668125 31.92578125 31.7890625 C31.92876221 32.77729004 31.93174316 33.76551758 31.93481445 34.78369141 C31.50969517 37.81388589 30.58209001 39.18594584 28.5625 41.4375 C26.2193787 41.18188677 23.88406597 40.84479228 21.5625 40.4375 C20.35023557 38.01297113 20.37454296 36.31369382 20.28125 33.60546875 C20.24386719 32.64189453 20.20648438 31.67832031 20.16796875 30.68554688 C20.13316406 29.67556641 20.09835937 28.66558594 20.0625 27.625 C19.99327231 25.63919088 19.92047282 23.65350241 19.84375 21.66796875 C19.81345703 20.78520264 19.78316406 19.90243652 19.75195312 18.99291992 C19.56012595 16.40547782 19.12430006 13.96815909 18.5625 11.4375 C17.12666999 11.32913547 15.6884798 11.25173833 14.25 11.1875 C13.04923828 11.11789062 13.04923828 11.11789062 11.82421875 11.046875 C9.43879159 11.22791615 9.43879159 11.22791615 7.93066406 13.14550781 C6.29555983 15.88468671 6.26147699 17.33903813 6.41015625 20.5 C6.43787109 21.46164062 6.46558594 22.42328125 6.49414062 23.4140625 C6.58138768 25.42986002 6.67253453 27.44549253 6.76757812 29.4609375 C6.96976399 36.8185305 6.96976399 36.8185305 4.7890625 40.1328125 C2.5625 41.4375 2.5625 41.4375 -1.125 41.3125 C-2.218125 41.02375 -3.31125 40.735 -4.4375 40.4375 C-5.95057117 37.41135766 -5.62104647 34.26610086 -5.640625 30.9453125 C-5.64917511 29.83178909 -5.64917511 29.83178909 -5.65789795 28.69577026 C-5.66734905 27.12385484 -5.67388237 25.55191959 -5.67773438 23.97998047 C-5.68743436 21.57874848 -5.71845289 19.17837457 -5.75 16.77734375 C-5.75653077 15.25000508 -5.76178095 13.72266029 -5.765625 12.1953125 C-5.7779718 11.47852325 -5.7903186 10.76173401 -5.80303955 10.02322388 C-5.78908131 6.88866239 -5.60771611 4.74324506 -4.06933594 1.97998047 C-2.4375 0.4375 -2.4375 0.4375 0 0 Z " fill="#06B6F1" transform="translate(285.4375,297.5625)"/>
<path d="M0 0 C1.953125 0.5546875 1.953125 0.5546875 4 2 C4.609375 5.2578125 4.609375 5.2578125 4.75 9.125 C4.80671875 10.40632813 4.8634375 11.68765625 4.921875 13.0078125 C4.94765625 13.99523437 4.9734375 14.98265625 5 16 C5.77859375 15.36707031 6.5571875 14.73414063 7.359375 14.08203125 C11.36869502 10.92083662 14.22224297 9.7656411 19.3125 10.0625 C24.97434746 10.88346788 29.83888334 13.15182312 33.3515625 17.78125 C36.91558509 23.83239627 37.71577581 29.11832687 37 36 C34.90108034 43.19448967 29.93411028 47.83623935 23.5 51.375 C19.28424528 52.42893868 15.81827293 52.90103364 11.80859375 50.9140625 C6.83656103 47.83656103 6.83656103 47.83656103 5 46 C3.515 48.475 3.515 48.475 2 51 C0.68 50.34 -0.64 49.68 -2 49 C-2.0505916 42.34313186 -2.0856876 35.68631306 -2.10986328 29.02929688 C-2.11993859 26.76332751 -2.13359918 24.49737119 -2.15087891 22.23144531 C-2.17506011 18.97978499 -2.18646763 15.72829613 -2.1953125 12.4765625 C-2.20563507 11.45881744 -2.21595764 10.44107239 -2.22659302 9.39248657 C-2.22674408 8.45166229 -2.22689514 7.51083801 -2.22705078 6.54150391 C-2.231492 5.71099518 -2.23593323 4.88048645 -2.24050903 4.02481079 C-2 2 -2 2 0 0 Z M5.125 22.3125 C3.11048684 27.12494811 2.4718043 31.12701529 4.0625 36.125 C5.80435733 40.10417631 7.9411608 43.21607471 12 45 C16.4633888 45.81031761 20.78854502 46.03347203 24.97265625 44.078125 C28.60577994 41.3287341 30.12438125 38.37809375 31 34 C31.65259594 28.12663654 30.44839678 23.74021106 27 19 C19.37487101 13.57768605 10.91442999 15.17220302 5.125 22.3125 Z " fill="#03C5F5" transform="translate(330,288)"/>
<path d="M0 0 C2.97238318 2.39082995 4.24327057 3.90411096 5.875 7.3125 C6.21557617 10.6340332 6.21557617 10.6340332 6.16796875 14.36328125 C6.16372391 15.02208786 6.15947906 15.68089447 6.15510559 16.35966492 C6.13841196 18.44853885 6.10078058 20.53642139 6.0625 22.625 C6.04744097 24.04751203 6.03375469 25.4700393 6.02148438 26.89257812 C5.98854003 30.36620351 5.93682408 33.83925487 5.875 37.3125 C4.885 37.6425 3.895 37.9725 2.875 38.3125 C0.875 37.3125 0.875 37.3125 -0.125 34.3125 C-0.8984375 34.993125 -0.8984375 34.993125 -1.6875 35.6875 C-6.17879101 38.68169401 -10.31858903 39.70744836 -15.625 38.8125 C-20.44433804 37.50863799 -24.11029192 35.34100372 -27.125 31.3125 C-28.55958845 27.82849947 -28.6778396 24.91669352 -27.44921875 21.3515625 C-25.0986474 16.76649739 -22.26427929 14.37604088 -17.453125 12.74609375 C-14.09965309 12.12153774 -10.77166469 12.20826404 -7.375 12.25 C-6.67761719 12.25451172 -5.98023438 12.25902344 -5.26171875 12.26367188 C-3.54944197 12.2753998 -1.83720967 12.29333347 -0.125 12.3125 C-1.22337024 7.75385625 -1.22337024 7.75385625 -4.625 4.875 C-10.83112688 3.87758675 -17.03176868 4.89074603 -23.125 6.3125 C-23.455 4.6625 -23.785 3.0125 -24.125 1.3125 C-17.02318809 -2.651302 -7.43542961 -3.8917355 0 0 Z M-21.125 21.3125 C-22.46050847 24.15877591 -22.46050847 24.15877591 -22.125 27.3125 C-19.63396235 30.8155217 -17.87453257 32.09041628 -13.75 33.3125 C-8.77747354 33.3125 -5.4032293 31.75537856 -1.25 29.125 C0.63877772 26.08196923 0.58526907 22.84721739 0.875 19.3125 C-2.57165742 18.16361419 -5.36851905 18.1085653 -9 18.0625 C-10.21429688 18.03671875 -11.42859375 18.0109375 -12.6796875 17.984375 C-16.37885392 18.33667656 -18.21937694 19.03714077 -21.125 21.3125 Z " fill="#00C0F5" transform="translate(400.125,300.6875)"/>
<path d="M0 0 C1.32 0.66 2.64 1.32 4 2 C4.33 11.57 4.66 21.14 5 31 C11.41581993 24.38637041 11.41581993 24.38637041 17.80371094 17.74584961 C18.60583008 16.93124268 19.40794922 16.11663574 20.234375 15.27734375 C21.45979004 14.01265259 21.45979004 14.01265259 22.70996094 12.72241211 C25 11 25 11 27.29785156 11.23266602 C27.85956055 11.48588623 28.42126953 11.73910645 29 12 C28.14590173 16.50419983 25.52252531 19.03017333 22.4375 22.25 C21.91736328 22.80429687 21.39722656 23.35859375 20.86132812 23.9296875 C19.58069015 25.29256828 18.2911951 26.64711683 17 28 C18.70379428 33.5347499 22.39114542 37.06524275 26.27539062 41.18359375 C27.76171875 42.84375 27.76171875 42.84375 30 46 C29.83203125 48.90625 29.83203125 48.90625 29 51 C24.28211233 50.16872618 22.30153729 47.21181053 19.4375 43.625 C18.47897229 42.44961663 17.51936913 41.27510931 16.55859375 40.1015625 C15.92908813 39.31773193 15.92908813 39.31773193 15.28686523 38.51806641 C13.9346997 36.9229677 12.49690604 35.45899933 11 34 C5.21706933 38.7772036 3.84661588 42.61400627 3 50 C1.515 50.495 1.515 50.495 0 51 C-0.66 50.67 -1.32 50.34 -2 50 C-2.16839088 43.66473141 -2.32825024 37.32928874 -2.48217773 30.99365234 C-2.5355498 28.83832931 -2.59087537 26.68305374 -2.64819336 24.52783203 C-2.73023786 21.4301171 -2.80525759 18.33229951 -2.87890625 15.234375 C-2.90594131 14.27070007 -2.93297638 13.30702515 -2.96083069 12.31414795 C-2.99097511 10.96320038 -2.99097511 10.96320038 -3.02172852 9.58496094 C-3.04171402 8.79442322 -3.06169952 8.0038855 -3.08229065 7.18939209 C-2.99829673 4.95468347 -2.74117458 3.11063657 -2 1 C-1.34 0.67 -0.68 0.34 0 0 Z " fill="#05C8F6" transform="translate(464,288)"/>
<path d="M0 0 C4.21510356 3.61294591 5.74672 6.85843225 6.625 12.25 C6.8388155 16.12311498 6.81009995 19.99652408 6.8125 23.875 C6.82474609 24.92429687 6.83699219 25.97359375 6.84960938 27.0546875 C6.85154297 28.06015625 6.85347656 29.065625 6.85546875 30.1015625 C6.85957764 31.01760254 6.86368652 31.93364258 6.86791992 32.87744141 C6.625 35.25 6.625 35.25 4.625 38.25 C3.305 37.92 1.985 37.59 0.625 37.25 C0.60518066 36.5293335 0.58536133 35.80866699 0.56494141 35.06616211 C0.4691634 31.77293328 0.35969883 28.48029332 0.25 25.1875 C0.2190625 24.05376953 0.188125 22.92003906 0.15625 21.75195312 C-0.04775102 15.92092404 -0.40776356 10.7598614 -2.375 5.25 C-6.97238272 3.71753909 -12.0022698 3.67284941 -16.6875 4.8125 C-20.1217594 7.73798023 -21.19556479 11.73716878 -21.7097168 16.07202148 C-21.89212078 19.27855773 -21.99580293 22.47651256 -22.0625 25.6875 C-22.09666016 26.80060547 -22.13082031 27.91371094 -22.16601562 29.06054688 C-22.24802429 31.79026383 -22.31732837 34.5196786 -22.375 37.25 C-23.86 37.745 -23.86 37.745 -25.375 38.25 C-26.035 37.92 -26.695 37.59 -27.375 37.25 C-27.375 24.71 -27.375 12.17 -27.375 -0.75 C-26.055 -1.08 -24.735 -1.41 -23.375 -1.75 C-22.715 -0.43 -22.055 0.89 -21.375 2.25 C-20.6325 1.610625 -19.89 0.97125 -19.125 0.3125 C-13.21026093 -4.12355431 -6.35457275 -3.29496365 0 0 Z " fill="#02CBF7" transform="translate(444.375,300.75)"/>
<path d="M0 0 C1.62695312 1.03540039 1.62695312 1.03540039 3 3 C3.3225595 5.68080698 3.46801722 8.1252712 3.46875 10.80859375 C3.47636353 11.57172379 3.48397705 12.33485382 3.49182129 13.12110901 C3.50261975 14.73410777 3.50547639 16.34717644 3.50097656 17.96020508 C3.5000046 20.42583084 3.54161309 22.88833972 3.5859375 25.35351562 C3.59114501 26.92186852 3.59383269 28.49023222 3.59375 30.05859375 C3.6183429 31.16188271 3.6183429 31.16188271 3.64343262 32.28746033 C3.59036842 36.22641479 3.32306011 37.68213149 0.46289062 40.49633789 C-0.34986328 40.99254639 -1.16261719 41.48875488 -2 42 C-4.46800047 40.84826645 -6.04783565 39.95216435 -8 38 C-8.21193558 35.38236005 -8.3039819 32.87315295 -8.30078125 30.25390625 C-8.30506638 29.48698959 -8.3093515 28.72007294 -8.31376648 27.92991638 C-8.31951323 26.30672188 -8.32000749 24.68350162 -8.31567383 23.06030273 C-8.3125166 20.57556206 -8.33595754 18.09201498 -8.36132812 15.60742188 C-8.36360136 14.0312515 -8.3643045 12.45507793 -8.36328125 10.87890625 C-8.37709587 9.76316978 -8.37709587 9.76316978 -8.39118958 8.62489319 C-8.34517201 3.49737578 -8.34517201 3.49737578 -6.63354492 1.03100586 C-4.27397656 -0.45822702 -2.73220114 -0.40983017 0 0 Z " fill="#00B8F2" transform="translate(219,298)"/>
<path d="M0 0 C1.32 0.33 2.64 0.66 4 1 C3.39171673 5.65157795 1.44525724 9.42424668 -0.75 13.5 C-1.25273438 14.47646484 -1.25273438 14.47646484 -1.765625 15.47265625 C-5.53792212 22.54571336 -10.80533735 27.46092505 -18 31 C-20.875 31.5 -20.875 31.5 -23 31 C-23.66 30.01 -24.32 29.02 -25 28 C-24.390625 25.80859375 -24.390625 25.80859375 -23.25 23.4375 C-22.88390625 22.65246094 -22.5178125 21.86742187 -22.140625 21.05859375 C-21 19 -21 19 -19 17 C-18.33484375 16.87753906 -17.6696875 16.75507813 -16.984375 16.62890625 C-14.83363253 16.19492484 -14.83363253 16.19492484 -13.953125 14.15234375 C-13.72109375 13.42144531 -13.4890625 12.69054687 -13.25 11.9375 C-13.00765625 11.20402344 -12.7653125 10.47054688 -12.515625 9.71484375 C-12.34546875 9.14894531 -12.1753125 8.58304687 -12 8 C-13.65 8 -15.3 8 -17 8 C-14.616756 5.616756 -13.45352292 5.54841764 -10.1875 5 C-6.5749056 4.34126354 -3.34892125 3.56282991 0 2 C0 1.34 0 0.68 0 0 Z " fill="#00C0F4" transform="translate(78,273)"/>
<path d="M0 0 C2.95347078 0.50425111 4.22302777 1.64390462 6.5625 3.4375 C7.5525 3.1075 8.5425 2.7775 9.5625 2.4375 C9.5625 3.0975 9.5625 3.7575 9.5625 4.4375 C7.0625 6.0625 7.0625 6.0625 4.5625 7.4375 C3.9025 6.1175 3.2425 4.7975 2.5625 3.4375 C-0.19391416 3.93506092 -0.19391416 3.93506092 -2.4375 5.4375 C-2.59738491 7.95630517 -2.69684225 10.45092266 -2.75390625 12.97265625 C-2.77468735 13.72590683 -2.79546844 14.47915741 -2.81687927 15.25523376 C-2.88245425 17.6700599 -2.94129621 20.08499798 -3 22.5 C-3.0431777 24.13347529 -3.08679173 25.7669391 -3.13085938 27.40039062 C-3.23814362 31.41264464 -3.33938821 35.42501164 -3.4375 39.4375 C-1.1275 39.4375 1.1825 39.4375 3.5625 39.4375 C3.58755615 38.69064941 3.6126123 37.94379883 3.63842773 37.17431641 C3.75418213 33.80352733 3.87700128 30.43303217 4 27.0625 C4.03931641 25.886875 4.07863281 24.71125 4.11914062 23.5 C4.16103516 22.37851562 4.20292969 21.25703125 4.24609375 20.1015625 C4.28275146 19.06467285 4.31940918 18.0277832 4.35717773 16.95947266 C4.5625 14.4375 4.5625 14.4375 5.5625 12.4375 C6.2225 12.7675 6.8825 13.0975 7.5625 13.4375 C7.39363281 14.23929687 7.22476562 15.04109375 7.05078125 15.8671875 C6.35964625 20.92076664 6.62284936 25.89449164 6.86523438 30.98046875 C6.99668285 36.81288608 6.99668285 36.81288608 4.78125 40 C2.5625 41.4375 2.5625 41.4375 -1.125 41.3125 C-2.218125 41.02375 -3.31125 40.735 -4.4375 40.4375 C-5.95057117 37.41135766 -5.62104647 34.26610086 -5.640625 30.9453125 C-5.64917511 29.83178909 -5.64917511 29.83178909 -5.65789795 28.69577026 C-5.66734905 27.12385484 -5.67388237 25.55191959 -5.67773438 23.97998047 C-5.68743436 21.57874848 -5.71845289 19.17837457 -5.75 16.77734375 C-5.75653077 15.25000508 -5.76178095 13.72266029 -5.765625 12.1953125 C-5.7779718 11.47852325 -5.7903186 10.76173401 -5.80303955 10.02322388 C-5.78908131 6.88866239 -5.60771611 4.74324506 -4.06933594 1.97998047 C-2.4375 0.4375 -2.4375 0.4375 0 0 Z " fill="#00D0FA" transform="translate(285.4375,297.5625)"/>
<path d="M0 0 C1.953125 0.4921875 1.953125 0.4921875 4 2 C4.46588547 4.82517725 4.69615501 7.29079561 4.75 10.125 C4.77964844 10.87910156 4.80929687 11.63320313 4.83984375 12.41015625 C4.91057932 14.27285953 4.95754983 16.13643755 5 18 C4.34 18.33 3.68 18.66 3 19 C2.67 13.72 2.34 8.44 2 3 C1.34 3 0.68 3 0 3 C0 18.18 0 33.36 0 49 C0.66 49 1.32 49 2 49 C2 46.36 2 43.72 2 41 C2.66 41 3.32 41 4 41 C5.0326802 43.78823655 5.04509293 44.8677274 4.0625 47.75 C3.711875 48.4925 3.36125 49.235 3 50 C1.68 50 0.36 50 -1 50 C-2.58358604 48.41641396 -2.13513663 46.8000964 -2.14526367 44.60375977 C-2.15164352 43.66931534 -2.15802338 42.73487091 -2.16459656 41.77210999 C-2.16570938 40.75547775 -2.1668222 39.73884552 -2.16796875 38.69140625 C-2.17296135 37.13582253 -2.17296135 37.13582253 -2.17805481 35.54881287 C-2.1831286 33.35049891 -2.185463 31.15217723 -2.18530273 28.95385742 C-2.18748838 25.58043799 -2.20563714 22.20734583 -2.22460938 18.83398438 C-2.2275433 16.70312612 -2.2295281 14.57226631 -2.23046875 12.44140625 C-2.23765427 11.42679825 -2.24483978 10.41219025 -2.25224304 9.36683655 C-2.24916641 8.42923996 -2.24608978 7.49164337 -2.24291992 6.52563477 C-2.24434494 5.69814224 -2.24576996 4.87064972 -2.24723816 4.01808167 C-2 2 -2 2 0 0 Z " fill="#0FD3FA" transform="translate(330,288)"/>
<path d="M0 0 C0.99 0 1.98 0 3 0 C3 1.98 3 3.96 3 6 C3.66 6 4.32 6 5 6 C4.84152588 6.86963379 4.68305176 7.73926758 4.51977539 8.63525391 C4.04102247 11.73444262 3.80141577 14.70523819 3.68359375 17.8359375 C3.64169922 18.89941406 3.59980469 19.96289062 3.55664062 21.05859375 C3.51732422 22.15300781 3.47800781 23.24742187 3.4375 24.375 C3.39431641 25.49261719 3.35113281 26.61023438 3.30664062 27.76171875 C3.20102589 30.50770199 3.0989203 33.25376881 3 36 C2.01 36 1.02 36 0 36 C0 24.12 0 12.24 0 0 Z " fill="#00B3F2" transform="translate(418,301)"/>
<path d="M0 0 C-0.99 2.31 -1.98 4.62 -3 7 C-3.66 7 -4.32 7 -5 7 C-5.66 7.99 -6.32 8.98 -7 10 C-7 8.35 -7 6.7 -7 5 C-6.34 5 -5.68 5 -5 5 C-5 4.01 -5 3.02 -5 2 C-5.8552124 2.48138428 -6.7104248 2.96276855 -7.59155273 3.45874023 C-11.15998552 5.07234357 -13.6492551 5.46635486 -17.53515625 5.66015625 C-18.75654297 5.73169922 -19.97792969 5.80324219 -21.23632812 5.87695312 C-23.1302832 5.96879883 -23.1302832 5.96879883 -25.0625 6.0625 C-27.57462075 6.19162173 -30.08637894 6.3280555 -32.59765625 6.47265625 C-33.70633057 6.52687744 -34.81500488 6.58109863 -35.95727539 6.63696289 C-38.97356664 6.99684615 -41.21949859 7.83099772 -44 9 C-46.3125 8.625 -46.3125 8.625 -48 8 C-38.91617649 3.81371892 -29.85524157 3.27253058 -19.98657227 2.77197266 C-14.07483769 2.43107801 -5.04742626 -1.68247542 0 0 Z " fill="#00DEFB" transform="translate(72,225)"/>
<path d="M0 0 C0.66 0 1.32 0 2 0 C3.61989062 3.54351073 4.10414268 6.12719419 4 10 C2.84242188 9.96519531 1.68484375 9.93039062 0.4921875 9.89453125 C-1.0468604 9.86637793 -2.58592411 9.83907944 -4.125 9.8125 C-4.88554687 9.78736328 -5.64609375 9.76222656 -6.4296875 9.73632812 C-12.15087265 9.66234728 -16.46574864 10.55625761 -20.75 14.6875 C-21.1625 15.120625 -21.575 15.55375 -22 16 C-22.66 16 -23.32 16 -24 16 C-23.67 19.63 -23.34 23.26 -23 27 C-23.66 26.67 -24.32 26.34 -25 26 C-26.09843696 21.44933259 -26.60075741 18.39669445 -24.375 14.1875 C-21.19908236 9.92508422 -18.17035917 7.96293602 -13 7 C-10.40626086 6.93101758 -7.84189803 6.90565248 -5.25 6.9375 C-4.55261719 6.94201172 -3.85523438 6.94652344 -3.13671875 6.95117188 C-1.42444197 6.9628998 0.28779033 6.98083347 2 7 C1.34 4.69 0.68 2.38 0 0 Z " fill="#00DAFA" transform="translate(398,306)"/>
<path d="M0 0 C0.33 0 0.66 0 1 0 C1.33 11.88 1.66 23.76 2 36 C3.98 36.33 5.96 36.66 8 37 C7.34 37.99 6.68 38.98 6 40 C3.97954558 39.39816251 1.97888961 38.72693904 0 38 C-1.55475264 34.89049471 -1.14199524 31.5955297 -1.1328125 28.18359375 C-1.13376923 27.41193375 -1.13472595 26.64027374 -1.13571167 25.8452301 C-1.13639246 24.21363239 -1.1345452 22.58203197 -1.13037109 20.95043945 C-1.12501413 18.44411179 -1.13032319 15.93796275 -1.13671875 13.43164062 C-1.13605809 11.84895794 -1.13477719 10.26627536 -1.1328125 8.68359375 C-1.13483673 7.92944687 -1.13686096 7.17529999 -1.13894653 6.39830017 C-1.11495624 1.11495624 -1.11495624 1.11495624 0 0 Z " fill="#25CCFA" transform="translate(166,300)"/>
<path d="M0 0 C0.33 0 0.66 0 1 0 C1.33 11.88 1.66 23.76 2 36 C3.98 36.33 5.96 36.66 8 37 C7.01 37.99 6.02 38.98 5 40 C2.53199953 38.84826645 0.95216435 37.95216435 -1 36 C-1.18737649 33.35883887 -1.25569866 30.8244602 -1.23046875 28.18359375 C-1.23001053 27.41193375 -1.22955231 26.64027374 -1.2290802 25.8452301 C-1.22605787 24.21361758 -1.21817213 22.58200795 -1.20581055 20.95043945 C-1.18754787 18.44407 -1.18530088 15.93806967 -1.18554688 13.43164062 C-1.18063198 11.84895512 -1.17480379 10.26627213 -1.16796875 8.68359375 C-1.16685593 7.92944687 -1.1657431 7.17529999 -1.16459656 6.39830017 C-1.11605119 1.11605119 -1.11605119 1.11605119 0 0 Z " fill="#0ADAF9" transform="translate(212,300)"/>
<path d="M0 0 C0.66 0 1.32 0 2 0 C3.88624671 3.21654702 4.29047742 5.71432261 4.4140625 9.421875 C4.45273437 10.44667969 4.49140625 11.47148437 4.53125 12.52734375 C4.5621875 13.59082031 4.593125 14.65429688 4.625 15.75 C4.66367187 16.82894531 4.70234375 17.90789062 4.7421875 19.01953125 C4.83634631 21.67951775 4.92197387 24.3394994 5 27 C6.98 27.33 8.96 27.66 11 28 C10.67 28.66 10.34 29.32 10 30 C7.6568787 29.74438677 5.32156597 29.40729228 3 29 C1.78773557 26.57547113 1.81204296 24.87619382 1.71875 22.16796875 C1.68136719 21.20439453 1.64398438 20.24082031 1.60546875 19.24804688 C1.57066406 18.23806641 1.53585937 17.22808594 1.5 16.1875 C1.43077231 14.20169088 1.35797282 12.21600241 1.28125 10.23046875 C1.25095703 9.34770264 1.22066406 8.46493652 1.18945312 7.55541992 C0.99762595 4.96797782 0.56180006 2.53065909 0 0 Z " fill="#00D1F7" transform="translate(304,309)"/>
<path d="M0 0 C8.25 0 16.5 0 25 0 C25.33 1.32 25.66 2.64 26 4 C26.33 4.66 26.66 5.32 27 6 C13.635 4.02 13.635 4.02 0 2 C0 1.34 0 0.68 0 0 Z " fill="#00D9FA" transform="translate(159,219)"/>
<path d="M0 0 C0.33 0 0.66 0 1 0 C1.33 10.89 1.66 21.78 2 33 C0 32 0 32 -1.14453125 29.2109375 C-2.56804844 23.75388923 -1.99649101 18.20012817 -1.6875 12.625 C-1.63916016 11.52027344 -1.59082031 10.41554688 -1.54101562 9.27734375 C-1.1459478 1.1459478 -1.1459478 1.1459478 0 0 Z " fill="#2DCDF8" transform="translate(120,300)"/>
<path d="M0 0 C0 0.33 0 0.66 0 1 C-5.61 1.66 -11.22 2.32 -17 3 C-16.67 3.66 -16.34 4.32 -16 5 C-15.360625 4.835 -14.72125 4.67 -14.0625 4.5 C-8.36088438 3.56912398 -3.13304308 3.05519297 2 6 C-0.44794869 7.22397435 -1.34071196 6.88862922 -4 6.4375 C-9.28019242 5.7506457 -13.88144089 6.70700281 -19 8 C-19.33 6.35 -19.66 4.7 -20 3 C-13.45841601 -0.65111665 -7.36120371 -0.29887594 0 0 Z " fill="#01DDFB" transform="translate(396,299)"/>
<path d="M0 0 C0.66 0.33 1.32 0.66 2 1 C-1.11692909 4.17469938 -4.24483546 7.33835392 -7.375 10.5 C-8.26445312 11.40621094 -9.15390625 12.31242188 -10.0703125 13.24609375 C-10.92109375 14.10332031 -11.771875 14.96054688 -12.6484375 15.84375 C-13.43395996 16.63974609 -14.21948242 17.43574219 -15.02880859 18.25585938 C-17 20 -17 20 -19 20 C-15.14979213 11.42893424 -7.45533991 5.36715442 0 0 Z " fill="#00CEF8" transform="translate(161,164)"/>
<path d="M0 0 C-9.64513769 6.4300918 -22.75745185 6.70453224 -34 7 C-34 6.34 -34 5.68 -34 5 C-32.92621094 4.86722656 -31.85242188 4.73445312 -30.74609375 4.59765625 C-29.30989167 4.41930436 -27.87369399 4.24091705 -26.4375 4.0625 C-25.73302734 3.97548828 -25.02855469 3.88847656 -24.30273438 3.79882812 C-16.19527112 3.06528506 -16.19527112 3.06528506 -8.4375 0.9375 C-5.5087509 -0.18894196 -3.11110233 -0.14470243 0 0 Z " fill="#00D8FA" transform="translate(163,237)"/>
<path d="M0 0 C0.66 0.33 1.32 0.66 2 1 C2 1.66 2 2.32 2 3 C2.99 2.67 3.98 2.34 5 2 C9.24674388 1.76835942 12.35602463 1.66785576 16 4 C16 4.66 16 5.32 16 6 C15.505 5.835 15.01 5.67 14.5 5.5 C10.20976088 4.64195218 5.88111095 4.38990996 1.6875 5.75 C-0.33611319 7.24897273 -1.60859295 8.91288943 -3 11 C-3 9.68 -3 8.36 -3 7 C-3.66 7 -4.32 7 -5 7 C-5 6.34 -5 5.68 -5 5 C-4.34 5 -3.68 5 -3 5 C-2.5359375 4.0409375 -2.5359375 4.0409375 -2.0625 3.0625 C-1 1 -1 1 0 0 Z " fill="#00CFF8" transform="translate(426,300)"/>
<path d="M0 0 C0.33 0.66 0.66 1.32 1 2 C0.67 2.66 0.34 3.32 0 4 C3.96 4 7.92 4 12 4 C5.25138568 9.06146074 -1.66994837 10.46278065 -10 10 C-7.94909081 8.9745454 -5.96468629 7.98688348 -3.8125 7.1875 C-1.72371046 6.10647863 -1.72371046 6.10647863 -1.3125 3.4375 C-1.209375 2.633125 -1.10625 1.82875 -1 1 C-0.67 0.67 -0.34 0.34 0 0 Z " fill="#01DBFA" transform="translate(138,188)"/>
<path d="M0 0 C3.43926093 0.44570607 6.87597202 0.90872615 10.3125 1.375 C11.77719727 1.56449219 11.77719727 1.56449219 13.27148438 1.7578125 C14.20927734 1.88671875 15.14707031 2.015625 16.11328125 2.1484375 C17.40939331 2.32125244 17.40939331 2.32125244 18.73168945 2.49755859 C21 3 21 3 24 5 C24 5.66 24 6.32 24 7 C23.34 7 22.68 7 22 7 C22 6.34 22 5.68 22 5 C20.906875 5.020625 19.81375 5.04125 18.6875 5.0625 C15 5 15 5 12 4 C10.04322445 3.84245296 10.04322445 3.84245296 8 3.875 C7.319375 3.87242187 6.63875 3.86984375 5.9375 3.8671875 C3.78125219 3.93368874 3.78125219 3.93368874 1 5 C0.67 5.99 0.34 6.98 0 8 C-1.125 6.25 -1.125 6.25 -2 4 C-1.0546875 1.859375 -1.0546875 1.859375 0 0 Z " fill="#00D9FA" transform="translate(188,210)"/>
<path d="M0 0 C0.99 0.33 1.98 0.66 3 1 C2.8899083 4.41731792 2.75932939 7.83355574 2.625 11.25 C2.5940625 12.21808594 2.563125 13.18617188 2.53125 14.18359375 C2.49257812 15.11816406 2.45390625 16.05273438 2.4140625 17.015625 C2.3826416 17.87446289 2.3512207 18.73330078 2.31884766 19.61816406 C1.98283796 22.1282028 1.25808272 23.81932328 0 26 C-0.82273212 23.11798655 -1.12834581 20.55223548 -1.1328125 17.55859375 C-1.13410156 16.72779297 -1.13539063 15.89699219 -1.13671875 15.04101562 C-1.13285156 14.18185547 -1.12898437 13.32269531 -1.125 12.4375 C-1.12886719 11.57447266 -1.13273438 10.71144531 -1.13671875 9.82226562 C-1.13542969 8.99275391 -1.13414062 8.16324219 -1.1328125 7.30859375 C-1.13168457 6.55376709 -1.13055664 5.79894043 -1.12939453 5.02124023 C-1 3 -1 3 0 0 Z " fill="#00CAF7" transform="translate(145,300)"/>
<path d="M0 0 C0.99 0 1.98 0 3 0 C3.02712066 1.43739513 3.04645067 2.87493863 3.0625 4.3125 C3.07410156 5.11300781 3.08570312 5.91351563 3.09765625 6.73828125 C3 9 3 9 2 12 C3.65 12 5.3 12 7 12 C7 12.33 7 12.66 7 13 C4.69 13 2.38 13 0 13 C-0.99 14.98 -1.98 16.96 -3 19 C-3.625 17.1875 -3.625 17.1875 -4 15 C-3.34 14.01 -2.68 13.02 -2 12 C-1.55570562 9.95130926 -1.18705805 7.88545707 -0.875 5.8125 C-0.70742187 4.72582031 -0.53984375 3.63914063 -0.3671875 2.51953125 C-0.24601562 1.68808594 -0.12484375 0.85664063 0 0 Z " fill="#01DFFB" transform="translate(108,233)"/>
<path d="M0 0 C-0.99 0.33 -1.98 0.66 -3 1 C-3 1.66 -3 2.32 -3 3 C-4.45792884 3.05399736 -5.91642712 3.09279177 -7.375 3.125 C-8.18710937 3.14820313 -8.99921875 3.17140625 -9.8359375 3.1953125 C-12 3 -12 3 -14 1 C-10.94932205 -2.05067795 -3.79001365 -1.06594134 0 0 Z " fill="#01B4F2" transform="translate(356,335)"/>
<path d="M0 0 C0.33 0.66 0.66 1.32 1 2 C-7.96101616 13.00924842 -7.96101616 13.00924842 -13 14 C-8.88380164 9.08064098 -4.59589638 4.47352044 0 0 Z " fill="#00D0F9" transform="translate(487,301)"/>
<path d="M0 0 C0.66 0.33 1.32 0.66 2 1 C1.04882866 2.1725131 0.08882991 3.33787015 -0.875 4.5 C-1.40867188 5.1496875 -1.94234375 5.799375 -2.4921875 6.46875 C-2.98976562 6.9740625 -3.48734375 7.479375 -4 8 C-4.66 8 -5.32 8 -6 8 C-6.66 9.98 -7.32 11.96 -8 14 C-8.84819206 11.63234732 -9.23923525 10.50796525 -8.14453125 8.18359375 C-5.68749782 4.9627904 -3.4802185 2.19124869 0 0 Z " fill="#00D3F9" transform="translate(240,300)"/>
<path d="M0 0 C1.32 0.33 2.64 0.66 4 1 C3.25 5.75 3.25 5.75 1 8 C1 6.68 1 5.36 1 4 C-0.65 4.33 -2.3 4.66 -4 5 C-4 4.34 -4 3.68 -4 3 C-2.68 2.67 -1.36 2.34 0 2 C0 1.34 0 0.68 0 0 Z " fill="#0BE5FC" transform="translate(78,273)"/>
<path d="M0 0 C1 2 1 2 0.44140625 4.1640625 C0.15136719 4.97617188 -0.13867188 5.78828125 -0.4375 6.625 C-0.72496094 7.44226563 -1.01242188 8.25953125 -1.30859375 9.1015625 C-1.53675781 9.72804687 -1.76492187 10.35453125 -2 11 C-4.64 11 -7.28 11 -10 11 C-6.25 9 -6.25 9 -4 9 C-3.79503906 8.43410156 -3.59007812 7.86820313 -3.37890625 7.28515625 C-3.10949219 6.55167969 -2.84007812 5.81820312 -2.5625 5.0625 C-2.29566406 4.33160156 -2.02882812 3.60070312 -1.75390625 2.84765625 C-1 1 -1 1 0 0 Z " fill="#00D9FA" transform="translate(171,244)"/>
<path d="M0 0 C0 0.66 0 1.32 0 2 C-5.30039859 3.66554027 -10.47293087 5.27275406 -16 6 C-11.38503922 1.96190932 -6.07147123 0 0 0 Z " fill="#00D7FA" transform="translate(106,204)"/>
<path d="M0 0 C0.66 0.33 1.32 0.66 2 1 C2.33 1.99 2.66 2.98 3 4 C5.97 4.495 5.97 4.495 9 5 C8.67 5.66 8.34 6.32 8 7 C5.1875 7.25 5.1875 7.25 2 7 C0.0625 5.1875 0.0625 5.1875 -1 3 C-0.67 2.01 -0.34 1.02 0 0 Z " fill="#01D5F9" transform="translate(145,332)"/>
<path d="M0 0 C0.99 0 1.98 0 3 0 C3.33 1.32 3.66 2.64 4 4 C-5.41002278 7.62870159 -5.41002278 7.62870159 -10 6 C-10 5.67 -10 5.34 -10 5 C-6.7 4.67 -3.4 4.34 0 4 C0 2.68 0 1.36 0 0 Z " fill="#28D5F8" transform="translate(394,333)"/>
<path d="M0 0 C-2.1875 2.0625 -2.1875 2.0625 -5 4 C-7.8125 3.75 -7.8125 3.75 -10 3 C-10 2.34 -10 1.68 -10 1 C-6.59437148 0.22157062 -3.49234244 -0.09978121 0 0 Z " fill="#77E3FB" transform="translate(141,337)"/>
<path d="M0 0 C-1.59766103 0.86627399 -3.20339944 1.71766465 -4.8125 2.5625 C-5.70582031 3.03816406 -6.59914063 3.51382813 -7.51953125 4.00390625 C-10 5 -10 5 -13 4 C-11.40233897 3.13372601 -9.79660056 2.28233535 -8.1875 1.4375 C-7.29417969 0.96183594 -6.40085937 0.48617187 -5.48046875 -0.00390625 C-3 -1 -3 -1 0 0 Z " fill="#00DAFA" transform="translate(63,238)"/>
<path d="M0 0 C0.66 0.33 1.32 0.66 2 1 C-1.06093224 4.93548431 -3.49115974 7.68116787 -8 10 C-6.34908222 5.70761377 -3.26245434 3.1206085 0 0 Z " fill="#01D3FA" transform="translate(80,215)"/>
<path d="M0 0 C0.33 0.66 0.66 1.32 1 2 C-6.42857143 4.42857143 -6.42857143 4.42857143 -10 3 C-6.48812804 0.59185923 -4.27343092 -0.36629408 0 0 Z " fill="#00B2F1" transform="translate(350,300)"/>
<path d="M0 0 C0.66 0.33 1.32 0.66 2 1 C0.38405168 3.04119788 -1.2856382 5.04072937 -3 7 C-3.66 7 -4.32 7 -5 7 C-5 7.66 -5 8.32 -5 9 C-5.66 9 -6.32 9 -7 9 C-5.44499019 5.18315774 -2.96404505 2.80804268 0 0 Z " fill="#00D2F9" transform="translate(19,236)"/>
<path d="M0 0 C1 2 1 2 0.22265625 4.3828125 C-0.16019531 5.28773438 -0.54304687 6.19265625 -0.9375 7.125 C-1.31777344 8.03507813 -1.69804687 8.94515625 -2.08984375 9.8828125 C-2.39019531 10.58148438 -2.69054687 11.28015625 -3 12 C-3.33 12 -3.66 12 -4 12 C-4.61528766 6.92387682 -2.61658349 4.17017994 0 0 Z " fill="#00DAFA" transform="translate(196,192)"/>
<path d="M0 0 C0.99386719 0.02707031 1.98773438 0.05414063 3.01171875 0.08203125 C4.15060547 0.13423828 4.15060547 0.13423828 5.3125 0.1875 C5.3125 0.5175 5.3125 0.8475 5.3125 1.1875 C4.42498047 1.27837891 4.42498047 1.27837891 3.51953125 1.37109375 C-0.59728208 1.80762371 -4.64294533 2.27421346 -8.6875 3.1875 C-6.10291354 -0.17334451 -4.11082043 -0.14508778 0 0 Z " fill="#01DFFB" transform="translate(186.6875,297.8125)"/>
<path d="M0 0 C1.32 1.32 2.64 2.64 4 4 C2.68 5.32 1.36 6.64 0 8 C0 5.36 0 2.72 0 0 Z " fill="#00C8F7" transform="translate(8,254)"/>
</svg>
