<svg width="48" height="48" viewBox="0 0 48 48" fill="none" xmlns="http://www.w3.org/2000/svg">
<path d="M0 8C0 3.58172 3.58172 0 8 0H40C44.4183 0 48 3.58172 48 8V40C48 44.4183 44.4183 48 40 48H8C3.58172 48 0 44.4183 0 40V8Z" fill="#FFCF33"/>
<path d="M14.396 21.3937C14.396 17.5248 17.5324 14.3884 21.4013 14.3884H23.2227V26.6057C23.2227 30.4746 20.0863 33.611 16.2174 33.611H14.396V21.3937Z" fill="#492B7C"/>
<path d="M4 20.3852C4 24.2542 7.13639 27.3906 11.0053 27.3906H12.8267V21.394C12.8267 17.5251 9.69031 14.3887 5.82138 14.3887H4V20.3852Z" fill="#492B7C"/>
<path d="M12.8266 27.3393L4.05322 14.3884H5.82132C9.69026 14.3884 12.8266 17.5248 12.8266 21.3937V27.3393Z" fill="#674E92"/>
<path d="M36.9946 24.7847C40.8635 24.7847 43.9999 27.9211 43.9999 31.79V33.6114H31.7827C27.9137 33.6114 24.7773 30.475 24.7773 26.6061V24.7847H36.9946Z" fill="#4FA58C"/>
<path d="M41.44 33.6114L35.4604 24.7847H36.995C40.8639 24.7847 44.0003 27.9211 44.0003 31.79V33.6114H41.44Z" fill="#6CB49F"/>
<path d="M36.9946 23.2151C40.8635 23.2151 43.9999 20.0787 43.9999 16.2098V14.3884H31.7827C27.9137 14.3884 24.7773 17.5248 24.7773 21.3937V23.2151H36.9946Z" fill="#4FA58C"/>
<path d="M34.397 23.2151L28.8516 15.0292C29.7433 14.6179 30.7362 14.3884 31.7826 14.3884H43.9999V16.2098C43.9999 20.0787 40.8635 23.2151 36.9946 23.2151H34.397Z" fill="#6CB49F"/>
</svg>
