<svg width="500" height="500" viewBox="0 0 500 500" fill="none" xmlns="http://www.w3.org/2000/svg">
<path d="M500 382.398H0V382.648H500V382.398Z" fill="#EBEBEB"/>
<path d="M449.901 398.494H416.779V398.744H449.901V398.494Z" fill="#EBEBEB"/>
<path d="M331.22 401.208H322.527V401.458H331.22V401.208Z" fill="#EBEBEB"/>
<path d="M415.778 389.208H396.586V389.458H415.778V389.208Z" fill="#EBEBEB"/>
<path d="M95.652 390.888H52.459V391.138H95.652V390.888Z" fill="#EBEBEB"/>
<path d="M110.89 390.888H104.557V391.138H110.89V390.888Z" fill="#EBEBEB"/>
<path d="M225.147 395.111H131.471V395.361H225.147V395.111Z" fill="#EBEBEB"/>
<path d="M237.014 337.8H43.915C40.768 337.8 38.207 335.239 38.207 332.092V60.6601C38.207 57.5131 40.768 54.9521 43.915 54.9521H237.014C240.16 54.9521 242.721 57.5131 242.721 60.6601V332.092C242.721 335.239 240.16 337.8 237.014 337.8ZM43.915 55.2031C40.905 55.2031 38.457 57.6511 38.457 60.6611V332.093C38.457 335.103 40.905 337.551 43.915 337.551H237.014C240.023 337.551 242.471 335.103 242.471 332.093V60.6601C242.471 57.6511 240.023 55.2021 237.014 55.2021L43.915 55.2031Z" fill="#EBEBEB"/>
<path d="M453.311 337.8H260.213C257.066 337.8 254.506 335.239 254.506 332.092V60.6601C254.506 57.5131 257.067 54.9521 260.213 54.9521H453.311C456.459 54.9521 459.019 57.5131 459.019 60.6601V332.092C459.02 335.239 456.459 337.8 453.311 337.8ZM260.213 55.2031C257.204 55.2031 254.756 57.6511 254.756 60.6611V332.093C254.756 335.103 257.204 337.551 260.213 337.551H453.311C456.321 337.551 458.769 335.103 458.769 332.093V60.6601C458.769 57.6511 456.321 55.2021 453.311 55.2021L260.213 55.2031Z" fill="#EBEBEB"/>
<path d="M227.33 158.82V181.586L239.053 182.691C240.635 190.322 243.66 197.417 247.796 203.72L240.266 212.815L256.365 228.915L265.461 221.384C271.763 225.521 278.859 228.546 286.49 230.128L287.594 241.851H310.361L311.466 230.127C319.097 228.544 326.194 225.521 332.495 221.384L341.591 228.915L357.691 212.815L350.161 203.719C354.297 197.417 357.321 190.322 358.904 182.691L370.628 181.586V158.82L358.904 157.715C357.321 150.083 354.297 142.987 350.161 136.685L357.691 127.589L341.591 111.489L332.495 119.018C326.194 114.884 319.097 111.859 311.466 110.276L310.361 98.5518H287.594L286.49 110.276C278.859 111.858 271.763 114.883 265.461 119.018L256.365 111.489L240.266 127.589L247.796 136.684C243.66 142.986 240.635 150.082 239.053 157.714L227.33 158.82ZM298.978 139.381C316.001 139.381 329.8 153.18 329.8 170.203C329.8 187.225 316.001 201.024 298.978 201.024C281.956 201.024 268.156 187.224 268.156 170.203C268.157 153.18 281.956 139.381 298.978 139.381Z" fill="#E0E0E0"/>
<path d="M188.865 260.701L195.4 266.113L206.967 254.545L201.557 248.01C204.528 243.482 206.702 238.382 207.838 232.9L216.261 232.107V215.749L207.838 214.955C206.701 209.471 204.528 204.374 201.556 199.846L206.966 193.31L195.399 181.742L188.864 187.152C184.335 184.182 179.237 182.009 173.753 180.87L172.96 172.447L156.601 172.449L155.809 180.87C150.325 182.007 145.226 184.182 140.698 187.152L134.163 181.742L122.596 193.31L128.007 199.846C125.035 204.372 122.862 209.471 121.724 214.955L113.303 215.749V232.107L121.724 232.9C122.862 238.382 125.034 243.481 128.007 248.01L122.596 254.545L134.163 266.113L140.698 260.701C145.226 263.672 150.324 265.846 155.809 266.984L156.601 275.406H172.96L173.753 266.982C179.238 265.846 184.336 263.672 188.865 260.701ZM142.637 223.927C142.637 211.697 152.551 201.783 164.782 201.783C177.011 201.783 186.927 211.697 186.927 223.927C186.927 236.157 177.012 246.072 164.782 246.072C152.551 246.072 142.637 236.157 142.637 223.927Z" fill="#E0E0E0"/>
<path d="M261.566 371.507C268.094 370.154 274.164 367.565 279.556 364.028L287.336 370.469L301.108 356.698L294.666 348.915C298.204 343.526 300.792 337.456 302.145 330.927L312.173 329.983V310.507L302.145 309.563C300.792 303.034 298.203 296.965 294.666 291.574L301.108 283.793L287.336 270.023L279.556 276.463C274.164 272.926 268.095 270.338 261.566 268.984L260.622 258.956H241.145L240.201 268.984C233.673 270.338 227.604 272.926 222.213 276.463L214.432 270.023L200.66 283.793L207.1 291.574C203.563 296.965 200.976 303.034 199.622 309.563L189.594 310.507V329.983L199.622 330.927C200.976 337.456 203.563 343.526 207.1 348.917L200.66 356.698L214.432 370.469L222.213 364.028C227.604 367.565 233.673 370.154 240.201 371.507L241.145 381.535H260.622L261.566 371.507ZM224.519 320.244C224.519 305.684 236.323 293.879 250.884 293.879C265.446 293.879 277.25 305.684 277.25 320.244C277.25 334.806 265.446 346.609 250.884 346.609C236.323 346.609 224.519 334.806 224.519 320.244Z" fill="#E0E0E0"/>
<path d="M401.552 211.225H423.059C425.137 211.225 426.435 208.976 425.397 207.176L414.644 188.55C413.605 186.751 411.008 186.751 409.969 188.55L399.216 207.176C398.176 208.976 399.475 211.225 401.552 211.225ZM413.753 193.633L413.277 202.912H411.315L410.819 193.633H413.753ZM410.72 206.103C410.72 205.251 411.374 204.576 412.286 204.576C413.218 204.576 413.892 205.251 413.892 206.103C413.892 206.955 413.218 207.65 412.286 207.65C411.374 207.65 410.72 206.955 410.72 206.103Z" fill="#F0F0F0"/>
<path d="M86.9469 127.228H108.454C110.532 127.228 111.83 124.979 110.792 123.179L100.039 104.553C98.9999 102.754 96.4029 102.754 95.3639 104.553L84.6099 123.18C83.5709 124.979 84.8689 127.228 86.9469 127.228ZM99.1469 109.636L98.6709 118.915H96.7089L96.2129 109.636H99.1469ZM96.1149 122.106C96.1149 121.254 96.7689 120.579 97.6809 120.579C98.6129 120.579 99.2869 121.254 99.2869 122.106C99.2869 122.958 98.6129 123.652 97.6809 123.652C96.7679 123.652 96.1149 122.958 96.1149 122.106Z" fill="#F0F0F0"/>
<path d="M144.646 356.387H166.153C168.231 356.387 169.529 354.138 168.491 352.338L157.738 333.712C156.699 331.913 154.102 331.913 153.063 333.712L142.31 352.338C141.27 354.138 142.568 356.387 144.646 356.387ZM156.846 338.794L156.37 348.073H154.408L153.912 338.794H156.846ZM153.813 351.264C153.813 350.412 154.467 349.737 155.379 349.737C156.311 349.737 156.985 350.412 156.985 351.264C156.985 352.116 156.311 352.811 155.379 352.811C154.467 352.811 153.813 352.117 153.813 351.264Z" fill="#F0F0F0"/>
<path d="M346.007 329.436H367.514C369.592 329.436 370.89 327.187 369.852 325.387L359.099 306.761C358.06 304.962 355.463 304.962 354.424 306.761L343.671 325.387C342.631 327.187 343.93 329.436 346.007 329.436ZM358.208 311.844L357.732 321.123H355.77L355.274 311.844H358.208ZM355.175 324.314C355.175 323.462 355.829 322.787 356.74 322.787C357.672 322.787 358.346 323.462 358.346 324.314C358.346 325.166 357.672 325.861 356.74 325.861C355.828 325.86 355.175 325.166 355.175 324.314Z" fill="#F0F0F0"/>
<path d="M361.473 93.7942H373.383C374.534 93.7942 375.253 92.5482 374.678 91.5522L368.723 81.2382C368.147 80.2422 366.709 80.2422 366.134 81.2382L360.179 91.5522C359.604 92.5482 360.323 93.7942 361.473 93.7942ZM368.229 84.0522L367.966 89.1902H366.879L366.604 84.0522H368.229ZM366.55 90.9572C366.55 90.4852 366.912 90.1112 367.417 90.1112C367.933 90.1112 368.306 90.4852 368.306 90.9572C368.306 91.4292 367.933 91.8132 367.417 91.8132C366.912 91.8142 366.55 91.4292 366.55 90.9572Z" fill="#F0F0F0"/>
<path d="M64.4442 251.502H76.3542C77.5052 251.502 78.2242 250.256 77.6492 249.26L71.6941 238.946C71.1181 237.95 69.6802 237.95 69.1052 238.946L63.1502 249.26C62.5742 250.257 63.2932 251.502 64.4442 251.502ZM71.2001 241.76L70.936 246.898H69.8491L69.574 241.76H71.2001ZM69.5212 248.666C69.5212 248.194 69.8832 247.82 70.3882 247.82C70.9042 247.82 71.2772 248.194 71.2772 248.666C71.2772 249.138 70.9042 249.522 70.3882 249.522C69.8832 249.522 69.5212 249.138 69.5212 248.666Z" fill="#F0F0F0"/>
<path d="M292.477 175.286H304.387C305.538 175.286 306.257 174.04 305.682 173.044L299.727 162.73C299.151 161.733 297.713 161.733 297.138 162.73L291.183 173.044C290.607 174.04 291.326 175.286 292.477 175.286ZM299.233 165.544L298.969 170.682H297.882L297.607 165.544H299.233ZM297.553 172.449C297.553 171.977 297.915 171.603 298.42 171.603C298.936 171.603 299.309 171.977 299.309 172.449C299.309 172.921 298.936 173.305 298.42 173.305C297.915 173.305 297.553 172.921 297.553 172.449Z" fill="#F0F0F0"/>
<path d="M195.05 88.3291H164.113V108.777H195.05V88.3291Z" fill="#E0E0E0"/>
<path d="M195.117 88.3291H164.113V91.6851H195.117V88.3291Z" fill="#F0F0F0"/>
<path d="M127.439 164.161H96.502V184.609H127.439V164.161Z" fill="#E0E0E0"/>
<path d="M127.506 164.161H96.502V167.517H127.506V164.161Z" fill="#F0F0F0"/>
<path d="M123.156 309.716H92.2188V330.164H123.156V309.716Z" fill="#E0E0E0"/>
<path d="M123.223 309.716H92.2188V313.072H123.223V309.716Z" fill="#F0F0F0"/>
<path d="M361.376 257.018H330.439V277.466H361.376V257.018Z" fill="#E0E0E0"/>
<path d="M361.443 257.018H330.439V260.374H361.443V257.018Z" fill="#F0F0F0"/>
<path d="M429.187 283.549H398.25V303.997H429.187V283.549Z" fill="#E0E0E0"/>
<path d="M429.254 283.549H398.25V286.905H429.254V283.549Z" fill="#F0F0F0"/>
<path d="M417.808 130.765H386.871V151.213H417.808V130.765Z" fill="#E0E0E0"/>
<path d="M417.875 130.765H386.871V134.121H417.875V130.765Z" fill="#F0F0F0"/>
<path d="M250 427.561C357.082 427.561 443.889 422.492 443.889 416.238C443.889 409.985 357.082 404.915 250 404.915C142.918 404.915 56.1113 409.985 56.1113 416.238C56.1113 422.492 142.918 427.561 250 427.561Z" fill="#F5F5F5"/>
<path d="M213.484 119.419H184.756C179.87 119.419 175.91 123.38 175.91 128.265V153.267C175.91 158.152 179.871 162.113 184.756 162.113H190.142L188.114 170.007L196.092 162.113H213.485C218.37 162.113 222.331 158.153 222.331 153.267V128.265C222.33 123.38 218.369 119.419 213.484 119.419Z" fill="#407BFF"/>
<path opacity="0.7" d="M213.484 119.419H184.756C179.87 119.419 175.91 123.38 175.91 128.265V153.267C175.91 158.152 179.871 162.113 184.756 162.113H190.142L188.114 170.007L196.092 162.113H213.485C218.37 162.113 222.331 158.153 222.331 153.267V128.265C222.33 123.38 218.369 119.419 213.484 119.419Z" fill="white"/>
<path d="M199.119 154.785C206.739 154.785 212.916 148.608 212.916 140.988C212.916 133.369 206.739 127.191 199.119 127.191C191.499 127.191 185.322 133.369 185.322 140.988C185.322 148.608 191.499 154.785 199.119 154.785Z" stroke="#407BFF" stroke-width="2" stroke-miterlimit="10"/>
<path d="M192.496 140.988L196.851 145.714L205.745 136.289" stroke="#407BFF" stroke-width="2" stroke-miterlimit="10" stroke-linecap="round" stroke-linejoin="round"/>
<path d="M163.305 411.277L170.263 411.16L171.99 395.082L165.031 395.199L163.305 411.277Z" fill="#E4897B"/>
<path opacity="0.2" d="M171.987 395.086L171.098 403.373L164.137 403.491L165.025 395.203L171.987 395.086Z" fill="black"/>
<path d="M179.617 337.049C179.636 359.079 173.434 400.943 173.434 400.943L161.791 402.75C161.791 402.75 160.659 363.693 160.221 342.071C160.154 338.884 151.28 323.513 142.138 308.493C137.43 300.75 132.645 293.093 128.954 287.243C124.997 280.974 122.295 276.779 122.295 276.779L149.928 266.439C149.928 266.439 179.598 315.865 179.617 337.049Z" fill="#407BFF"/>
<path d="M175.057 401.621L161.041 402.513L160.795 398.002L176.188 396.788L175.057 401.621Z" fill="#CE1312"/>
<path d="M170.602 410.187C170.595 410.118 170.633 410.051 170.696 410.021C171.019 409.869 173.87 408.54 174.699 409.044C174.858 409.14 174.946 409.294 174.953 409.489C174.964 409.817 174.849 410.082 174.611 410.277C173.821 410.925 171.838 410.588 170.727 410.329C170.72 410.327 170.713 410.325 170.706 410.322C170.649 410.301 170.608 410.249 170.602 410.187ZM171.287 410.114C172.812 410.418 173.96 410.388 174.403 410.025C174.559 409.897 174.631 409.727 174.623 409.504C174.62 409.418 174.591 409.365 174.526 409.325C174.508 409.314 174.489 409.305 174.467 409.297C173.951 409.099 172.411 409.626 171.287 410.114Z" fill="#407BFF"/>
<path d="M170.665 410.3C170.619 410.264 170.595 410.207 170.603 410.149C170.614 410.07 170.878 408.211 171.793 407.516C172.072 407.304 172.384 407.22 172.718 407.264C173.169 407.326 173.29 407.557 173.313 407.742C173.408 408.529 171.683 409.972 170.828 410.32C170.788 410.336 170.745 410.336 170.706 410.321C170.691 410.317 170.677 410.31 170.665 410.3ZM172.671 407.59C172.423 407.557 172.201 407.618 171.991 407.777C171.391 408.233 171.096 409.34 170.985 409.882C171.863 409.397 173.042 408.257 172.985 407.785C172.981 407.756 172.972 407.681 172.838 407.63C172.796 407.613 172.742 407.599 172.671 407.59Z" fill="#407BFF"/>
<path d="M170.061 409.344L162.465 409.099C162.181 409.09 161.926 409.279 161.853 409.553L160.225 415.663C160.056 416.296 160.518 416.917 161.175 416.927C163.917 416.969 167.884 416.937 171.328 417.048C175.355 417.178 177.917 416.994 182.64 417.146C185.496 417.238 186.407 414.39 185.222 414.091C179.829 412.731 176.298 412.975 171.715 409.938C171.216 409.607 170.661 409.363 170.061 409.344Z" fill="#CE1312"/>
<path opacity="0.2" d="M142.139 308.494C137.431 300.751 132.646 293.094 128.955 287.244C131.276 284.2 134.044 282.202 134.044 282.202C134.044 282.202 142.11 296.28 142.139 308.494Z" fill="black"/>
<path d="M84.8008 410.438L91.5178 412.264L97.6538 397.303L90.9378 395.478L84.8008 410.438Z" fill="#E4897B"/>
<path opacity="0.2" d="M97.6515 397.306L94.4895 405.018L87.7715 403.191L90.9335 395.479L97.6515 397.306Z" fill="black"/>
<path d="M150.631 260.466L150.067 270.135L133.307 283.512C133.307 283.512 132.158 328.511 127.391 338.368C122.624 348.225 99.6846 399.87 99.6846 399.87L87.1406 396.032C87.1406 396.032 107.071 335.328 109.078 331.742C111.085 328.156 100.53 275.808 114.67 251.06L150.631 260.466Z" fill="#407BFF"/>
<path d="M171.3 217.322C172.01 221.828 172.603 226.327 173.124 230.855C173.628 235.388 174.088 239.909 174.395 244.536L174.58 247.536C174.651 248.227 174.83 248.951 175.109 249.695C175.671 251.178 176.647 252.739 177.897 254.216C179.132 255.709 180.627 257.123 182.231 258.469C183.042 259.13 183.863 259.806 184.723 260.436C185.567 261.054 186.505 261.689 187.301 262.228L185.256 267.024C183.979 266.645 182.902 266.237 181.762 265.76C180.643 265.285 179.524 264.786 178.444 264.197C176.271 263.041 174.164 261.665 172.188 259.954C170.225 258.245 168.357 256.186 166.969 253.568C166.276 252.268 165.685 250.837 165.355 249.295C165.254 248.917 165.208 248.52 165.138 248.131L164.996 247.172L164.765 245.543L162.74 232.224C162.073 227.762 161.438 223.279 160.877 218.807L171.3 217.322Z" fill="#DC897C"/>
<path d="M156.753 204.981C152.857 210.38 159.537 231.023 159.537 231.023L174.963 227.266C174.963 227.266 174.222 217.647 171.457 209.558C168.619 201.254 161.028 199.056 156.753 204.981Z" fill="#407BFF"/>
<path opacity="0.7" d="M156.753 204.981C152.857 210.38 159.537 231.023 159.537 231.023L174.963 227.266C174.963 227.266 174.222 217.647 171.457 209.558C168.619 201.254 161.028 199.056 156.753 204.981Z" fill="white"/>
<path opacity="0.2" d="M161.995 216.02C164.684 218.58 166.225 225.176 165.249 229.631L159.535 231.022C159.535 231.022 156.967 223.093 155.945 215.779C157.444 214.581 158.915 213.088 161.995 216.02Z" fill="black"/>
<path d="M128.404 192.296C127.908 200.226 126.634 208.043 125.068 215.277C123.919 220.568 122.603 225.544 121.302 230.02C118.256 240.512 115.29 248.294 114.67 251.06C119.94 252.441 139.8 257.638 150.631 260.467C168.413 224.779 165.98 202.48 165.98 202.48C165.98 202.48 162.362 200.396 157.936 198.61C157.355 198.371 156.756 198.146 156.146 197.927C152.198 196.502 145.509 194.909 140.857 193.927C139.879 193.721 138.881 193.538 137.906 193.375C132.939 192.55 128.404 192.296 128.404 192.296Z" fill="#407BFF"/>
<path opacity="0.7" d="M128.404 192.296C127.908 200.226 126.634 208.043 125.068 215.277C123.919 220.568 122.603 225.544 121.302 230.02C118.256 240.512 115.29 248.294 114.67 251.06C119.94 252.441 139.8 257.638 150.631 260.467C168.413 224.779 165.98 202.48 165.98 202.48C165.98 202.48 162.362 200.396 157.936 198.61C157.355 198.371 156.756 198.146 156.146 197.927C152.198 196.502 145.509 194.909 140.857 193.927C139.879 193.721 138.881 193.538 137.906 193.375C132.939 192.55 128.404 192.296 128.404 192.296Z" fill="white"/>
<path d="M153.794 200.277C151.94 196.985 153.988 194.144 156.463 191.771L152.606 179.687C150.751 184.506 146.644 192.901 141.811 193.903C142.271 196.011 143.166 198.224 144.792 200.277H153.794Z" fill="#E4897B"/>
<path opacity="0.2" d="M154.177 184.616L156.462 191.765C155.763 192.431 155.102 193.136 154.555 193.88C152.877 192.48 151.607 188.911 152.617 186.874C153.121 185.858 153.74 184.964 154.177 184.616Z" fill="black"/>
<path d="M177.499 180.288C177.311 181.21 169.124 179.251 167.851 177.472C166.578 175.693 170.718 174.712 173.297 176.046C175.876 177.38 177.499 180.288 177.499 180.288Z" fill="#407BFF"/>
<path opacity="0.3" d="M177.499 180.288C177.311 181.21 169.124 179.251 167.851 177.472C166.578 175.693 170.718 174.712 173.297 176.046C175.876 177.38 177.499 180.288 177.499 180.288Z" fill="black"/>
<path d="M173.677 175.652C173.648 178.454 171.507 183.533 168.51 180.677C165.513 177.822 173.727 170.835 173.677 175.652Z" fill="#CE1312"/>
<path d="M169.218 187.469C168.695 188.354 168.143 189.162 167.572 189.876C163.444 195.07 155.206 194.813 152.134 188.982C151.925 188.601 151.744 188.202 151.592 187.774C149.918 183.141 151.725 179.517 154.246 173.116C156.767 166.714 165.109 164.793 170.008 169.986C174.279 174.504 172.348 182.219 169.218 187.469Z" fill="#E4897B"/>
<path d="M158.903 162.024C158.903 162.024 157.108 162.436 155.108 164.276C151.391 167.696 148.683 172.823 153.392 177.989C156.802 176.706 158.483 171.993 158.903 170.64V162.024Z" fill="#CE1312"/>
<path d="M149.42 177.184C149.17 179.019 149.798 180.793 150.747 181.983C152.175 183.772 154.244 182.82 154.983 180.776C155.648 178.936 155.706 175.789 153.727 174.737C151.777 173.7 149.706 175.086 149.42 177.184Z" fill="#E4897B"/>
<path d="M162.937 179.174C162.7 179.681 162.78 180.215 163.114 180.367C163.448 180.519 163.91 180.23 164.146 179.723C164.383 179.216 164.303 178.682 163.969 178.53C163.636 178.379 163.174 178.667 162.937 179.174Z" fill="#CE1312"/>
<path d="M168.707 181.795C168.471 182.302 168.549 182.836 168.883 182.988C169.217 183.14 169.679 182.851 169.915 182.344C170.152 181.837 170.073 181.303 169.739 181.151C169.406 181 168.944 181.288 168.707 181.795Z" fill="#CE1312"/>
<path d="M166.755 181.215C166.755 181.215 166.63 184.573 167.282 186.526C166.022 186.914 164.666 185.832 164.666 185.832L166.755 181.215Z" fill="#DE5753"/>
<path d="M161.028 186.531C161.224 186.654 161.438 186.77 161.672 186.876C161.755 186.914 161.853 186.877 161.891 186.795C161.93 186.712 161.892 186.615 161.811 186.578C159.57 185.557 159.251 183.53 159.247 183.509C159.234 183.42 159.15 183.358 159.06 183.371C158.97 183.385 158.907 183.468 158.92 183.558C158.932 183.64 159.208 185.389 161.028 186.531Z" fill="#CE1312"/>
<path d="M162.022 176.515C162.119 176.576 162.246 176.585 162.355 176.526C163.656 175.833 164.728 176.398 164.739 176.404C164.899 176.491 165.1 176.432 165.188 176.273C165.276 176.114 165.217 175.915 165.058 175.829C165.002 175.798 163.658 175.09 162.044 175.95C161.883 176.036 161.822 176.234 161.907 176.394C161.936 176.445 161.976 176.486 162.022 176.515Z" fill="#CE1312"/>
<path d="M172.113 180.954C172.166 180.987 172.229 181.006 172.297 181.004C172.479 181 172.625 180.85 172.621 180.669C172.588 178.854 171.303 178.057 171.249 178.013C171.094 177.918 170.89 177.965 170.794 178.119C170.698 178.272 170.744 178.473 170.896 178.569C170.951 178.6 171.933 179.228 171.96 180.684C171.963 180.798 172.023 180.897 172.113 180.954Z" fill="#CE1312"/>
<path d="M173.424 177.472C168.82 173.905 162.951 172.278 158.356 171.536C154.066 170.842 150.889 170.927 150.889 170.927C151.089 168.349 154.389 162.452 156.463 162.023C159.221 161.452 165.785 161.947 166.898 162.365C169.314 163.269 174.127 166.76 174.489 168.225C175.24 171.298 173.424 177.472 173.424 177.472Z" fill="#407BFF"/>
<path d="M158.354 171.535C158.354 171.535 164.455 170.172 169.786 172.242C175.117 174.312 177.5 180.288 177.5 180.288C177.5 180.288 177.026 179.061 172.621 177.471C167.735 175.708 163.589 175.682 158.354 171.535Z" fill="#407BFF"/>
<path opacity="0.1" d="M166.898 162.367C166.898 162.367 161.447 164.717 161.067 165.097C160.687 165.468 158.356 171.537 158.356 171.537C154.066 170.843 150.889 170.928 150.889 170.928C151.089 168.35 154.389 162.453 156.463 162.024C159.222 161.453 165.785 161.948 166.898 162.367Z" fill="black"/>
<path opacity="0.1" d="M158.354 171.535C158.354 171.535 164.455 170.172 169.786 172.242C175.117 174.312 177.5 180.288 177.5 180.288C177.5 180.288 177.026 179.061 172.621 177.471C167.735 175.708 163.589 175.682 158.354 171.535Z" fill="black"/>
<path opacity="0.3" d="M169.219 187.469C168.696 188.354 168.144 189.162 167.573 189.876C163.445 195.07 155.207 194.813 152.135 188.982C151.85 185.548 153.039 179.936 155.398 176.569L156.463 175.427C156.463 175.427 155.141 180.516 155.531 181.524C155.921 182.523 158.746 181.239 160.059 182.066C161.381 182.903 161.876 184.615 161.876 184.615L161.067 185.129C161.067 185.129 159.478 182.589 158.898 182.523C158.308 182.466 155.55 184.977 155.797 185.852C156.054 186.727 155.626 187.165 156.463 187.545C157.3 187.925 159.307 186.613 159.307 186.613L160.41 187.612C160.41 187.612 158.65 189.486 158.917 189.866C159.183 190.237 160.943 190.931 162.199 190.427C163.455 189.923 163.407 187.174 163.645 186.889C163.892 186.604 161.714 185.662 161.714 185.662L162.38 184.616C162.38 184.616 165.129 186.366 165.234 186.889C165.329 187.422 164.787 188.991 165.253 188.991C165.595 188.991 167.735 188.487 169.219 187.469Z" fill="black"/>
<path d="M171.653 171.179L171.501 170.594L171.931 170.17L172.887 170.433C172.8 170.04 172.504 169.706 172.088 169.592C171.693 169.483 171.29 169.601 171.014 169.865C170.973 169.842 170.93 169.824 170.883 169.811L168.239 169.061C168.192 169.048 168.145 169.042 168.098 169.041C167.996 168.673 167.71 168.366 167.314 168.258C166.898 168.144 166.474 168.279 166.198 168.573L167.154 168.836L167.306 169.421L166.876 169.845L165.92 169.582C166.007 169.975 166.303 170.309 166.719 170.423C167.114 170.532 167.517 170.414 167.793 170.15C167.834 170.173 167.878 170.191 167.924 170.204L170.568 170.954C170.615 170.967 170.662 170.973 170.709 170.975C170.811 171.343 171.097 171.65 171.492 171.758C171.908 171.872 172.333 171.737 172.608 171.443L171.653 171.179Z" fill="white"/>
<path d="M186.059 261.644L192.804 263.792L187.428 269.514C187.428 269.514 181.526 267.234 182.828 264.243L186.059 261.644Z" fill="#E4897B"/>
<path d="M196.212 271.23L194.189 274.878L187.428 269.514L192.804 263.792L196.212 271.23Z" fill="#E4897B"/>
<path d="M127.957 206.704C124.87 210.24 121.717 213.9 118.727 217.536C117.215 219.349 115.768 221.197 114.377 223.024C113.008 224.832 111.687 226.752 110.797 228.371C110.584 228.762 110.412 229.134 110.322 229.354C110.284 229.446 110.254 229.531 110.26 229.442C110.256 229.433 110.256 229.407 110.259 229.352L110.238 228.898C110.191 228.441 110.072 227.973 109.86 227.53C109.743 227.303 109.665 227.151 109.539 226.97C109.423 226.8 109.271 226.629 109.187 226.533C109.085 226.421 108.974 226.315 108.857 226.22C108.741 226.127 108.693 226.086 108.602 226.023C108.41 225.897 108.309 225.843 108.212 225.795C108.082 225.738 108.052 225.725 107.989 225.704C107.914 225.683 107.905 225.68 107.882 225.676C107.804 225.666 107.883 225.71 108.029 225.74C108.304 225.814 108.775 225.879 109.256 225.92C110.24 226.003 111.359 226.018 112.491 225.999C113.628 225.994 114.793 225.96 115.967 225.905C120.666 225.687 125.514 225.328 130.32 225.042L131.358 230.152C126.628 231.741 121.89 233.03 116.943 233.999C114.447 234.471 111.983 234.893 109.12 235.005C108.386 235.024 107.641 235.038 106.712 234.938C106.257 234.888 105.737 234.809 105.08 234.622C104.912 234.572 104.756 234.528 104.543 234.444C104.34 234.365 104.166 234.301 103.904 234.167C103.671 234.05 103.436 233.925 103.124 233.705C102.973 233.596 102.857 233.518 102.687 233.372C102.516 233.223 102.351 233.065 102.195 232.899C102.052 232.754 101.863 232.516 101.704 232.283C101.541 232.037 101.404 231.829 101.268 231.528C100.996 230.945 100.829 230.333 100.777 229.722C100.762 229.568 100.753 229.414 100.75 229.261L100.751 229.108L100.759 228.813C100.765 228.606 100.781 228.43 100.8 228.27C100.874 227.577 101.001 227.071 101.131 226.581C101.398 225.639 101.701 224.889 102.009 224.184C103.245 221.428 104.656 219.303 106.076 217.138C107.499 215.002 109.009 212.992 110.524 211.003C113.598 207.044 116.759 203.308 120.172 199.619L127.957 206.704Z" fill="#DC897C"/>
<path d="M126.276 192.38C119.7 193.423 109.381 210.391 109.381 210.391L123.66 219.67C123.66 219.67 129.373 212.685 133.33 205.041C137.642 196.715 134.242 191.117 126.276 192.38Z" fill="#407BFF"/>
<path opacity="0.7" d="M126.276 192.38C119.7 193.423 109.381 210.391 109.381 210.391L123.66 219.67C123.66 219.67 129.373 212.685 133.33 205.041C137.642 196.715 134.242 191.117 126.276 192.38Z" fill="white"/>
<path d="M140.857 193.926L144.384 191.371L150.944 200.152L153.468 195.762L156.147 197.927C156.147 197.927 158.501 201.311 156.147 205.937L150.89 201.635L145.234 205.257C145.234 205.257 139.212 198.236 140.857 193.926Z" fill="#407BFF"/>
<path d="M132.902 180.924C139.1 188.803 137.739 200.199 129.86 206.397C121.988 212.59 110.591 211.229 104.394 203.35C100.087 197.875 99.4343 190.699 102.084 184.754L111.993 197.351L121.65 195.96L125.282 186.897L115.373 174.3C121.775 173.125 128.596 175.449 132.902 180.924Z" fill="#407BFF"/>
<path d="M202.953 328.641C196.755 320.762 198.116 309.366 205.995 303.168C213.867 296.975 225.264 298.336 231.461 306.215C235.768 311.69 236.421 318.866 233.771 324.811L223.862 312.214L214.205 313.605L210.573 322.668L220.482 335.265C214.08 336.44 207.259 334.116 202.953 328.641Z" fill="#407BFF"/>
<g opacity="0.2">
<path d="M132.902 180.924C139.1 188.803 137.739 200.199 129.86 206.397C121.988 212.59 110.591 211.229 104.394 203.35C100.087 197.875 99.4343 190.699 102.084 184.754L111.993 197.351L121.65 195.96L125.282 186.897L115.373 174.3C121.775 173.125 128.596 175.449 132.902 180.924Z" fill="white"/>
<path d="M202.953 328.641C196.755 320.762 198.116 309.366 205.995 303.168C213.867 296.975 225.264 298.336 231.461 306.215C235.768 311.69 236.421 318.866 233.771 324.811L223.862 312.214L214.205 313.605L210.573 322.668L220.482 335.265C214.08 336.44 207.259 334.116 202.953 328.641Z" fill="white"/>
</g>
<path d="M212.092 310.927C207.938 314.195 201.921 313.476 198.653 309.322L122.158 212.078C118.89 207.924 119.609 201.907 123.763 198.639C127.917 195.371 133.934 196.09 137.202 200.244L213.697 297.488C216.965 301.642 216.246 307.659 212.092 310.927Z" fill="#407BFF"/>
<path opacity="0.2" d="M212.092 310.927C207.938 314.195 201.921 313.476 198.653 309.322L122.158 212.078C118.89 207.924 119.609 201.907 123.763 198.639C127.917 195.371 133.934 196.09 137.202 200.244L213.697 297.488C216.965 301.642 216.246 307.659 212.092 310.927Z" fill="white"/>
<path opacity="0.2" d="M207.612 305.231C205.478 306.91 202.387 306.541 200.708 304.407L127.42 211.239C125.741 209.105 126.11 206.014 128.244 204.335C130.378 202.656 133.469 203.025 135.148 205.159L208.436 298.327C210.115 300.461 209.746 303.552 207.612 305.231Z" fill="black"/>
<path d="M128.811 226.312L134.046 221.602L136.639 230.127C136.639 230.127 131.3 233.136 129.402 230.455L128.811 226.312Z" fill="#E4897B"/>
<path d="M139.803 221.196L141.62 228.343L136.638 230.126L134.045 221.601L139.803 221.196Z" fill="#E4897B"/>
<path d="M98.655 403.449L85.418 398.758L86.966 394.513L101.596 399.451L98.655 403.449Z" fill="#CE1312"/>
<path d="M92.5516 410.187C92.5446 410.118 92.5826 410.051 92.6466 410.021C92.9696 409.869 95.8206 408.54 96.6496 409.044C96.8086 409.14 96.8966 409.294 96.9036 409.489C96.9146 409.817 96.7996 410.082 96.5616 410.277C95.7716 410.925 93.7886 410.588 92.6776 410.329C92.6706 410.327 92.6636 410.325 92.6566 410.322C92.5986 410.301 92.5586 410.249 92.5516 410.187ZM93.2366 410.114C94.7616 410.418 95.9096 410.388 96.3536 410.025C96.5096 409.897 96.5816 409.727 96.5736 409.504C96.5706 409.418 96.5416 409.365 96.4766 409.325C96.4586 409.314 96.4396 409.305 96.4176 409.297C95.9006 409.099 94.3616 409.626 93.2366 410.114Z" fill="#407BFF"/>
<path d="M92.6143 410.3C92.5683 410.264 92.5443 410.207 92.5523 410.149C92.5633 410.07 92.8273 408.211 93.7423 407.516C94.0213 407.304 94.3333 407.22 94.6673 407.264C95.1183 407.326 95.2393 407.557 95.2623 407.742C95.3573 408.529 93.6323 409.972 92.7773 410.32C92.7373 410.336 92.6943 410.336 92.6553 410.321C92.6413 410.317 92.6273 410.31 92.6143 410.3ZM94.6213 407.59C94.3733 407.557 94.1503 407.618 93.9413 407.777C93.3413 408.233 93.0473 409.34 92.9353 409.882C93.8133 409.397 94.9923 408.257 94.9353 407.785C94.9313 407.756 94.9233 407.681 94.7883 407.63C94.7453 407.613 94.6913 407.599 94.6213 407.59Z" fill="#407BFF"/>
<path d="M92.0107 409.344L84.4137 409.099C84.1297 409.09 83.8747 409.279 83.8017 409.553L82.1737 415.663C82.0047 416.296 82.4668 416.917 83.1238 416.927C85.8658 416.969 89.8328 416.937 93.2768 417.048C97.3038 417.178 99.8657 416.994 104.589 417.146C107.445 417.238 108.356 414.39 107.171 414.091C101.778 412.731 98.2467 412.975 93.6637 409.938C93.1657 409.607 92.6107 409.363 92.0107 409.344Z" fill="#CE1312"/>
<path d="M113.469 251.553L123.323 254.208L122.439 257.822L112.004 255.311L113.469 251.553Z" fill="#CE1312"/>
<path d="M124.435 254.502L147.693 260.771L147.151 263.786L123.438 258.069L124.435 254.502Z" fill="#CE1312"/>
<path d="M150.956 261.646L150.633 264.623L147.932 263.977L148.54 260.999L150.956 261.646Z" fill="#CE1312"/>
<path d="M133.94 257.297L133.317 260.221C133.263 260.473 133.421 260.722 133.672 260.781L139.145 262.069C139.404 262.13 139.663 261.965 139.717 261.704L140.29 258.952C140.341 258.706 140.192 258.463 139.95 258.398L134.528 256.938C134.264 256.868 133.997 257.031 133.94 257.297Z" fill="white"/>
<path d="M160.602 220.842L160.45 220.257L160.88 219.833L161.836 220.096C161.749 219.703 161.453 219.369 161.037 219.255C160.642 219.146 160.239 219.264 159.963 219.528C159.922 219.505 159.879 219.487 159.832 219.474L157.188 218.724C157.141 218.711 157.094 218.705 157.047 218.704C156.945 218.336 156.659 218.029 156.263 217.921C155.847 217.807 155.423 217.942 155.147 218.236L156.103 218.499L156.255 219.084L155.825 219.508L154.869 219.245C154.956 219.638 155.252 219.972 155.668 220.086C156.063 220.195 156.466 220.077 156.742 219.813C156.783 219.836 156.827 219.854 156.873 219.867L159.517 220.617C159.564 220.63 159.611 220.636 159.658 220.638C159.76 221.006 160.046 221.313 160.441 221.421C160.857 221.535 161.282 221.4 161.557 221.106L160.602 220.842Z" fill="#407BFF"/>
<path d="M269.711 413.458V416.473C269.711 416.849 270.017 417.146 270.392 417.146H355.535C358.683 417.146 360.829 413.966 359.655 411.053L332.673 344.23L289.072 344.528L290.56 353.198L300.178 409.315C300.491 411.124 299.097 412.785 297.257 412.785H270.393C270.017 412.784 269.711 413.082 269.711 413.458Z" fill="#407BFF"/>
<path opacity="0.6" d="M269.711 413.458V416.473C269.711 416.849 270.017 417.146 270.392 417.146H355.535C358.683 417.146 360.829 413.966 359.655 411.053L342.926 369.629L332.674 344.23L289.073 344.528L290.561 353.198L294.743 377.603L300.178 409.315C300.491 411.124 299.097 412.785 297.257 412.785H270.393C270.017 412.784 269.711 413.082 269.711 413.458Z" fill="white"/>
<path opacity="0.2" d="M297.258 412.784H352.655C354.041 412.784 354.982 411.374 354.449 410.094L330.794 353.197H290.561L300.179 409.314C300.492 411.124 299.098 412.784 297.258 412.784Z" fill="black"/>
<path opacity="0.1" d="M289.072 344.528L290.56 353.198L294.743 377.602L342.926 369.629L332.673 344.23L289.072 344.528Z" fill="black"/>
<path d="M204.286 219.961H208.564H401.866H406.144C408.997 219.961 411.31 222.274 411.31 225.127V361.782C411.31 364.635 408.997 366.948 406.144 366.948H401.866H208.565H204.287C201.434 366.948 199.121 364.635 199.121 361.782V225.126C199.121 222.273 201.433 219.961 204.286 219.961Z" fill="#407BFF"/>
<path opacity="0.7" d="M204.286 219.961H208.564H401.866H406.144C408.997 219.961 411.31 222.274 411.31 225.127V361.782C411.31 364.635 408.997 366.948 406.144 366.948H401.866H208.565H204.287C201.434 366.948 199.121 364.635 199.121 361.782V225.126C199.121 222.273 201.433 219.961 204.286 219.961Z" fill="white"/>
<path opacity="0.2" d="M401.869 366.944H406.148C408.998 366.944 411.308 364.634 411.308 361.784V225.129C411.308 222.271 408.998 219.961 406.148 219.961H401.869C404.719 219.961 407.029 222.271 407.029 225.129V361.784C407.029 364.634 404.718 366.944 401.869 366.944Z" fill="black"/>
<path d="M402.371 225.019H203.773V356.794H402.371V225.019Z" fill="#CE1312"/>
<path d="M402.374 225.019H203.773V235.13H402.374V225.019Z" fill="#407BFF"/>
<path opacity="0.2" d="M397.727 230.435C397.727 231.799 396.621 232.905 395.257 232.905C393.893 232.905 392.787 231.799 392.787 230.435C392.787 229.071 393.893 227.965 395.257 227.965C396.621 227.965 397.727 229.071 397.727 230.435Z" fill="black"/>
<path opacity="0.2" d="M389.573 230.435C389.573 231.799 388.467 232.905 387.103 232.905C385.739 232.905 384.633 231.799 384.633 230.435C384.633 229.071 385.739 227.965 387.103 227.965C388.467 227.965 389.573 229.071 389.573 230.435Z" fill="black"/>
<path opacity="0.2" d="M381.419 230.435C381.419 231.799 380.313 232.905 378.949 232.905C377.585 232.905 376.479 231.799 376.479 230.435C376.479 229.071 377.585 227.965 378.949 227.965C380.313 227.965 381.419 229.071 381.419 230.435Z" fill="black"/>
<path opacity="0.4" d="M402.37 235.184H203.773V269.39H402.37V235.184Z" fill="white"/>
<path d="M208.32 236.698L203.773 244.851V236.698H208.32Z" fill="#CE1312"/>
<path d="M232.852 236.698L215.416 267.983H203.773V264.151L219.069 236.698H232.852Z" fill="#CE1312"/>
<path d="M239.875 268.112H226.098L243.606 236.694H257.383L239.875 268.112Z" fill="#CE1312"/>
<path d="M264.408 268.112H250.631L268.14 236.694H281.917L264.408 268.112Z" fill="#CE1312"/>
<path d="M288.941 268.112H275.164L292.672 236.694H306.449L288.941 268.112Z" fill="#CE1312"/>
<path d="M313.474 268.112H299.697L317.205 236.694H330.982L313.474 268.112Z" fill="#CE1312"/>
<path d="M338.007 267.882H324.229L341.738 236.463H355.515L338.007 267.882Z" fill="#CE1312"/>
<path d="M362.539 267.882H348.762L366.271 236.463H380.048L362.539 267.882Z" fill="#CE1312"/>
<path d="M402.371 236.593V240.425L387.075 267.878H373.291L390.728 236.593H402.371Z" fill="#CE1312"/>
<path d="M402.371 259.961V267.983H397.9L402.371 259.961Z" fill="#CE1312"/>
<path opacity="0.4" d="M402.37 322.447H203.773V356.653H402.37V322.447Z" fill="white"/>
<path d="M208.32 324.249L203.773 332.333V324.249H208.32Z" fill="#CE1312"/>
<path d="M232.852 324.249L215.416 355.267H203.773V351.468L219.069 324.249H232.852Z" fill="#CE1312"/>
<path d="M239.875 355.395H226.098L243.606 324.244H257.383L239.875 355.395Z" fill="#CE1312"/>
<path d="M264.408 355.395H250.631L268.14 324.244H281.917L264.408 355.395Z" fill="#CE1312"/>
<path d="M288.941 355.395H275.164L292.672 324.244H306.449L288.941 355.395Z" fill="#CE1312"/>
<path d="M313.474 355.395H299.697L317.205 324.244H330.982L313.474 355.395Z" fill="#CE1312"/>
<path d="M338.007 355.167H324.229L341.738 324.017H355.515L338.007 355.167Z" fill="#CE1312"/>
<path d="M362.539 355.167H348.762L366.271 324.017H380.048L362.539 355.167Z" fill="#CE1312"/>
<path d="M402.371 324.145V327.945L387.075 355.164H373.291L390.728 324.145H402.371Z" fill="#CE1312"/>
<path d="M402.371 347.313V355.266H397.9L402.371 347.313Z" fill="#CE1312"/>
<path d="M270.174 301.003V303.847H256.473V285.579H269.808V288.424H259.865V293.174H268.686V295.966H259.865V301.003H270.174Z" fill="white"/>
<path d="M285.906 303.847L282.174 298.497C281.939 298.523 281.704 298.523 281.469 298.523H277.345V303.847H273.953V285.579H281.469C286.271 285.579 289.245 288.032 289.245 292.078C289.245 294.844 287.836 296.88 285.357 297.845L289.559 303.848H285.906V303.847ZM281.313 288.45H277.346V295.731H281.313C284.288 295.731 285.828 294.374 285.828 292.077C285.828 289.78 284.288 288.45 281.313 288.45Z" fill="white"/>
<path d="M304.98 303.847L301.248 298.497C301.013 298.523 300.778 298.523 300.543 298.523H296.42V303.847H293.027V285.579H300.543C305.345 285.579 308.32 288.032 308.32 292.078C308.32 294.844 306.911 296.88 304.432 297.845L308.634 303.848H304.98V303.847ZM300.387 288.45H296.42V295.731H300.387C303.362 295.731 304.902 294.374 304.902 292.077C304.902 289.78 303.362 288.45 300.387 288.45Z" fill="white"/>
<path d="M310.795 294.713C310.795 289.311 314.971 285.318 320.634 285.318C326.297 285.318 330.473 289.285 330.473 294.713C330.473 300.142 326.298 304.108 320.634 304.108C314.97 304.108 310.795 300.115 310.795 294.713ZM327.053 294.713C327.053 290.981 324.313 288.293 320.633 288.293C316.953 288.293 314.213 290.981 314.213 294.713C314.213 298.445 316.953 301.133 320.633 301.133C324.313 301.133 327.053 298.445 327.053 294.713Z" fill="white"/>
<path d="M346.022 303.847L342.29 298.497C342.055 298.523 341.82 298.523 341.585 298.523H337.461V303.847H334.068V285.579H341.584C346.386 285.579 349.361 288.032 349.361 292.078C349.361 294.844 347.951 296.88 345.473 297.845L349.675 303.848H346.022V303.847ZM341.428 288.45H337.462V295.731H341.428C344.403 295.731 345.943 294.374 345.943 292.077C345.943 289.78 344.404 288.45 341.428 288.45Z" fill="white"/>
<path opacity="0.4" d="M365.612 306.725H387.119C389.197 306.725 390.495 304.476 389.457 302.676L378.704 284.05C377.665 282.251 375.068 282.251 374.029 284.05L363.276 302.676C362.236 304.475 363.535 306.725 365.612 306.725ZM377.813 289.132L377.337 298.411H375.375L374.879 289.132H377.813ZM374.78 301.602C374.78 300.75 375.434 300.075 376.346 300.075C377.278 300.075 377.952 300.75 377.952 301.602C377.952 302.454 377.278 303.148 376.346 303.148C375.433 303.149 374.78 302.455 374.78 301.602Z" fill="white"/>
<path opacity="0.4" d="M219.03 306.725H240.537C242.615 306.725 243.913 304.476 242.875 302.676L232.122 284.05C231.083 282.251 228.486 282.251 227.447 284.05L216.694 302.676C215.654 304.475 216.952 306.725 219.03 306.725ZM231.23 289.132L230.754 298.411H228.792L228.296 289.132H231.23ZM228.198 301.602C228.198 300.75 228.852 300.075 229.764 300.075C230.696 300.075 231.37 300.75 231.37 301.602C231.37 302.454 230.696 303.148 229.764 303.148C228.851 303.149 228.198 302.455 228.198 301.602Z" fill="white"/>
<path opacity="0.1" d="M224.475 225.018C251.934 252.529 322.461 313.754 402.375 309.227V225.018H224.475Z" fill="white"/>
<path opacity="0.1" d="M203.775 275.581V356.795H323.342C318.756 340.391 309.591 317.929 291.81 301.876C259.823 272.997 222.703 273.082 203.775 275.581Z" fill="white"/>
<path d="M373.997 410.997L377.561 412.557C376.311 413.809 373.896 414.641 371.858 413.748C369.546 412.736 368.459 410.114 369.127 407.742C369.359 406.918 369.776 406.225 370.429 405.632L360.755 380.896C357.273 381.043 355.8 377.783 355.882 375.54L359.422 377.109C360.256 377.474 361.216 377.099 361.581 376.265C361.946 375.431 361.56 374.461 360.726 374.096L357.159 372.537C358.409 371.285 360.822 370.454 362.861 371.347C365.173 372.359 366.403 374.925 365.735 377.297C365.503 378.121 365.229 378.758 364.576 379.351L374.25 404.087C376.965 404.24 379.061 407.256 378.98 409.499L375.368 407.958C374.534 407.593 373.538 407.983 373.173 408.816C372.807 409.65 373.163 410.632 373.997 410.997Z" fill="#407BFF"/>
<path opacity="0.2" d="M373.997 410.997L377.561 412.557C376.311 413.809 373.896 414.641 371.858 413.748C369.546 412.736 368.459 410.114 369.127 407.742C369.359 406.918 369.776 406.225 370.429 405.632L360.755 380.896C357.273 381.043 355.8 377.783 355.882 375.54L359.422 377.109C360.256 377.474 361.216 377.099 361.581 376.265C361.946 375.431 361.56 374.461 360.726 374.096L357.159 372.537C358.409 371.285 360.822 370.454 362.861 371.347C365.173 372.359 366.403 374.925 365.735 377.297C365.503 378.121 365.229 378.758 364.576 379.351L374.25 404.087C376.965 404.24 379.061 407.256 378.98 409.499L375.368 407.958C374.534 407.593 373.538 407.983 373.173 408.816C372.807 409.65 373.163 410.632 373.997 410.997Z" fill="white"/>
<path d="M346.392 389.143L342.617 390.081C342.843 388.326 344.249 386.194 346.409 385.657C348.859 385.048 351.319 386.462 352.237 388.749C352.556 389.543 352.648 390.347 352.492 391.215L375.249 404.912C377.918 402.671 381.074 404.355 382.378 406.182L378.616 407.098C377.733 407.318 377.201 408.201 377.421 409.084C377.641 409.968 378.538 410.5 379.422 410.281L383.199 409.34C382.973 411.095 381.567 413.225 379.407 413.762C376.957 414.371 374.418 413.088 373.5 410.802C373.181 410.008 373.009 409.336 373.165 408.468L350.408 394.771C348.164 396.306 344.663 395.196 343.359 393.369L347.161 392.387C348.045 392.167 348.596 391.251 348.377 390.368C348.156 389.484 347.275 388.923 346.392 389.143Z" fill="#407BFF"/>
<path opacity="0.2" d="M346.392 389.143L342.617 390.081C342.843 388.326 344.249 386.194 346.409 385.657C348.859 385.048 351.319 386.462 352.237 388.749C352.556 389.543 352.648 390.347 352.492 391.215L375.249 404.912C377.918 402.671 381.074 404.355 382.378 406.182L378.616 407.098C377.733 407.318 377.201 408.201 377.421 409.084C377.641 409.968 378.538 410.5 379.422 410.281L383.199 409.34C382.973 411.095 381.567 413.225 379.407 413.762C376.957 414.371 374.418 413.088 373.5 410.802C373.181 410.008 373.009 409.336 373.165 408.468L350.408 394.771C348.164 396.306 344.663 395.196 343.359 393.369L347.161 392.387C348.045 392.167 348.596 391.251 348.377 390.368C348.156 389.484 347.275 388.923 346.392 389.143Z" fill="white"/>
<path d="M422.889 377.757L422.886 377.766L422.947 377.604H387.776L379.529 399.391H414.55L414.528 399.447H417.423L424.842 380.02L422.889 377.757Z" fill="#CE1312"/>
<path opacity="0.2" d="M422.889 377.757L422.886 377.766L422.947 377.604H387.776L379.529 399.391H414.55L414.528 399.447H417.423L424.842 380.02L422.889 377.757Z" fill="white"/>
<path opacity="0.4" d="M422.947 377.604L414.7 399.391H379.529L387.776 377.604H422.947Z" fill="black"/>
<path d="M361.898 392.854L370.037 403.309L372.958 402.87L364.371 392.854H361.898Z" fill="#CE1312"/>
<path opacity="0.1" d="M361.898 392.854L370.037 403.309L372.958 402.87L364.371 392.854H361.898Z" fill="white"/>
<path d="M364.371 382.964L372.509 393.419L375.431 392.98L366.843 382.964H364.371Z" fill="#CE1312"/>
<path opacity="0.1" d="M364.371 382.964L372.509 393.419L375.431 392.98L366.843 382.964H364.371Z" fill="white"/>
<path d="M353.878 417.147H414.701V399.39H353.878V417.147Z" fill="#CE1312"/>
<path opacity="0.2" d="M353.878 417.147H414.701V399.39H353.878V417.147Z" fill="white"/>
<path d="M360.475 393.953H416.35V391.144H360.475V393.953Z" fill="#CE1312"/>
<path opacity="0.2" d="M360.475 393.953H416.35V391.144H360.475V393.953Z" fill="white"/>
<path opacity="0.2" d="M394.903 393.953H416.35V391.144H394.903V393.953Z" fill="black"/>
<path d="M363.774 385.706H419.648V382.897H363.774V385.706Z" fill="#CE1312"/>
<path opacity="0.2" d="M363.774 385.706H419.648V382.897H363.774V385.706Z" fill="white"/>
<path opacity="0.2" d="M398.201 385.706H419.648V382.897H398.201V385.706Z" fill="black"/>
<path opacity="0.2" d="M390.78 417.147H414.701V399.39H390.78V417.147Z" fill="black"/>
</svg>
