<?xml version="1.0" encoding="UTF-8"?>
<svg version="1.1" xmlns="http://www.w3.org/2000/svg" width="30" height="32">
<path d="M0 0 C9.9 0 19.8 0 30 0 C30 10.56 30 21.12 30 32 C20.1 32 10.2 32 0 32 C0 21.44 0 10.88 0 0 Z " fill="#171616" transform="translate(0,0)"/>
<path d="M0 0 C1 1 1 1 1.0625 3.375 C1.041875 4.24125 1.02125 5.1075 1 6 C1 6.99 1 7.98 1 9 C0.2 13.8 0.2 13.8 -1 15 C-3.67058851 15.14115161 -6.32432238 15.04247107 -9 15 C-8.01 13.35 -7.02 11.7 -6 10 C-7.98 11.32 -9.96 12.64 -12 14 C-10.33248852 10.05860922 -7.77289351 7.2107188 -5 4 C-5.78375 4.66 -6.5675 5.32 -7.375 6 C-10 8 -10 8 -12 8 C-9.43683592 2.01928381 -6.71856429 -0.74650714 0 0 Z " fill="#DCDADA" transform="translate(21,8)"/>
<path d="M0 0 C0.33 0.99 0.66 1.98 1 3 C-0.62339805 4.70884005 -2.29319053 6.37446717 -4 8 C-4.66 8 -5.32 8 -6 8 C-4.55746343 4.63408134 -2.66735273 2.48952921 0 0 Z " fill="#BCB8B8" transform="translate(15,8)"/>
</svg>
