<svg width="15" height="16" viewBox="0 0 15 16" fill="none" xmlns="http://www.w3.org/2000/svg">
<rect width="15" height="16" fill="#161515"/>
<path d="M6.49259 3.8931H5.66104C5.10719 3.8931 4.6582 4.34208 4.6582 4.89593V5.72748L6.49259 3.8931Z" fill="#E4E3E3"/>
<path d="M4.6582 7.25388V8.38982L7.47814 5.56988C7.68889 5.35913 8.03059 5.35913 8.24134 5.56988C8.45209 5.78063 8.45209 6.12232 8.24134 6.33308L4.6582 9.91621V10.4096C4.6582 10.5752 4.69834 10.7314 4.76941 10.869L6.68666 8.95177C6.89741 8.74101 7.23911 8.74101 7.44986 8.95177C7.66061 9.16252 7.66061 9.50421 7.44986 9.71496L5.75243 11.4124H9.15642C10.1891 11.4124 11.0262 10.5753 11.0262 9.54259V9.48324C11.0262 8.52196 10.247 7.74269 9.28567 7.74269H8.83159C8.81172 7.74269 8.79562 7.72658 8.79562 7.70671C8.79562 7.68684 8.81172 7.67074 8.83159 7.67074H9.28567C10.247 7.67074 11.0262 6.89147 11.0262 5.93019V5.81789C11.0262 4.75486 10.1645 3.8931 9.10142 3.8931H8.01899L4.6582 7.25388Z" fill="#E4E3E3"/>
</svg>
