<?xml version="1.0" encoding="UTF-8"?>
<svg version="1.1" xmlns="http://www.w3.org/2000/svg" width="64" height="64">
<path d="M0 0 C21.12 0 42.24 0 64 0 C64 21.12 64 42.24 64 64 C42.88 64 21.76 64 0 64 C0 42.88 0 21.76 0 0 Z " fill="#6C39FF" transform="translate(0,0)"/>
<path d="M0 0 C0.86238281 -0.02835938 1.72476563 -0.05671875 2.61328125 -0.0859375 C3.69222656 -0.12460938 3.69222656 -0.12460938 4.79296875 -0.1640625 C7.36876544 0.27040923 8.77640406 1.49250794 10.73828125 3.1640625 C9.76955078 2.90496094 9.76955078 2.90496094 8.78125 2.640625 C4.79918405 2.01698951 1.05931796 2.26996899 -2.94921875 2.5390625 C-3.74634277 2.58796631 -4.5434668 2.63687012 -5.36474609 2.68725586 C-11.01309262 3.0462366 -16.63719403 3.52903552 -22.26171875 4.1640625 C-15.60365484 9.15283264 -15.60365484 9.15283264 -7.63671875 10.1640625 C-5.84252901 9.84458833 -4.05118379 9.50901962 -2.26171875 9.1640625 C0.50525319 8.7980423 3.27837975 8.48601069 6.05078125 8.1640625 C9.61365609 7.73311709 13.14364186 7.29142837 16.65625 6.5390625 C17.34332031 6.4153125 18.03039063 6.2915625 18.73828125 6.1640625 C19.73828125 7.1640625 19.73828125 7.1640625 19.8359375 9.01171875 C19.80338542 11.0625 19.77083333 13.11328125 19.73828125 15.1640625 C19.07828125 15.1640625 18.41828125 15.1640625 17.73828125 15.1640625 C17.73828125 15.8240625 17.73828125 16.4840625 17.73828125 17.1640625 C18.72828125 17.4940625 19.71828125 17.8240625 20.73828125 18.1640625 C20.73828125 20.8040625 20.73828125 23.4440625 20.73828125 26.1640625 C19.74828125 26.6590625 19.74828125 26.6590625 18.73828125 27.1640625 C19.72828125 27.8240625 20.71828125 28.4840625 21.73828125 29.1640625 C22.14672048 31.87609902 21.87164992 34.4077767 21.73828125 37.1640625 C20.63871094 37.35742188 19.53914063 37.55078125 18.40625 37.75 C17.6951709 37.87536133 16.9840918 38.00072266 16.25146484 38.12988281 C14.69343062 38.40400263 13.135159 38.67677637 11.57666016 38.94824219 C7.24019939 39.70687505 2.92684564 40.53325075 -1.38671875 41.4140625 C-5.69285844 42.16408083 -8.98331561 42.3864634 -13.26171875 41.1640625 C-14.18597656 40.95394531 -15.11023438 40.74382813 -16.0625 40.52734375 C-19.81414495 39.21840407 -21.65265555 38.20506091 -24.26171875 35.1640625 C-26.38608186 28.11558889 -26.23488532 20.46786573 -26.26171875 13.1640625 C-26.2663916 12.19662109 -26.27106445 11.22917969 -26.27587891 10.23242188 C-26.28044535 7.87613677 -26.27616433 5.52029642 -26.26171875 3.1640625 C-21.72168874 0.93482621 -17.53211453 0.73445769 -12.57421875 0.5390625 C-11.77419434 0.50329102 -10.97416992 0.46751953 -10.14990234 0.43066406 C-8.56807085 0.36329748 -6.98602992 0.30065133 -5.40380859 0.24316406 C-3.60194442 0.17662611 -1.80081566 0.09057995 0 0 Z " fill="#F6F4FF" transform="translate(34.26171875,10.8359375)"/>
<path d="M0 0 C0 0.66 0 1.32 0 2 C-3.85217625 2.53631069 -7.70692414 3.05125109 -11.5625 3.5625 C-12.64853516 3.71396484 -13.73457031 3.86542969 -14.85351562 4.02148438 C-25.49656852 5.41252168 -25.49656852 5.41252168 -31 4 C-31.33 3.34 -31.66 2.68 -32 2 C-31.02160156 2.0309375 -30.04320313 2.061875 -29.03515625 2.09375 C-24.72229205 2.09375 -20.65667459 1.33258379 -16.4375 0.5 C-3.91571429 -1.95785714 -3.91571429 -1.95785714 0 0 Z " fill="#885FFF" transform="translate(52,28)"/>
<path d="M0 0 C-4.4430844 2.44353853 -8.84901513 2.95683471 -13.8125 3.6875 C-14.68970703 3.82994141 -15.56691406 3.97238281 -16.47070312 4.11914062 C-21.52827045 4.87947797 -25.96274563 5.27060065 -31 4 C-32.69067383 2.4519043 -32.69067383 2.4519043 -34 1 C-32.70320313 1.1959375 -31.40640625 1.391875 -30.0703125 1.59375 C-25.0792355 2.14853116 -20.76017356 1.51390395 -15.875 0.5 C-10.20139718 -0.66554489 -5.71340004 -1.15177295 0 0 Z " fill="#875DFF" transform="translate(53,39)"/>
<path d="M0 0 C1.093125 0.226875 2.18625 0.45375 3.3125 0.6875 C-0.0894487 2.78100689 -2.74022412 2.86692163 -6.6875 2.6875 C-4.58035839 -0.41123767 -3.86755884 -0.32775922 0 0 Z " fill="#7749FF" transform="translate(49.6875,38.3125)"/>
</svg>
