<?xml version="1.0" encoding="UTF-8"?>
<svg version="1.1" xmlns="http://www.w3.org/2000/svg" width="97" height="96">
<path d="M0 0 C2.43115533 0.01606651 4.86064327 0.00008221 7.29174805 -0.01904297 C19.95828288 -0.03701026 33.16673314 0.38004281 43.00073242 9.39111328 C51.80990238 19.08562695 51.49211021 33.70346838 51.3918457 46.03857422 C51.37575068 48.38844826 51.39178841 50.73660324 51.41088867 53.08642578 C51.4292517 65.62137667 50.90619603 78.67236533 42.00073242 88.39111328 C32.30621875 97.20028324 17.68837732 96.88249107 5.35327148 96.78222656 C3.00339744 96.76613153 0.65524247 96.78216926 -1.69458008 96.80126953 C-14.22031522 96.81961906 -27.29446167 96.30410448 -36.99926758 87.39111328 C-45.70787347 77.61034235 -45.48718185 63.72900783 -45.39038086 51.3918457 C-45.37431435 48.96069038 -45.39029865 46.53120243 -45.40942383 44.10009766 C-45.42737776 31.44298025 -45.01793267 18.21098097 -35.99926758 8.39111328 C-26.21849664 -0.31749261 -12.33716213 -0.09680099 0 0 Z " fill="#05A2BE" transform="translate(44.999267578125,-0.39111328125)"/>
<path d="M0 0 C1.31806641 0.02384766 2.63613281 0.04769531 3.99414062 0.07226562 C14.85778055 0.36587751 14.85778055 0.36587751 18.3125 2.6875 C20.43227368 5.86716051 20.84334554 7.88758693 20.7734375 11.68359375 C19.92001012 15.39383313 17.39592097 16.65244216 14.3125 18.6875 C13.3225 19.1825 13.3225 19.1825 12.3125 19.6875 C14.0703125 20.63151042 15.828125 21.57552083 17.5859375 22.51953125 C19.3125 23.6875 19.3125 23.6875 21.3125 26.6875 C21.85816916 29.75473509 21.83152118 32.61662467 21.3125 35.6875 C18.2370024 39.97455727 14.32271549 42.21944336 9.3125 43.6875 C5.86862673 44.07286804 2.46563422 44.03833326 -0.99609375 43.98046875 C-1.96281509 43.97622391 -2.92953644 43.97197906 -3.92555237 43.96760559 C-6.99232649 43.95090522 -10.0584268 43.91326899 -13.125 43.875 C-15.21288109 43.859942 -17.30077255 43.84625555 -19.38867188 43.83398438 C-24.48853815 43.80102999 -29.5879051 43.74930751 -34.6875 43.6875 C-32.53408699 39.86660331 -30.39336464 36.10904312 -27.890625 32.50390625 C-27.40722656 31.80458984 -26.92382812 31.10527344 -26.42578125 30.38476562 C-25.93464844 29.68029297 -25.44351562 28.97582031 -24.9375 28.25 C-24.43089844 27.51845703 -23.92429687 26.78691406 -23.40234375 26.03320312 C-22.16660287 24.24953941 -20.92741037 22.46826783 -19.6875 20.6875 C-22.6575 20.6875 -25.6275 20.6875 -28.6875 20.6875 C-27.67298843 19.03776234 -26.65044421 17.39296446 -25.625 15.75 C-25.05652344 14.83347656 -24.48804688 13.91695312 -23.90234375 12.97265625 C-23.17144531 11.88855469 -22.44054687 10.80445313 -21.6875 9.6875 C-21.26122314 8.90769775 -20.83494629 8.12789551 -20.39575195 7.32446289 C-15.21198251 -1.01915711 -9.19723465 -0.46734838 0 0 Z " fill="#FCFDFE" transform="translate(54.6875,20.3125)"/>
<path d="M0 0 C0.33 0 0.66 0 1 0 C1.43795472 4.37954716 1.32894381 6.4816643 -1.0625 10.25 C-5.46878838 14.93090125 -11.72093357 16.82090209 -18.02481079 17.08474731 C-20.50288509 17.11566627 -22.97880793 17.11234115 -25.45703125 17.09765625 C-26.35999435 17.0962413 -27.26295746 17.09482635 -28.19328308 17.09336853 C-31.06638963 17.08778823 -33.93941716 17.07523934 -36.8125 17.0625 C-38.76497283 17.05748245 -40.71744689 17.05291999 -42.66992188 17.04882812 C-47.44664485 17.03782525 -52.22330904 17.02057418 -57 17 C-57 14.36 -57 11.72 -57 9 C-55.68918457 8.99589111 -54.37836914 8.99178223 -53.02783203 8.98754883 C-48.12591183 8.96564065 -43.22478103 8.9112303 -38.32324219 8.84741211 C-36.20906182 8.82433365 -34.09476814 8.80986043 -31.98046875 8.80444336 C-28.92637337 8.79507939 -25.87403548 8.75392632 -22.8203125 8.70703125 C-21.88760529 8.7109639 -20.95489807 8.71489655 -19.993927 8.71894836 C-13.14758295 8.569552 -7.70154987 6.87768824 -2 3 C-1.34 2.01 -0.68 1.02 0 0 Z " fill="#082F4C" transform="translate(76,55)"/>
<path d="M0 0 C2.97 0 5.94 0 9 0 C7.92598892 2.91517292 7.22189824 4.77810176 5 7 C2.375 7.125 2.375 7.125 0 7 C0 4.69 0 2.38 0 0 Z " fill="#0F3450" transform="translate(26,41)"/>
<path d="M0 0 C0 2.31 0 4.62 0 7 C-1.625 8.125 -1.625 8.125 -4 9 C-7.25 8.125 -7.25 8.125 -10 7 C-9.1646875 6.38125 -9.1646875 6.38125 -8.3125 5.75 C-6.62086404 4.46984306 -4.9577948 3.15169344 -3.3125 1.8125 C-1 0 -1 0 0 0 Z " fill="#163A55" transform="translate(75,34)"/>
</svg>
