<?xml version="1.0" encoding="UTF-8"?>
<svg version="1.1" xmlns="http://www.w3.org/2000/svg" width="225" height="225">
<path d="M0 0 C74.25 0 148.5 0 225 0 C225 74.25 225 148.5 225 225 C150.75 225 76.5 225 0 225 C0 150.75 0 76.5 0 0 Z " fill="#16CB3E" transform="translate(0,0)"/>
<path d="M0 0 C4.95316706 2.49745396 8.58369765 5.20980482 12.52911377 9.16162109 C13.03933854 9.66857702 13.54956331 10.17553295 14.07524943 10.69785118 C15.76731201 12.38268466 17.44851141 14.07793996 19.12988281 15.7734375 C20.34707077 16.98983387 21.56491259 18.20557625 22.78335571 19.42071533 C26.07913834 22.7113789 29.36553797 26.01126832 32.65017033 29.31305695 C36.09231446 32.7702717 39.54259697 36.21934635 42.99188232 39.66943359 C48.78022312 45.46146259 54.56290501 51.25909106 60.34179688 57.06054688 C67.75853671 64.50618669 75.18453925 71.94251604 82.61351395 79.37594604 C89.00428837 85.77070097 95.39079825 92.16971007 101.77662563 98.5694046 C103.82815886 100.62503393 105.88027644 102.68007854 107.93247223 104.73504639 C111.15576364 107.96323495 114.37638396 111.19406576 117.59495163 114.42696381 C118.77645555 115.61298551 119.95879898 116.79817159 121.14204025 117.98246002 C122.75662978 119.59879917 124.36811164 121.21817419 125.9788208 122.83837891 C126.88138233 123.7439151 127.78394386 124.64945129 128.71385574 125.58242798 C133.24238949 130.37130185 134.60488983 132.92997707 134.4296875 139.51953125 C133.73257257 143.54378559 131.96066221 145.25081366 129 148 C125.40419832 149.79790084 121.90989489 149.67226888 118 149 C116.2054739 147.84692097 116.2054739 147.84692097 114.46250916 146.2278595 C113.77003019 145.58726404 113.07755123 144.94666859 112.36408806 144.28666115 C107.43738475 139.52131368 102.56686366 134.70535345 97.72485352 129.85424805 C96.50384296 128.63459468 95.28262025 127.41515368 94.061203 126.19590759 C90.76599361 122.90523185 87.47392457 119.61143153 84.1825726 116.31689811 C80.73323746 112.86502173 77.28145247 109.4155965 73.83006287 105.96577454 C68.04254317 100.18006993 62.25712616 94.39226904 56.47290039 88.60327148 C49.78089675 81.90581105 43.08527744 75.21198147 36.38779885 68.51999635 C30.63296375 62.76969283 24.88007157 57.01745099 19.12881225 51.26357108 C15.69541072 47.82860901 12.26133337 44.3943299 8.8255024 40.96179771 C5.60158885 37.74076404 2.3801146 34.5173108 -0.83946037 31.29194069 C-2.02340297 30.10667179 -3.20820486 28.92226053 -4.39390945 27.73875427 C-6.00694206 26.12843781 -7.61688892 24.51509959 -9.22605896 22.90092468 C-10.12916526 21.99744136 -11.03227156 21.09395803 -11.96274471 20.16309643 C-15.09368256 16.83876074 -15.28926819 14.59594923 -15.21484375 10.03125 C-14.89710624 7.02718628 -13.91542285 5.31171723 -12 3 C-8.05740846 -0.17597652 -4.98931474 -0.60215868 0 0 Z " fill="#FBFEFC" transform="translate(53,38)"/>
<path d="M0 0 C0.80824219 -0.06316406 1.61648437 -0.12632813 2.44921875 -0.19140625 C11.2468268 2.12501715 18.85356135 12.95725667 25.21484375 19.33203125 C26.34430112 20.46081373 27.47390679 21.58944784 28.60365295 22.71794128 C30.95427288 25.06709656 33.30309853 27.41802695 35.65063477 29.77026367 C38.66234833 32.78771344 41.67858298 35.80059799 44.69614315 38.81219959 C47.02187067 41.13432171 49.34522141 43.45881005 51.66784859 45.78403282 C52.77991884 46.89677036 53.89273298 48.00876497 55.00629997 49.12000465 C56.55472409 50.66589836 58.09992241 52.21494491 59.64428711 53.76489258 C60.52394638 54.64534744 61.40360565 55.52580231 62.30992126 56.43293762 C65.80730733 60.15209316 65.64755166 63.14238609 65.59765625 68.08203125 C65.19386394 71.59447119 63.92472617 73.24052118 61.3125 75.5625 C57.82585549 78.08731154 54.51498882 77.99724022 50.3125 77.5625 C45.89900316 74.97039129 42.2909201 71.82993074 38.70605469 68.21484375 C38.1816983 67.693992 37.65734192 67.17314026 37.11709595 66.63650513 C35.40115508 64.92930126 33.69255698 63.21496452 31.984375 61.5 C30.78734025 60.3043138 29.59000886 59.10892453 28.39239502 57.91381836 C25.89114562 55.41550899 23.39352803 52.91363955 20.8984375 50.40917969 C17.70185185 47.20117547 14.49633757 44.00226708 11.28806686 40.80595398 C8.81719893 38.34231381 6.35111515 35.87392912 3.88645172 33.40408325 C2.70617669 32.22247555 1.52441828 31.04234762 0.34114838 29.86373901 C-1.31033563 28.21733793 -2.95526664 26.56465499 -4.59863281 24.91015625 C-5.08695587 24.42588165 -5.57527893 23.94160706 -6.07839966 23.44265747 C-9.6853982 19.79029705 -11.49416701 17.30249695 -12.0625 12.1875 C-11.61810645 7.89169568 -10.39158706 5.88466411 -7.6875 2.5625 C-4.6209811 0.51815407 -3.54700668 0.17261728 0 0 Z " fill="#FCFEFC" transform="translate(121.6875,37.4375)"/>
<path d="M0 0 C4.41349684 2.59210871 8.0215799 5.73256926 11.60644531 9.34765625 C12.1308017 9.868508 12.65515808 10.38935974 13.19540405 10.92599487 C14.91134492 12.63319874 16.61994302 14.34753548 18.328125 16.0625 C19.52515975 17.2581862 20.72249114 18.45357547 21.92010498 19.64868164 C24.42135438 22.14699101 26.91897197 24.64886045 29.4140625 27.15332031 C32.61064815 30.36132453 35.81616243 33.56023292 39.02443314 36.75654602 C41.49530107 39.22018619 43.96138485 41.68857088 46.42604828 44.15841675 C47.60632331 45.34002445 48.78808172 46.52015238 49.97135162 47.69876099 C51.62283563 49.34516207 53.26776664 50.99784501 54.91113281 52.65234375 C55.39945587 53.13661835 55.88777893 53.62089294 56.39089966 54.11984253 C59.41825411 57.18526922 61.87998259 59.76367561 62.1171875 64.18359375 C61.57346702 69.24370206 60.79940903 72.31572458 57 76 C54.65986288 77.17006856 52.98542048 77.33836406 50.375 77.5 C49.55773437 77.5721875 48.74046875 77.644375 47.8984375 77.71875 C39.10142653 75.53728097 31.43266577 64.57891473 25.09765625 58.23046875 C23.96819888 57.10168627 22.83859321 55.97305216 21.70884705 54.84455872 C19.35822712 52.49540344 17.00940147 50.14447305 14.66186523 47.79223633 C11.65015167 44.77478656 8.63391702 41.76190201 5.61635685 38.75030041 C3.29062933 36.42817829 0.96727859 34.10368995 -1.35534859 31.77846718 C-2.46741884 30.66572964 -3.58023298 29.55373503 -4.69379997 28.44249535 C-6.24222409 26.89660164 -7.78742241 25.34755509 -9.33178711 23.79760742 C-10.21144638 22.91715256 -11.09110565 22.03669769 -11.99742126 21.12956238 C-15.49480733 17.41040684 -15.33505166 14.42011391 -15.28515625 9.48046875 C-14.88136394 5.96802881 -13.61222617 4.32197882 -11 2 C-7.51335549 -0.52481154 -4.20248882 -0.43474022 0 0 Z " fill="#FCFEFD" transform="translate(53,110)"/>
</svg>
