<svg width="32" height="32" viewBox="0 0 32 32" fill="none" xmlns="http://www.w3.org/2000/svg">
<rect width="32" height="32" rx="8" fill="#002444"/>
<path d="M27.9991 17.1163C27.8411 17.3134 27.6875 17.5138 27.5253 17.7077C27.255 18.031 26.9784 18.35 26.7049 18.6701C26.494 18.9171 26.1898 18.9923 25.893 18.8673C23.9068 18.0268 21.9216 17.1863 19.9342 16.3468C19.8176 16.297 19.7466 16.2164 19.7424 16.0914C19.7381 15.9695 19.8028 15.8847 19.912 15.8285C20.4578 15.5445 21.0026 15.2572 21.5485 14.9732C21.7255 14.881 21.9088 14.8725 22.0986 14.9339C23.522 15.3992 24.9455 15.8646 26.37 16.3288C26.8215 16.4761 27.272 16.6277 27.7256 16.7697C27.856 16.81 27.9524 16.8736 28.0001 17.0029C27.9991 17.04 27.9991 17.0781 27.9991 17.1163Z" fill="white"/>
<path d="M5 17.0855C5.05194 16.9116 5.1823 16.8385 5.34765 16.7855C6.40226 16.4474 7.45475 16.1008 8.5083 15.7574C9.35516 15.4808 10.2031 15.2041 11.05 14.9296C11.2482 14.865 11.4389 14.8851 11.6223 14.989C12.1533 15.2889 12.6833 15.5878 13.2153 15.8857C13.3298 15.9503 13.3924 16.0393 13.3796 16.1729C13.368 16.2969 13.2938 16.3668 13.1836 16.4124C11.2248 17.2233 9.26719 18.0362 7.30848 18.847C6.8877 19.0219 6.4277 18.9127 6.12456 18.5683C5.78221 18.1782 5.44092 17.7871 5.10281 17.3939C5.05936 17.3441 5.03392 17.2773 5.00106 17.219C5 17.1734 5 17.1289 5 17.0855Z" fill="white"/>
<path d="M17.8344 12.3779H15.2716C15.1518 12.3779 15.0776 12.2825 15.1062 12.167C15.1158 12.1299 15.1253 12.0917 15.1349 12.0546L15.3108 11.318L15.368 11.0816C15.3786 11.0339 15.4221 11 15.4708 11H17.6352C17.6839 11 17.7274 11.0339 17.738 11.0816L17.7952 11.318L17.9712 12.0546C17.9807 12.0917 17.9902 12.1299 17.9998 12.167C18.0284 12.2825 17.9542 12.3779 17.8344 12.3779Z" fill="white"/>
<path d="M16.4776 21.0864C15.6424 21.0864 14.8061 21.0864 13.9709 21.0864C13.4844 21.0864 13.1696 20.6931 13.2852 20.2225C13.5894 18.9793 13.8957 17.737 14.202 16.4948C14.2486 16.3072 14.3694 16.2129 14.5645 16.2129C15.8872 16.2129 17.2089 16.2129 18.5317 16.2129C18.7299 16.2129 18.856 16.3178 18.8963 16.5118C19.1581 17.7646 19.421 19.0174 19.6817 20.2702C19.7707 20.6963 19.4549 21.0853 19.0182 21.0864C18.1703 21.0874 17.3245 21.0864 16.4776 21.0864Z" fill="white"/>
<path d="M8.34392 14.5545C7.48964 14.5545 6.63429 14.5555 5.78 14.5523C5.72807 14.5523 5.66553 14.5333 5.62844 14.4993C5.56802 14.4442 5.5924 14.351 5.67295 14.2927C5.96655 14.0807 6.2612 13.8698 6.5548 13.6578C6.69046 13.5603 6.82719 13.4628 6.96286 13.3642C7.09005 13.272 7.22996 13.2285 7.38683 13.2285C8.8124 13.2296 10.2369 13.2296 11.6625 13.2285C11.7271 13.2285 11.7886 13.2328 11.8236 13.2974C11.8596 13.3631 11.8353 13.4214 11.7982 13.4787C11.6106 13.7722 11.423 14.0658 11.2396 14.3626C11.1559 14.4983 11.0424 14.5566 10.8835 14.5555C10.0377 14.5523 9.19079 14.5545 8.34392 14.5545Z" fill="white"/>
<path d="M20.7796 13.1207C20.7043 13.107 20.6386 13.0995 20.5771 13.0826C19.9687 12.913 19.3603 12.7424 18.753 12.5717C18.7424 12.5685 18.7329 12.5643 18.7223 12.5622C18.665 12.5505 18.629 12.5177 18.628 12.4572C18.6269 12.3968 18.6661 12.3672 18.7202 12.3491C18.9851 12.2643 19.2491 12.1785 19.514 12.0937C19.8839 11.9739 20.2539 11.8552 20.6238 11.7354C20.7562 11.692 20.8887 11.6856 21.0233 11.7164C21.6339 11.8552 22.2444 11.9941 22.8549 12.1361C22.8867 12.1435 22.911 12.1806 22.9386 12.2039C22.9142 12.2315 22.8962 12.2728 22.8655 12.2855C22.2465 12.5473 21.6264 12.807 21.0053 13.0635C20.9311 13.0921 20.8495 13.1027 20.7796 13.1207Z" fill="white"/>
<path d="M12.2523 13.1207C12.3275 13.107 12.3933 13.0995 12.4547 13.0826C13.0631 12.913 13.6715 12.7424 14.2788 12.5717C14.2894 12.5685 14.299 12.5643 14.3096 12.5622C14.3668 12.5505 14.4028 12.5177 14.4039 12.4572C14.405 12.3968 14.3658 12.3672 14.3117 12.3491C14.0467 12.2643 13.7828 12.1785 13.5178 12.0937C13.1479 11.9739 12.778 11.8552 12.4081 11.7354C12.2756 11.692 12.1431 11.6856 12.0085 11.7164C11.398 11.8552 10.7875 11.9941 10.177 12.1361C10.1452 12.1435 10.1208 12.1806 10.0933 12.2039C10.1176 12.2315 10.1357 12.2728 10.1664 12.2855C10.7854 12.5473 11.4054 12.807 12.0265 13.0635C12.1007 13.0921 12.1823 13.1027 12.2523 13.1207Z" fill="white"/>
</svg>
