<?xml version="1.0" encoding="UTF-8"?>
<!DOCTYPE svg PUBLIC "-//W3C//DTD SVG 1.1//EN" "http://www.w3.org/Graphics/SVG/1.1/DTD/svg11.dtd">
<svg xmlns="http://www.w3.org/2000/svg" version="1.1" width="48px" height="48px" style="shape-rendering:geometricPrecision; text-rendering:geometricPrecision; image-rendering:optimizeQuality; fill-rule:evenodd; clip-rule:evenodd" xmlns:xlink="http://www.w3.org/1999/xlink">
<g><path style="opacity:0.932" fill="#171615" d="M 14.5,-0.5 C 20.5,-0.5 26.5,-0.5 32.5,-0.5C 38.7987,3.13198 43.7987,8.13198 47.5,14.5C 47.5,20.5 47.5,26.5 47.5,32.5C 43.7987,38.868 38.7987,43.868 32.5,47.5C 26.5,47.5 20.5,47.5 14.5,47.5C 7.83333,44.1667 2.83333,39.1667 -0.5,32.5C -0.5,26.5 -0.5,20.5 -0.5,14.5C 2.83333,7.83333 7.83333,2.83333 14.5,-0.5 Z"/></g>
<g><path style="opacity:1" fill="#d29a53" d="M 24.5,5.5 C 24.5,6.83333 24.5,8.16667 24.5,9.5C 27.0974,9.64323 29.4308,10.4766 31.5,12C 30.9747,12.6924 30.3081,13.1924 29.5,13.5C 27.3821,12.0541 25.0488,11.3874 22.5,11.5C 22.5,10.1667 22.5,8.83333 22.5,7.5C 19.5,8.16667 16.5,8.83333 13.5,9.5C 16.3218,6.22238 19.9885,4.88905 24.5,5.5 Z"/></g>
<g><path style="opacity:1" fill="#d69d55" d="M 11.5,10.5 C 13.0443,10.7031 14.3777,11.3698 15.5,12.5C 17.1913,10.7438 19.1913,10.2438 21.5,11C 19.2462,12.3767 17.0795,13.8767 15,15.5C 14.2613,14.4258 13.2613,13.7591 12,13.5C 10.0653,15.0339 8.89867,17.0339 8.5,19.5C 8.44001,20.0431 8.10667,20.3764 7.5,20.5C 6.56901,16.3491 7.90234,13.0158 11.5,10.5 Z"/></g>
<g><path style="opacity:1" fill="#e0a458" d="M 29.5,18.5 C 30.7284,15.9249 32.3951,13.5916 34.5,11.5C 32.0901,9.62836 29.4234,8.29503 26.5,7.5C 26.8425,5.77484 27.8425,5.27484 29.5,6C 32.5755,6.91099 34.9089,8.74432 36.5,11.5C 34.4789,14.1878 32.1456,16.5211 29.5,18.5 Z"/></g>
<g><path style="opacity:1" fill="#2d251c" d="M 24.5,5.5 C 25.2679,6.26253 25.7679,7.26253 26,8.5C 26.3988,8.27155 26.5654,7.93822 26.5,7.5C 29.4234,8.29503 32.0901,9.62836 34.5,11.5C 32.3951,13.5916 30.7284,15.9249 29.5,18.5C 27.1998,16.7982 24.5331,16.1315 21.5,16.5C 23.2922,15.6909 25.2922,15.1909 27.5,15C 18.0474,12.7789 13.8807,16.6122 15,26.5C 17.9093,32.6069 22.076,33.9402 27.5,30.5C 28.1667,29.8333 28.8333,29.1667 29.5,28.5C 30.597,30.7742 31.9304,32.9409 33.5,35C 32.7977,36.8563 31.4643,38.023 29.5,38.5C 28.4324,37.5655 27.099,37.2322 25.5,37.5C 26.8775,36.7656 28.3775,36.0989 30,35.5C 30.2071,33.2385 29.3738,32.9052 27.5,34.5C 25.8333,34.5 24.1667,34.5 22.5,34.5C 22.5,35.8333 22.5,37.1667 22.5,38.5C 21.5,38.5 20.5,38.5 19.5,38.5C 17.5648,37.8505 15.5648,37.5172 13.5,37.5C 12.5084,37.6716 11.8417,37.3382 11.5,36.5C 12.7564,36.0962 13.9231,35.4295 15,34.5C 16.6667,35.1667 18.3333,35.8333 20,36.5C 20.5,36.1667 21,35.8333 21.5,35.5C 19.0918,34.5465 16.9251,33.2132 15,31.5C 14.1627,33.0074 12.9961,33.5074 11.5,33C 10.2921,30.7497 8.95873,28.583 7.5,26.5C 6.70245,26.9569 6.36912,27.6236 6.5,28.5C 5.16667,26.5 5.16667,24.5 6.5,22.5C 7.39836,21.8423 8.39836,21.1757 9.5,20.5C 9.37642,19.8933 9.04309,19.56 8.5,19.5C 8.89867,17.0339 10.0653,15.0339 12,13.5C 13.2613,13.7591 14.2613,14.4258 15,15.5C 17.0795,13.8767 19.2462,12.3767 21.5,11C 19.1913,10.2438 17.1913,10.7438 15.5,12.5C 14.3777,11.3698 13.0443,10.7031 11.5,10.5C 11.8417,9.66175 12.5084,9.32842 13.5,9.5C 16.5,8.83333 19.5,8.16667 22.5,7.5C 22.5,8.83333 22.5,10.1667 22.5,11.5C 25.0488,11.3874 27.3821,12.0541 29.5,13.5C 30.3081,13.1924 30.9747,12.6924 31.5,12C 29.4308,10.4766 27.0974,9.64323 24.5,9.5C 24.5,8.16667 24.5,6.83333 24.5,5.5 Z"/></g>
<g><path style="opacity:1" fill="#d29a53" d="M 6.5,22.5 C 7.83333,22.5 9.16667,22.5 10.5,22.5C 10.3573,20.7376 10.6906,19.0709 11.5,17.5C 12.1667,16.1667 12.8333,16.1667 13.5,17.5C 12.2447,21.1448 12.2447,24.8115 13.5,28.5C 13.1667,29.1667 12.8333,29.8333 12.5,30.5C 10.9137,28.8273 10.2471,26.8273 10.5,24.5C 8.51676,24.8432 7.18342,24.1765 6.5,22.5 Z"/></g>
<g><path style="opacity:1" fill="#cd9751" d="M 21.5,16.5 C 17.0744,18.3592 15.5744,21.6925 17,26.5C 19.5907,30.0482 23.0907,31.3815 27.5,30.5C 22.076,33.9402 17.9093,32.6069 15,26.5C 13.8807,16.6122 18.0474,12.7789 27.5,15C 25.2922,15.1909 23.2922,15.6909 21.5,16.5 Z"/></g>
<g><path style="opacity:1" fill="#d69d55" d="M 11.5,36.5 C 9.33282,34.1698 7.66615,31.5032 6.5,28.5C 6.36912,27.6236 6.70245,26.9569 7.5,26.5C 8.95873,28.583 10.2921,30.7497 11.5,33C 12.9961,33.5074 14.1627,33.0074 15,31.5C 16.9251,33.2132 19.0918,34.5465 21.5,35.5C 21,35.8333 20.5,36.1667 20,36.5C 18.3333,35.8333 16.6667,35.1667 15,34.5C 13.9231,35.4295 12.7564,36.0962 11.5,36.5 Z"/></g>
<g><path style="opacity:1" fill="#7b5c35" d="M 27.5,34.5 C 26.4324,35.4345 25.099,35.7678 23.5,35.5C 23.5,36.8333 23.5,38.1667 23.5,39.5C 21.901,39.7678 20.5676,39.4345 19.5,38.5C 20.5,38.5 21.5,38.5 22.5,38.5C 22.5,37.1667 22.5,35.8333 22.5,34.5C 24.1667,34.5 25.8333,34.5 27.5,34.5 Z"/></g>
<g><path style="opacity:1" fill="#cb9551" d="M 25.5,37.5 C 25.5,38.8333 25.5,40.1667 25.5,41.5C 20.6866,42.2587 16.6866,40.9253 13.5,37.5C 15.5648,37.5172 17.5648,37.8505 19.5,38.5C 20.5676,39.4345 21.901,39.7678 23.5,39.5C 23.5,38.1667 23.5,36.8333 23.5,35.5C 25.099,35.7678 26.4324,35.4345 27.5,34.5C 29.3738,32.9052 30.2071,33.2385 30,35.5C 28.3775,36.0989 26.8775,36.7656 25.5,37.5 Z"/></g>
<g><path style="opacity:1" fill="#d39b54" d="M 29.5,28.5 C 38.9585,33.0103 38.7918,37.0103 29,40.5C 27.1284,39.5126 27.2951,38.8459 29.5,38.5C 31.4643,38.023 32.7977,36.8563 33.5,35C 31.9304,32.9409 30.597,30.7742 29.5,28.5 Z"/></g>
</svg>
