<?xml version="1.0" encoding="UTF-8"?>
<svg version="1.1" xmlns="http://www.w3.org/2000/svg" width="512" height="512">
<path d="M0 0 C168.96 0 337.92 0 512 0 C512 168.96 512 337.92 512 512 C343.04 512 174.08 512 0 512 C0 343.04 0 174.08 0 0 Z " fill="#FF0033" transform="translate(0,0)"/>
<path d="M0 0 C0.86625 0.76957031 1.7325 1.53914063 2.625 2.33203125 C4.82638156 4.21610649 4.82638156 4.21610649 7.2734375 4.0078125 C11.19434502 2.55853723 14.88515373 0.73577739 18.625 -1.125 C49.04335209 -15.84004694 84.69830477 -24.99954439 117.77734375 -13.7109375 C135.37673793 -7.30756197 148.61904783 3.06374247 156.9921875 20.0078125 C161.26643045 29.41114699 161.58693432 41.56686717 159.12890625 51.53125 C153.35492335 66.22177698 142.20370827 75.71410358 128 82 C130.63692767 83.75795178 132.62534421 84.64558759 135.5625 85.6875 C141.36914106 87.96958601 146.08752178 91.19262771 151 95 C151.71285156 95.5465625 152.42570312 96.093125 153.16015625 96.65625 C162.83326578 104.55875181 169.37046809 115.77957397 172 128 C172.21625181 131.05987223 172.18512447 134.12069089 172.1875 137.1875 C172.19974609 138.00025391 172.21199219 138.81300781 172.22460938 139.65039062 C172.25927241 154.17420244 167.05824057 167.71402141 158 179 C157.04867187 180.23169922 157.04867187 180.23169922 156.078125 181.48828125 C147.61460295 191.71768854 136.6040727 198.18608422 124.5625 203.4375 C123.84916504 203.75541504 123.13583008 204.07333008 122.40087891 204.40087891 C109.70243662 209.61776382 96.24589088 210.53488108 82.6875 210.375 C81.96977417 210.37001495 81.25204834 210.36502991 80.51257324 210.3598938 C55.42099617 210.15637524 30.30802877 205.79864675 10.0625 189.9375 C9.051875 189.298125 8.04125 188.65875 7 188 C2.8595588 189.14895492 -0.53459433 191.5056423 -4.125 193.8125 C-9.89325655 197.42641617 -15.67071492 200.48702679 -22 203 C-23.07121094 203.43183594 -24.14242187 203.86367188 -25.24609375 204.30859375 C-52.81547682 214.48480634 -84.18663238 213.760296 -111.06933594 201.91113281 C-121.22169989 197.1199565 -130.11137206 191.01842255 -138 183 C-138.63292969 182.36578125 -139.26585937 181.7315625 -139.91796875 181.078125 C-165.96192124 153.25191528 -160 111.87546331 -160 77 C-120.73 77 -81.46 77 -41 77 C-41 81.62 -41 86.24 -41 91 C-66.74 91 -92.48 91 -119 91 C-118.8453125 105.0146875 -118.8453125 105.0146875 -118.6875 119.3125 C-118.66260498 122.24036377 -118.63770996 125.16822754 -118.61206055 128.18481445 C-118.57974014 130.53598581 -118.54636216 132.88714297 -118.51171875 135.23828125 C-118.50547485 136.43432983 -118.49923096 137.63037842 -118.49279785 138.8626709 C-118.23626824 153.99480825 -113.32409289 169.81551029 -102.75 181.0625 C-91.17017395 191.45057723 -78.31650375 195.77404415 -62.875 195.41015625 C-48.88374967 193.92922754 -36.93735104 187.40366915 -27.8828125 176.64453125 C-19.26973257 164.54690653 -15.54552037 151.58432427 -15.56420898 136.83422852 C-15.54909523 135.09045929 -15.54909523 135.09045929 -15.53367615 133.3114624 C-15.50537361 129.50051033 -15.49932905 125.68995662 -15.49609375 121.87890625 C-15.48888548 119.88596424 -15.48167098 117.89302216 -15.4737125 115.90008301 C-15.449394 109.64421567 -15.44194949 103.38847757 -15.4440918 97.13256836 C-15.44589416 90.71060101 -15.41421359 84.28938955 -15.36686081 77.86761338 C-15.32745718 72.32326527 -15.31154732 66.77916264 -15.31345803 61.23467582 C-15.31421749 57.93655759 -15.30314739 54.6392587 -15.27392387 51.34124947 C-15.24433793 47.65859234 -15.25322624 43.97785793 -15.27124023 40.29516602 C-15.25438171 39.22415146 -15.23752319 38.1531369 -15.22015381 37.04966736 C-15.33509185 27.74469949 -18.78718603 20.10759051 -24.25 12.625 C-37.93069582 -0.43384601 -56.99086357 -3.51716717 -75.109375 -3.27734375 C-95.54516853 -2.60748163 -113.04311465 4.55903854 -129 17 C-132.45201639 15.52278578 -134.64961936 13.56205999 -137.25 10.875 C-137.95640625 10.15054688 -138.6628125 9.42609375 -139.390625 8.6796875 C-139.92171875 8.12539062 -140.4528125 7.57109375 -141 7 C-139.50177873 2.65318696 -136.23687593 0.85610769 -132.5 -1.4375 C-131.86199463 -1.83364502 -131.22398926 -2.22979004 -130.56665039 -2.63793945 C-128.71918662 -3.77267372 -126.86130882 -4.88817257 -125 -6 C-124.20464844 -6.48984375 -123.40929687 -6.9796875 -122.58984375 -7.484375 C-86.16365833 -27.84601767 -34.02424261 -22.1239366 0 0 Z " fill="#FFFCFD" transform="translate(250,160)"/>
<path d="M0 0 C0.33 0 0.66 0 1 0 C1 79.2 1 158.4 1 240 C-77.54 240 -156.08 240 -237 240 C-237 239.67 -237 239.34 -237 239 C-235.75464478 238.84180786 -235.75464478 238.84180786 -234.48413086 238.68041992 C-231.32439106 238.27643793 -228.16531981 237.8676234 -225.0065918 237.45581055 C-222.99899633 237.19547457 -220.99071732 236.94042684 -218.98242188 236.68554688 C-204.392953 234.77630774 -190.33592484 231.86951494 -176.375 227.1875 C-175.31983185 226.83593338 -175.31983185 226.83593338 -174.24334717 226.4772644 C-145.21627136 216.71809815 -118.99841001 201.99520792 -95 183 C-94.45746582 182.57460938 -93.91493164 182.14921875 -93.35595703 181.7109375 C-77.81385592 169.42026134 -63.63095972 155.0378377 -52 139 C-51.14508186 137.85115255 -50.28960571 136.70272016 -49.43359375 135.5546875 C-43.39109232 127.36407279 -38.00722097 118.85779081 -33 110 C-32.5978125 109.29278809 -32.195625 108.58557617 -31.78125 107.85693359 C-24.56729974 95.04371804 -19.07653278 81.78321191 -14 68 C-13.64446045 67.0517334 -13.2889209 66.1034668 -12.92260742 65.12646484 C-8.09525721 52.12521695 -5.69200828 38.75192019 -3.3125 25.125 C-3.09795166 23.90119629 -2.88340332 22.67739258 -2.66235352 21.41650391 C-1.450401 14.2899328 -0.51902604 7.2110509 0 0 Z " fill="#FFFEFE" transform="translate(511,272)"/>
<path d="M0 0 C78.21 0 156.42 0 237 0 C237 78.54 237 157.08 237 238 C236.67 238 236.34 238 236 238 C235.89977539 237.14994385 235.79955078 236.2998877 235.69628906 235.42407227 C233.1613028 212.46256425 233.1613028 212.46256425 228 190 C227.68853027 188.95118652 227.37706055 187.90237305 227.05615234 186.82177734 C211.69403439 135.97965204 182.42136349 88.74418014 140 56 C139.09121094 55.28585938 138.18242187 54.57171875 137.24609375 53.8359375 C116.92444058 38.18688213 94.48617768 25.78789877 70.42529297 16.90136719 C68.01339007 16.00497646 65.61863347 15.07081626 63.22265625 14.1328125 C43.12798754 6.47227914 21.3320807 3.16936414 0 1 C0 0.67 0 0.34 0 0 Z " fill="#FFFEFE" transform="translate(275,0)"/>
<path d="M0 0 C0.33 0 0.66 0 1 0 C1.10489746 0.93344238 1.10489746 0.93344238 1.21191406 1.88574219 C7.8688312 60.21403539 28.99967825 113.19173082 69.5625 156.3515625 C71.31052043 158.25085393 72.9656435 160.14754749 74.59765625 162.140625 C76.47565686 164.37590377 78.22334774 166.25345328 80.4375 168.125 C82.96074009 170.26437054 85.46142776 172.4133752 87.92578125 174.62109375 C129.84348564 211.9580091 181.01054374 230.28331368 236 237 C236 237.33 236 237.66 236 238 C158.12 238 80.24 238 0 238 C0 159.46 0 80.92 0 0 Z " fill="#FFFEFE" transform="translate(0,274)"/>
<path d="M0 0 C79.2 0 158.4 0 240 0 C240 0.33 240 0.66 240 1 C238.77925781 1.12117187 237.55851563 1.24234375 236.30078125 1.3671875 C182.37331565 6.80996362 132.53136719 25.51998233 91 61 C90.26265625 61.62519531 89.5253125 62.25039063 88.765625 62.89453125 C38.94999164 106.44026593 5.70842928 169.17891832 1.1484375 235.61328125 C1.09945312 236.40089844 1.05046875 237.18851563 1 238 C0.67 238 0.34 238 0 238 C0 159.46 0 80.92 0 0 Z " fill="#FFFEFE" transform="translate(0,0)"/>
<path d="M0 0 C13.76850557 -0.03441887 27.53533454 -0.00167826 41.30249023 0.20751953 C43.40494275 0.23600849 45.50750794 0.25708124 47.61010742 0.27099609 C64.42476768 0.38786376 79.20021361 0.96462681 92.15234375 13 C103.58411299 24.92139809 105.76870793 39.22254317 105.4375 55.10546875 C104.66219519 70.19241576 96.96244686 82.42146595 86.3125 92.8125 C80.78089157 97.56237575 74.75889296 100.38040422 68 103 C67.17886719 103.3403125 66.35773438 103.680625 65.51171875 104.03125 C54.57945947 107.99993572 40.72208543 107.20532419 30 103 C15.99654919 95.87576796 7.92635873 85.54895994 2.93359375 70.86328125 C1.08430005 64.31481612 -0.1286858 57.90860778 -0.11352539 51.08642578 C-0.11344986 49.94569611 -0.11337433 48.80496643 -0.11329651 47.62966919 C-0.10555458 45.80591263 -0.10555458 45.80591263 -0.09765625 43.9453125 C-0.0962413 42.68862762 -0.09482635 41.43194275 -0.09336853 40.13717651 C-0.08873074 36.8130806 -0.0797618 33.48905458 -0.06866455 30.16497803 C-0.05839401 26.76624146 -0.05385887 23.36749765 -0.04882812 19.96875 C-0.03781699 13.31248083 -0.02109222 6.65624445 0 0 Z " fill="#FF0134" transform="translate(277,251)"/>
<path d="M0 0 C0.95132813 0.50917969 1.90265625 1.01835937 2.8828125 1.54296875 C13.02578279 7.45293944 17.91999905 15.12541578 22 26 C24.68426078 36.95790002 22.79319779 47.59316407 17.6796875 57.578125 C11.43190011 67.61555392 3.33561455 72.85847882 -8 76 C-13.32696898 76.61757996 -18.57739131 76.58902453 -23.92578125 76.48828125 C-25.40934543 76.4789274 -26.89292531 76.4718235 -28.37651062 76.46684265 C-32.23522438 76.44797424 -36.09296016 76.3990558 -39.95129395 76.34332275 C-44.60528102 76.28257045 -49.25959963 76.26011756 -53.91387177 76.23105621 C-60.94325624 76.18297107 -67.97050545 76.08702263 -75 76 C-75 54.55 -75 33.1 -75 11 C-54.08832099 0.54416049 -23.24761143 -12.91957422 0 0 Z " fill="#FF0234" transform="translate(352,161)"/>
</svg>
