<?xml version="1.0" encoding="UTF-8"?>
<svg version="1.1" xmlns="http://www.w3.org/2000/svg" width="16" height="16">
<path d="M0 0 C0.86625 -0.00773438 1.7325 -0.01546875 2.625 -0.0234375 C5 0.375 5 0.375 6.7890625 1.5859375 C8.39038277 3.95175906 8.40035579 5.53515158 8.375 8.375 C8.38273437 9.24125 8.39046875 10.1075 8.3984375 11 C8 13.375 8 13.375 6.7890625 15.1640625 C4.42324094 16.76538277 2.83984842 16.77535579 0 16.75 C-0.86625 16.75773437 -1.7325 16.76546875 -2.625 16.7734375 C-5 16.375 -5 16.375 -6.7890625 15.1640625 C-8.39038277 12.79824094 -8.40035579 11.21484842 -8.375 8.375 C-8.38273438 7.50875 -8.39046875 6.6425 -8.3984375 5.75 C-8 3.375 -8 3.375 -6.7890625 1.5859375 C-4.42324094 -0.01538277 -2.83984842 -0.02535579 0 0 Z " fill="#0F0A16" transform="translate(8,-0.375)"/>
<path d="M0 0 C3.625 -0.1875 3.625 -0.1875 7 0 C6.814375 1.2375 6.62875 2.475 6.4375 3.75 C6.05288777 6.76279577 5.9125406 9.10010827 7 12 C0.57472739 12.48492623 0.57472739 12.48492623 -2 10.3125 C-3.26977481 7.37614576 -3.00200587 6.00601761 -2 3 C-1.34 2.01 -0.68 1.02 0 0 Z " fill="#918F94" transform="translate(6,2)"/>
<path d="M0 0 C1.65 0 3.3 0 5 0 C3.68 2.64 2.36 5.28 1 8 C0.01 7.01 -0.98 6.02 -2 5 C-1.34 3.35 -0.68 1.7 0 0 Z " fill="#140F1A" transform="translate(6,4)"/>
</svg>
