<?xml version="1.0" encoding="UTF-8"?>
<svg version="1.1" xmlns="http://www.w3.org/2000/svg" width="128" height="128">
<path d="M0 0 C42.24 0 84.48 0 128 0 C128 42.24 128 84.48 128 128 C85.76 128 43.52 128 0 128 C0 85.76 0 43.52 0 0 Z " fill="#D50505" transform="translate(0,0)"/>
<path d="M0 0 C7.24601522 5.85816956 11.74783673 13.14690327 13.75 22.25 C14.39752599 29.62122166 14.12807773 37.04826055 14 44.4375 C13.97990364 46.45896667 13.96165842 48.48045264 13.9453125 50.50195312 C13.90156707 55.4184511 13.83271258 60.33400951 13.75 65.25 C8.14 65.25 2.53 65.25 -3.25 65.25 C-3.26401855 63.34323486 -3.26401855 63.34323486 -3.27832031 61.39794922 C-3.3182865 56.66761638 -3.38406414 51.93792938 -3.45751953 47.20800781 C-3.48569066 45.16349605 -3.50692435 43.11887616 -3.52099609 41.07421875 C-3.54247887 38.12964678 -3.5891569 35.18636959 -3.640625 32.2421875 C-3.64185364 31.3325827 -3.64308228 30.42297791 -3.64434814 29.48580933 C-3.77193383 23.91849925 -4.5344093 20.66237082 -8.25 16.25 C-13.52071862 11.49349783 -17.60999398 10.8957849 -24.5234375 10.96875 C-29.6523045 11.49780218 -32.2779787 14.14662447 -35.5625 17.875 C-37.78538333 21.00350247 -38.37806596 22.64979419 -38.45532227 26.42431641 C-38.47526749 27.28505768 -38.49521271 28.14579895 -38.51576233 29.03262329 C-38.54083107 30.4279982 -38.54083107 30.4279982 -38.56640625 31.8515625 C-38.58718735 32.80316254 -38.60796844 33.75476257 -38.62937927 34.73519897 C-38.69488133 37.78172432 -38.7537628 40.82833743 -38.8125 43.875 C-38.85568459 45.93750916 -38.89929886 48.00000937 -38.94335938 50.0625 C-39.0505634 55.12490954 -39.15182902 60.18740755 -39.25 65.25 C-44.86 65.25 -50.47 65.25 -56.25 65.25 C-56.37465773 59.20352488 -56.46483444 53.15781634 -56.5246582 47.11035156 C-56.5496263 45.05813548 -56.5836132 43.0060067 -56.62719727 40.95410156 C-56.94103069 25.78671699 -56.63756466 13.79878434 -45.5703125 2.2265625 C-32.00072509 -9.33271567 -14.60586453 -10.08631399 0 0 Z " fill="#FDF9F9" transform="translate(85.25,34.75)"/>
</svg>
