<?xml version="1.0" encoding="UTF-8"?>
<svg version="1.1" xmlns="http://www.w3.org/2000/svg" width="225" height="225">
<path d="M0 0 C74.25 0 148.5 0 225 0 C225 74.25 225 148.5 225 225 C150.75 225 76.5 225 0 225 C0 150.75 0 76.5 0 0 Z " fill="#231A8C" transform="translate(0,0)"/>
<path d="M0 0 C2.12009066 1.0056146 2.12009066 1.0056146 4.62109375 1.33203125 C11.80954306 2.98220986 17.28713301 10.99817088 21.10546875 16.90234375 C27.50880455 27.45156815 29.75591174 39.22769396 27.44921875 51.3515625 C25.10591501 60.53286897 21.48610772 71.56774471 13.10546875 76.90234375 C11.77422198 77.57316732 10.44088214 78.23985352 9.10546875 78.90234375 C7.76385349 79.84904806 6.43102503 80.80828177 5.10546875 81.77734375 C-4.50757798 88.16963005 -14.29445076 89.55486443 -25.64453125 89.40234375 C-27.39443359 89.42554688 -27.39443359 89.42554688 -29.1796875 89.44921875 C-36.21693719 89.41733993 -40.89155309 88.62833019 -46.89453125 84.90234375 C-46.83305908 85.5780542 -46.77158691 86.25376465 -46.70825195 86.94995117 C-46.19400849 93.46214941 -47.6607649 97.0604597 -51.484375 102.28515625 C-51.94972656 102.81882812 -52.41507813 103.3525 -52.89453125 103.90234375 C-53.22453125 103.90234375 -53.55453125 103.90234375 -53.89453125 103.90234375 C-54.22453125 95.65234375 -54.55453125 87.40234375 -54.89453125 78.90234375 C-55.22453125 87.48234375 -55.55453125 96.06234375 -55.89453125 104.90234375 C-59.85453125 104.90234375 -63.81453125 104.90234375 -67.89453125 104.90234375 C-67.9195874 103.43369873 -67.94464355 101.96505371 -67.97045898 100.4519043 C-68.06450987 95.0118715 -68.16473632 89.57196709 -68.2668457 84.13208008 C-68.31020333 81.7759908 -68.35187779 79.41986992 -68.3918457 77.0637207 C-68.44952801 73.68040437 -68.51322856 70.29724718 -68.578125 66.9140625 C-68.59483749 65.85773117 -68.61154999 64.80139984 -68.62876892 63.71305847 C-68.64871414 62.73226822 -68.66865936 61.75147797 -68.68920898 60.7409668 C-68.70475327 59.8771489 -68.72029755 59.01333099 -68.73631287 58.12333679 C-68.81462864 55.7286895 -68.81462864 55.7286895 -69.89453125 52.90234375 C-70.78316032 42.47045129 -71.76486122 29.10644136 -65.89453125 19.90234375 C-64.5692573 19.53828628 -63.23512874 19.2051428 -61.89453125 18.90234375 C-60.46260645 17.09619778 -60.46260645 17.09619778 -59.26953125 14.83984375 C-53.46425151 5.66516799 -43.72293538 -0.79376536 -33.359375 -3.84375 C-21.74068882 -6.44762866 -10.68321109 -5.31154022 0 0 Z " fill="#CBA96D" transform="translate(133.89453125,65.09765625)"/>
<path d="M0 0 C6.57977743 5.21255095 11.20918442 12.71119579 12.21875 21.07421875 C12.69743573 29.87951675 9.94090835 38.05510882 4.6171875 45.1171875 C-2.9259292 52.30946156 -10.87866525 55.16815604 -21.30078125 54.92578125 C-29.01298414 54.24049383 -35.60914733 51.19821785 -41.0703125 45.6796875 C-47.74650146 36.49267095 -48.95960953 28.97254154 -48.0703125 17.6796875 C-45.7550966 8.5747711 -41.21679765 2.94510656 -33.35546875 -2.02734375 C-22.83713388 -7.97874348 -9.95949145 -6.35152473 0 0 Z " fill="#231A8C" transform="translate(131.0703125,82.3203125)"/>
<path d="M0 0 C9.67542503 7.12419356 16.6646603 16.27036934 18.54296875 28.421875 C19.63139018 39.55589096 16.86809468 50.36932811 10.23046875 59.4296875 C4.17714658 66.57597062 -4.0249127 72.76533805 -13.45703125 74.421875 C-27.64262458 75.23605916 -38.18537357 73.81817889 -49.45703125 64.421875 C-57.13388036 57.28257331 -61.79773578 47.22746239 -62.67578125 36.83203125 C-63.08825065 24.57825273 -58.81980071 14.43148202 -50.57421875 5.34765625 C-36.95933854 -7.35772792 -15.89780876 -10.21099323 0 0 Z M-44.45703125 13.421875 C-51.13755121 22.61485138 -52.33549586 30.123844 -51.45703125 41.421875 C-49.33787171 50.05975355 -44.99106763 56.00604059 -37.45703125 60.734375 C-30.14105578 65.08966664 -21.79237187 65.67346295 -13.54296875 63.73828125 C-4.3691964 60.69299318 0.51638928 56.86063832 4.91796875 48.234375 C8.38294658 40.86898095 10.12106866 34.05794612 7.859375 25.98046875 C4.219903 17.29708121 -0.90002859 10.56614884 -9.45703125 6.421875 C-21.55900363 1.62675387 -35.27493564 4.1433288 -44.45703125 13.421875 Z " fill="#CCAA6C" transform="translate(134.45703125,72.578125)"/>
<path d="M0 0 C0.495 1.485 0.495 1.485 1 3 C2.63312763 4.31739299 2.63312763 4.31739299 4.625 5.5625 C9.69035616 9.23896818 12.83234339 13.65107099 16 19 C16.43699219 19.72574219 16.87398438 20.45148438 17.32421875 21.19921875 C22.15402485 30.90967101 21.45526669 44.43513846 18.4375 54.625 C16.5628236 59.43981636 13.90010124 63.20502472 10.48828125 67.0625 C8.87542461 68.87684119 8.87542461 68.87684119 8.55859375 71.03125 C7.27965323 75.53884454 1.84094458 77.83884189 -2 80 C-11.46892864 84.2400033 -20.81271382 84.74960731 -31 84 C-31.99 83.505 -31.99 83.505 -33 83 C-33 82.34 -33 81.68 -33 81 C-33.54527344 80.85304688 -34.09054688 80.70609375 -34.65234375 80.5546875 C-44.92928659 77.49795578 -52.75653786 71.74628792 -59 63 C-66.14214744 49.76132969 -66.9779601 35.92286036 -62.8515625 21.48046875 C-62.43003906 20.25263672 -62.43003906 20.25263672 -62 19 C-61.71898438 18.16984375 -61.43796875 17.3396875 -61.1484375 16.484375 C-56.50132824 6.43144477 -46.5293503 -0.16325167 -36.4375 -3.875 C-24.15680884 -7.10472508 -11.30316551 -5.65158276 0 0 Z M-52 11 C-60.2801773 20.96428115 -64.14802215 30.99454911 -63 44 C-60.66056201 55.73946895 -55.11008203 66.21958571 -45 73 C-34.30809992 79.17679628 -22.96773392 80.83105022 -10.82421875 78.3515625 C-0.92347352 75.07465389 8.13232444 68.05882701 13.18359375 58.83984375 C18.24047749 48.04071108 19.97057087 36.98057973 16.03125 25.47265625 C11.58177394 14.80402615 4.58998269 6.71733398 -5.98046875 1.7890625 C-6.64691406 1.52867188 -7.31335938 1.26828125 -8 1 C-8.89976563 0.64421875 -9.79953125 0.2884375 -10.7265625 -0.078125 C-25.96396354 -4.36932625 -40.91929623 -0.00519642 -52 11 Z " fill="#21188B" transform="translate(135,68)"/>
<path d="M0 0 C2.4375 1.5625 2.4375 1.5625 4 4 C3.9375 7.625 3.9375 7.625 3 11 C-0.49124017 13.32749345 -1.89222251 13.50299316 -6 13 C-8.4375 11.375 -8.4375 11.375 -10 9 C-9.93498241 5.81413804 -9.51914046 3.81969546 -7.8125 1.125 C-5.05655076 -0.58558918 -3.17374516 -0.45339217 0 0 Z " fill="#C8A66D" transform="translate(158,56)"/>
<path d="M0 0 C0 0.66 0 1.32 0 2 C-1.7015625 1.505 -1.7015625 1.505 -3.4375 1 C-12.30364258 -0.96713148 -22.61353746 -1.07741528 -31.4375 1.125 C-33.2009375 1.558125 -33.2009375 1.558125 -35 2 C-35.66 1.34 -36.32 0.68 -37 0 C-25.90583435 -4.47659316 -10.64388247 -7.09592165 0 0 Z " fill="#B29472" transform="translate(130,64)"/>
<path d="M0 0 C0 0.99 0 1.98 0 3 C-1.16015625 3.14695313 -1.16015625 3.14695313 -2.34375 3.296875 C-9.06444868 4.26172778 -14.06040828 5.7602227 -20 9 C-20.99 9 -21.98 9 -23 9 C-22 6 -22 6 -19.70703125 4.6484375 C-12.98294572 1.69020284 -7.41494994 -0.21808676 0 0 Z " fill="#BA9B70" transform="translate(110,55)"/>
<path d="M0 0 C-1 3 -1 3 -2.63671875 4.09765625 C-9.67739276 7.41012574 -15.1669525 9.27010509 -23 9 C-23 8.34 -23 7.68 -23 7 C-22.2265625 6.82984375 -21.453125 6.6596875 -20.65625 6.484375 C-14.16645744 4.97437376 -6.29553483 0 0 0 Z " fill="#C3A26E" transform="translate(140,149)"/>
<path d="M0 0 C-0.70125 0.40089844 -1.4025 0.80179687 -2.125 1.21484375 C-9.02983569 5.35211622 -13.9160638 9.81294557 -19 16 C-19.98645782 17.01336122 -20.98154325 18.01880387 -22 19 C-21.15887901 13.07112278 -18.3098889 9.98702266 -14 6 C-4.16017131 -1.38672377 -4.16017131 -1.38672377 0 0 Z " fill="#BC9C70" transform="translate(95,66)"/>
<path d="M0 0 C-8.15824552 5.43883034 -15.47138847 5.22237211 -25 4 C-25 3.67 -25 3.34 -25 3 C-23.37191406 2.81824219 -23.37191406 2.81824219 -21.7109375 2.6328125 C-20.26558596 2.46387531 -18.82027558 2.29458575 -17.375 2.125 C-16.66214844 2.04636719 -15.94929688 1.96773437 -15.21484375 1.88671875 C-11.82585984 1.48252801 -8.91764982 0.97203565 -5.6640625 -0.1328125 C-3 -1 -3 -1 0 0 Z " fill="#C0A06F" transform="translate(134,149)"/>
<path d="M0 0 C1.23608129 2.47216257 0.91510446 3.44220669 0.44140625 6.1328125 C0.30283203 6.93847656 0.16425781 7.74414062 0.02148438 8.57421875 C-0.20571289 9.83685547 -0.20571289 9.83685547 -0.4375 11.125 C-0.58509766 11.97449219 -0.73269531 12.82398437 -0.88476562 13.69921875 C-1.25071842 15.80049611 -1.62461468 17.90038721 -2 20 C-2.33 20 -2.66 20 -3 20 C-3.08139142 17.60347472 -3.14067009 15.20974564 -3.1875 12.8125 C-3.22520508 11.80219727 -3.22520508 11.80219727 -3.26367188 10.77148438 C-3.32923478 6.29135252 -2.66743649 3.60559001 0 0 Z " fill="#0A058D" transform="translate(73,94)"/>
<path d="M0 0 C4.95 0 9.9 0 15 0 C15 0.33 15 0.66 15 1 C13.35 1.33 11.7 1.66 10 2 C10 2.33 10 2.66 10 3 C4.06 3.495 4.06 3.495 -2 4 C-1.34 2.68 -0.68 1.36 0 0 Z " fill="#160F8D" transform="translate(105,63)"/>
<path d="M0 0 C2.27700057 2.27700057 2.52101692 3.41313098 3.1875 6.5 C3.36667969 7.2940625 3.54585938 8.088125 3.73046875 8.90625 C4 11 4 11 3 13 C2.34 13 1.68 13 1 13 C0.63447197 11.58622218 0.28304505 10.16879424 -0.0625 8.75 C-0.25972656 7.96109375 -0.45695312 7.1721875 -0.66015625 6.359375 C-1.01497267 3.89605178 -0.76877544 2.34395868 0 0 Z " fill="#2C218A" transform="translate(71,110)"/>
<path d="M0 0 C2.90802461 2.21928194 4.95312762 3.92969143 7 7 C7 7.99 7 8.98 7 10 C3.46766245 8.82255415 3.13691925 8.04394359 1.3125 4.9375 C0.87550781 4.20402344 0.43851563 3.47054687 -0.01171875 2.71484375 C-0.50091797 1.86599609 -0.50091797 1.86599609 -1 1 C-0.67 0.67 -0.34 0.34 0 0 Z " fill="#1B148C" transform="translate(143,78)"/>
<path d="M0 0 C0.66 0.99 1.32 1.98 2 3 C-2.40914783 4.10228696 -6.48382401 4.07654536 -11 4 C-10.67 3.01 -10.34 2.02 -10 1 C-6.7 0.67 -3.4 0.34 0 0 Z " fill="#2D238B" transform="translate(120,63)"/>
<path d="M0 0 C0.66 0.33 1.32 0.66 2 1 C2 1.66 2 2.32 2 3 C2.66 3.33 3.32 3.66 4 4 C2.51153846 8.71346154 2.51153846 8.71346154 -0.078125 10.1640625 C-1.02945313 10.57785156 -1.02945313 10.57785156 -2 11 C-1.855625 10.37351562 -1.71125 9.74703125 -1.5625 9.1015625 C-1.376875 8.28429687 -1.19125 7.46703125 -1 6.625 C-0.814375 5.81289062 -0.62875 5.00078125 -0.4375 4.1640625 C0.06605239 2.04125049 0.06605239 2.04125049 0 0 Z " fill="#362A88" transform="translate(73,85)"/>
<path d="M0 0 C-3.63 2.31 -7.26 4.62 -11 7 C-11 6.01 -11 5.02 -11 4 C-9.35546875 2.578125 -9.35546875 2.578125 -7.1875 1.25 C-6.47980469 0.80140625 -5.77210937 0.3528125 -5.04296875 -0.109375 C-3 -1 -3 -1 0 0 Z " fill="#C8A66D" transform="translate(95,66)"/>
<path d="M0 0 C-0.66 0 -1.32 0 -2 0 C-2 0.66 -2 1.32 -2 2 C-6.29 1.67 -10.58 1.34 -15 1 C-15 0.67 -15 0.34 -15 0 C-13.25093341 -0.19601608 -11.50068154 -0.38147403 -9.75 -0.5625 C-8.77546875 -0.66691406 -7.8009375 -0.77132812 -6.796875 -0.87890625 C-4.2368648 -0.98974468 -2.41851841 -0.77738092 0 0 Z " fill="#B39572" transform="translate(124,152)"/>
<path d="M0 0 C1.5625 1.75 1.5625 1.75 3 4 C2.6875 6.25 2.6875 6.25 2 8 C1.01 7.67 0.02 7.34 -1 7 C-0.67 4.69 -0.34 2.38 0 0 Z " fill="#312589" transform="translate(152,112)"/>
<path d="M0 0 C-1 3 -1 3 -4 5 C-4.99 5 -5.98 5 -7 5 C-6 2 -6 2 -4.0625 0.8125 C-2 0 -2 0 0 0 Z " fill="#C7A66D" transform="translate(94,59)"/>
<path d="M0 0 C1.27351308 2.54702616 0.80191925 3.4282945 0.0625 6.125 C-0.13214844 6.84945312 -0.32679687 7.57390625 -0.52734375 8.3203125 C-0.68332031 8.87460938 -0.83929688 9.42890625 -1 10 C-2.125 8.3125 -2.125 8.3125 -3 6 C-1.7 1.7 -1.7 1.7 0 0 Z " fill="#1B138C" transform="translate(73,94)"/>
</svg>
