<?xml version="1.0" encoding="UTF-8"?>
<svg version="1.1" xmlns="http://www.w3.org/2000/svg" width="512" height="512">
<path d="M0 0 C168.96 0 337.92 0 512 0 C512 168.96 512 337.92 512 512 C343.04 512 174.08 512 0 512 C0 343.04 0 174.08 0 0 Z " fill="#FEFEFE" transform="translate(0,0)"/>
<path d="M0 0 C1.06710718 -0.01541232 2.13421437 -0.03082464 3.23365813 -0.04670399 C6.81557172 -0.09316222 10.39703877 -0.11090365 13.97920227 -0.12846375 C16.54497834 -0.1551617 19.11073905 -0.1833713 21.67648315 -0.21298218 C29.3792481 -0.29667039 37.08205325 -0.34160369 44.78515193 -0.38122562 C47.68768093 -0.39670154 50.59019277 -0.41459038 53.49270725 -0.43255991 C66.29296672 -0.51164745 79.09323259 -0.57908922 91.89369488 -0.61391926 C95.02441116 -0.62257813 98.15512724 -0.63130088 101.2858429 -0.6401825 C102.45297858 -0.6434784 102.45297858 -0.6434784 103.64369277 -0.64684089 C116.24716019 -0.68439266 128.84893767 -0.79362395 141.45165195 -0.93272636 C154.39956797 -1.07446869 167.34662389 -1.1519703 180.29531795 -1.16677254 C187.56253035 -1.17667151 194.82722693 -1.21450588 202.09367943 -1.3242588 C208.93132531 -1.42731988 215.76442503 -1.44321839 222.60269737 -1.4005909 C225.10940993 -1.39888302 227.61633871 -1.42619488 230.12236404 -1.48491287 C248.47956181 -1.89110396 248.47956181 -1.89110396 253.57724404 2.27856469 C257.37361783 6.67709785 260.38555042 11.85030184 261.51948547 17.59541321 C260.98391247 20.18137646 260.98391247 20.18137646 259.51948547 22.59541321 C258.87027211 23.77858157 258.22190417 24.96221403 257.57417297 26.14619446 C256.85092522 27.40201556 256.12429331 28.65589305 255.39448547 29.90791321 C255.02194641 30.55308899 254.64940735 31.19826477 254.26557922 31.86299133 C253.35316334 33.44217266 252.43673038 35.01903185 251.51948547 36.59541321 C249.6555941 36.59623036 249.6555941 36.59623036 247.75404835 36.59706402 C218.2648532 36.61110473 188.77580894 36.65084117 159.28670271 36.72226883 C155.65799857 36.7310357 152.02929396 36.73958549 148.40058899 36.7480011 C147.31696316 36.75051969 147.31696316 36.75051969 146.21144589 36.75308917 C134.5104036 36.77976723 122.8094103 36.78885482 111.10834072 36.79145464 C99.10412625 36.79451287 87.10005355 36.81644439 75.0959031 36.85593778 C68.35239088 36.8775812 61.60909631 36.89046656 54.86554909 36.881567 C48.52156524 36.87404916 42.17806783 36.88975804 35.8341732 36.92347336 C33.50291757 36.93173391 31.17161381 36.93142472 28.84036255 36.92201042 C25.66233476 36.91044469 22.48591616 36.92942236 19.30801392 36.95617676 C18.38096864 36.9455035 17.45392336 36.93483024 16.49878579 36.92383355 C12.00899742 36.99457341 10.13304993 37.10900287 6.51103497 39.98039722 C4.61301397 42.47260506 2.96098815 44.90404204 1.44136047 47.64228821 C0.92057922 48.56912415 0.39979797 49.49596008 -0.13676453 50.45088196 C-0.66270203 51.40607727 -1.18863953 52.36127258 -1.73051453 53.34541321 C-2.79703607 55.25753398 -3.86468266 57.16902782 -4.93363953 59.07978821 C-5.63215027 60.34387512 -5.63215027 60.34387512 -6.34477234 61.63349915 C-7.48051453 63.59541321 -7.48051453 63.59541321 -8.48051453 64.59541321 C-11.58302653 64.68415456 -14.66319573 64.71059776 -17.76567078 64.69306946 C-18.69648972 64.69165451 -19.62730865 64.69023956 -20.58633423 64.68878174 C-23.57192644 64.68316493 -26.55744482 64.6706096 -29.54301453 64.65791321 C-31.56189365 64.65290037 -33.58077395 64.64833709 -35.59965515 64.64424133 C-40.55997024 64.63319004 -45.52022985 64.61591416 -50.48051453 64.59541321 C-49.75022034 63.31875793 -49.75022034 63.31875793 -49.00517273 62.01631165 C-45.52352243 55.92772941 -42.04719856 49.83626438 -38.58598328 43.73603821 C-26.46118782 22.38834246 -26.46118782 22.38834246 -20.29301453 12.09541321 C-19.87237732 11.37901672 -19.45174011 10.66262024 -19.01835632 9.92451477 C-18.4214801 8.94176575 -18.4214801 8.94176575 -17.81254578 7.93916321 C-17.47972595 7.3842218 -17.14690613 6.8292804 -16.80400085 6.25752258 C-11.88688322 0.0823267 -7.43319697 -0.00041209 0 0 Z " fill="#FCB713" transform="translate(150.4805145263672,223.4045867919922)"/>
<path d="M0 0 C1.36238621 -0.00128164 1.36238621 -0.00128164 2.75229537 -0.00258917 C5.81403976 -0.00424418 8.87573009 0.00127777 11.93746948 0.00672913 C14.12492878 0.00701102 16.31238817 0.00685322 18.49984741 0.00628662 C24.45409277 0.00599873 30.40831814 0.01189413 36.36255884 0.01886058 C42.57924963 0.02509549 48.79594084 0.02569802 55.01263428 0.02688599 C65.45210104 0.02964482 75.89156094 0.03589865 86.33102417 0.04481506 C97.08493004 0.05399051 107.83883392 0.06107069 118.59274292 0.06532288 C119.58662428 0.06571696 119.58662428 0.06571696 120.60058405 0.06611901 C123.92450658 0.06742402 127.24842913 0.06868548 130.57235169 0.06993091 C158.15874374 0.08039439 185.74512758 0.09799305 213.33151245 0.12025452 C212.95970635 0.75718892 212.58790026 1.39412333 212.20482731 2.05035877 C209.28543076 7.20320612 206.87366415 12.20471742 204.92097473 17.80108643 C201.93218755 25.44735042 198.78630264 31.96305066 192.33151245 37.12025452 C180.8787401 42.10277756 166.046682 40.04364547 153.91910291 39.53031564 C148.82846825 39.34618125 143.73720498 39.3219811 138.64375305 39.28338623 C129.00997159 39.1888095 119.38348818 38.97298741 109.75316423 38.70308799 C92.49671377 38.22051544 75.23823471 37.88571208 57.97622913 37.68549985 C51.92268532 37.60967997 45.87660162 37.46120089 39.82620728 37.25321162 C36.06444175 37.13546724 32.30303371 37.07078793 28.53983879 37.01908112 C26.79938364 36.98367695 25.05921502 36.92567446 23.32035828 36.84312248 C18.05403936 36.59929299 13.39841416 36.54906906 8.33151245 38.12025452 C4.44754482 42.05221214 2.42580238 45.98551448 0.33151245 51.12025452 C0.00490159 51.86654617 -0.32170927 52.61283783 -0.65821743 53.38174438 C-1.0471195 54.28424171 -1.0471195 54.28424171 -1.44387817 55.20497131 C-3.10287501 59.02189596 -4.52076026 61.36275474 -7.66848755 64.12025452 C-14.55967106 66.23423479 -22.07821272 65.33675711 -29.16848755 64.93275452 C-31.15527807 64.86748906 -33.14227386 64.80818314 -35.12942505 64.75502014 C-39.98087134 64.61228039 -44.8224199 64.38838752 -49.66848755 64.12025452 C-43.55583036 52.78540522 -37.10594515 41.65372406 -30.63772583 30.5191803 C-28.7406541 27.24481473 -26.85790717 23.96256446 -24.9770813 20.67884827 C-23.83311781 18.70065525 -22.68861333 16.72277494 -21.54348755 14.74525452 C-21.02391479 13.83090637 -20.50434204 12.91655823 -19.96902466 11.97450256 C-14.67434716 2.89482631 -10.49522091 -0.0356319 0 0 Z " fill="#FCB816" transform="translate(179.66848754882813,273.87974548339844)"/>
<path d="M0 0 C1.53835875 -0.03281844 3.07745377 -0.03773112 4.61607647 -0.02145576 C5.88763963 -0.03738909 5.88763963 -0.03738909 7.18489093 -0.0536443 C10.03639366 -0.0830443 12.88668376 -0.07650956 15.73831463 -0.07007027 C17.77827125 -0.08338867 19.81821526 -0.09877843 21.8581419 -0.11609077 C27.40786803 -0.15606597 32.95719301 -0.16359173 38.50704694 -0.16297483 C43.13683768 -0.16475218 47.76653946 -0.18066165 52.39630145 -0.19609654 C63.31862831 -0.23165019 74.24074518 -0.23937474 85.16311932 -0.23120308 C96.43617761 -0.22336193 107.70821651 -0.26731562 118.98104554 -0.33600414 C128.65336182 -0.39282263 138.3253476 -0.41494409 147.99782866 -0.40976918 C153.77747544 -0.40718893 159.5562817 -0.41842831 165.33576679 -0.46401787 C170.77238242 -0.50559758 176.20729119 -0.50397174 181.64393711 -0.46905708 C183.63939655 -0.46354657 185.63496643 -0.47341287 187.63025951 -0.49976158 C202.72556028 -0.68573323 202.72556028 -0.68573323 206.87024975 2.59831429 C208.44956126 4.91789787 209.44612954 7.0118863 210.3992033 9.64037895 C211.07837811 10.75992973 211.75755291 11.87948051 212.45730877 13.03295708 C213.05430584 14.0687188 213.65130291 15.10448051 214.2663908 16.17162895 C214.92381268 17.3111602 215.58123455 18.45069145 216.2585783 19.62475395 C216.58922283 20.20160942 216.91986736 20.77846489 217.26053143 21.37280083 C218.28973067 23.16745461 219.32462051 24.95874139 220.3601408 26.74975395 C225.3992033 35.50812449 225.3992033 35.50812449 225.3992033 36.64037895 C143.2292033 36.64037895 61.0592033 36.64037895 -23.6007967 36.64037895 C-22.00992171 32.66319148 -20.36424159 29.31616189 -18.22970295 25.64037895 C-17.57292561 24.50600395 -16.91614826 23.37162895 -16.23946857 22.20287895 C-15.5474541 21.015354 -14.85539643 19.82785422 -14.1632967 18.64037895 C-13.47484776 17.45305163 -12.78669397 16.26555313 -12.09884357 15.07787895 C-10.27190936 11.9286094 -8.44239412 8.781096 -6.6007967 5.64037895 C-6.24050027 4.76973242 -5.88020384 3.89908588 -5.50898933 3.00205612 C-3.6007967 0.64037895 -3.6007967 0.64037895 0 0 Z " fill="#FCB713" transform="translate(167.60079669952393,173.35962104797363)"/>
<path d="M0 0 C1.01096207 -0.00512655 1.01096207 -0.00512655 2.04234761 -0.01035666 C4.29365799 -0.01692899 6.54376772 0.00502769 8.79496765 0.0269165 C10.41144787 0.02804513 12.02793015 0.02741082 13.64440918 0.02514648 C18.02845069 0.023999 22.41205429 0.04751376 26.79599404 0.07544231 C31.37905929 0.10045026 35.96213462 0.10279749 40.54525757 0.10754395 C49.22209985 0.11997551 57.89874049 0.15279956 66.57549399 0.1929419 C76.45447451 0.23765399 86.33346467 0.25964524 96.2125212 0.27972364 C116.53267773 0.32153203 136.85265276 0.39188762 157.1726532 0.48101807 C156.88206717 1.05247496 156.59148113 1.62393185 156.29208946 2.21270561 C155.88274477 3.02383875 155.47340008 3.83497189 155.051651 4.67068481 C154.59033154 5.58471951 154.12901207 6.4987542 153.65371323 7.44048691 C152.66190379 9.47661471 151.71219519 11.53376334 150.80459976 13.60879898 C142.28474007 33.00310602 142.28474007 33.00310602 134.28061676 36.88283539 C126.03344082 39.02183027 117.6292294 38.42445292 109.1960907 38.03570557 C106.49426268 37.98952439 103.79270614 37.98216558 101.0905304 37.97421265 C94.73527627 37.93428129 88.38996635 37.77023226 82.03840029 37.5572511 C73.40559286 37.2736428 64.77093777 37.16636501 56.13449025 37.05545259 C54.05553881 37.02868311 51.97659683 37.00130875 49.8976593 36.97348022 C49.22360192 36.96456949 48.54954454 36.95565876 47.85506117 36.94647801 C43.22035403 36.88056699 38.58853136 36.7646213 33.95521545 36.62991333 C32.7280481 36.59898087 31.50088074 36.5680484 30.23652649 36.53617859 C27.94746193 36.47737949 25.65865795 36.40675276 23.3704071 36.32200623 C16.23917185 36.04892565 16.23917185 36.04892565 10.1726532 39.48101807 C8.25624485 42.01624783 8.25624485 42.01624783 6.6570282 44.98883057 C5.74050476 46.59177979 5.74050476 46.59177979 4.8054657 48.22711182 C4.18413757 49.34215088 3.56280945 50.45718994 2.9226532 51.60601807 C1.66838582 53.8174895 0.41322681 56.02845557 -0.8429718 58.23883057 C-1.39243469 59.21996826 -1.94189758 60.20110596 -2.50801086 61.2119751 C-3.8273468 63.48101807 -3.8273468 63.48101807 -4.8273468 64.48101807 C-7.92985881 64.56975941 -11.010028 64.59620262 -14.11250305 64.57867432 C-15.04332199 64.57725937 -15.97414093 64.57584442 -16.9331665 64.5743866 C-19.91875871 64.56876979 -22.9042771 64.55621446 -25.8898468 64.54351807 C-27.90872593 64.53850523 -29.92760623 64.53394195 -31.94648743 64.52984619 C-36.90680252 64.5187949 -41.86706213 64.50151902 -46.8273468 64.48101807 C-46.09705261 63.20436279 -46.09705261 63.20436279 -45.352005 61.9019165 C-41.8703547 55.81333427 -38.39403083 49.72186924 -34.93281555 43.62164307 C-22.80802009 22.27394732 -22.80802009 22.27394732 -16.6398468 11.98101807 C-16.21920959 11.26462158 -15.79857239 10.5482251 -15.3651886 9.81011963 C-14.76831238 8.82737061 -14.76831238 8.82737061 -14.15937805 7.82476807 C-13.82655823 7.26982666 -13.4937384 6.71488525 -13.15083313 6.14312744 C-9.29733493 1.30368532 -6.12454347 -0.01874382 0 0 Z " fill="#FCB713" transform="translate(205.8273468017578,324.51898193359375)"/>
<path d="M0 0 C49.17 0 98.34 0 149 0 C153.29 7.59 157.58 15.18 162 23 C164.64 27.62 167.28 32.24 170 37 C106.97 37 43.94 37 -21 37 C-19.42153957 33.05384892 -17.84422872 29.88274959 -15.6640625 26.2890625 C-15.01179687 25.20882812 -14.35953125 24.12859375 -13.6875 23.015625 C-12.6665625 21.33726562 -12.6665625 21.33726562 -11.625 19.625 C-10.28320865 17.40924494 -8.94204556 15.19310929 -7.6015625 12.9765625 C-7.00682129 11.99768066 -6.41208008 11.01879883 -5.79931641 10.01025391 C-3.82081244 6.70021946 -1.91324491 3.3481786 0 0 Z " fill="#FCB818" transform="translate(194,123)"/>
<path d="M0 0 C1.02104551 0.97850195 2.0206121 1.97980427 3 3 C3 3.33 3 3.66 3 4 C-79.17 4 -161.34 4 -246 4 C-245.67 3.01 -245.34 2.02 -245 1 C-164.15 1.33 -83.3 1.66 0 2 C0 1.34 0 0.68 0 0 Z " fill="#F8BC2B" transform="translate(390,206)"/>
</svg>
