<?xml version="1.0" encoding="UTF-8"?>
<svg version="1.1" xmlns="http://www.w3.org/2000/svg" width="48" height="48">
<path d="M0 0 C1.01126953 -0.02900391 2.02253906 -0.05800781 3.06445312 -0.08789062 C4.5272168 -0.10045898 4.5272168 -0.10045898 6.01953125 -0.11328125 C6.91389893 -0.12786377 7.8082666 -0.14244629 8.72973633 -0.1574707 C12.04561051 0.47658689 13.19064036 1.62293959 15.1875 4.3125 C15.70507812 6.81445313 15.70507812 6.81445313 15.71875 9.59375 C15.72648437 11.10388672 15.72648437 11.10388672 15.734375 12.64453125 C15.71890625 13.68996094 15.7034375 14.73539063 15.6875 15.8125 C15.70296875 16.85792969 15.7184375 17.90335938 15.734375 18.98046875 C15.72921875 19.98722656 15.7240625 20.99398438 15.71875 22.03125 C15.71423828 22.94841797 15.70972656 23.86558594 15.70507812 24.81054688 C15.04280597 28.01194549 13.63821262 29.23170627 11.1875 31.3125 C11.5175 31.6425 11.8475 31.9725 12.1875 32.3125 C12.26063567 34.84299402 12.27997527 37.34554837 12.25 39.875 C12.24548828 40.58591797 12.24097656 41.29683594 12.23632812 42.02929688 C12.22450864 43.79040013 12.20657263 45.55146036 12.1875 47.3125 C9.85586164 48.47831918 8.46596518 48.44155609 5.87109375 48.4453125 C4.60168945 48.44724609 4.60168945 48.44724609 3.30664062 48.44921875 C2.42169922 48.44535156 1.53675781 48.44148438 0.625 48.4375 C-0.26380859 48.44136719 -1.15261719 48.44523437 -2.06835938 48.44921875 C-2.91333984 48.44792969 -3.75832031 48.44664063 -4.62890625 48.4453125 C-5.79595093 48.44362061 -5.79595093 48.44362061 -6.98657227 48.44189453 C-8.8125 48.3125 -8.8125 48.3125 -9.8125 47.3125 C-11.14031878 47.10645915 -12.47545895 46.9462041 -13.8125 46.8125 C-17.70138889 46.42361111 -17.70138889 46.42361111 -18.8125 45.3125 C-20.71044627 45.11948852 -22.60915574 44.92944579 -24.51171875 44.7890625 C-27.56939138 44.15572454 -30.04711236 42.73596905 -32.8125 41.3125 C-32.91136835 36.52537067 -32.98396623 31.73883525 -33.03222656 26.95092773 C-33.05234381 25.32224171 -33.07964137 23.69362792 -33.11425781 22.06518555 C-33.16277429 19.72426542 -33.18546632 17.38429982 -33.203125 15.04296875 C-33.23409271 13.95063179 -33.23409271 13.95063179 -33.26568604 12.83622742 C-33.26792983 7.78249794 -33.26792983 7.78249794 -30.91967773 5.35913086 C-28.70381966 4.2585187 -27.08244835 3.8627027 -24.625 3.6875 C-21.02940541 3.7409032 -21.02940541 3.7409032 -19.8125 2.3125 C-17.7552083 1.99326508 -15.69636479 1.80088648 -13.625 1.59375 C-3.57172612 0.03375923 -3.57172612 0.03375923 0 0 Z " fill="#FEFEFE" transform="translate(32.8125,-0.3125)"/>
<path d="M0 0 C2.97 0 5.94 0 9 0 C9.495 1.485 9.495 1.485 10 3 C10.66 3 11.32 3 12 3 C12 7.95 12 12.9 12 18 C9.66836164 19.16581918 8.27846518 19.12905609 5.68359375 19.1328125 C4.41418945 19.13474609 4.41418945 19.13474609 3.11914062 19.13671875 C2.23419922 19.13285156 1.34925781 19.12898438 0.4375 19.125 C-0.45130859 19.12886719 -1.34011719 19.13273437 -2.25585938 19.13671875 C-3.10083984 19.13542969 -3.94582031 19.13414063 -4.81640625 19.1328125 C-5.98345093 19.13112061 -5.98345093 19.13112061 -7.17407227 19.12939453 C-9 19 -9 19 -10 18 C-11.32781878 17.79395915 -12.66295895 17.6337041 -14 17.5 C-17.88888889 17.11111111 -17.88888889 17.11111111 -19 16 C-20.216875 15.87625 -21.43375 15.7525 -22.6875 15.625 C-26.61881158 15.1929099 -29.54980245 13.98386359 -33 12 C-33 10.68 -33 9.36 -33 8 C-32.07380859 7.94392578 -32.07380859 7.94392578 -31.12890625 7.88671875 C-25.83446387 7.47573464 -21.28397669 6.57125887 -16.30078125 4.765625 C-10.97478006 2.99330542 -5.60467696 2 0 2 C0 1.34 0 0.68 0 0 Z " fill="#6B64E3" transform="translate(33,29)"/>
<path d="M0 0 C2.97 0 5.94 0 9 0 C1.89434031 4.73710646 -7.6284396 5.46288661 -16 6 C-13.62526776 3.62526776 -12.37628347 3.4828067 -9.125 2.875 C-7.82949219 2.62363281 -7.82949219 2.62363281 -6.5078125 2.3671875 C-4 2 -4 2 0 2 C0 1.34 0 0.68 0 0 Z " fill="#A9A9F0" transform="translate(33,29)"/>
<path d="M0 0 C3.3 0 6.6 0 10 0 C8.515 1.485 8.515 1.485 7 3 C6.01 4.485 6.01 4.485 5 6 C2.525 5.01 2.525 5.01 0 4 C0 2.68 0 1.36 0 0 Z " fill="#7D7DEB" transform="translate(0,37)"/>
</svg>
