<?xml version="1.0" encoding="UTF-8"?>
<svg version="1.1" xmlns="http://www.w3.org/2000/svg" width="64" height="65">
<path d="M0 0 C0.07462464 5.53179027 0.12882498 11.06328205 0.16479492 16.59545898 C0.17980333 18.4740917 0.20021652 20.35268984 0.22631836 22.23120117 C0.26305386 24.94458593 0.27980607 27.6575041 0.29296875 30.37109375 C0.30845261 31.19959335 0.32393646 32.02809296 0.33988953 32.88169861 C0.34254334 42.25291175 -2.42043274 50.23609142 -9 57 C-15.02399201 62.8859422 -21.46871626 63.63768383 -29.5625 63.75 C-36.29956012 63.65638096 -42.04637054 63.44639117 -47.34375 58.84375 C-48.16359375 57.93109375 -48.16359375 57.93109375 -49 57 C-49.5878125 56.3503125 -50.175625 55.700625 -50.78125 55.03125 C-58.95271723 45.00963924 -58.17939555 32.47618755 -58.1875 20.125 C-58.19974609 19.11953125 -58.21199219 18.1140625 -58.22460938 17.078125 C-58.22654297 16.10617188 -58.22847656 15.13421875 -58.23046875 14.1328125 C-58.23457764 13.26543457 -58.23868652 12.39805664 -58.24291992 11.50439453 C-57.97139365 8.70508146 -57.15417197 6.5519294 -56 4 C-49.90116197 4.41650601 -45.5427091 7.29529149 -40.4375 10.375 C-39.60025391 10.87 -38.76300781 11.365 -37.90039062 11.875 C-35.59449863 13.24064308 -33.29590252 14.61764751 -31 16 C-29.98035156 16.61101563 -28.96070312 17.22203125 -27.91015625 17.8515625 C-27.27980469 18.23054688 -26.64945313 18.60953125 -26 19 C-25.72027344 18.34773438 -25.44054688 17.69546875 -25.15234375 17.0234375 C-21.62158455 9.32615538 -17.94550624 5.11366406 -10.5 1.125 C-6.78322189 -0.06967868 -3.87508578 -0.08303755 0 0 Z " fill="#003280" transform="translate(61,2)"/>
<path d="M0 0 C0 12.21 0 24.42 0 37 C-14.60446247 28.48073022 -14.60446247 28.48073022 -18.6875 25.875 C-19.68136719 25.25367187 -20.67523438 24.63234375 -21.69921875 23.9921875 C-24 22 -24 22 -24.92578125 19.50390625 C-25.07057339 14.61907657 -22.64081949 10.80692714 -19.41796875 7.2578125 C-13.34357514 1.74560881 -8.3318162 0 0 0 Z " fill="#2E6EE1" transform="translate(61,2)"/>
<path d="M0 0 C0 2.64 0 5.28 0 8 C-0.6290625 8.15855469 -1.258125 8.31710937 -1.90625 8.48046875 C-9.19262111 10.46666329 -16.11570697 12.81270893 -20.5 19.3125 C-20.995 20.199375 -21.49 21.08625 -22 22 C-22.99 21.67 -23.98 21.34 -25 21 C-24.73121486 14.54915672 -22.50344492 10.60974941 -18 6 C-12.08671264 1.48135588 -7.51032891 -0.14170432 0 0 Z " fill="#2F87FB" transform="translate(61,2)"/>
<path d="M0 0 C0 2.97 0 5.94 0 9 C-0.79664062 9.17015625 -1.59328125 9.3403125 -2.4140625 9.515625 C-9.3229327 10.94288704 -9.3229327 10.94288704 -15.4375 14.25 C-18 16 -18 16 -20.875 15.75 C-21.57625 15.5025 -22.2775 15.255 -23 15 C-19.33352575 7.93864218 -15.44924097 4.19253184 -8 1 C-5.27116396 0.42274622 -2.78462165 0 0 0 Z " fill="#2E7AEE" transform="translate(61,10)"/>
</svg>
